ISO-10303-21;
HEADER;
/* Generated by software containing ST-Developer
 * from STEP Tools, Inc. (www.steptools.com) 
 */

FILE_DESCRIPTION(
/* description */ (''),
/* implementation_level */ '2;1');

FILE_NAME(
/* name */ 'CLAMP BOX.step',
/* time_stamp */ '2026-06-07T21:09:14+07:00',
/* author */ (''),
/* organization */ (''),
/* preprocessor_version */ 'ST-DEVELOPER v20.1',
/* originating_system */ 'Autodesk Translation Framework v14.24.0.0',
/* authorisation */ '');

FILE_SCHEMA (('AUTOMOTIVE_DESIGN { 1 0 10303 214 3 1 1 }'));
ENDSEC;

DATA;
#10=MECHANICAL_DESIGN_GEOMETRIC_PRESENTATION_REPRESENTATION('',(#13,#14),
#1114);
#11=SHAPE_REPRESENTATION_RELATIONSHIP('SRR','None',#1121,#12);
#12=ADVANCED_BREP_SHAPE_REPRESENTATION('',(#15,#16),#1113);
#13=STYLED_ITEM('',(#1131),#15);
#14=STYLED_ITEM('',(#1131),#16);
#15=MANIFOLD_SOLID_BREP('Body1',#569);
#16=MANIFOLD_SOLID_BREP('Body2',#570);
#17=PLANE('',#587);
#18=PLANE('',#588);
#19=PLANE('',#593);
#20=PLANE('',#599);
#21=PLANE('',#602);
#22=PLANE('',#608);
#23=PLANE('',#609);
#24=PLANE('',#610);
#25=PLANE('',#611);
#26=PLANE('',#615);
#27=PLANE('',#616);
#28=PLANE('',#621);
#29=PLANE('',#629);
#30=PLANE('',#633);
#31=PLANE('',#634);
#32=PLANE('',#635);
#33=PLANE('',#638);
#34=PLANE('',#639);
#35=FACE_BOUND('',#88,.T.);
#36=FACE_BOUND('',#93,.T.);
#37=FACE_BOUND('',#96,.T.);
#38=FACE_BOUND('',#100,.T.);
#39=FACE_BOUND('',#104,.T.);
#40=FACE_BOUND('',#107,.T.);
#41=FACE_BOUND('',#110,.T.);
#42=FACE_BOUND('',#115,.T.);
#43=FACE_BOUND('',#118,.T.);
#44=FACE_BOUND('',#121,.T.);
#45=FACE_BOUND('',#126,.T.);
#46=FACE_BOUND('',#129,.T.);
#47=B_SPLINE_CURVE_WITH_KNOTS('',3,(#810,#811,#812,#813,#814,#815,#816,
#817,#818,#819),.UNSPECIFIED.,.F.,.F.,(4,2,2,2,4),(0.,0.0921089633484844,
0.184217926696969,0.310660246158488,0.437102565620008),.UNSPECIFIED.);
#48=B_SPLINE_CURVE_WITH_KNOTS('',3,(#820,#821,#822,#823,#824,#825,#826,
#827,#828,#829,#830,#831,#832,#833,#834,#835,#836,#837,#838,#839,#840,#841,
#842,#843,#844,#845,#846,#847,#848,#849),.UNSPECIFIED.,.F.,.F.,(4,2,2,2,
2,2,2,2,2,2,2,2,2,2,4),(0.437102565620008,0.587729909778456,0.738357253936903,
0.835986015134252,0.884800395732927,0.933614776331601,0.982429156930275,
1.03124353752895,1.1288722987263,1.27949964288475,1.43012698704319,1.55656930650471,
1.68301162596623,1.77512058931472,1.8672295526632),.UNSPECIFIED.);
#49=B_SPLINE_CURVE_WITH_KNOTS('',3,(#887,#888,#889,#890,#891,#892,#893,
#894,#895,#896,#897,#898),.UNSPECIFIED.,.F.,.F.,(4,2,2,2,2,4),(0.,0.0569922925542175,
0.113984585108435,0.22796917021687,0.363281530777915,0.498593891338961),
 .UNSPECIFIED.);
#50=B_SPLINE_CURVE_WITH_KNOTS('',3,(#899,#900,#901,#902,#903,#904,#905,
#906,#907,#908,#909,#910,#911,#912,#913,#914,#915,#916,#917,#918,#919,#920,
#921,#922,#923,#924,#925,#926),.UNSPECIFIED.,.F.,.F.,(4,2,2,2,2,2,2,2,2,
2,2,2,2,4),(0.498593891338961,0.62503621080048,0.751478530262,0.843587493610484,
0.935696456958969,1.02780542030745,1.11991438365594,1.24635670311746,1.37279902257898,
1.52342636673742,1.67405371089587,1.77168247209322,1.8204968526919,1.86931123329057),
 .UNSPECIFIED.);
#51=B_SPLINE_CURVE_WITH_KNOTS('',3,(#966,#967,#968,#969,#970,#971,#972,
#973,#974,#975,#976,#977,#978,#979,#980,#981,#982,#983,#984,#985,#986,#987,
#988,#989,#990,#991,#992,#993),.UNSPECIFIED.,.F.,.F.,(4,2,2,2,2,2,2,2,2,
2,2,2,2,4),(0.,0.0488143805986743,0.0976287611973486,0.195257522394697,
0.345884866553145,0.496512210711593,0.622954530173112,0.749396849634631,
0.841505812983116,0.9336147763316,1.02572373968008,1.11783270302857,1.24427502249009,
1.37071734195161),.UNSPECIFIED.);
#52=B_SPLINE_CURVE_WITH_KNOTS('',3,(#994,#995,#996,#997,#998,#999,#1000,
#1001,#1002,#1003,#1004,#1005),.UNSPECIFIED.,.F.,.F.,(4,2,2,2,2,4),(1.37071734195161,
1.52134468611006,1.6719720302685,1.76960079146585,1.81841517206453,1.8672295526632),
 .UNSPECIFIED.);
#53=B_SPLINE_CURVE_WITH_KNOTS('',3,(#1041,#1042,#1043,#1044,#1045,#1046,
#1047,#1048,#1049,#1050,#1051,#1052,#1053,#1054,#1055,#1056,#1057,#1058,
#1059,#1060,#1061,#1062,#1063,#1064,#1065,#1066,#1067,#1068,#1069,#1070),
 .UNSPECIFIED.,.F.,.F.,(4,2,2,2,2,2,2,2,2,2,2,2,2,2,4),(0.,0.0921089633484846,
0.184217926696969,0.310660246158488,0.437102565620007,0.587729909778455,
0.738357253936903,0.835986015134252,0.884800395732926,0.9336147763316,0.990607068885818,
1.04759936144004,1.16158394654847,1.29689630710952,1.43220866767056),
 .UNSPECIFIED.);
#54=B_SPLINE_CURVE_WITH_KNOTS('',3,(#1071,#1072,#1073,#1074,#1075,#1076,
#1077,#1078,#1079,#1080),.UNSPECIFIED.,.F.,.F.,(4,2,2,2,4),(1.43220866767056,
1.55865098713208,1.6850933065936,1.77720226994208,1.86931123329057),
 .UNSPECIFIED.);
#55=FACE_OUTER_BOUND('',#87,.T.);
#56=FACE_OUTER_BOUND('',#89,.T.);
#57=FACE_OUTER_BOUND('',#90,.T.);
#58=FACE_OUTER_BOUND('',#91,.T.);
#59=FACE_OUTER_BOUND('',#92,.T.);
#60=FACE_OUTER_BOUND('',#94,.T.);
#61=FACE_OUTER_BOUND('',#95,.T.);
#62=FACE_OUTER_BOUND('',#97,.T.);
#63=FACE_OUTER_BOUND('',#98,.T.);
#64=FACE_OUTER_BOUND('',#99,.T.);
#65=FACE_OUTER_BOUND('',#101,.T.);
#66=FACE_OUTER_BOUND('',#102,.T.);
#67=FACE_OUTER_BOUND('',#103,.T.);
#68=FACE_OUTER_BOUND('',#105,.T.);
#69=FACE_OUTER_BOUND('',#106,.T.);
#70=FACE_OUTER_BOUND('',#108,.T.);
#71=FACE_OUTER_BOUND('',#109,.T.);
#72=FACE_OUTER_BOUND('',#111,.T.);
#73=FACE_OUTER_BOUND('',#112,.T.);
#74=FACE_OUTER_BOUND('',#113,.T.);
#75=FACE_OUTER_BOUND('',#114,.T.);
#76=FACE_OUTER_BOUND('',#116,.T.);
#77=FACE_OUTER_BOUND('',#117,.T.);
#78=FACE_OUTER_BOUND('',#119,.T.);
#79=FACE_OUTER_BOUND('',#120,.T.);
#80=FACE_OUTER_BOUND('',#122,.T.);
#81=FACE_OUTER_BOUND('',#123,.T.);
#82=FACE_OUTER_BOUND('',#124,.T.);
#83=FACE_OUTER_BOUND('',#125,.T.);
#84=FACE_OUTER_BOUND('',#127,.T.);
#85=FACE_OUTER_BOUND('',#128,.T.);
#86=FACE_OUTER_BOUND('',#130,.T.);
#87=EDGE_LOOP('',(#371,#372,#373,#374));
#88=EDGE_LOOP('',(#375,#376));
#89=EDGE_LOOP('',(#377,#378,#379,#380));
#90=EDGE_LOOP('',(#381,#382,#383,#384,#385,#386,#387,#388));
#91=EDGE_LOOP('',(#389,#390,#391,#392,#393));
#92=EDGE_LOOP('',(#394));
#93=EDGE_LOOP('',(#395));
#94=EDGE_LOOP('',(#396,#397,#398,#399));
#95=EDGE_LOOP('',(#400,#401,#402,#403));
#96=EDGE_LOOP('',(#404,#405));
#97=EDGE_LOOP('',(#406,#407,#408,#409));
#98=EDGE_LOOP('',(#410,#411,#412,#413,#414));
#99=EDGE_LOOP('',(#415));
#100=EDGE_LOOP('',(#416));
#101=EDGE_LOOP('',(#417,#418,#419,#420));
#102=EDGE_LOOP('',(#421,#422,#423,#424));
#103=EDGE_LOOP('',(#425,#426,#427,#428));
#104=EDGE_LOOP('',(#429));
#105=EDGE_LOOP('',(#430,#431,#432,#433));
#106=EDGE_LOOP('',(#434,#435,#436,#437));
#107=EDGE_LOOP('',(#438));
#108=EDGE_LOOP('',(#439,#440,#441,#442,#443,#444,#445,#446));
#109=EDGE_LOOP('',(#447,#448,#449,#450));
#110=EDGE_LOOP('',(#451,#452));
#111=EDGE_LOOP('',(#453,#454,#455,#456));
#112=EDGE_LOOP('',(#457,#458,#459,#460,#461,#462,#463,#464));
#113=EDGE_LOOP('',(#465,#466,#467,#468,#469));
#114=EDGE_LOOP('',(#470));
#115=EDGE_LOOP('',(#471));
#116=EDGE_LOOP('',(#472,#473,#474,#475));
#117=EDGE_LOOP('',(#476,#477,#478,#479));
#118=EDGE_LOOP('',(#480,#481));
#119=EDGE_LOOP('',(#482,#483,#484,#485,#486));
#120=EDGE_LOOP('',(#487));
#121=EDGE_LOOP('',(#488));
#122=EDGE_LOOP('',(#489,#490,#491,#492));
#123=EDGE_LOOP('',(#493,#494,#495,#496));
#124=EDGE_LOOP('',(#497,#498,#499,#500));
#125=EDGE_LOOP('',(#501,#502,#503,#504));
#126=EDGE_LOOP('',(#505));
#127=EDGE_LOOP('',(#506,#507,#508,#509));
#128=EDGE_LOOP('',(#510,#511,#512,#513));
#129=EDGE_LOOP('',(#514));
#130=EDGE_LOOP('',(#515,#516,#517,#518,#519,#520,#521,#522));
#131=LINE('',#804,#175);
#132=LINE('',#807,#176);
#133=LINE('',#852,#177);
#134=LINE('',#854,#178);
#135=LINE('',#855,#179);
#136=LINE('',#858,#180);
#137=LINE('',#862,#181);
#138=LINE('',#864,#182);
#139=LINE('',#867,#183);
#140=LINE('',#870,#184);
#141=LINE('',#877,#185);
#142=LINE('',#883,#186);
#143=LINE('',#884,#187);
#144=LINE('',#929,#188);
#145=LINE('',#930,#189);
#146=LINE('',#933,#190);
#147=LINE('',#940,#191);
#148=LINE('',#944,#192);
#149=LINE('',#947,#193);
#150=LINE('',#949,#194);
#151=LINE('',#951,#195);
#152=LINE('',#953,#196);
#153=LINE('',#960,#197);
#154=LINE('',#963,#198);
#155=LINE('',#1008,#199);
#156=LINE('',#1010,#200);
#157=LINE('',#1011,#201);
#158=LINE('',#1014,#202);
#159=LINE('',#1016,#203);
#160=LINE('',#1020,#204);
#161=LINE('',#1022,#205);
#162=LINE('',#1026,#206);
#163=LINE('',#1033,#207);
#164=LINE('',#1038,#208);
#165=LINE('',#1083,#209);
#166=LINE('',#1090,#210);
#167=LINE('',#1094,#211);
#168=LINE('',#1095,#212);
#169=LINE('',#1098,#213);
#170=LINE('',#1099,#214);
#171=LINE('',#1102,#215);
#172=LINE('',#1103,#216);
#173=LINE('',#1107,#217);
#174=LINE('',#1109,#218);
#175=VECTOR('',#646,10.);
#176=VECTOR('',#649,10.);
#177=VECTOR('',#652,10.);
#178=VECTOR('',#653,10.);
#179=VECTOR('',#654,10.);
#180=VECTOR('',#657,10.);
#181=VECTOR('',#660,10.);
#182=VECTOR('',#661,10.);
#183=VECTOR('',#664,10.);
#184=VECTOR('',#667,2.5);
#185=VECTOR('',#676,1.3);
#186=VECTOR('',#683,10.);
#187=VECTOR('',#684,10.);
#188=VECTOR('',#687,10.);
#189=VECTOR('',#688,10.);
#190=VECTOR('',#691,2.5);
#191=VECTOR('',#700,1.3);
#192=VECTOR('',#705,10.);
#193=VECTOR('',#708,10.);
#194=VECTOR('',#711,10.);
#195=VECTOR('',#714,10.);
#196=VECTOR('',#717,10.);
#197=VECTOR('',#724,10.);
#198=VECTOR('',#727,10.);
#199=VECTOR('',#730,10.);
#200=VECTOR('',#731,10.);
#201=VECTOR('',#732,10.);
#202=VECTOR('',#735,10.);
#203=VECTOR('',#736,10.);
#204=VECTOR('',#739,10.);
#205=VECTOR('',#740,10.);
#206=VECTOR('',#745,2.5);
#207=VECTOR('',#754,1.3);
#208=VECTOR('',#761,10.);
#209=VECTOR('',#764,2.5);
#210=VECTOR('',#773,1.3);
#211=VECTOR('',#778,10.);
#212=VECTOR('',#779,10.);
#213=VECTOR('',#782,10.);
#214=VECTOR('',#783,10.);
#215=VECTOR('',#786,10.);
#216=VECTOR('',#787,10.);
#217=VECTOR('',#792,10.);
#218=VECTOR('',#795,10.);
#219=CIRCLE('',#585,17.);
#220=CIRCLE('',#586,17.);
#221=CIRCLE('',#589,17.);
#222=CIRCLE('',#590,15.);
#223=CIRCLE('',#592,2.5);
#224=CIRCLE('',#594,1.3);
#225=CIRCLE('',#596,1.3);
#226=CIRCLE('',#598,17.);
#227=CIRCLE('',#601,2.5);
#228=CIRCLE('',#603,1.3);
#229=CIRCLE('',#605,1.3);
#230=CIRCLE('',#607,15.);
#231=CIRCLE('',#613,17.);
#232=CIRCLE('',#614,17.);
#233=CIRCLE('',#617,15.);
#234=CIRCLE('',#618,17.);
#235=CIRCLE('',#620,2.5);
#236=CIRCLE('',#622,1.3);
#237=CIRCLE('',#624,1.3);
#238=CIRCLE('',#626,17.);
#239=CIRCLE('',#628,2.5);
#240=CIRCLE('',#630,1.3);
#241=CIRCLE('',#632,1.3);
#242=CIRCLE('',#637,15.);
#243=VERTEX_POINT('',#800);
#244=VERTEX_POINT('',#801);
#245=VERTEX_POINT('',#803);
#246=VERTEX_POINT('',#805);
#247=VERTEX_POINT('',#808);
#248=VERTEX_POINT('',#809);
#249=VERTEX_POINT('',#851);
#250=VERTEX_POINT('',#853);
#251=VERTEX_POINT('',#857);
#252=VERTEX_POINT('',#859);
#253=VERTEX_POINT('',#861);
#254=VERTEX_POINT('',#863);
#255=VERTEX_POINT('',#865);
#256=VERTEX_POINT('',#869);
#257=VERTEX_POINT('',#873);
#258=VERTEX_POINT('',#876);
#259=VERTEX_POINT('',#880);
#260=VERTEX_POINT('',#881);
#261=VERTEX_POINT('',#885);
#262=VERTEX_POINT('',#886);
#263=VERTEX_POINT('',#928);
#264=VERTEX_POINT('',#932);
#265=VERTEX_POINT('',#936);
#266=VERTEX_POINT('',#939);
#267=VERTEX_POINT('',#943);
#268=VERTEX_POINT('',#945);
#269=VERTEX_POINT('',#956);
#270=VERTEX_POINT('',#957);
#271=VERTEX_POINT('',#959);
#272=VERTEX_POINT('',#961);
#273=VERTEX_POINT('',#964);
#274=VERTEX_POINT('',#965);
#275=VERTEX_POINT('',#1007);
#276=VERTEX_POINT('',#1009);
#277=VERTEX_POINT('',#1013);
#278=VERTEX_POINT('',#1015);
#279=VERTEX_POINT('',#1017);
#280=VERTEX_POINT('',#1019);
#281=VERTEX_POINT('',#1021);
#282=VERTEX_POINT('',#1025);
#283=VERTEX_POINT('',#1029);
#284=VERTEX_POINT('',#1032);
#285=VERTEX_POINT('',#1036);
#286=VERTEX_POINT('',#1039);
#287=VERTEX_POINT('',#1040);
#288=VERTEX_POINT('',#1082);
#289=VERTEX_POINT('',#1086);
#290=VERTEX_POINT('',#1089);
#291=VERTEX_POINT('',#1093);
#292=VERTEX_POINT('',#1097);
#293=VERTEX_POINT('',#1101);
#294=VERTEX_POINT('',#1105);
#295=EDGE_CURVE('',#243,#244,#219,.T.);
#296=EDGE_CURVE('',#244,#245,#131,.T.);
#297=EDGE_CURVE('',#245,#246,#220,.T.);
#298=EDGE_CURVE('',#246,#243,#132,.T.);
#299=EDGE_CURVE('',#247,#248,#47,.T.);
#300=EDGE_CURVE('',#248,#247,#48,.T.);
#301=EDGE_CURVE('',#249,#246,#133,.T.);
#302=EDGE_CURVE('',#249,#250,#134,.T.);
#303=EDGE_CURVE('',#243,#250,#135,.T.);
#304=EDGE_CURVE('',#251,#245,#136,.T.);
#305=EDGE_CURVE('',#252,#251,#221,.T.);
#306=EDGE_CURVE('',#253,#252,#137,.T.);
#307=EDGE_CURVE('',#253,#254,#138,.T.);
#308=EDGE_CURVE('',#254,#255,#222,.T.);
#309=EDGE_CURVE('',#255,#249,#139,.T.);
#310=EDGE_CURVE('',#248,#256,#140,.T.);
#311=EDGE_CURVE('',#256,#256,#223,.T.);
#312=EDGE_CURVE('',#257,#257,#224,.T.);
#313=EDGE_CURVE('',#257,#258,#141,.T.);
#314=EDGE_CURVE('',#258,#258,#225,.T.);
#315=EDGE_CURVE('',#259,#260,#226,.T.);
#316=EDGE_CURVE('',#260,#252,#142,.T.);
#317=EDGE_CURVE('',#251,#259,#143,.T.);
#318=EDGE_CURVE('',#261,#262,#49,.T.);
#319=EDGE_CURVE('',#262,#261,#50,.T.);
#320=EDGE_CURVE('',#263,#260,#144,.T.);
#321=EDGE_CURVE('',#253,#263,#145,.T.);
#322=EDGE_CURVE('',#262,#264,#146,.T.);
#323=EDGE_CURVE('',#264,#264,#227,.T.);
#324=EDGE_CURVE('',#265,#265,#228,.T.);
#325=EDGE_CURVE('',#265,#266,#147,.T.);
#326=EDGE_CURVE('',#266,#266,#229,.T.);
#327=EDGE_CURVE('',#254,#267,#148,.T.);
#328=EDGE_CURVE('',#268,#267,#230,.T.);
#329=EDGE_CURVE('',#255,#268,#149,.T.);
#330=EDGE_CURVE('',#250,#268,#150,.T.);
#331=EDGE_CURVE('',#259,#244,#151,.T.);
#332=EDGE_CURVE('',#267,#263,#152,.T.);
#333=EDGE_CURVE('',#269,#270,#231,.T.);
#334=EDGE_CURVE('',#270,#271,#153,.T.);
#335=EDGE_CURVE('',#271,#272,#232,.T.);
#336=EDGE_CURVE('',#272,#269,#154,.T.);
#337=EDGE_CURVE('',#273,#274,#51,.T.);
#338=EDGE_CURVE('',#274,#273,#52,.T.);
#339=EDGE_CURVE('',#272,#275,#155,.T.);
#340=EDGE_CURVE('',#276,#275,#156,.T.);
#341=EDGE_CURVE('',#269,#276,#157,.T.);
#342=EDGE_CURVE('',#277,#271,#158,.T.);
#343=EDGE_CURVE('',#277,#278,#159,.T.);
#344=EDGE_CURVE('',#278,#279,#233,.T.);
#345=EDGE_CURVE('',#279,#280,#160,.T.);
#346=EDGE_CURVE('',#280,#281,#161,.T.);
#347=EDGE_CURVE('',#275,#281,#234,.T.);
#348=EDGE_CURVE('',#274,#282,#162,.T.);
#349=EDGE_CURVE('',#282,#282,#235,.T.);
#350=EDGE_CURVE('',#283,#283,#236,.T.);
#351=EDGE_CURVE('',#283,#284,#163,.T.);
#352=EDGE_CURVE('',#284,#284,#237,.T.);
#353=EDGE_CURVE('',#285,#276,#238,.T.);
#354=EDGE_CURVE('',#281,#285,#164,.T.);
#355=EDGE_CURVE('',#286,#287,#53,.T.);
#356=EDGE_CURVE('',#287,#286,#54,.T.);
#357=EDGE_CURVE('',#287,#288,#165,.T.);
#358=EDGE_CURVE('',#288,#288,#239,.T.);
#359=EDGE_CURVE('',#289,#289,#240,.T.);
#360=EDGE_CURVE('',#289,#290,#166,.T.);
#361=EDGE_CURVE('',#290,#290,#241,.T.);
#362=EDGE_CURVE('',#280,#291,#167,.T.);
#363=EDGE_CURVE('',#285,#291,#168,.T.);
#364=EDGE_CURVE('',#292,#270,#169,.T.);
#365=EDGE_CURVE('',#277,#292,#170,.T.);
#366=EDGE_CURVE('',#293,#292,#171,.T.);
#367=EDGE_CURVE('',#278,#293,#172,.T.);
#368=EDGE_CURVE('',#294,#293,#242,.T.);
#369=EDGE_CURVE('',#279,#294,#173,.T.);
#370=EDGE_CURVE('',#291,#294,#174,.T.);
#371=ORIENTED_EDGE('',*,*,#295,.T.);
#372=ORIENTED_EDGE('',*,*,#296,.T.);
#373=ORIENTED_EDGE('',*,*,#297,.T.);
#374=ORIENTED_EDGE('',*,*,#298,.T.);
#375=ORIENTED_EDGE('',*,*,#299,.T.);
#376=ORIENTED_EDGE('',*,*,#300,.T.);
#377=ORIENTED_EDGE('',*,*,#298,.F.);
#378=ORIENTED_EDGE('',*,*,#301,.F.);
#379=ORIENTED_EDGE('',*,*,#302,.T.);
#380=ORIENTED_EDGE('',*,*,#303,.F.);
#381=ORIENTED_EDGE('',*,*,#297,.F.);
#382=ORIENTED_EDGE('',*,*,#304,.F.);
#383=ORIENTED_EDGE('',*,*,#305,.F.);
#384=ORIENTED_EDGE('',*,*,#306,.F.);
#385=ORIENTED_EDGE('',*,*,#307,.T.);
#386=ORIENTED_EDGE('',*,*,#308,.T.);
#387=ORIENTED_EDGE('',*,*,#309,.T.);
#388=ORIENTED_EDGE('',*,*,#301,.T.);
#389=ORIENTED_EDGE('',*,*,#299,.F.);
#390=ORIENTED_EDGE('',*,*,#300,.F.);
#391=ORIENTED_EDGE('',*,*,#310,.T.);
#392=ORIENTED_EDGE('',*,*,#311,.T.);
#393=ORIENTED_EDGE('',*,*,#310,.F.);
#394=ORIENTED_EDGE('',*,*,#311,.F.);
#395=ORIENTED_EDGE('',*,*,#312,.T.);
#396=ORIENTED_EDGE('',*,*,#312,.F.);
#397=ORIENTED_EDGE('',*,*,#313,.T.);
#398=ORIENTED_EDGE('',*,*,#314,.F.);
#399=ORIENTED_EDGE('',*,*,#313,.F.);
#400=ORIENTED_EDGE('',*,*,#315,.T.);
#401=ORIENTED_EDGE('',*,*,#316,.T.);
#402=ORIENTED_EDGE('',*,*,#305,.T.);
#403=ORIENTED_EDGE('',*,*,#317,.T.);
#404=ORIENTED_EDGE('',*,*,#318,.T.);
#405=ORIENTED_EDGE('',*,*,#319,.T.);
#406=ORIENTED_EDGE('',*,*,#316,.F.);
#407=ORIENTED_EDGE('',*,*,#320,.F.);
#408=ORIENTED_EDGE('',*,*,#321,.F.);
#409=ORIENTED_EDGE('',*,*,#306,.T.);
#410=ORIENTED_EDGE('',*,*,#318,.F.);
#411=ORIENTED_EDGE('',*,*,#319,.F.);
#412=ORIENTED_EDGE('',*,*,#322,.T.);
#413=ORIENTED_EDGE('',*,*,#323,.T.);
#414=ORIENTED_EDGE('',*,*,#322,.F.);
#415=ORIENTED_EDGE('',*,*,#323,.F.);
#416=ORIENTED_EDGE('',*,*,#324,.T.);
#417=ORIENTED_EDGE('',*,*,#324,.F.);
#418=ORIENTED_EDGE('',*,*,#325,.T.);
#419=ORIENTED_EDGE('',*,*,#326,.F.);
#420=ORIENTED_EDGE('',*,*,#325,.F.);
#421=ORIENTED_EDGE('',*,*,#308,.F.);
#422=ORIENTED_EDGE('',*,*,#327,.T.);
#423=ORIENTED_EDGE('',*,*,#328,.F.);
#424=ORIENTED_EDGE('',*,*,#329,.F.);
#425=ORIENTED_EDGE('',*,*,#309,.F.);
#426=ORIENTED_EDGE('',*,*,#329,.T.);
#427=ORIENTED_EDGE('',*,*,#330,.F.);
#428=ORIENTED_EDGE('',*,*,#302,.F.);
#429=ORIENTED_EDGE('',*,*,#314,.T.);
#430=ORIENTED_EDGE('',*,*,#296,.F.);
#431=ORIENTED_EDGE('',*,*,#331,.F.);
#432=ORIENTED_EDGE('',*,*,#317,.F.);
#433=ORIENTED_EDGE('',*,*,#304,.T.);
#434=ORIENTED_EDGE('',*,*,#307,.F.);
#435=ORIENTED_EDGE('',*,*,#321,.T.);
#436=ORIENTED_EDGE('',*,*,#332,.F.);
#437=ORIENTED_EDGE('',*,*,#327,.F.);
#438=ORIENTED_EDGE('',*,*,#326,.T.);
#439=ORIENTED_EDGE('',*,*,#295,.F.);
#440=ORIENTED_EDGE('',*,*,#303,.T.);
#441=ORIENTED_EDGE('',*,*,#330,.T.);
#442=ORIENTED_EDGE('',*,*,#328,.T.);
#443=ORIENTED_EDGE('',*,*,#332,.T.);
#444=ORIENTED_EDGE('',*,*,#320,.T.);
#445=ORIENTED_EDGE('',*,*,#315,.F.);
#446=ORIENTED_EDGE('',*,*,#331,.T.);
#447=ORIENTED_EDGE('',*,*,#333,.T.);
#448=ORIENTED_EDGE('',*,*,#334,.T.);
#449=ORIENTED_EDGE('',*,*,#335,.T.);
#450=ORIENTED_EDGE('',*,*,#336,.T.);
#451=ORIENTED_EDGE('',*,*,#337,.T.);
#452=ORIENTED_EDGE('',*,*,#338,.T.);
#453=ORIENTED_EDGE('',*,*,#336,.F.);
#454=ORIENTED_EDGE('',*,*,#339,.T.);
#455=ORIENTED_EDGE('',*,*,#340,.F.);
#456=ORIENTED_EDGE('',*,*,#341,.F.);
#457=ORIENTED_EDGE('',*,*,#335,.F.);
#458=ORIENTED_EDGE('',*,*,#342,.F.);
#459=ORIENTED_EDGE('',*,*,#343,.T.);
#460=ORIENTED_EDGE('',*,*,#344,.T.);
#461=ORIENTED_EDGE('',*,*,#345,.T.);
#462=ORIENTED_EDGE('',*,*,#346,.T.);
#463=ORIENTED_EDGE('',*,*,#347,.F.);
#464=ORIENTED_EDGE('',*,*,#339,.F.);
#465=ORIENTED_EDGE('',*,*,#337,.F.);
#466=ORIENTED_EDGE('',*,*,#338,.F.);
#467=ORIENTED_EDGE('',*,*,#348,.T.);
#468=ORIENTED_EDGE('',*,*,#349,.T.);
#469=ORIENTED_EDGE('',*,*,#348,.F.);
#470=ORIENTED_EDGE('',*,*,#349,.F.);
#471=ORIENTED_EDGE('',*,*,#350,.T.);
#472=ORIENTED_EDGE('',*,*,#350,.F.);
#473=ORIENTED_EDGE('',*,*,#351,.T.);
#474=ORIENTED_EDGE('',*,*,#352,.F.);
#475=ORIENTED_EDGE('',*,*,#351,.F.);
#476=ORIENTED_EDGE('',*,*,#353,.T.);
#477=ORIENTED_EDGE('',*,*,#340,.T.);
#478=ORIENTED_EDGE('',*,*,#347,.T.);
#479=ORIENTED_EDGE('',*,*,#354,.T.);
#480=ORIENTED_EDGE('',*,*,#355,.T.);
#481=ORIENTED_EDGE('',*,*,#356,.T.);
#482=ORIENTED_EDGE('',*,*,#355,.F.);
#483=ORIENTED_EDGE('',*,*,#356,.F.);
#484=ORIENTED_EDGE('',*,*,#357,.T.);
#485=ORIENTED_EDGE('',*,*,#358,.T.);
#486=ORIENTED_EDGE('',*,*,#357,.F.);
#487=ORIENTED_EDGE('',*,*,#358,.F.);
#488=ORIENTED_EDGE('',*,*,#359,.T.);
#489=ORIENTED_EDGE('',*,*,#359,.F.);
#490=ORIENTED_EDGE('',*,*,#360,.T.);
#491=ORIENTED_EDGE('',*,*,#361,.F.);
#492=ORIENTED_EDGE('',*,*,#360,.F.);
#493=ORIENTED_EDGE('',*,*,#354,.F.);
#494=ORIENTED_EDGE('',*,*,#346,.F.);
#495=ORIENTED_EDGE('',*,*,#362,.T.);
#496=ORIENTED_EDGE('',*,*,#363,.F.);
#497=ORIENTED_EDGE('',*,*,#334,.F.);
#498=ORIENTED_EDGE('',*,*,#364,.F.);
#499=ORIENTED_EDGE('',*,*,#365,.F.);
#500=ORIENTED_EDGE('',*,*,#342,.T.);
#501=ORIENTED_EDGE('',*,*,#343,.F.);
#502=ORIENTED_EDGE('',*,*,#365,.T.);
#503=ORIENTED_EDGE('',*,*,#366,.F.);
#504=ORIENTED_EDGE('',*,*,#367,.F.);
#505=ORIENTED_EDGE('',*,*,#352,.T.);
#506=ORIENTED_EDGE('',*,*,#344,.F.);
#507=ORIENTED_EDGE('',*,*,#367,.T.);
#508=ORIENTED_EDGE('',*,*,#368,.F.);
#509=ORIENTED_EDGE('',*,*,#369,.F.);
#510=ORIENTED_EDGE('',*,*,#345,.F.);
#511=ORIENTED_EDGE('',*,*,#369,.T.);
#512=ORIENTED_EDGE('',*,*,#370,.F.);
#513=ORIENTED_EDGE('',*,*,#362,.F.);
#514=ORIENTED_EDGE('',*,*,#361,.T.);
#515=ORIENTED_EDGE('',*,*,#333,.F.);
#516=ORIENTED_EDGE('',*,*,#341,.T.);
#517=ORIENTED_EDGE('',*,*,#353,.F.);
#518=ORIENTED_EDGE('',*,*,#363,.T.);
#519=ORIENTED_EDGE('',*,*,#370,.T.);
#520=ORIENTED_EDGE('',*,*,#368,.T.);
#521=ORIENTED_EDGE('',*,*,#366,.T.);
#522=ORIENTED_EDGE('',*,*,#364,.T.);
#523=CYLINDRICAL_SURFACE('',#584,17.);
#524=CYLINDRICAL_SURFACE('',#591,2.5);
#525=CYLINDRICAL_SURFACE('',#595,1.3);
#526=CYLINDRICAL_SURFACE('',#597,17.);
#527=CYLINDRICAL_SURFACE('',#600,2.5);
#528=CYLINDRICAL_SURFACE('',#604,1.3);
#529=CYLINDRICAL_SURFACE('',#606,15.);
#530=CYLINDRICAL_SURFACE('',#612,17.);
#531=CYLINDRICAL_SURFACE('',#619,2.5);
#532=CYLINDRICAL_SURFACE('',#623,1.3);
#533=CYLINDRICAL_SURFACE('',#625,17.);
#534=CYLINDRICAL_SURFACE('',#627,2.5);
#535=CYLINDRICAL_SURFACE('',#631,1.3);
#536=CYLINDRICAL_SURFACE('',#636,15.);
#537=ADVANCED_FACE('',(#55,#35),#523,.T.);
#538=ADVANCED_FACE('',(#56),#17,.T.);
#539=ADVANCED_FACE('',(#57),#18,.T.);
#540=ADVANCED_FACE('',(#58),#524,.F.);
#541=ADVANCED_FACE('',(#59,#36),#19,.F.);
#542=ADVANCED_FACE('',(#60),#525,.F.);
#543=ADVANCED_FACE('',(#61,#37),#526,.T.);
#544=ADVANCED_FACE('',(#62),#20,.T.);
#545=ADVANCED_FACE('',(#63),#527,.F.);
#546=ADVANCED_FACE('',(#64,#38),#21,.F.);
#547=ADVANCED_FACE('',(#65),#528,.F.);
#548=ADVANCED_FACE('',(#66),#529,.F.);
#549=ADVANCED_FACE('',(#67,#39),#22,.T.);
#550=ADVANCED_FACE('',(#68),#23,.T.);
#551=ADVANCED_FACE('',(#69,#40),#24,.T.);
#552=ADVANCED_FACE('',(#70),#25,.F.);
#553=ADVANCED_FACE('',(#71,#41),#530,.T.);
#554=ADVANCED_FACE('',(#72),#26,.T.);
#555=ADVANCED_FACE('',(#73),#27,.T.);
#556=ADVANCED_FACE('',(#74),#531,.F.);
#557=ADVANCED_FACE('',(#75,#42),#28,.F.);
#558=ADVANCED_FACE('',(#76),#532,.F.);
#559=ADVANCED_FACE('',(#77,#43),#533,.T.);
#560=ADVANCED_FACE('',(#78),#534,.F.);
#561=ADVANCED_FACE('',(#79,#44),#29,.F.);
#562=ADVANCED_FACE('',(#80),#535,.F.);
#563=ADVANCED_FACE('',(#81),#30,.T.);
#564=ADVANCED_FACE('',(#82),#31,.T.);
#565=ADVANCED_FACE('',(#83,#45),#32,.T.);
#566=ADVANCED_FACE('',(#84),#536,.F.);
#567=ADVANCED_FACE('',(#85,#46),#33,.T.);
#568=ADVANCED_FACE('',(#86),#34,.F.);
#569=CLOSED_SHELL('',(#537,#538,#539,#540,#541,#542,#543,#544,#545,#546,
#547,#548,#549,#550,#551,#552));
#570=CLOSED_SHELL('',(#553,#554,#555,#556,#557,#558,#559,#560,#561,#562,
#563,#564,#565,#566,#567,#568));
#571=DERIVED_UNIT_ELEMENT(#573,1.);
#572=DERIVED_UNIT_ELEMENT(#1116,-3.);
#573=(
MASS_UNIT()
NAMED_UNIT(*)
SI_UNIT(.KILO.,.GRAM.)
);
#574=DERIVED_UNIT((#571,#572));
#575=MEASURE_REPRESENTATION_ITEM('density measure',
POSITIVE_RATIO_MEASURE(7850.),#574);
#576=PROPERTY_DEFINITION_REPRESENTATION(#581,#578);
#577=PROPERTY_DEFINITION_REPRESENTATION(#582,#579);
#578=REPRESENTATION('material name',(#580),#1113);
#579=REPRESENTATION('density',(#575),#1113);
#580=DESCRIPTIVE_REPRESENTATION_ITEM('Steel','Steel');
#581=PROPERTY_DEFINITION('material property','material name',#1123);
#582=PROPERTY_DEFINITION('material property','density of part',#1123);
#583=AXIS2_PLACEMENT_3D('',#798,#640,#641);
#584=AXIS2_PLACEMENT_3D('',#799,#642,#643);
#585=AXIS2_PLACEMENT_3D('',#802,#644,#645);
#586=AXIS2_PLACEMENT_3D('',#806,#647,#648);
#587=AXIS2_PLACEMENT_3D('',#850,#650,#651);
#588=AXIS2_PLACEMENT_3D('',#856,#655,#656);
#589=AXIS2_PLACEMENT_3D('',#860,#658,#659);
#590=AXIS2_PLACEMENT_3D('',#866,#662,#663);
#591=AXIS2_PLACEMENT_3D('',#868,#665,#666);
#592=AXIS2_PLACEMENT_3D('',#871,#668,#669);
#593=AXIS2_PLACEMENT_3D('',#872,#670,#671);
#594=AXIS2_PLACEMENT_3D('',#874,#672,#673);
#595=AXIS2_PLACEMENT_3D('',#875,#674,#675);
#596=AXIS2_PLACEMENT_3D('',#878,#677,#678);
#597=AXIS2_PLACEMENT_3D('',#879,#679,#680);
#598=AXIS2_PLACEMENT_3D('',#882,#681,#682);
#599=AXIS2_PLACEMENT_3D('',#927,#685,#686);
#600=AXIS2_PLACEMENT_3D('',#931,#689,#690);
#601=AXIS2_PLACEMENT_3D('',#934,#692,#693);
#602=AXIS2_PLACEMENT_3D('',#935,#694,#695);
#603=AXIS2_PLACEMENT_3D('',#937,#696,#697);
#604=AXIS2_PLACEMENT_3D('',#938,#698,#699);
#605=AXIS2_PLACEMENT_3D('',#941,#701,#702);
#606=AXIS2_PLACEMENT_3D('',#942,#703,#704);
#607=AXIS2_PLACEMENT_3D('',#946,#706,#707);
#608=AXIS2_PLACEMENT_3D('',#948,#709,#710);
#609=AXIS2_PLACEMENT_3D('',#950,#712,#713);
#610=AXIS2_PLACEMENT_3D('',#952,#715,#716);
#611=AXIS2_PLACEMENT_3D('',#954,#718,#719);
#612=AXIS2_PLACEMENT_3D('',#955,#720,#721);
#613=AXIS2_PLACEMENT_3D('',#958,#722,#723);
#614=AXIS2_PLACEMENT_3D('',#962,#725,#726);
#615=AXIS2_PLACEMENT_3D('',#1006,#728,#729);
#616=AXIS2_PLACEMENT_3D('',#1012,#733,#734);
#617=AXIS2_PLACEMENT_3D('',#1018,#737,#738);
#618=AXIS2_PLACEMENT_3D('',#1023,#741,#742);
#619=AXIS2_PLACEMENT_3D('',#1024,#743,#744);
#620=AXIS2_PLACEMENT_3D('',#1027,#746,#747);
#621=AXIS2_PLACEMENT_3D('',#1028,#748,#749);
#622=AXIS2_PLACEMENT_3D('',#1030,#750,#751);
#623=AXIS2_PLACEMENT_3D('',#1031,#752,#753);
#624=AXIS2_PLACEMENT_3D('',#1034,#755,#756);
#625=AXIS2_PLACEMENT_3D('',#1035,#757,#758);
#626=AXIS2_PLACEMENT_3D('',#1037,#759,#760);
#627=AXIS2_PLACEMENT_3D('',#1081,#762,#763);
#628=AXIS2_PLACEMENT_3D('',#1084,#765,#766);
#629=AXIS2_PLACEMENT_3D('',#1085,#767,#768);
#630=AXIS2_PLACEMENT_3D('',#1087,#769,#770);
#631=AXIS2_PLACEMENT_3D('',#1088,#771,#772);
#632=AXIS2_PLACEMENT_3D('',#1091,#774,#775);
#633=AXIS2_PLACEMENT_3D('',#1092,#776,#777);
#634=AXIS2_PLACEMENT_3D('',#1096,#780,#781);
#635=AXIS2_PLACEMENT_3D('',#1100,#784,#785);
#636=AXIS2_PLACEMENT_3D('',#1104,#788,#789);
#637=AXIS2_PLACEMENT_3D('',#1106,#790,#791);
#638=AXIS2_PLACEMENT_3D('',#1108,#793,#794);
#639=AXIS2_PLACEMENT_3D('',#1110,#796,#797);
#640=DIRECTION('axis',(0.,0.,1.));
#641=DIRECTION('refdir',(1.,0.,0.));
#642=DIRECTION('center_axis',(1.,0.,-4.07681843839214E-9));
#643=DIRECTION('ref_axis',(-2.8827459080384E-9,0.707106781186548,-0.707106781186548));
#644=DIRECTION('center_axis',(-1.,6.15389559103307E-40,4.0768185149456E-9));
#645=DIRECTION('ref_axis',(-2.8827459080384E-9,0.707106781186548,-0.707106781186548));
#646=DIRECTION('',(-1.,0.,4.07681843839214E-9));
#647=DIRECTION('center_axis',(1.,-6.15389559103307E-40,-4.0768185149456E-9));
#648=DIRECTION('ref_axis',(-2.8827459080384E-9,0.707106781186548,-0.707106781186548));
#649=DIRECTION('',(1.,0.,-4.07681843839214E-9));
#650=DIRECTION('center_axis',(0.,1.,0.));
#651=DIRECTION('ref_axis',(4.07681888248134E-9,0.,1.));
#652=DIRECTION('',(-4.07681888248134E-9,0.,-1.));
#653=DIRECTION('',(1.,0.,-4.07681843839214E-9));
#654=DIRECTION('',(4.07681888248134E-9,0.,1.));
#655=DIRECTION('center_axis',(-1.,6.15389559103307E-40,4.0768185149456E-9));
#656=DIRECTION('ref_axis',(2.29878690170121E-39,1.,4.12919372404384E-31));
#657=DIRECTION('',(6.15389559103307E-40,1.,-2.50883152619072E-48));
#658=DIRECTION('center_axis',(1.,-6.15389559103307E-40,-4.0768185149456E-9));
#659=DIRECTION('ref_axis',(-2.8827459080384E-9,-0.707106781186548,-0.707106781186548));
#660=DIRECTION('',(-4.07681888248134E-9,0.,-1.));
#661=DIRECTION('',(2.29878690170121E-39,1.,4.12919372404384E-31));
#662=DIRECTION('center_axis',(1.,-6.15389559103307E-40,-4.0768185149456E-9));
#663=DIRECTION('ref_axis',(4.0768185149456E-9,4.56060210830897E-31,1.));
#664=DIRECTION('',(2.29878690170121E-39,1.,4.12919372404384E-31));
#665=DIRECTION('center_axis',(4.07681843839214E-9,2.48443508212174E-56,
1.));
#666=DIRECTION('ref_axis',(-1.,0.,4.07681843839214E-9));
#667=DIRECTION('',(4.07681843839214E-9,2.48443508212174E-56,1.));
#668=DIRECTION('center_axis',(4.07681843839214E-9,2.48443508212174E-56,
1.));
#669=DIRECTION('ref_axis',(-1.,0.,4.07681843839214E-9));
#670=DIRECTION('center_axis',(4.07681843839214E-9,2.48443508212174E-56,
1.));
#671=DIRECTION('ref_axis',(-1.,0.,4.07681843839214E-9));
#672=DIRECTION('center_axis',(4.07681843839214E-9,2.48443508212174E-56,
1.));
#673=DIRECTION('ref_axis',(-1.,0.,4.07681843839214E-9));
#674=DIRECTION('center_axis',(4.07681843839214E-9,2.48443508212174E-56,
1.));
#675=DIRECTION('ref_axis',(-1.,0.,4.07681843839214E-9));
#676=DIRECTION('',(4.07681843839214E-9,2.48443508212174E-56,1.));
#677=DIRECTION('center_axis',(-4.07681843839214E-9,4.12919372404384E-31,
-1.));
#678=DIRECTION('ref_axis',(-1.,0.,4.07681843839214E-9));
#679=DIRECTION('center_axis',(1.,0.,-4.07681843839214E-9));
#680=DIRECTION('ref_axis',(-2.8827459080384E-9,-0.707106781186548,-0.707106781186548));
#681=DIRECTION('center_axis',(-1.,6.15389559103307E-40,4.0768185149456E-9));
#682=DIRECTION('ref_axis',(-2.8827459080384E-9,-0.707106781186548,-0.707106781186548));
#683=DIRECTION('',(-1.,0.,4.07681843839214E-9));
#684=DIRECTION('',(1.,0.,-4.07681843839214E-9));
#685=DIRECTION('center_axis',(0.,-1.,0.));
#686=DIRECTION('ref_axis',(-4.07681888248134E-9,0.,-1.));
#687=DIRECTION('',(-4.07681888248134E-9,0.,-1.));
#688=DIRECTION('',(1.,0.,-4.07681843839214E-9));
#689=DIRECTION('center_axis',(4.07681843839214E-9,2.48443508212174E-56,
1.));
#690=DIRECTION('ref_axis',(-1.,0.,4.07681843839214E-9));
#691=DIRECTION('',(4.07681843839214E-9,2.48443508212174E-56,1.));
#692=DIRECTION('center_axis',(4.07681843839214E-9,2.48443508212174E-56,
1.));
#693=DIRECTION('ref_axis',(-1.,0.,4.07681843839214E-9));
#694=DIRECTION('center_axis',(4.07681843839214E-9,2.48443508212174E-56,
1.));
#695=DIRECTION('ref_axis',(-1.,0.,4.07681843839214E-9));
#696=DIRECTION('center_axis',(4.07681843839214E-9,2.48443508212174E-56,
1.));
#697=DIRECTION('ref_axis',(-1.,0.,4.07681843839214E-9));
#698=DIRECTION('center_axis',(4.07681843839214E-9,2.48443508212174E-56,
1.));
#699=DIRECTION('ref_axis',(-1.,0.,4.07681843839214E-9));
#700=DIRECTION('',(4.07681843839214E-9,2.48443508212174E-56,1.));
#701=DIRECTION('center_axis',(-4.07681843839214E-9,4.12919372404384E-31,
-1.));
#702=DIRECTION('ref_axis',(-1.,0.,4.07681843839214E-9));
#703=DIRECTION('center_axis',(1.,0.,-4.07681843839214E-9));
#704=DIRECTION('ref_axis',(-4.07681843839214E-9,-1.22464679914736E-16,-1.));
#705=DIRECTION('',(1.,0.,-4.07681843839214E-9));
#706=DIRECTION('center_axis',(-1.,6.15389559103307E-40,4.0768185149456E-9));
#707=DIRECTION('ref_axis',(4.0768185149456E-9,4.56060210830897E-31,1.));
#708=DIRECTION('',(1.,0.,-4.07681843839214E-9));
#709=DIRECTION('center_axis',(4.07681843839214E-9,-4.12919372404384E-31,
1.));
#710=DIRECTION('ref_axis',(-2.29878690170121E-39,-1.,-4.12919372404384E-31));
#711=DIRECTION('',(-2.29878690170121E-39,-1.,-4.12919372404384E-31));
#712=DIRECTION('center_axis',(-4.07681843839214E-9,-2.48443508212174E-56,
-1.));
#713=DIRECTION('ref_axis',(6.15389559103307E-40,1.,-2.50883152619072E-48));
#714=DIRECTION('',(6.15389559103307E-40,1.,-2.50883152619072E-48));
#715=DIRECTION('center_axis',(4.07681843839214E-9,-4.12919372404384E-31,
1.));
#716=DIRECTION('ref_axis',(-2.29878690170121E-39,-1.,-4.12919372404384E-31));
#717=DIRECTION('',(-2.29878690170121E-39,-1.,-4.12919372404384E-31));
#718=DIRECTION('center_axis',(-1.,6.15389559103307E-40,4.0768185149456E-9));
#719=DIRECTION('ref_axis',(2.29878690170121E-39,1.,4.12919372404384E-31));
#720=DIRECTION('center_axis',(-1.,0.,4.07681843839214E-9));
#721=DIRECTION('ref_axis',(-2.8827459080384E-9,0.707106781186548,-0.707106781186548));
#722=DIRECTION('center_axis',(1.,-8.44947416039332E-40,-4.0768185149456E-9));
#723=DIRECTION('ref_axis',(-2.8827459080384E-9,0.707106781186548,-0.707106781186548));
#724=DIRECTION('',(1.,0.,-4.07681843839214E-9));
#725=DIRECTION('center_axis',(-1.,8.44947416039332E-40,4.0768185149456E-9));
#726=DIRECTION('ref_axis',(-2.8827459080384E-9,0.707106781186548,-0.707106781186548));
#727=DIRECTION('',(-1.,0.,4.07681843839214E-9));
#728=DIRECTION('center_axis',(-4.07681843839214E-9,-3.75232030353759E-55,
-1.));
#729=DIRECTION('ref_axis',(-8.44947416039332E-40,-1.,3.44469758041297E-48));
#730=DIRECTION('',(-8.44947416039332E-40,-1.,3.44469758041297E-48));
#731=DIRECTION('',(1.,0.,-4.07681843839214E-9));
#732=DIRECTION('',(-8.44947416039332E-40,-1.,3.44469758041297E-48));
#733=DIRECTION('center_axis',(1.,-8.44947416039332E-40,-4.0768185149456E-9));
#734=DIRECTION('ref_axis',(1.16370704716623E-30,-1.,2.8544489869859E-22));
#735=DIRECTION('',(-4.0768185149456E-9,0.,-1.));
#736=DIRECTION('',(-2.52834475863724E-39,-1.,-4.12919372404384E-31));
#737=DIRECTION('center_axis',(-1.,8.44947416039332E-40,4.0768185149456E-9));
#738=DIRECTION('ref_axis',(4.0768185149456E-9,4.56060210830897E-31,1.));
#739=DIRECTION('',(-2.52834475863724E-39,-1.,-4.12919372404384E-31));
#740=DIRECTION('',(-4.07681888248134E-9,0.,-1.));
#741=DIRECTION('center_axis',(-1.,8.44947416039332E-40,4.0768185149456E-9));
#742=DIRECTION('ref_axis',(-2.8827459080384E-9,-0.707106781186548,-0.707106781186548));
#743=DIRECTION('center_axis',(4.07681843839214E-9,3.75232030353759E-55,
1.));
#744=DIRECTION('ref_axis',(-1.,0.,4.07681843839214E-9));
#745=DIRECTION('',(4.07681843839214E-9,3.75232030353759E-55,1.));
#746=DIRECTION('center_axis',(4.07681843839214E-9,3.75232030353759E-55,
1.));
#747=DIRECTION('ref_axis',(-1.,0.,4.07681843839214E-9));
#748=DIRECTION('center_axis',(4.07681843839214E-9,3.75232030353759E-55,
1.));
#749=DIRECTION('ref_axis',(-1.,0.,4.07681843839214E-9));
#750=DIRECTION('center_axis',(4.07681843839214E-9,3.75232030353759E-55,
1.));
#751=DIRECTION('ref_axis',(-1.,0.,4.07681843839214E-9));
#752=DIRECTION('center_axis',(4.07681843839214E-9,3.75232030353759E-55,
1.));
#753=DIRECTION('ref_axis',(-1.,0.,4.07681843839214E-9));
#754=DIRECTION('',(4.07681843839214E-9,3.75232030353759E-55,1.));
#755=DIRECTION('center_axis',(-4.07681843839214E-9,4.12919372404384E-31,
-1.));
#756=DIRECTION('ref_axis',(-1.,0.,4.07681843839214E-9));
#757=DIRECTION('center_axis',(-1.,0.,4.07681843839214E-9));
#758=DIRECTION('ref_axis',(-2.8827459080384E-9,-0.707106781186548,-0.707106781186548));
#759=DIRECTION('center_axis',(1.,-8.44947416039332E-40,-4.0768185149456E-9));
#760=DIRECTION('ref_axis',(-2.8827459080384E-9,-0.707106781186548,-0.707106781186548));
#761=DIRECTION('',(-1.,0.,4.07681843839214E-9));
#762=DIRECTION('center_axis',(4.07681843839214E-9,3.75232030353759E-55,
1.));
#763=DIRECTION('ref_axis',(-1.,0.,4.07681843839214E-9));
#764=DIRECTION('',(4.07681843839214E-9,3.75232030353759E-55,1.));
#765=DIRECTION('center_axis',(4.07681843839214E-9,3.75232030353759E-55,
1.));
#766=DIRECTION('ref_axis',(-1.,0.,4.07681843839214E-9));
#767=DIRECTION('center_axis',(4.07681843839214E-9,3.75232030353759E-55,
1.));
#768=DIRECTION('ref_axis',(-1.,0.,4.07681843839214E-9));
#769=DIRECTION('center_axis',(4.07681843839214E-9,3.75232030353759E-55,
1.));
#770=DIRECTION('ref_axis',(-1.,0.,4.07681843839214E-9));
#771=DIRECTION('center_axis',(4.07681843839214E-9,3.75232030353759E-55,
1.));
#772=DIRECTION('ref_axis',(-1.,0.,4.07681843839214E-9));
#773=DIRECTION('',(4.07681843839214E-9,3.75232030353759E-55,1.));
#774=DIRECTION('center_axis',(-4.07681843839214E-9,4.12919372404384E-31,
-1.));
#775=DIRECTION('ref_axis',(-1.,0.,4.07681843839214E-9));
#776=DIRECTION('center_axis',(0.,-1.,0.));
#777=DIRECTION('ref_axis',(4.07681888248134E-9,0.,1.));
#778=DIRECTION('',(-1.,0.,4.07681843839214E-9));
#779=DIRECTION('',(4.07681888248134E-9,0.,1.));
#780=DIRECTION('center_axis',(0.,1.,0.));
#781=DIRECTION('ref_axis',(-4.0768185149456E-9,0.,-1.));
#782=DIRECTION('',(-4.0768185149456E-9,0.,-1.));
#783=DIRECTION('',(-1.,0.,4.07681843839214E-9));
#784=DIRECTION('center_axis',(4.07681843839214E-9,-4.12919372404384E-31,
1.));
#785=DIRECTION('ref_axis',(2.52834475863724E-39,1.,4.12919372404384E-31));
#786=DIRECTION('',(2.52834475863724E-39,1.,4.12919372404384E-31));
#787=DIRECTION('',(-1.,0.,4.07681843839214E-9));
#788=DIRECTION('center_axis',(-1.,0.,4.07681843839214E-9));
#789=DIRECTION('ref_axis',(-4.07681843839214E-9,1.22464679914735E-16,-1.));
#790=DIRECTION('center_axis',(1.,-8.44947416039332E-40,-4.0768185149456E-9));
#791=DIRECTION('ref_axis',(4.0768185149456E-9,4.56060210830897E-31,1.));
#792=DIRECTION('',(-1.,0.,4.07681843839214E-9));
#793=DIRECTION('center_axis',(4.07681843839214E-9,-4.12919372404384E-31,
1.));
#794=DIRECTION('ref_axis',(2.52834475863724E-39,1.,4.12919372404384E-31));
#795=DIRECTION('',(2.52834475863724E-39,1.,4.12919372404384E-31));
#796=DIRECTION('center_axis',(1.,-8.44947416039332E-40,-4.0768185149456E-9));
#797=DIRECTION('ref_axis',(1.16370704716623E-30,-1.,2.8544489869859E-22));
#798=CARTESIAN_POINT('',(0.,0.,0.));
#799=CARTESIAN_POINT('Origin',(-42.5000001112197,8.,-27.2809998267353));
#800=CARTESIAN_POINT('',(-32.5000001112197,25.,-27.2809998675035));
#801=CARTESIAN_POINT('',(-32.5000001805256,8.,-44.2809998675035));
#802=CARTESIAN_POINT('Origin',(-32.5000001112197,8.,-27.2809998675035));
#803=CARTESIAN_POINT('',(-42.5000001805256,8.,-44.2809998267353));
#804=CARTESIAN_POINT('',(-42.5000001805256,8.,-44.2809998267353));
#805=CARTESIAN_POINT('',(-42.5000001112197,25.,-27.2809998267353));
#806=CARTESIAN_POINT('Origin',(-42.5000001112197,8.,-27.2809998267353));
#807=CARTESIAN_POINT('',(-42.5000001112197,25.,-27.2809998267353));
#808=CARTESIAN_POINT('',(-37.5000001686942,17.5,-41.3788720269911));
#809=CARTESIAN_POINT('',(-35.0000001603111,20.,-39.3225944361037));
#810=CARTESIAN_POINT('Ctrl Pts',(-37.5000001686942,17.5,-41.3788720269911));
#811=CARTESIAN_POINT('Ctrl Pts',(-37.1929702908659,17.5,-41.3788720282428));
#812=CARTESIAN_POINT('Ctrl Pts',(-36.8699675356212,17.5603952475396,-41.3386909527966));
#813=CARTESIAN_POINT('Ctrl Pts',(-36.2861819411992,17.792001713516,-41.1783571635435));
#814=CARTESIAN_POINT('Ctrl Pts',(-36.0253123284993,17.96266231647,-41.0577258604429));
#815=CARTESIAN_POINT('Ctrl Pts',(-35.5422532066757,18.4001857369564,-40.7322329702782));
#816=CARTESIAN_POINT('Ctrl Pts',(-35.3271173620322,18.714371958066,-40.4865068418604));
#817=CARTESIAN_POINT('Ctrl Pts',(-35.0563500020348,19.3653094760854,-39.9306213328099));
#818=CARTESIAN_POINT('Ctrl Pts',(-35.000000161524,19.7014574218514,-39.6201057760132));
#819=CARTESIAN_POINT('Ctrl Pts',(-35.0000001603111,20.,-39.3225944361037));
#820=CARTESIAN_POINT('Ctrl Pts',(-35.0000001603111,20.,-39.3225944361037));
#821=CARTESIAN_POINT('Ctrl Pts',(-35.0000001588662,20.3556457668306,-38.9681771557309));
#822=CARTESIAN_POINT('Ctrl Pts',(-35.0786836638508,20.7217537901517,-38.5692645544371));
#823=CARTESIAN_POINT('Ctrl Pts',(-35.3868166607448,21.3849758724131,-37.774348191435));
#824=CARTESIAN_POINT('Ctrl Pts',(-35.6143418177379,21.6827709336296,-37.3781680012939));
#825=CARTESIAN_POINT('Ctrl Pts',(-36.0836170085854,22.0740276182795,-36.8200560648521));
#826=CARTESIAN_POINT('Ctrl Pts',(-36.3179795470011,22.222251318854,-36.5958633210429));
#827=CARTESIAN_POINT('Ctrl Pts',(-36.7267040269409,22.3818913725936,-36.3458208047381));
#828=CARTESIAN_POINT('Ctrl Pts',(-36.8725054424815,22.4249695192659,-36.2767394322098));
#829=CARTESIAN_POINT('Ctrl Pts',(-37.1777950848082,22.4840090379373,-36.1813760538617));
#830=CARTESIAN_POINT('Ctrl Pts',(-37.3372855454023,22.5,-36.1551195224322));
#831=CARTESIAN_POINT('Ctrl Pts',(-37.6627147493935,22.5,-36.1551195211054));
#832=CARTESIAN_POINT('Ctrl Pts',(-37.8222052102016,22.4840090379373,-36.1813760512346));
#833=CARTESIAN_POINT('Ctrl Pts',(-38.1274948533059,22.4249695192659,-36.2767394270934));
#834=CARTESIAN_POINT('Ctrl Pts',(-38.2732962694097,22.3818913725936,-36.3458207984329));
#835=CARTESIAN_POINT('Ctrl Pts',(-38.6820207513883,22.222251318854,-36.5958633114051));
#836=CARTESIAN_POINT('Ctrl Pts',(-38.916383291632,22.0740276182795,-36.8200560533034));
#837=CARTESIAN_POINT('Ctrl Pts',(-39.3856584870301,21.6827709336296,-37.3781679859189));
#838=CARTESIAN_POINT('Ctrl Pts',(-39.6131836472536,21.3849758724131,-37.7743481742049));
#839=CARTESIAN_POINT('Ctrl Pts',(-39.921316650629,20.7217537901517,-38.5692645346946));
#840=CARTESIAN_POINT('Ctrl Pts',(-40.0000001588662,20.3556457668306,-38.9681771353468));
#841=CARTESIAN_POINT('Ctrl Pts',(-40.000000161524,19.7014574218514,-39.6201057556291));
#842=CARTESIAN_POINT('Ctrl Pts',(-39.943650323545,19.3653094760854,-39.9306213128853));
#843=CARTESIAN_POINT('Ctrl Pts',(-39.6728829680801,18.714371958066,-40.4865068241435));
#844=CARTESIAN_POINT('Ctrl Pts',(-39.4577471254402,18.4001857369564,-40.7322329543155));
#845=CARTESIAN_POINT('Ctrl Pts',(-38.9746880062705,17.96266231647,-41.0577258484188));
#846=CARTESIAN_POINT('Ctrl Pts',(-38.7138183945542,17.792001713516,-41.1783571536465));
#847=CARTESIAN_POINT('Ctrl Pts',(-38.1300328014395,17.5603952475396,-41.3386909476595));
#848=CARTESIAN_POINT('Ctrl Pts',(-37.8070300465224,17.5,-41.3788720257394));
#849=CARTESIAN_POINT('Ctrl Pts',(-37.5000001686942,17.5,-41.3788720269911));
#850=CARTESIAN_POINT('Origin',(-42.5000001805256,25.,-44.2809998267353));
#851=CARTESIAN_POINT('',(-42.5000000737352,25.,-18.0864667461206));
#852=CARTESIAN_POINT('',(-42.5000001601415,25.,-39.2809998267353));
#853=CARTESIAN_POINT('',(-32.5000000737352,25.,-18.0864667868888));
#854=CARTESIAN_POINT('',(-42.5000000737352,25.,-18.0864667461206));
#855=CARTESIAN_POINT('',(-32.5000001601415,25.,-39.2809998675035));
#856=CARTESIAN_POINT('Origin',(-42.5,-25.,1.73264718937188E-7));
#857=CARTESIAN_POINT('',(-42.5000001805256,-8.,-44.2809998267353));
#858=CARTESIAN_POINT('',(-42.5000001805256,-12.5,-44.2809998267353));
#859=CARTESIAN_POINT('',(-42.5000001112197,-25.,-27.2809998267353));
#860=CARTESIAN_POINT('Origin',(-42.5000001112197,-8.,-27.2809998267353));
#861=CARTESIAN_POINT('',(-42.5000000737352,-25.,-18.0864667461206));
#862=CARTESIAN_POINT('',(-42.5000001601415,-25.,-39.2809998267353));
#863=CARTESIAN_POINT('',(-42.5000000737352,-14.9996666629629,-18.0864667461206));
#864=CARTESIAN_POINT('',(-42.5000000737352,-25.,-18.0864667461206));
#865=CARTESIAN_POINT('',(-42.5000000737352,14.9996666629629,-18.0864667461206));
#866=CARTESIAN_POINT('Origin',(-42.5000000733276,1.48497161650945E-28,-17.9864667461206));
#867=CARTESIAN_POINT('',(-42.5000000737352,-5.00016666851856,-18.0864667461206));
#868=CARTESIAN_POINT('Origin',(-37.5000001540263,20.,-37.7809998471194));
#869=CARTESIAN_POINT('',(-35.000000127527,20.,-31.2809998573114));
#870=CARTESIAN_POINT('',(-35.0000001540263,20.,-37.7809998573114));
#871=CARTESIAN_POINT('Origin',(-37.500000127527,20.,-31.2809998471194));
#872=CARTESIAN_POINT('Origin',(-37.500000127527,20.,-31.2809998471194));
#873=CARTESIAN_POINT('',(-36.200000127527,20.,-31.2809998524192));
#874=CARTESIAN_POINT('Origin',(-37.500000127527,20.,-31.2809998471194));
#875=CARTESIAN_POINT('Origin',(-37.5000000887972,20.,-21.7809998471194));
#876=CARTESIAN_POINT('',(-36.2000000737353,20.,-18.0864667718045));
#877=CARTESIAN_POINT('',(-36.2000000887972,20.,-21.7809998524192));
#878=CARTESIAN_POINT('Origin',(-37.5000000737353,20.,-18.0864667665047));
#879=CARTESIAN_POINT('Origin',(-42.5000001112197,-8.,-27.2809998267353));
#880=CARTESIAN_POINT('',(-32.5000001805256,-8.,-44.2809998675035));
#881=CARTESIAN_POINT('',(-32.5000001112197,-25.,-27.2809998675035));
#882=CARTESIAN_POINT('Origin',(-32.5000001112197,-8.,-27.2809998675035));
#883=CARTESIAN_POINT('',(-42.5000001112197,-25.,-27.2809998267353));
#884=CARTESIAN_POINT('',(-42.5000001805256,-8.,-44.2809998267353));
#885=CARTESIAN_POINT('',(-37.5000001473979,-22.5,-36.1551195217688));
#886=CARTESIAN_POINT('',(-35.0000001603111,-20.,-39.3225944361037));
#887=CARTESIAN_POINT('Ctrl Pts',(-37.5000001473979,-22.5,-36.1551195217688));
#888=CARTESIAN_POINT('Ctrl Pts',(-37.3100258388838,-22.5,-36.1551195225433));
#889=CARTESIAN_POINT('Ctrl Pts',(-37.1284131706358,-22.4784669190011,-36.1905017206219));
#890=CARTESIAN_POINT('Ctrl Pts',(-36.7853550560894,-22.4021170515095,-36.313400595324));
#891=CARTESIAN_POINT('Ctrl Pts',(-36.6239315548224,-22.3472086487876,-36.4009215951013));
#892=CARTESIAN_POINT('Ctrl Pts',(-36.1753335235939,-22.1454129850316,-36.7133254394592));
#893=CARTESIAN_POINT('Ctrl Pts',(-35.9244792425871,-21.9600129977265,-36.9879787611719));
#894=CARTESIAN_POINT('Ctrl Pts',(-35.504015796057,-21.5395495488299,-37.5684656752248));
#895=CARTESIAN_POINT('Ctrl Pts',(-35.3163465778333,-21.2611760576865,-37.9282071162475));
#896=CARTESIAN_POINT('Ctrl Pts',(-35.0638847282302,-20.6513443553103,-38.6460911102932));
#897=CARTESIAN_POINT('Ctrl Pts',(-35.0000001590131,-20.3194856053677,-39.0042124112542));
#898=CARTESIAN_POINT('Ctrl Pts',(-35.0000001603111,-20.,-39.3225944361037));
#899=CARTESIAN_POINT('Ctrl Pts',(-35.0000001603111,-20.,-39.3225944361037));
#900=CARTESIAN_POINT('Ctrl Pts',(-35.000000161524,-19.7014574218514,-39.6201057760132));
#901=CARTESIAN_POINT('Ctrl Pts',(-35.0563500020348,-19.3653094760854,-39.9306213328099));
#902=CARTESIAN_POINT('Ctrl Pts',(-35.3271173620322,-18.714371958066,-40.4865068418604));
#903=CARTESIAN_POINT('Ctrl Pts',(-35.5422532066757,-18.4001857369564,-40.7322329702782));
#904=CARTESIAN_POINT('Ctrl Pts',(-36.0253123284993,-17.96266231647,-41.0577258604429));
#905=CARTESIAN_POINT('Ctrl Pts',(-36.2861819411992,-17.792001713516,-41.1783571635435));
#906=CARTESIAN_POINT('Ctrl Pts',(-36.8699675356212,-17.5603952475396,-41.3386909527966));
#907=CARTESIAN_POINT('Ctrl Pts',(-37.1929702908659,-17.5,-41.3788720282428));
#908=CARTESIAN_POINT('Ctrl Pts',(-37.8070300465224,-17.5,-41.3788720257394));
#909=CARTESIAN_POINT('Ctrl Pts',(-38.1300328014395,-17.5603952475396,-41.3386909476596));
#910=CARTESIAN_POINT('Ctrl Pts',(-38.7138183945542,-17.792001713516,-41.1783571536465));
#911=CARTESIAN_POINT('Ctrl Pts',(-38.9746880062705,-17.96266231647,-41.0577258484188));
#912=CARTESIAN_POINT('Ctrl Pts',(-39.4577471254402,-18.4001857369564,-40.7322329543155));
#913=CARTESIAN_POINT('Ctrl Pts',(-39.6728829680801,-18.714371958066,-40.4865068241435));
#914=CARTESIAN_POINT('Ctrl Pts',(-39.943650323545,-19.3653094760854,-39.9306213128853));
#915=CARTESIAN_POINT('Ctrl Pts',(-40.000000161524,-19.7014574218514,-39.6201057556291));
#916=CARTESIAN_POINT('Ctrl Pts',(-40.0000001588662,-20.3556457668306,-38.9681771353468));
#917=CARTESIAN_POINT('Ctrl Pts',(-39.921316650629,-20.7217537901517,-38.5692645346946));
#918=CARTESIAN_POINT('Ctrl Pts',(-39.6131836472536,-21.3849758724131,-37.7743481742049));
#919=CARTESIAN_POINT('Ctrl Pts',(-39.3856584870301,-21.6827709336296,-37.3781679859189));
#920=CARTESIAN_POINT('Ctrl Pts',(-38.916383291632,-22.0740276182795,-36.8200560533034));
#921=CARTESIAN_POINT('Ctrl Pts',(-38.6820207513883,-22.222251318854,-36.5958633114051));
#922=CARTESIAN_POINT('Ctrl Pts',(-38.2732962694097,-22.3818913725936,-36.3458207984329));
#923=CARTESIAN_POINT('Ctrl Pts',(-38.1274948533059,-22.4249695192659,-36.2767394270934));
#924=CARTESIAN_POINT('Ctrl Pts',(-37.8222052102016,-22.4840090379373,-36.1813760512346));
#925=CARTESIAN_POINT('Ctrl Pts',(-37.6627147493935,-22.5,-36.1551195211054));
#926=CARTESIAN_POINT('Ctrl Pts',(-37.5000001473979,-22.5,-36.1551195217688));
#927=CARTESIAN_POINT('Origin',(-42.5000000737353,-25.,-18.0864667461206));
#928=CARTESIAN_POINT('',(-32.5000000737352,-25.,-18.0864667868888));
#929=CARTESIAN_POINT('',(-32.5000001601415,-25.,-39.2809998675035));
#930=CARTESIAN_POINT('',(-42.5000000737352,-25.,-18.0864667461206));
#931=CARTESIAN_POINT('Origin',(-37.5000001540263,-20.,-37.7809998471195));
#932=CARTESIAN_POINT('',(-35.000000127527,-20.,-31.2809998573116));
#933=CARTESIAN_POINT('',(-35.0000001540263,-20.,-37.7809998573116));
#934=CARTESIAN_POINT('Origin',(-37.500000127527,-20.,-31.2809998471195));
#935=CARTESIAN_POINT('Origin',(-37.500000127527,-20.,-31.2809998471195));
#936=CARTESIAN_POINT('',(-36.200000127527,-20.,-31.2809998524194));
#937=CARTESIAN_POINT('Origin',(-37.500000127527,-20.,-31.2809998471195));
#938=CARTESIAN_POINT('Origin',(-37.5000000887972,-20.,-21.7809998471195));
#939=CARTESIAN_POINT('',(-36.2000000737353,-20.,-18.0864667718045));
#940=CARTESIAN_POINT('',(-36.2000000887972,-20.,-21.7809998524194));
#941=CARTESIAN_POINT('Origin',(-37.5000000737353,-20.,-18.0864667665047));
#942=CARTESIAN_POINT('Origin',(-42.5000000733276,1.48497161650945E-28,-17.9864667461206));
#943=CARTESIAN_POINT('',(-32.5000000737352,-14.9996666629629,-18.0864667868888));
#944=CARTESIAN_POINT('',(-42.5000000737352,-14.9996666629629,-18.0864667461206));
#945=CARTESIAN_POINT('',(-32.5000000737352,14.9996666629629,-18.0864667868888));
#946=CARTESIAN_POINT('Origin',(-32.5000000733276,1.48497161650945E-28,-17.9864667868888));
#947=CARTESIAN_POINT('',(-42.5000000737352,14.9996666629629,-18.0864667461206));
#948=CARTESIAN_POINT('Origin',(-42.5000000737352,25.,-18.0864667461206));
#949=CARTESIAN_POINT('',(-32.5000000737352,-5.00016666851856,-18.0864667868888));
#950=CARTESIAN_POINT('Origin',(-42.5000001805256,-25.,-44.2809998267353));
#951=CARTESIAN_POINT('',(-32.5000001805256,-12.5,-44.2809998675035));
#952=CARTESIAN_POINT('Origin',(-42.5000000737352,-14.9996666629629,-18.0864667461206));
#953=CARTESIAN_POINT('',(-32.5000000737352,-25.,-18.0864667868888));
#954=CARTESIAN_POINT('Origin',(-32.5,-25.,1.32496536773713E-7));
#955=CARTESIAN_POINT('Origin',(42.4999998887803,8.,-27.2810001732649));
#956=CARTESIAN_POINT('',(32.4999998194744,8.,-44.2810001324967));
#957=CARTESIAN_POINT('',(32.4999998887803,25.,-27.2810001324967));
#958=CARTESIAN_POINT('Origin',(32.4999998887803,8.,-27.2810001324967));
#959=CARTESIAN_POINT('',(42.4999998887803,25.,-27.2810001732649));
#960=CARTESIAN_POINT('',(42.4999998887803,25.,-27.2810001732649));
#961=CARTESIAN_POINT('',(42.4999998194744,8.,-44.2810001732649));
#962=CARTESIAN_POINT('Origin',(42.4999998887803,8.,-27.2810001732649));
#963=CARTESIAN_POINT('',(42.4999998194744,8.,-44.2810001732649));
#964=CARTESIAN_POINT('',(37.4999998526021,22.5,-36.1551198275302));
#965=CARTESIAN_POINT('',(39.9999998396889,20.,-39.3225947418651));
#966=CARTESIAN_POINT('Ctrl Pts',(37.4999998526021,22.5,-36.1551198275302));
#967=CARTESIAN_POINT('Ctrl Pts',(37.3372852506065,22.5,-36.1551198268668));
#968=CARTESIAN_POINT('Ctrl Pts',(37.1777947897984,22.4840090379373,-36.181376356996));
#969=CARTESIAN_POINT('Ctrl Pts',(36.8725051466941,22.4249695192659,-36.2767397328548));
#970=CARTESIAN_POINT('Ctrl Pts',(36.7267037305903,22.3818913725936,-36.3458211041943));
#971=CARTESIAN_POINT('Ctrl Pts',(36.3179792486117,22.222251318854,-36.5958636171665));
#972=CARTESIAN_POINT('Ctrl Pts',(36.083616708368,22.0740276182795,-36.8200563590648));
#973=CARTESIAN_POINT('Ctrl Pts',(35.6143415129699,21.6827709336296,-37.3781682916803));
#974=CARTESIAN_POINT('Ctrl Pts',(35.3868163527464,21.3849758724131,-37.7743484799663));
#975=CARTESIAN_POINT('Ctrl Pts',(35.078683349371,20.7217537901517,-38.569264840456));
#976=CARTESIAN_POINT('Ctrl Pts',(34.9999998411338,20.3556457668306,-38.9681774411082));
#977=CARTESIAN_POINT('Ctrl Pts',(34.999999838476,19.7014574218514,-39.6201060613905));
#978=CARTESIAN_POINT('Ctrl Pts',(35.056349676455,19.3653094760854,-39.9306216186467));
#979=CARTESIAN_POINT('Ctrl Pts',(35.3271170319199,18.714371958066,-40.4865071299049));
#980=CARTESIAN_POINT('Ctrl Pts',(35.5422528745598,18.4001857369564,-40.7322332600769));
#981=CARTESIAN_POINT('Ctrl Pts',(36.0253119937295,17.96266231647,-41.0577261541802));
#982=CARTESIAN_POINT('Ctrl Pts',(36.2861816054458,17.792001713516,-41.1783574594079));
#983=CARTESIAN_POINT('Ctrl Pts',(36.8699671985605,17.5603952475396,-41.3386912534209));
#984=CARTESIAN_POINT('Ctrl Pts',(37.1929699534776,17.5,-41.3788723315007));
#985=CARTESIAN_POINT('Ctrl Pts',(37.8070297091341,17.5,-41.3788723340041));
#986=CARTESIAN_POINT('Ctrl Pts',(38.1300324643788,17.5603952475396,-41.338691258558));
#987=CARTESIAN_POINT('Ctrl Pts',(38.7138180588008,17.792001713516,-41.1783574693049));
#988=CARTESIAN_POINT('Ctrl Pts',(38.9746876715007,17.96266231647,-41.0577261662043));
#989=CARTESIAN_POINT('Ctrl Pts',(39.4577467933243,18.4001857369564,-40.7322332760396));
#990=CARTESIAN_POINT('Ctrl Pts',(39.6728826379678,18.714371958066,-40.4865071476218));
#991=CARTESIAN_POINT('Ctrl Pts',(39.9436499979652,19.3653094760854,-39.9306216385713));
#992=CARTESIAN_POINT('Ctrl Pts',(39.999999838476,19.7014574218514,-39.6201060817746));
#993=CARTESIAN_POINT('Ctrl Pts',(39.9999998396889,20.,-39.3225947418651));
#994=CARTESIAN_POINT('Ctrl Pts',(39.9999998396889,20.,-39.3225947418651));
#995=CARTESIAN_POINT('Ctrl Pts',(39.9999998411338,20.3556457668306,-38.9681774614923));
#996=CARTESIAN_POINT('Ctrl Pts',(39.9213163361492,20.7217537901517,-38.5692648601985));
#997=CARTESIAN_POINT('Ctrl Pts',(39.6131833392553,21.3849758724131,-37.7743484971964));
#998=CARTESIAN_POINT('Ctrl Pts',(39.3856581822621,21.6827709336296,-37.3781683070552));
#999=CARTESIAN_POINT('Ctrl Pts',(38.9163829914146,22.0740276182795,-36.8200563706135));
#1000=CARTESIAN_POINT('Ctrl Pts',(38.6820204529989,22.222251318854,-36.5958636268043));
#1001=CARTESIAN_POINT('Ctrl Pts',(38.2732959730591,22.3818913725936,-36.3458211104995));
#1002=CARTESIAN_POINT('Ctrl Pts',(38.1274945575185,22.4249695192659,-36.2767397379712));
#1003=CARTESIAN_POINT('Ctrl Pts',(37.8222049151918,22.4840090379373,-36.1813763596231));
#1004=CARTESIAN_POINT('Ctrl Pts',(37.6627144545977,22.5,-36.1551198281935));
#1005=CARTESIAN_POINT('Ctrl Pts',(37.4999998526021,22.5,-36.1551198275302));
#1006=CARTESIAN_POINT('Origin',(42.4999998194744,25.,-44.2810001732649));
#1007=CARTESIAN_POINT('',(42.4999998194744,-8.,-44.2810001732649));
#1008=CARTESIAN_POINT('',(42.4999998194744,12.5,-44.2810001732649));
#1009=CARTESIAN_POINT('',(32.4999998194744,-8.,-44.2810001324967));
#1010=CARTESIAN_POINT('',(42.4999998194744,-8.,-44.2810001732649));
#1011=CARTESIAN_POINT('',(32.4999998194744,12.5,-44.2810001324967));
#1012=CARTESIAN_POINT('Origin',(42.5,25.,-1.73264854764837E-7));
#1013=CARTESIAN_POINT('',(42.4999999262648,25.,-18.0864670926502));
#1014=CARTESIAN_POINT('',(42.5,25.,-1.73264854764837E-7));
#1015=CARTESIAN_POINT('',(42.4999999262648,14.9996666629629,-18.0864670926502));
#1016=CARTESIAN_POINT('',(42.4999999262648,19.9998333314814,-18.0864670926502));
#1017=CARTESIAN_POINT('',(42.4999999262648,-14.9996666629629,-18.0864670926502));
#1018=CARTESIAN_POINT('Origin',(42.4999999266724,1.48497161650945E-28,-17.9864667461202));
#1019=CARTESIAN_POINT('',(42.4999999262648,-25.,-18.0864670926502));
#1020=CARTESIAN_POINT('',(42.4999999262648,3.73412624877235E-30,-18.0864670926502));
#1021=CARTESIAN_POINT('',(42.4999998887803,-25.,-27.2810001732649));
#1022=CARTESIAN_POINT('',(42.4999998398585,-25.,-39.2810001732649));
#1023=CARTESIAN_POINT('Origin',(42.4999998887803,-8.,-27.2810001732649));
#1024=CARTESIAN_POINT('Origin',(37.4999998459737,20.,-37.7810001528808));
#1025=CARTESIAN_POINT('',(39.999999872473,20.,-31.2810001630728));
#1026=CARTESIAN_POINT('',(39.9999998459737,20.,-37.7810001630728));
#1027=CARTESIAN_POINT('Origin',(37.499999872473,20.,-31.2810001528808));
#1028=CARTESIAN_POINT('Origin',(37.499999872473,20.,-31.2810001528808));
#1029=CARTESIAN_POINT('',(38.799999872473,20.,-31.2810001581806));
#1030=CARTESIAN_POINT('Origin',(37.499999872473,20.,-31.2810001528808));
#1031=CARTESIAN_POINT('Origin',(37.4999999112028,20.,-21.7810001528808));
#1032=CARTESIAN_POINT('',(38.7999999262648,20.,-18.0864670775659));
#1033=CARTESIAN_POINT('',(38.7999999112028,20.,-21.7810001581806));
#1034=CARTESIAN_POINT('Origin',(37.4999999262648,20.,-18.0864670722661));
#1035=CARTESIAN_POINT('Origin',(42.4999998887803,-8.,-27.2810001732649));
#1036=CARTESIAN_POINT('',(32.4999998887803,-25.,-27.2810001324967));
#1037=CARTESIAN_POINT('Origin',(32.4999998887803,-8.,-27.2810001324967));
#1038=CARTESIAN_POINT('',(42.4999998887803,-25.,-27.2810001732649));
#1039=CARTESIAN_POINT('',(37.4999998313058,-17.5,-41.3788723327524));
#1040=CARTESIAN_POINT('',(39.9999998396889,-20.,-39.3225947418651));
#1041=CARTESIAN_POINT('Ctrl Pts',(37.4999998313058,-17.5,-41.3788723327524));
#1042=CARTESIAN_POINT('Ctrl Pts',(37.1929699534776,-17.5,-41.3788723315007));
#1043=CARTESIAN_POINT('Ctrl Pts',(36.8699671985605,-17.5603952475396,-41.3386912534209));
#1044=CARTESIAN_POINT('Ctrl Pts',(36.2861816054458,-17.792001713516,-41.1783574594079));
#1045=CARTESIAN_POINT('Ctrl Pts',(36.0253119937295,-17.96266231647,-41.0577261541802));
#1046=CARTESIAN_POINT('Ctrl Pts',(35.5422528745598,-18.4001857369564,-40.7322332600769));
#1047=CARTESIAN_POINT('Ctrl Pts',(35.3271170319199,-18.714371958066,-40.4865071299049));
#1048=CARTESIAN_POINT('Ctrl Pts',(35.056349676455,-19.3653094760854,-39.9306216186467));
#1049=CARTESIAN_POINT('Ctrl Pts',(34.999999838476,-19.7014574218514,-39.6201060613905));
#1050=CARTESIAN_POINT('Ctrl Pts',(34.9999998411338,-20.3556457668306,-38.9681774411082));
#1051=CARTESIAN_POINT('Ctrl Pts',(35.078683349371,-20.7217537901517,-38.569264840456));
#1052=CARTESIAN_POINT('Ctrl Pts',(35.3868163527464,-21.3849758724131,-37.7743484799663));
#1053=CARTESIAN_POINT('Ctrl Pts',(35.6143415129699,-21.6827709336296,-37.3781682916803));
#1054=CARTESIAN_POINT('Ctrl Pts',(36.083616708368,-22.0740276182795,-36.8200563590648));
#1055=CARTESIAN_POINT('Ctrl Pts',(36.3179792486117,-22.222251318854,-36.5958636171665));
#1056=CARTESIAN_POINT('Ctrl Pts',(36.7267037305903,-22.3818913725936,-36.3458211041943));
#1057=CARTESIAN_POINT('Ctrl Pts',(36.8725051466941,-22.4249695192659,-36.2767397328548));
#1058=CARTESIAN_POINT('Ctrl Pts',(37.1777947897984,-22.4840090379373,-36.181376356996));
#1059=CARTESIAN_POINT('Ctrl Pts',(37.3372852506066,-22.5,-36.1551198268668));
#1060=CARTESIAN_POINT('Ctrl Pts',(37.6899741611162,-22.5,-36.1551198283047));
#1061=CARTESIAN_POINT('Ctrl Pts',(37.8715868293642,-22.4784669190011,-36.1905020263833));
#1062=CARTESIAN_POINT('Ctrl Pts',(38.2146449439106,-22.4021170515095,-36.3134009010854));
#1063=CARTESIAN_POINT('Ctrl Pts',(38.3760684451776,-22.3472086487876,-36.4009219008626));
#1064=CARTESIAN_POINT('Ctrl Pts',(38.8246664764061,-22.1454129850316,-36.7133257452206));
#1065=CARTESIAN_POINT('Ctrl Pts',(39.075520757413,-21.9600129977265,-36.9879790669333));
#1066=CARTESIAN_POINT('Ctrl Pts',(39.495984203943,-21.5395495488299,-37.5684659809862));
#1067=CARTESIAN_POINT('Ctrl Pts',(39.6836534221667,-21.2611760576865,-37.9282074220089));
#1068=CARTESIAN_POINT('Ctrl Pts',(39.9361152717698,-20.6513443553103,-38.6460914160546));
#1069=CARTESIAN_POINT('Ctrl Pts',(39.9999998409869,-20.3194856053677,-39.0042127170156));
#1070=CARTESIAN_POINT('Ctrl Pts',(39.9999998396889,-20.,-39.3225947418651));
#1071=CARTESIAN_POINT('Ctrl Pts',(39.9999998396889,-20.,-39.3225947418651));
#1072=CARTESIAN_POINT('Ctrl Pts',(39.999999838476,-19.7014574218514,-39.6201060817746));
#1073=CARTESIAN_POINT('Ctrl Pts',(39.9436499979652,-19.3653094760854,-39.9306216385713));
#1074=CARTESIAN_POINT('Ctrl Pts',(39.6728826379678,-18.714371958066,-40.4865071476218));
#1075=CARTESIAN_POINT('Ctrl Pts',(39.4577467933243,-18.4001857369564,-40.7322332760396));
#1076=CARTESIAN_POINT('Ctrl Pts',(38.9746876715007,-17.96266231647,-41.0577261662043));
#1077=CARTESIAN_POINT('Ctrl Pts',(38.7138180588008,-17.792001713516,-41.1783574693049));
#1078=CARTESIAN_POINT('Ctrl Pts',(38.1300324643788,-17.5603952475396,-41.338691258558));
#1079=CARTESIAN_POINT('Ctrl Pts',(37.8070297091341,-17.5,-41.3788723340042));
#1080=CARTESIAN_POINT('Ctrl Pts',(37.4999998313058,-17.5,-41.3788723327525));
#1081=CARTESIAN_POINT('Origin',(37.4999998459737,-20.,-37.7810001528808));
#1082=CARTESIAN_POINT('',(39.999999872473,-20.,-31.2810001630728));
#1083=CARTESIAN_POINT('',(39.9999998459737,-20.,-37.7810001630728));
#1084=CARTESIAN_POINT('Origin',(37.499999872473,-20.,-31.2810001528808));
#1085=CARTESIAN_POINT('Origin',(37.499999872473,-20.,-31.2810001528808));
#1086=CARTESIAN_POINT('',(38.799999872473,-20.,-31.2810001581806));
#1087=CARTESIAN_POINT('Origin',(37.499999872473,-20.,-31.2810001528808));
#1088=CARTESIAN_POINT('Origin',(37.4999999112028,-20.,-21.7810001528808));
#1089=CARTESIAN_POINT('',(38.7999999262648,-20.,-18.0864670775659));
#1090=CARTESIAN_POINT('',(38.7999999112028,-20.,-21.7810001581806));
#1091=CARTESIAN_POINT('Origin',(37.4999999262648,-20.,-18.0864670722661));
#1092=CARTESIAN_POINT('Origin',(42.4999998194744,-25.,-44.2810001732649));
#1093=CARTESIAN_POINT('',(32.4999999262648,-25.,-18.086467051882));
#1094=CARTESIAN_POINT('',(42.4999999262648,-25.,-18.0864670926502));
#1095=CARTESIAN_POINT('',(32.4999998398585,-25.,-39.2810001324967));
#1096=CARTESIAN_POINT('Origin',(42.4999999262648,25.,-18.0864670926502));
#1097=CARTESIAN_POINT('',(32.4999999262648,25.,-18.086467051882));
#1098=CARTESIAN_POINT('',(32.5,25.,-1.32496668160469E-7));
#1099=CARTESIAN_POINT('',(42.4999999262648,25.,-18.0864670926502));
#1100=CARTESIAN_POINT('Origin',(42.4999999262648,14.9996666629629,-18.0864670926502));
#1101=CARTESIAN_POINT('',(32.4999999262648,14.9996666629629,-18.086467051882));
#1102=CARTESIAN_POINT('',(32.4999999262648,19.9998333314814,-18.086467051882));
#1103=CARTESIAN_POINT('',(42.4999999262648,14.9996666629629,-18.0864670926502));
#1104=CARTESIAN_POINT('Origin',(42.4999999266724,1.48497161650945E-28,-17.9864667461202));
#1105=CARTESIAN_POINT('',(32.4999999262648,-14.9996666629629,-18.086467051882));
#1106=CARTESIAN_POINT('Origin',(32.4999999266724,1.48497161650945E-28,-17.986466705352));
#1107=CARTESIAN_POINT('',(42.4999999262648,-14.9996666629629,-18.0864670926502));
#1108=CARTESIAN_POINT('Origin',(42.4999999262648,-25.,-18.0864670926502));
#1109=CARTESIAN_POINT('',(32.4999999262648,3.73412624877235E-30,-18.086467051882));
#1110=CARTESIAN_POINT('Origin',(32.5,25.,-1.32496668160469E-7));
#1111=UNCERTAINTY_MEASURE_WITH_UNIT(LENGTH_MEASURE(0.01),#1115,
'DISTANCE_ACCURACY_VALUE',
'Maximum model space distance between geometric entities at asserted c
onnectivities');
#1112=UNCERTAINTY_MEASURE_WITH_UNIT(LENGTH_MEASURE(0.01),#1115,
'DISTANCE_ACCURACY_VALUE',
'Maximum model space distance between geometric entities at asserted c
onnectivities');
#1113=(
GEOMETRIC_REPRESENTATION_CONTEXT(3)
GLOBAL_UNCERTAINTY_ASSIGNED_CONTEXT((#1111))
GLOBAL_UNIT_ASSIGNED_CONTEXT((#1115,#1117,#1118))
REPRESENTATION_CONTEXT('','3D')
);
#1114=(
GEOMETRIC_REPRESENTATION_CONTEXT(3)
GLOBAL_UNCERTAINTY_ASSIGNED_CONTEXT((#1112))
GLOBAL_UNIT_ASSIGNED_CONTEXT((#1115,#1117,#1118))
REPRESENTATION_CONTEXT('','3D')
);
#1115=(
LENGTH_UNIT()
NAMED_UNIT(*)
SI_UNIT(.MILLI.,.METRE.)
);
#1116=(
LENGTH_UNIT()
NAMED_UNIT(*)
SI_UNIT($,.METRE.)
);
#1117=(
NAMED_UNIT(*)
PLANE_ANGLE_UNIT()
SI_UNIT($,.RADIAN.)
);
#1118=(
NAMED_UNIT(*)
SI_UNIT($,.STERADIAN.)
SOLID_ANGLE_UNIT()
);
#1119=SHAPE_DEFINITION_REPRESENTATION(#1120,#1121);
#1120=PRODUCT_DEFINITION_SHAPE('',$,#1123);
#1121=SHAPE_REPRESENTATION('',(#583),#1113);
#1122=PRODUCT_DEFINITION_CONTEXT('part definition',#1127,'design');
#1123=PRODUCT_DEFINITION('CLAMP BOX','CLAMP BOX',#1124,#1122);
#1124=PRODUCT_DEFINITION_FORMATION('',$,#1129);
#1125=PRODUCT_RELATED_PRODUCT_CATEGORY('CLAMP BOX','CLAMP BOX',(#1129));
#1126=APPLICATION_PROTOCOL_DEFINITION('international standard',
'automotive_design',2009,#1127);
#1127=APPLICATION_CONTEXT(
'Core Data for Automotive Mechanical Design Process');
#1128=PRODUCT_CONTEXT('part definition',#1127,'mechanical');
#1129=PRODUCT('CLAMP BOX','CLAMP BOX',$,(#1128));
#1130=PRESENTATION_STYLE_ASSIGNMENT((#1132));
#1131=PRESENTATION_STYLE_ASSIGNMENT((#1133));
#1132=SURFACE_STYLE_USAGE(.BOTH.,#1134);
#1133=SURFACE_STYLE_USAGE(.BOTH.,#1135);
#1134=SURFACE_SIDE_STYLE('',(#1136));
#1135=SURFACE_SIDE_STYLE('',(#1137));
#1136=SURFACE_STYLE_FILL_AREA(#1138);
#1137=SURFACE_STYLE_FILL_AREA(#1139);
#1138=FILL_AREA_STYLE('Steel - Satin',(#1140));
#1139=FILL_AREA_STYLE('ABS (White)',(#1141));
#1140=FILL_AREA_STYLE_COLOUR('Steel - Satin',#1142);
#1141=FILL_AREA_STYLE_COLOUR('ABS (White)',#1143);
#1142=COLOUR_RGB('Steel - Satin',0.627450980392157,0.627450980392157,0.627450980392157);
#1143=COLOUR_RGB('ABS (White)',0.850980392156863,0.0901960784313725,0.0901960784313725);
ENDSEC;
END-ISO-10303-21;
