ISO-10303-21;
HEADER;
/* Generated by software containing ST-Developer
 * from STEP Tools, Inc. (www.steptools.com) 
 */

FILE_DESCRIPTION(
/* description */ (''),
/* implementation_level */ '2;1');

FILE_NAME(
/* name */ 'TUTUP BOX.step',
/* time_stamp */ '2026-06-07T21:09:05+07:00',
/* author */ (''),
/* organization */ (''),
/* preprocessor_version */ 'ST-DEVELOPER v20.1',
/* originating_system */ 'Autodesk Translation Framework v14.24.0.0',
/* authorisation */ '');

FILE_SCHEMA (('AUTOMOTIVE_DESIGN { 1 0 10303 214 3 1 1 }'));
ENDSEC;

DATA;
#10=MECHANICAL_DESIGN_GEOMETRIC_PRESENTATION_REPRESENTATION('',(#13),#581);
#11=SHAPE_REPRESENTATION_RELATIONSHIP('SRR','None',#588,#12);
#12=ADVANCED_BREP_SHAPE_REPRESENTATION('',(#14),#580);
#13=STYLED_ITEM('',(#598),#14);
#14=MANIFOLD_SOLID_BREP('Body1',#345);
#15=FACE_BOUND('',#71,.T.);
#16=FACE_BOUND('',#72,.T.);
#17=FACE_BOUND('',#73,.T.);
#18=FACE_BOUND('',#74,.T.);
#19=FACE_BOUND('',#76,.T.);
#20=FACE_BOUND('',#82,.T.);
#21=FACE_BOUND('',#83,.T.);
#22=FACE_BOUND('',#84,.T.);
#23=FACE_BOUND('',#85,.T.);
#24=PLANE('',#379);
#25=PLANE('',#380);
#26=PLANE('',#381);
#27=PLANE('',#382);
#28=PLANE('',#383);
#29=PLANE('',#384);
#30=PLANE('',#385);
#31=PLANE('',#386);
#32=PLANE('',#387);
#33=PLANE('',#388);
#34=PLANE('',#389);
#35=CYLINDRICAL_SURFACE('',#362,1.3);
#36=CYLINDRICAL_SURFACE('',#367,1.3);
#37=CYLINDRICAL_SURFACE('',#372,1.3);
#38=CYLINDRICAL_SURFACE('',#377,1.3);
#39=FACE_OUTER_BOUND('',#58,.T.);
#40=FACE_OUTER_BOUND('',#59,.T.);
#41=FACE_OUTER_BOUND('',#60,.T.);
#42=FACE_OUTER_BOUND('',#61,.T.);
#43=FACE_OUTER_BOUND('',#62,.T.);
#44=FACE_OUTER_BOUND('',#63,.T.);
#45=FACE_OUTER_BOUND('',#64,.T.);
#46=FACE_OUTER_BOUND('',#65,.T.);
#47=FACE_OUTER_BOUND('',#66,.T.);
#48=FACE_OUTER_BOUND('',#67,.T.);
#49=FACE_OUTER_BOUND('',#68,.T.);
#50=FACE_OUTER_BOUND('',#69,.T.);
#51=FACE_OUTER_BOUND('',#70,.T.);
#52=FACE_OUTER_BOUND('',#75,.T.);
#53=FACE_OUTER_BOUND('',#77,.T.);
#54=FACE_OUTER_BOUND('',#78,.T.);
#55=FACE_OUTER_BOUND('',#79,.T.);
#56=FACE_OUTER_BOUND('',#80,.T.);
#57=FACE_OUTER_BOUND('',#81,.T.);
#58=EDGE_LOOP('',(#234,#235,#236,#237));
#59=EDGE_LOOP('',(#238,#239,#240,#241));
#60=EDGE_LOOP('',(#242,#243,#244,#245));
#61=EDGE_LOOP('',(#246,#247,#248,#249));
#62=EDGE_LOOP('',(#250,#251,#252,#253));
#63=EDGE_LOOP('',(#254,#255,#256,#257));
#64=EDGE_LOOP('',(#258,#259,#260,#261));
#65=EDGE_LOOP('',(#262,#263,#264,#265));
#66=EDGE_LOOP('',(#266,#267,#268,#269));
#67=EDGE_LOOP('',(#270,#271,#272,#273));
#68=EDGE_LOOP('',(#274,#275,#276,#277));
#69=EDGE_LOOP('',(#278,#279,#280,#281));
#70=EDGE_LOOP('',(#282,#283,#284,#285));
#71=EDGE_LOOP('',(#286));
#72=EDGE_LOOP('',(#287));
#73=EDGE_LOOP('',(#288));
#74=EDGE_LOOP('',(#289));
#75=EDGE_LOOP('',(#290,#291,#292,#293));
#76=EDGE_LOOP('',(#294,#295,#296,#297));
#77=EDGE_LOOP('',(#298,#299,#300,#301));
#78=EDGE_LOOP('',(#302,#303,#304,#305));
#79=EDGE_LOOP('',(#306,#307,#308,#309));
#80=EDGE_LOOP('',(#310,#311,#312,#313));
#81=EDGE_LOOP('',(#314,#315,#316,#317));
#82=EDGE_LOOP('',(#318));
#83=EDGE_LOOP('',(#319));
#84=EDGE_LOOP('',(#320));
#85=EDGE_LOOP('',(#321));
#86=LINE('',#491,#118);
#87=LINE('',#495,#119);
#88=LINE('',#501,#120);
#89=LINE('',#505,#121);
#90=LINE('',#511,#122);
#91=LINE('',#515,#123);
#92=LINE('',#521,#124);
#93=LINE('',#525,#125);
#94=LINE('',#530,#126);
#95=LINE('',#532,#127);
#96=LINE('',#534,#128);
#97=LINE('',#535,#129);
#98=LINE('',#538,#130);
#99=LINE('',#540,#131);
#100=LINE('',#541,#132);
#101=LINE('',#544,#133);
#102=LINE('',#546,#134);
#103=LINE('',#547,#135);
#104=LINE('',#549,#136);
#105=LINE('',#550,#137);
#106=LINE('',#555,#138);
#107=LINE('',#557,#139);
#108=LINE('',#559,#140);
#109=LINE('',#560,#141);
#110=LINE('',#563,#142);
#111=LINE('',#565,#143);
#112=LINE('',#566,#144);
#113=LINE('',#569,#145);
#114=LINE('',#570,#146);
#115=LINE('',#573,#147);
#116=LINE('',#574,#148);
#117=LINE('',#576,#149);
#118=VECTOR('',#396,2.15);
#119=VECTOR('',#401,1.3);
#120=VECTOR('',#408,2.15);
#121=VECTOR('',#413,1.3);
#122=VECTOR('',#420,2.15);
#123=VECTOR('',#425,1.3);
#124=VECTOR('',#432,2.15);
#125=VECTOR('',#437,1.3);
#126=VECTOR('',#442,10.);
#127=VECTOR('',#443,10.);
#128=VECTOR('',#444,10.);
#129=VECTOR('',#445,10.);
#130=VECTOR('',#448,10.);
#131=VECTOR('',#449,10.);
#132=VECTOR('',#450,10.);
#133=VECTOR('',#453,10.);
#134=VECTOR('',#454,10.);
#135=VECTOR('',#455,10.);
#136=VECTOR('',#458,10.);
#137=VECTOR('',#459,10.);
#138=VECTOR('',#464,10.);
#139=VECTOR('',#465,10.);
#140=VECTOR('',#466,10.);
#141=VECTOR('',#467,10.);
#142=VECTOR('',#470,10.);
#143=VECTOR('',#471,10.);
#144=VECTOR('',#472,10.);
#145=VECTOR('',#475,10.);
#146=VECTOR('',#476,10.);
#147=VECTOR('',#479,10.);
#148=VECTOR('',#480,10.);
#149=VECTOR('',#483,10.);
#150=CIRCLE('',#360,3.);
#151=CIRCLE('',#361,1.3);
#152=CIRCLE('',#363,1.3);
#153=CIRCLE('',#365,3.);
#154=CIRCLE('',#366,1.3);
#155=CIRCLE('',#368,1.3);
#156=CIRCLE('',#370,3.);
#157=CIRCLE('',#371,1.3);
#158=CIRCLE('',#373,1.3);
#159=CIRCLE('',#375,3.);
#160=CIRCLE('',#376,1.3);
#161=CIRCLE('',#378,1.3);
#162=VERTEX_POINT('',#488);
#163=VERTEX_POINT('',#490);
#164=VERTEX_POINT('',#494);
#165=VERTEX_POINT('',#498);
#166=VERTEX_POINT('',#500);
#167=VERTEX_POINT('',#504);
#168=VERTEX_POINT('',#508);
#169=VERTEX_POINT('',#510);
#170=VERTEX_POINT('',#514);
#171=VERTEX_POINT('',#518);
#172=VERTEX_POINT('',#520);
#173=VERTEX_POINT('',#524);
#174=VERTEX_POINT('',#528);
#175=VERTEX_POINT('',#529);
#176=VERTEX_POINT('',#531);
#177=VERTEX_POINT('',#533);
#178=VERTEX_POINT('',#537);
#179=VERTEX_POINT('',#539);
#180=VERTEX_POINT('',#543);
#181=VERTEX_POINT('',#545);
#182=VERTEX_POINT('',#553);
#183=VERTEX_POINT('',#554);
#184=VERTEX_POINT('',#556);
#185=VERTEX_POINT('',#558);
#186=VERTEX_POINT('',#562);
#187=VERTEX_POINT('',#564);
#188=VERTEX_POINT('',#568);
#189=VERTEX_POINT('',#572);
#190=EDGE_CURVE('',#162,#162,#150,.T.);
#191=EDGE_CURVE('',#162,#163,#86,.T.);
#192=EDGE_CURVE('',#163,#163,#151,.T.);
#193=EDGE_CURVE('',#163,#164,#87,.T.);
#194=EDGE_CURVE('',#164,#164,#152,.T.);
#195=EDGE_CURVE('',#165,#165,#153,.T.);
#196=EDGE_CURVE('',#165,#166,#88,.T.);
#197=EDGE_CURVE('',#166,#166,#154,.T.);
#198=EDGE_CURVE('',#166,#167,#89,.T.);
#199=EDGE_CURVE('',#167,#167,#155,.T.);
#200=EDGE_CURVE('',#168,#168,#156,.T.);
#201=EDGE_CURVE('',#168,#169,#90,.T.);
#202=EDGE_CURVE('',#169,#169,#157,.T.);
#203=EDGE_CURVE('',#169,#170,#91,.T.);
#204=EDGE_CURVE('',#170,#170,#158,.T.);
#205=EDGE_CURVE('',#171,#171,#159,.T.);
#206=EDGE_CURVE('',#171,#172,#92,.T.);
#207=EDGE_CURVE('',#172,#172,#160,.T.);
#208=EDGE_CURVE('',#172,#173,#93,.T.);
#209=EDGE_CURVE('',#173,#173,#161,.T.);
#210=EDGE_CURVE('',#174,#175,#94,.T.);
#211=EDGE_CURVE('',#175,#176,#95,.T.);
#212=EDGE_CURVE('',#177,#176,#96,.T.);
#213=EDGE_CURVE('',#174,#177,#97,.T.);
#214=EDGE_CURVE('',#178,#174,#98,.T.);
#215=EDGE_CURVE('',#179,#177,#99,.T.);
#216=EDGE_CURVE('',#178,#179,#100,.T.);
#217=EDGE_CURVE('',#180,#178,#101,.T.);
#218=EDGE_CURVE('',#181,#179,#102,.T.);
#219=EDGE_CURVE('',#180,#181,#103,.T.);
#220=EDGE_CURVE('',#175,#180,#104,.T.);
#221=EDGE_CURVE('',#176,#181,#105,.T.);
#222=EDGE_CURVE('',#182,#183,#106,.T.);
#223=EDGE_CURVE('',#184,#182,#107,.T.);
#224=EDGE_CURVE('',#185,#184,#108,.T.);
#225=EDGE_CURVE('',#183,#185,#109,.T.);
#226=EDGE_CURVE('',#185,#186,#110,.T.);
#227=EDGE_CURVE('',#187,#186,#111,.T.);
#228=EDGE_CURVE('',#183,#187,#112,.T.);
#229=EDGE_CURVE('',#188,#187,#113,.T.);
#230=EDGE_CURVE('',#182,#188,#114,.T.);
#231=EDGE_CURVE('',#189,#188,#115,.T.);
#232=EDGE_CURVE('',#184,#189,#116,.T.);
#233=EDGE_CURVE('',#186,#189,#117,.T.);
#234=ORIENTED_EDGE('',*,*,#190,.F.);
#235=ORIENTED_EDGE('',*,*,#191,.T.);
#236=ORIENTED_EDGE('',*,*,#192,.T.);
#237=ORIENTED_EDGE('',*,*,#191,.F.);
#238=ORIENTED_EDGE('',*,*,#192,.F.);
#239=ORIENTED_EDGE('',*,*,#193,.T.);
#240=ORIENTED_EDGE('',*,*,#194,.F.);
#241=ORIENTED_EDGE('',*,*,#193,.F.);
#242=ORIENTED_EDGE('',*,*,#195,.F.);
#243=ORIENTED_EDGE('',*,*,#196,.T.);
#244=ORIENTED_EDGE('',*,*,#197,.T.);
#245=ORIENTED_EDGE('',*,*,#196,.F.);
#246=ORIENTED_EDGE('',*,*,#197,.F.);
#247=ORIENTED_EDGE('',*,*,#198,.T.);
#248=ORIENTED_EDGE('',*,*,#199,.F.);
#249=ORIENTED_EDGE('',*,*,#198,.F.);
#250=ORIENTED_EDGE('',*,*,#200,.F.);
#251=ORIENTED_EDGE('',*,*,#201,.T.);
#252=ORIENTED_EDGE('',*,*,#202,.T.);
#253=ORIENTED_EDGE('',*,*,#201,.F.);
#254=ORIENTED_EDGE('',*,*,#202,.F.);
#255=ORIENTED_EDGE('',*,*,#203,.T.);
#256=ORIENTED_EDGE('',*,*,#204,.F.);
#257=ORIENTED_EDGE('',*,*,#203,.F.);
#258=ORIENTED_EDGE('',*,*,#205,.F.);
#259=ORIENTED_EDGE('',*,*,#206,.T.);
#260=ORIENTED_EDGE('',*,*,#207,.T.);
#261=ORIENTED_EDGE('',*,*,#206,.F.);
#262=ORIENTED_EDGE('',*,*,#207,.F.);
#263=ORIENTED_EDGE('',*,*,#208,.T.);
#264=ORIENTED_EDGE('',*,*,#209,.F.);
#265=ORIENTED_EDGE('',*,*,#208,.F.);
#266=ORIENTED_EDGE('',*,*,#210,.T.);
#267=ORIENTED_EDGE('',*,*,#211,.T.);
#268=ORIENTED_EDGE('',*,*,#212,.F.);
#269=ORIENTED_EDGE('',*,*,#213,.F.);
#270=ORIENTED_EDGE('',*,*,#214,.T.);
#271=ORIENTED_EDGE('',*,*,#213,.T.);
#272=ORIENTED_EDGE('',*,*,#215,.F.);
#273=ORIENTED_EDGE('',*,*,#216,.F.);
#274=ORIENTED_EDGE('',*,*,#217,.T.);
#275=ORIENTED_EDGE('',*,*,#216,.T.);
#276=ORIENTED_EDGE('',*,*,#218,.F.);
#277=ORIENTED_EDGE('',*,*,#219,.F.);
#278=ORIENTED_EDGE('',*,*,#220,.T.);
#279=ORIENTED_EDGE('',*,*,#219,.T.);
#280=ORIENTED_EDGE('',*,*,#221,.F.);
#281=ORIENTED_EDGE('',*,*,#211,.F.);
#282=ORIENTED_EDGE('',*,*,#221,.T.);
#283=ORIENTED_EDGE('',*,*,#218,.T.);
#284=ORIENTED_EDGE('',*,*,#215,.T.);
#285=ORIENTED_EDGE('',*,*,#212,.T.);
#286=ORIENTED_EDGE('',*,*,#190,.T.);
#287=ORIENTED_EDGE('',*,*,#195,.T.);
#288=ORIENTED_EDGE('',*,*,#200,.T.);
#289=ORIENTED_EDGE('',*,*,#205,.T.);
#290=ORIENTED_EDGE('',*,*,#220,.F.);
#291=ORIENTED_EDGE('',*,*,#210,.F.);
#292=ORIENTED_EDGE('',*,*,#214,.F.);
#293=ORIENTED_EDGE('',*,*,#217,.F.);
#294=ORIENTED_EDGE('',*,*,#222,.F.);
#295=ORIENTED_EDGE('',*,*,#223,.F.);
#296=ORIENTED_EDGE('',*,*,#224,.F.);
#297=ORIENTED_EDGE('',*,*,#225,.F.);
#298=ORIENTED_EDGE('',*,*,#225,.T.);
#299=ORIENTED_EDGE('',*,*,#226,.T.);
#300=ORIENTED_EDGE('',*,*,#227,.F.);
#301=ORIENTED_EDGE('',*,*,#228,.F.);
#302=ORIENTED_EDGE('',*,*,#222,.T.);
#303=ORIENTED_EDGE('',*,*,#228,.T.);
#304=ORIENTED_EDGE('',*,*,#229,.F.);
#305=ORIENTED_EDGE('',*,*,#230,.F.);
#306=ORIENTED_EDGE('',*,*,#223,.T.);
#307=ORIENTED_EDGE('',*,*,#230,.T.);
#308=ORIENTED_EDGE('',*,*,#231,.F.);
#309=ORIENTED_EDGE('',*,*,#232,.F.);
#310=ORIENTED_EDGE('',*,*,#224,.T.);
#311=ORIENTED_EDGE('',*,*,#232,.T.);
#312=ORIENTED_EDGE('',*,*,#233,.F.);
#313=ORIENTED_EDGE('',*,*,#226,.F.);
#314=ORIENTED_EDGE('',*,*,#233,.T.);
#315=ORIENTED_EDGE('',*,*,#231,.T.);
#316=ORIENTED_EDGE('',*,*,#229,.T.);
#317=ORIENTED_EDGE('',*,*,#227,.T.);
#318=ORIENTED_EDGE('',*,*,#194,.T.);
#319=ORIENTED_EDGE('',*,*,#199,.T.);
#320=ORIENTED_EDGE('',*,*,#204,.T.);
#321=ORIENTED_EDGE('',*,*,#209,.T.);
#322=CONICAL_SURFACE('',#359,2.15,0.785398163397448);
#323=CONICAL_SURFACE('',#364,2.15,0.785398163397448);
#324=CONICAL_SURFACE('',#369,2.15,0.785398163397448);
#325=CONICAL_SURFACE('',#374,2.15,0.785398163397448);
#326=ADVANCED_FACE('',(#39),#322,.F.);
#327=ADVANCED_FACE('',(#40),#35,.F.);
#328=ADVANCED_FACE('',(#41),#323,.F.);
#329=ADVANCED_FACE('',(#42),#36,.F.);
#330=ADVANCED_FACE('',(#43),#324,.F.);
#331=ADVANCED_FACE('',(#44),#37,.F.);
#332=ADVANCED_FACE('',(#45),#325,.F.);
#333=ADVANCED_FACE('',(#46),#38,.F.);
#334=ADVANCED_FACE('',(#47),#24,.T.);
#335=ADVANCED_FACE('',(#48),#25,.T.);
#336=ADVANCED_FACE('',(#49),#26,.T.);
#337=ADVANCED_FACE('',(#50),#27,.T.);
#338=ADVANCED_FACE('',(#51,#15,#16,#17,#18),#28,.T.);
#339=ADVANCED_FACE('',(#52,#19),#29,.F.);
#340=ADVANCED_FACE('',(#53),#30,.T.);
#341=ADVANCED_FACE('',(#54),#31,.T.);
#342=ADVANCED_FACE('',(#55),#32,.T.);
#343=ADVANCED_FACE('',(#56),#33,.T.);
#344=ADVANCED_FACE('',(#57,#20,#21,#22,#23),#34,.T.);
#345=CLOSED_SHELL('',(#326,#327,#328,#329,#330,#331,#332,#333,#334,#335,
#336,#337,#338,#339,#340,#341,#342,#343,#344));
#346=DERIVED_UNIT_ELEMENT(#348,1.);
#347=DERIVED_UNIT_ELEMENT(#583,-3.);
#348=(
MASS_UNIT()
NAMED_UNIT(*)
SI_UNIT(.KILO.,.GRAM.)
);
#349=DERIVED_UNIT((#346,#347));
#350=MEASURE_REPRESENTATION_ITEM('density measure',
POSITIVE_RATIO_MEASURE(7850.),#349);
#351=PROPERTY_DEFINITION_REPRESENTATION(#356,#353);
#352=PROPERTY_DEFINITION_REPRESENTATION(#357,#354);
#353=REPRESENTATION('material name',(#355),#580);
#354=REPRESENTATION('density',(#350),#580);
#355=DESCRIPTIVE_REPRESENTATION_ITEM('Steel','Steel');
#356=PROPERTY_DEFINITION('material property','material name',#590);
#357=PROPERTY_DEFINITION('material property','density of part',#590);
#358=AXIS2_PLACEMENT_3D('',#486,#390,#391);
#359=AXIS2_PLACEMENT_3D('',#487,#392,#393);
#360=AXIS2_PLACEMENT_3D('',#489,#394,#395);
#361=AXIS2_PLACEMENT_3D('',#492,#397,#398);
#362=AXIS2_PLACEMENT_3D('',#493,#399,#400);
#363=AXIS2_PLACEMENT_3D('',#496,#402,#403);
#364=AXIS2_PLACEMENT_3D('',#497,#404,#405);
#365=AXIS2_PLACEMENT_3D('',#499,#406,#407);
#366=AXIS2_PLACEMENT_3D('',#502,#409,#410);
#367=AXIS2_PLACEMENT_3D('',#503,#411,#412);
#368=AXIS2_PLACEMENT_3D('',#506,#414,#415);
#369=AXIS2_PLACEMENT_3D('',#507,#416,#417);
#370=AXIS2_PLACEMENT_3D('',#509,#418,#419);
#371=AXIS2_PLACEMENT_3D('',#512,#421,#422);
#372=AXIS2_PLACEMENT_3D('',#513,#423,#424);
#373=AXIS2_PLACEMENT_3D('',#516,#426,#427);
#374=AXIS2_PLACEMENT_3D('',#517,#428,#429);
#375=AXIS2_PLACEMENT_3D('',#519,#430,#431);
#376=AXIS2_PLACEMENT_3D('',#522,#433,#434);
#377=AXIS2_PLACEMENT_3D('',#523,#435,#436);
#378=AXIS2_PLACEMENT_3D('',#526,#438,#439);
#379=AXIS2_PLACEMENT_3D('',#527,#440,#441);
#380=AXIS2_PLACEMENT_3D('',#536,#446,#447);
#381=AXIS2_PLACEMENT_3D('',#542,#451,#452);
#382=AXIS2_PLACEMENT_3D('',#548,#456,#457);
#383=AXIS2_PLACEMENT_3D('',#551,#460,#461);
#384=AXIS2_PLACEMENT_3D('',#552,#462,#463);
#385=AXIS2_PLACEMENT_3D('',#561,#468,#469);
#386=AXIS2_PLACEMENT_3D('',#567,#473,#474);
#387=AXIS2_PLACEMENT_3D('',#571,#477,#478);
#388=AXIS2_PLACEMENT_3D('',#575,#481,#482);
#389=AXIS2_PLACEMENT_3D('',#577,#484,#485);
#390=DIRECTION('axis',(0.,0.,1.));
#391=DIRECTION('refdir',(1.,0.,0.));
#392=DIRECTION('center_axis',(0.,0.,1.));
#393=DIRECTION('ref_axis',(1.,0.,0.));
#394=DIRECTION('center_axis',(0.,0.,-1.));
#395=DIRECTION('ref_axis',(1.,0.,0.));
#396=DIRECTION('',(0.707106781186548,-8.65956056235493E-17,-0.707106781186548));
#397=DIRECTION('center_axis',(0.,0.,-1.));
#398=DIRECTION('ref_axis',(1.,0.,0.));
#399=DIRECTION('center_axis',(0.,0.,-1.));
#400=DIRECTION('ref_axis',(1.,0.,0.));
#401=DIRECTION('',(0.,0.,-1.));
#402=DIRECTION('center_axis',(0.,0.,1.));
#403=DIRECTION('ref_axis',(1.,0.,0.));
#404=DIRECTION('center_axis',(0.,0.,1.));
#405=DIRECTION('ref_axis',(1.,0.,0.));
#406=DIRECTION('center_axis',(0.,0.,-1.));
#407=DIRECTION('ref_axis',(1.,0.,0.));
#408=DIRECTION('',(0.707106781186548,-8.65956056235493E-17,-0.707106781186548));
#409=DIRECTION('center_axis',(0.,0.,-1.));
#410=DIRECTION('ref_axis',(1.,0.,0.));
#411=DIRECTION('center_axis',(0.,0.,-1.));
#412=DIRECTION('ref_axis',(1.,0.,0.));
#413=DIRECTION('',(0.,0.,-1.));
#414=DIRECTION('center_axis',(0.,0.,1.));
#415=DIRECTION('ref_axis',(1.,0.,0.));
#416=DIRECTION('center_axis',(0.,0.,1.));
#417=DIRECTION('ref_axis',(1.,0.,0.));
#418=DIRECTION('center_axis',(0.,0.,-1.));
#419=DIRECTION('ref_axis',(1.,0.,0.));
#420=DIRECTION('',(0.707106781186548,-8.65956056235493E-17,-0.707106781186548));
#421=DIRECTION('center_axis',(0.,0.,-1.));
#422=DIRECTION('ref_axis',(1.,0.,0.));
#423=DIRECTION('center_axis',(0.,0.,-1.));
#424=DIRECTION('ref_axis',(1.,0.,0.));
#425=DIRECTION('',(0.,0.,-1.));
#426=DIRECTION('center_axis',(0.,0.,1.));
#427=DIRECTION('ref_axis',(1.,0.,0.));
#428=DIRECTION('center_axis',(0.,0.,1.));
#429=DIRECTION('ref_axis',(1.,0.,0.));
#430=DIRECTION('center_axis',(0.,0.,-1.));
#431=DIRECTION('ref_axis',(1.,0.,0.));
#432=DIRECTION('',(0.707106781186548,-8.65956056235493E-17,-0.707106781186548));
#433=DIRECTION('center_axis',(0.,0.,-1.));
#434=DIRECTION('ref_axis',(1.,0.,0.));
#435=DIRECTION('center_axis',(0.,0.,-1.));
#436=DIRECTION('ref_axis',(1.,0.,0.));
#437=DIRECTION('',(0.,0.,-1.));
#438=DIRECTION('center_axis',(0.,0.,1.));
#439=DIRECTION('ref_axis',(1.,0.,0.));
#440=DIRECTION('center_axis',(-1.,0.,0.));
#441=DIRECTION('ref_axis',(0.,-1.,0.));
#442=DIRECTION('',(0.,-1.,0.));
#443=DIRECTION('',(0.,0.,1.));
#444=DIRECTION('',(0.,-1.,0.));
#445=DIRECTION('',(0.,0.,1.));
#446=DIRECTION('center_axis',(0.,1.,0.));
#447=DIRECTION('ref_axis',(-1.,0.,0.));
#448=DIRECTION('',(-1.,0.,0.));
#449=DIRECTION('',(-1.,0.,0.));
#450=DIRECTION('',(0.,0.,1.));
#451=DIRECTION('center_axis',(1.,0.,0.));
#452=DIRECTION('ref_axis',(0.,1.,0.));
#453=DIRECTION('',(0.,1.,0.));
#454=DIRECTION('',(0.,1.,0.));
#455=DIRECTION('',(0.,0.,1.));
#456=DIRECTION('center_axis',(0.,-1.,0.));
#457=DIRECTION('ref_axis',(1.,0.,0.));
#458=DIRECTION('',(1.,0.,0.));
#459=DIRECTION('',(1.,0.,0.));
#460=DIRECTION('center_axis',(0.,0.,1.));
#461=DIRECTION('ref_axis',(1.,0.,0.));
#462=DIRECTION('center_axis',(0.,0.,1.));
#463=DIRECTION('ref_axis',(1.,0.,0.));
#464=DIRECTION('',(-1.,0.,0.));
#465=DIRECTION('',(0.,-1.,0.));
#466=DIRECTION('',(1.,0.,0.));
#467=DIRECTION('',(0.,1.,0.));
#468=DIRECTION('center_axis',(-1.,0.,0.));
#469=DIRECTION('ref_axis',(0.,1.,0.));
#470=DIRECTION('',(0.,0.,-1.));
#471=DIRECTION('',(0.,1.,0.));
#472=DIRECTION('',(0.,0.,-1.));
#473=DIRECTION('center_axis',(0.,-1.,0.));
#474=DIRECTION('ref_axis',(-1.,0.,0.));
#475=DIRECTION('',(-1.,0.,0.));
#476=DIRECTION('',(0.,0.,-1.));
#477=DIRECTION('center_axis',(1.,0.,0.));
#478=DIRECTION('ref_axis',(0.,-1.,0.));
#479=DIRECTION('',(0.,-1.,0.));
#480=DIRECTION('',(0.,0.,-1.));
#481=DIRECTION('center_axis',(0.,1.,0.));
#482=DIRECTION('ref_axis',(1.,0.,0.));
#483=DIRECTION('',(1.,0.,0.));
#484=DIRECTION('center_axis',(0.,0.,-1.));
#485=DIRECTION('ref_axis',(-1.,0.,0.));
#486=CARTESIAN_POINT('',(0.,0.,0.));
#487=CARTESIAN_POINT('Origin',(70.5,-58.,40.15));
#488=CARTESIAN_POINT('',(67.5,-58.,41.));
#489=CARTESIAN_POINT('Origin',(70.5,-58.,41.));
#490=CARTESIAN_POINT('',(69.2,-58.,39.3));
#491=CARTESIAN_POINT('',(68.35,-58.,40.15));
#492=CARTESIAN_POINT('Origin',(70.5,-58.,39.3));
#493=CARTESIAN_POINT('Origin',(70.5,-58.,18.5));
#494=CARTESIAN_POINT('',(69.2,-58.,37.));
#495=CARTESIAN_POINT('',(69.2,-58.,18.5));
#496=CARTESIAN_POINT('Origin',(70.5,-58.,37.));
#497=CARTESIAN_POINT('Origin',(70.5,58.,40.15));
#498=CARTESIAN_POINT('',(67.5,58.,41.));
#499=CARTESIAN_POINT('Origin',(70.5,58.,41.));
#500=CARTESIAN_POINT('',(69.2,58.,39.3));
#501=CARTESIAN_POINT('',(68.35,58.,40.15));
#502=CARTESIAN_POINT('Origin',(70.5,58.,39.3));
#503=CARTESIAN_POINT('Origin',(70.5,58.,18.5));
#504=CARTESIAN_POINT('',(69.2,58.,37.));
#505=CARTESIAN_POINT('',(69.2,58.,18.5));
#506=CARTESIAN_POINT('Origin',(70.5,58.,37.));
#507=CARTESIAN_POINT('Origin',(-70.5,-58.,40.15));
#508=CARTESIAN_POINT('',(-73.5,-58.,41.));
#509=CARTESIAN_POINT('Origin',(-70.5,-58.,41.));
#510=CARTESIAN_POINT('',(-71.8,-58.,39.3));
#511=CARTESIAN_POINT('',(-72.65,-58.,40.15));
#512=CARTESIAN_POINT('Origin',(-70.5,-58.,39.3));
#513=CARTESIAN_POINT('Origin',(-70.5,-58.,18.5));
#514=CARTESIAN_POINT('',(-71.8,-58.,37.));
#515=CARTESIAN_POINT('',(-71.8,-58.,18.5));
#516=CARTESIAN_POINT('Origin',(-70.5,-58.,37.));
#517=CARTESIAN_POINT('Origin',(-70.5,58.,40.15));
#518=CARTESIAN_POINT('',(-73.5,58.,41.));
#519=CARTESIAN_POINT('Origin',(-70.5,58.,41.));
#520=CARTESIAN_POINT('',(-71.8,58.,39.3));
#521=CARTESIAN_POINT('',(-72.65,58.,40.15));
#522=CARTESIAN_POINT('Origin',(-70.5,58.,39.3));
#523=CARTESIAN_POINT('Origin',(-70.5,58.,18.5));
#524=CARTESIAN_POINT('',(-71.8,58.,37.));
#525=CARTESIAN_POINT('',(-71.8,58.,18.5));
#526=CARTESIAN_POINT('Origin',(-70.5,58.,37.));
#527=CARTESIAN_POINT('Origin',(-77.5,65.,39.));
#528=CARTESIAN_POINT('',(-77.5,65.,39.));
#529=CARTESIAN_POINT('',(-77.5,-65.,39.));
#530=CARTESIAN_POINT('',(-77.5,65.,39.));
#531=CARTESIAN_POINT('',(-77.5,-65.,41.));
#532=CARTESIAN_POINT('',(-77.5,-65.,39.));
#533=CARTESIAN_POINT('',(-77.5,65.,41.));
#534=CARTESIAN_POINT('',(-77.5,65.,41.));
#535=CARTESIAN_POINT('',(-77.5,65.,39.));
#536=CARTESIAN_POINT('Origin',(77.5,65.,39.));
#537=CARTESIAN_POINT('',(77.5,65.,39.));
#538=CARTESIAN_POINT('',(77.5,65.,39.));
#539=CARTESIAN_POINT('',(77.5,65.,41.));
#540=CARTESIAN_POINT('',(77.5,65.,41.));
#541=CARTESIAN_POINT('',(77.5,65.,39.));
#542=CARTESIAN_POINT('Origin',(77.5,-65.,39.));
#543=CARTESIAN_POINT('',(77.5,-65.,39.));
#544=CARTESIAN_POINT('',(77.5,-65.,39.));
#545=CARTESIAN_POINT('',(77.5,-65.,41.));
#546=CARTESIAN_POINT('',(77.5,-65.,41.));
#547=CARTESIAN_POINT('',(77.5,-65.,39.));
#548=CARTESIAN_POINT('Origin',(-77.5,-65.,39.));
#549=CARTESIAN_POINT('',(-77.5,-65.,39.));
#550=CARTESIAN_POINT('',(-77.5,-65.,41.));
#551=CARTESIAN_POINT('Origin',(0.,0.,41.));
#552=CARTESIAN_POINT('Origin',(0.,0.,39.));
#553=CARTESIAN_POINT('',(74.5,-62.,39.));
#554=CARTESIAN_POINT('',(-74.5,-62.,39.));
#555=CARTESIAN_POINT('',(74.5,-62.,39.));
#556=CARTESIAN_POINT('',(74.5,62.,39.));
#557=CARTESIAN_POINT('',(74.5,62.,39.));
#558=CARTESIAN_POINT('',(-74.5,62.,39.));
#559=CARTESIAN_POINT('',(-74.5,62.,39.));
#560=CARTESIAN_POINT('',(-74.5,-62.,39.));
#561=CARTESIAN_POINT('Origin',(-74.5,-62.,39.));
#562=CARTESIAN_POINT('',(-74.5,62.,37.));
#563=CARTESIAN_POINT('',(-74.5,62.,39.));
#564=CARTESIAN_POINT('',(-74.5,-62.,37.));
#565=CARTESIAN_POINT('',(-74.5,-62.,37.));
#566=CARTESIAN_POINT('',(-74.5,-62.,39.));
#567=CARTESIAN_POINT('Origin',(74.5,-62.,39.));
#568=CARTESIAN_POINT('',(74.5,-62.,37.));
#569=CARTESIAN_POINT('',(74.5,-62.,37.));
#570=CARTESIAN_POINT('',(74.5,-62.,39.));
#571=CARTESIAN_POINT('Origin',(74.5,62.,39.));
#572=CARTESIAN_POINT('',(74.5,62.,37.));
#573=CARTESIAN_POINT('',(74.5,62.,37.));
#574=CARTESIAN_POINT('',(74.5,62.,39.));
#575=CARTESIAN_POINT('Origin',(-74.5,62.,39.));
#576=CARTESIAN_POINT('',(-74.5,62.,37.));
#577=CARTESIAN_POINT('Origin',(0.,0.,37.));
#578=UNCERTAINTY_MEASURE_WITH_UNIT(LENGTH_MEASURE(0.01),#582,
'DISTANCE_ACCURACY_VALUE',
'Maximum model space distance between geometric entities at asserted c
onnectivities');
#579=UNCERTAINTY_MEASURE_WITH_UNIT(LENGTH_MEASURE(0.01),#582,
'DISTANCE_ACCURACY_VALUE',
'Maximum model space distance between geometric entities at asserted c
onnectivities');
#580=(
GEOMETRIC_REPRESENTATION_CONTEXT(3)
GLOBAL_UNCERTAINTY_ASSIGNED_CONTEXT((#578))
GLOBAL_UNIT_ASSIGNED_CONTEXT((#582,#584,#585))
REPRESENTATION_CONTEXT('','3D')
);
#581=(
GEOMETRIC_REPRESENTATION_CONTEXT(3)
GLOBAL_UNCERTAINTY_ASSIGNED_CONTEXT((#579))
GLOBAL_UNIT_ASSIGNED_CONTEXT((#582,#584,#585))
REPRESENTATION_CONTEXT('','3D')
);
#582=(
LENGTH_UNIT()
NAMED_UNIT(*)
SI_UNIT(.MILLI.,.METRE.)
);
#583=(
LENGTH_UNIT()
NAMED_UNIT(*)
SI_UNIT($,.METRE.)
);
#584=(
NAMED_UNIT(*)
PLANE_ANGLE_UNIT()
SI_UNIT($,.RADIAN.)
);
#585=(
NAMED_UNIT(*)
SI_UNIT($,.STERADIAN.)
SOLID_ANGLE_UNIT()
);
#586=SHAPE_DEFINITION_REPRESENTATION(#587,#588);
#587=PRODUCT_DEFINITION_SHAPE('',$,#590);
#588=SHAPE_REPRESENTATION('',(#358),#580);
#589=PRODUCT_DEFINITION_CONTEXT('part definition',#594,'design');
#590=PRODUCT_DEFINITION('TUTUP BOX','TUTUP BOX',#591,#589);
#591=PRODUCT_DEFINITION_FORMATION('',$,#596);
#592=PRODUCT_RELATED_PRODUCT_CATEGORY('TUTUP BOX','TUTUP BOX',(#596));
#593=APPLICATION_PROTOCOL_DEFINITION('international standard',
'automotive_design',2009,#594);
#594=APPLICATION_CONTEXT(
'Core Data for Automotive Mechanical Design Process');
#595=PRODUCT_CONTEXT('part definition',#594,'mechanical');
#596=PRODUCT('TUTUP BOX','TUTUP BOX',$,(#595));
#597=PRESENTATION_STYLE_ASSIGNMENT((#599));
#598=PRESENTATION_STYLE_ASSIGNMENT((#600));
#599=SURFACE_STYLE_USAGE(.BOTH.,#601);
#600=SURFACE_STYLE_USAGE(.BOTH.,#602);
#601=SURFACE_SIDE_STYLE('',(#603));
#602=SURFACE_SIDE_STYLE('',(#604));
#603=SURFACE_STYLE_FILL_AREA(#605);
#604=SURFACE_STYLE_FILL_AREA(#606);
#605=FILL_AREA_STYLE('Steel - Satin',(#607));
#606=FILL_AREA_STYLE('ABS (White)',(#608));
#607=FILL_AREA_STYLE_COLOUR('Steel - Satin',#609);
#608=FILL_AREA_STYLE_COLOUR('ABS (White)',#610);
#609=COLOUR_RGB('Steel - Satin',0.627450980392157,0.627450980392157,0.627450980392157);
#610=COLOUR_RGB('ABS (White)',0.545098039215686,0.,0.741176470588235);
ENDSEC;
END-ISO-10303-21;
