ISO-10303-21;
HEADER;
/* Generated by software containing ST-Developer
 * from STEP Tools, Inc. (www.steptools.com) 
 */

FILE_DESCRIPTION(
/* description */ (''),
/* implementation_level */ '2;1');

FILE_NAME(
/* name */ 'CLAMP.step',
/* time_stamp */ '2026-06-07T21:10:19+07:00',
/* author */ (''),
/* organization */ (''),
/* preprocessor_version */ 'ST-DEVELOPER v20.1',
/* originating_system */ 'Autodesk Translation Framework v14.24.0.0',
/* authorisation */ '');

FILE_SCHEMA (('AUTOMOTIVE_DESIGN { 1 0 10303 214 3 1 1 }'));
ENDSEC;

DATA;
#10=MECHANICAL_DESIGN_GEOMETRIC_PRESENTATION_REPRESENTATION('',(#13),#589);
#11=SHAPE_REPRESENTATION_RELATIONSHIP('SRR','None',#596,#12);
#12=ADVANCED_BREP_SHAPE_REPRESENTATION('',(#14),#588);
#13=STYLED_ITEM('',(#606),#14);
#14=MANIFOLD_SOLID_BREP('Body1',#291);
#15=PLANE('',#308);
#16=PLANE('',#309);
#17=PLANE('',#314);
#18=PLANE('',#322);
#19=PLANE('',#326);
#20=PLANE('',#327);
#21=PLANE('',#328);
#22=PLANE('',#331);
#23=PLANE('',#332);
#24=FACE_BOUND('',#51,.T.);
#25=FACE_BOUND('',#56,.T.);
#26=FACE_BOUND('',#59,.T.);
#27=FACE_BOUND('',#62,.T.);
#28=FACE_BOUND('',#67,.T.);
#29=FACE_BOUND('',#70,.T.);
#30=B_SPLINE_CURVE_WITH_KNOTS('',3,(#425,#426,#427,#428,#429,#430,#431,
#432,#433,#434,#435,#436,#437,#438,#439,#440,#441,#442,#443,#444,#445,#446,
#447,#448),.UNSPECIFIED.,.F.,.F.,(4,2,2,2,2,2,2,2,2,2,2,4),(0.,0.0171648625123632,
0.0343297250247265,0.068659450049453,0.16518749705147,0.261715544053487,
0.482933403887902,0.704151263722316,0.845862375116029,0.987573486509741,
1.07860507307666,1.16963665964357),.UNSPECIFIED.);
#31=B_SPLINE_CURVE_WITH_KNOTS('',3,(#449,#450,#451,#452,#453,#454,#455,
#456,#457,#458,#459,#460,#461,#462,#463,#464,#465,#466,#467,#468,#469,#470,
#471,#472),.UNSPECIFIED.,.F.,.F.,(4,2,2,2,2,2,2,2,2,2,2,4),(1.16963665964357,
1.26066824621049,1.3516998327774,1.49341094417112,1.63512205556483,1.85633991539924,
2.07755777523366,2.17408582223567,2.27061386923769,2.30494359426242,2.32210845677478,
2.33927331928714),.UNSPECIFIED.);
#32=B_SPLINE_CURVE_WITH_KNOTS('',3,(#508,#509,#510,#511,#512,#513,#514,
#515,#516,#517,#518,#519,#520,#521,#522,#523,#524,#525,#526,#527,#528,#529,
#530,#531),.UNSPECIFIED.,.F.,.F.,(4,2,2,2,2,2,2,2,2,2,2,4),(0.,0.0910315865669152,
0.18206317313383,0.323774284527543,0.465485395921256,0.68670325575567,0.907921115590084,
1.0044491625921,1.10097720959412,1.13530693461884,1.15247179713121,1.16963665964357),
 .UNSPECIFIED.);
#33=B_SPLINE_CURVE_WITH_KNOTS('',3,(#532,#533,#534,#535,#536,#537,#538,
#539,#540,#541,#542,#543,#544,#545,#546,#547,#548,#549,#550,#551,#552,#553,
#554,#555),.UNSPECIFIED.,.F.,.F.,(4,2,2,2,2,2,2,2,2,2,2,4),(1.16963665964357,
1.18680152215594,1.2039663846683,1.23829610969303,1.33482415669504,1.43135220369706,
1.65257006353147,1.87378792336589,2.0154990347596,2.15721014615331,2.24824173272023,
2.33927331928714),.UNSPECIFIED.);
#34=FACE_OUTER_BOUND('',#50,.T.);
#35=FACE_OUTER_BOUND('',#52,.T.);
#36=FACE_OUTER_BOUND('',#53,.T.);
#37=FACE_OUTER_BOUND('',#54,.T.);
#38=FACE_OUTER_BOUND('',#55,.T.);
#39=FACE_OUTER_BOUND('',#57,.T.);
#40=FACE_OUTER_BOUND('',#58,.T.);
#41=FACE_OUTER_BOUND('',#60,.T.);
#42=FACE_OUTER_BOUND('',#61,.T.);
#43=FACE_OUTER_BOUND('',#63,.T.);
#44=FACE_OUTER_BOUND('',#64,.T.);
#45=FACE_OUTER_BOUND('',#65,.T.);
#46=FACE_OUTER_BOUND('',#66,.T.);
#47=FACE_OUTER_BOUND('',#68,.T.);
#48=FACE_OUTER_BOUND('',#69,.T.);
#49=FACE_OUTER_BOUND('',#71,.T.);
#50=EDGE_LOOP('',(#192,#193,#194,#195));
#51=EDGE_LOOP('',(#196,#197));
#52=EDGE_LOOP('',(#198,#199,#200,#201));
#53=EDGE_LOOP('',(#202,#203,#204,#205,#206,#207,#208,#209));
#54=EDGE_LOOP('',(#210,#211,#212,#213,#214));
#55=EDGE_LOOP('',(#215));
#56=EDGE_LOOP('',(#216));
#57=EDGE_LOOP('',(#217,#218,#219,#220));
#58=EDGE_LOOP('',(#221,#222,#223,#224));
#59=EDGE_LOOP('',(#225,#226));
#60=EDGE_LOOP('',(#227,#228,#229,#230,#231));
#61=EDGE_LOOP('',(#232));
#62=EDGE_LOOP('',(#233));
#63=EDGE_LOOP('',(#234,#235,#236,#237));
#64=EDGE_LOOP('',(#238,#239,#240,#241));
#65=EDGE_LOOP('',(#242,#243,#244,#245));
#66=EDGE_LOOP('',(#246,#247,#248,#249));
#67=EDGE_LOOP('',(#250));
#68=EDGE_LOOP('',(#251,#252,#253,#254));
#69=EDGE_LOOP('',(#255,#256,#257,#258));
#70=EDGE_LOOP('',(#259));
#71=EDGE_LOOP('',(#260,#261,#262,#263,#264,#265,#266,#267));
#72=LINE('',#419,#94);
#73=LINE('',#422,#95);
#74=LINE('',#475,#96);
#75=LINE('',#477,#97);
#76=LINE('',#478,#98);
#77=LINE('',#481,#99);
#78=LINE('',#483,#100);
#79=LINE('',#487,#101);
#80=LINE('',#489,#102);
#81=LINE('',#493,#103);
#82=LINE('',#500,#104);
#83=LINE('',#505,#105);
#84=LINE('',#558,#106);
#85=LINE('',#565,#107);
#86=LINE('',#569,#108);
#87=LINE('',#570,#109);
#88=LINE('',#573,#110);
#89=LINE('',#574,#111);
#90=LINE('',#577,#112);
#91=LINE('',#578,#113);
#92=LINE('',#582,#114);
#93=LINE('',#584,#115);
#94=VECTOR('',#339,10.);
#95=VECTOR('',#342,10.);
#96=VECTOR('',#345,10.);
#97=VECTOR('',#346,10.);
#98=VECTOR('',#347,10.);
#99=VECTOR('',#350,10.);
#100=VECTOR('',#351,10.);
#101=VECTOR('',#354,10.);
#102=VECTOR('',#355,10.);
#103=VECTOR('',#360,2.5);
#104=VECTOR('',#369,1.3);
#105=VECTOR('',#376,10.);
#106=VECTOR('',#379,2.5);
#107=VECTOR('',#388,1.3);
#108=VECTOR('',#393,10.);
#109=VECTOR('',#394,10.);
#110=VECTOR('',#397,10.);
#111=VECTOR('',#398,10.);
#112=VECTOR('',#401,10.);
#113=VECTOR('',#402,10.);
#114=VECTOR('',#407,10.);
#115=VECTOR('',#410,10.);
#116=CIRCLE('',#306,13.);
#117=CIRCLE('',#307,13.);
#118=CIRCLE('',#310,15.);
#119=CIRCLE('',#311,13.);
#120=CIRCLE('',#313,2.5);
#121=CIRCLE('',#315,1.3);
#122=CIRCLE('',#317,1.3);
#123=CIRCLE('',#319,13.);
#124=CIRCLE('',#321,2.5);
#125=CIRCLE('',#323,1.3);
#126=CIRCLE('',#325,1.3);
#127=CIRCLE('',#330,15.);
#128=VERTEX_POINT('',#415);
#129=VERTEX_POINT('',#416);
#130=VERTEX_POINT('',#418);
#131=VERTEX_POINT('',#420);
#132=VERTEX_POINT('',#423);
#133=VERTEX_POINT('',#424);
#134=VERTEX_POINT('',#474);
#135=VERTEX_POINT('',#476);
#136=VERTEX_POINT('',#480);
#137=VERTEX_POINT('',#482);
#138=VERTEX_POINT('',#484);
#139=VERTEX_POINT('',#486);
#140=VERTEX_POINT('',#488);
#141=VERTEX_POINT('',#492);
#142=VERTEX_POINT('',#496);
#143=VERTEX_POINT('',#499);
#144=VERTEX_POINT('',#503);
#145=VERTEX_POINT('',#506);
#146=VERTEX_POINT('',#507);
#147=VERTEX_POINT('',#557);
#148=VERTEX_POINT('',#561);
#149=VERTEX_POINT('',#564);
#150=VERTEX_POINT('',#568);
#151=VERTEX_POINT('',#572);
#152=VERTEX_POINT('',#576);
#153=VERTEX_POINT('',#580);
#154=EDGE_CURVE('',#128,#129,#116,.T.);
#155=EDGE_CURVE('',#129,#130,#72,.T.);
#156=EDGE_CURVE('',#130,#131,#117,.T.);
#157=EDGE_CURVE('',#131,#128,#73,.T.);
#158=EDGE_CURVE('',#132,#133,#30,.T.);
#159=EDGE_CURVE('',#133,#132,#31,.T.);
#160=EDGE_CURVE('',#134,#131,#74,.T.);
#161=EDGE_CURVE('',#135,#134,#75,.T.);
#162=EDGE_CURVE('',#128,#135,#76,.T.);
#163=EDGE_CURVE('',#136,#130,#77,.T.);
#164=EDGE_CURVE('',#136,#137,#78,.T.);
#165=EDGE_CURVE('',#137,#138,#118,.T.);
#166=EDGE_CURVE('',#138,#139,#79,.T.);
#167=EDGE_CURVE('',#139,#140,#80,.T.);
#168=EDGE_CURVE('',#134,#140,#119,.T.);
#169=EDGE_CURVE('',#133,#141,#81,.T.);
#170=EDGE_CURVE('',#141,#141,#120,.T.);
#171=EDGE_CURVE('',#142,#142,#121,.T.);
#172=EDGE_CURVE('',#142,#143,#82,.T.);
#173=EDGE_CURVE('',#143,#143,#122,.T.);
#174=EDGE_CURVE('',#144,#135,#123,.T.);
#175=EDGE_CURVE('',#140,#144,#83,.T.);
#176=EDGE_CURVE('',#145,#146,#32,.T.);
#177=EDGE_CURVE('',#146,#145,#33,.T.);
#178=EDGE_CURVE('',#146,#147,#84,.T.);
#179=EDGE_CURVE('',#147,#147,#124,.T.);
#180=EDGE_CURVE('',#148,#148,#125,.T.);
#181=EDGE_CURVE('',#148,#149,#85,.T.);
#182=EDGE_CURVE('',#149,#149,#126,.T.);
#183=EDGE_CURVE('',#139,#150,#86,.T.);
#184=EDGE_CURVE('',#144,#150,#87,.T.);
#185=EDGE_CURVE('',#151,#129,#88,.T.);
#186=EDGE_CURVE('',#136,#151,#89,.T.);
#187=EDGE_CURVE('',#152,#151,#90,.T.);
#188=EDGE_CURVE('',#137,#152,#91,.T.);
#189=EDGE_CURVE('',#153,#152,#127,.T.);
#190=EDGE_CURVE('',#138,#153,#92,.T.);
#191=EDGE_CURVE('',#150,#153,#93,.T.);
#192=ORIENTED_EDGE('',*,*,#154,.T.);
#193=ORIENTED_EDGE('',*,*,#155,.T.);
#194=ORIENTED_EDGE('',*,*,#156,.T.);
#195=ORIENTED_EDGE('',*,*,#157,.T.);
#196=ORIENTED_EDGE('',*,*,#158,.T.);
#197=ORIENTED_EDGE('',*,*,#159,.T.);
#198=ORIENTED_EDGE('',*,*,#157,.F.);
#199=ORIENTED_EDGE('',*,*,#160,.F.);
#200=ORIENTED_EDGE('',*,*,#161,.F.);
#201=ORIENTED_EDGE('',*,*,#162,.F.);
#202=ORIENTED_EDGE('',*,*,#156,.F.);
#203=ORIENTED_EDGE('',*,*,#163,.F.);
#204=ORIENTED_EDGE('',*,*,#164,.T.);
#205=ORIENTED_EDGE('',*,*,#165,.T.);
#206=ORIENTED_EDGE('',*,*,#166,.T.);
#207=ORIENTED_EDGE('',*,*,#167,.T.);
#208=ORIENTED_EDGE('',*,*,#168,.F.);
#209=ORIENTED_EDGE('',*,*,#160,.T.);
#210=ORIENTED_EDGE('',*,*,#158,.F.);
#211=ORIENTED_EDGE('',*,*,#159,.F.);
#212=ORIENTED_EDGE('',*,*,#169,.T.);
#213=ORIENTED_EDGE('',*,*,#170,.T.);
#214=ORIENTED_EDGE('',*,*,#169,.F.);
#215=ORIENTED_EDGE('',*,*,#170,.F.);
#216=ORIENTED_EDGE('',*,*,#171,.T.);
#217=ORIENTED_EDGE('',*,*,#171,.F.);
#218=ORIENTED_EDGE('',*,*,#172,.T.);
#219=ORIENTED_EDGE('',*,*,#173,.F.);
#220=ORIENTED_EDGE('',*,*,#172,.F.);
#221=ORIENTED_EDGE('',*,*,#174,.T.);
#222=ORIENTED_EDGE('',*,*,#161,.T.);
#223=ORIENTED_EDGE('',*,*,#168,.T.);
#224=ORIENTED_EDGE('',*,*,#175,.T.);
#225=ORIENTED_EDGE('',*,*,#176,.T.);
#226=ORIENTED_EDGE('',*,*,#177,.T.);
#227=ORIENTED_EDGE('',*,*,#176,.F.);
#228=ORIENTED_EDGE('',*,*,#177,.F.);
#229=ORIENTED_EDGE('',*,*,#178,.T.);
#230=ORIENTED_EDGE('',*,*,#179,.T.);
#231=ORIENTED_EDGE('',*,*,#178,.F.);
#232=ORIENTED_EDGE('',*,*,#179,.F.);
#233=ORIENTED_EDGE('',*,*,#180,.T.);
#234=ORIENTED_EDGE('',*,*,#180,.F.);
#235=ORIENTED_EDGE('',*,*,#181,.T.);
#236=ORIENTED_EDGE('',*,*,#182,.F.);
#237=ORIENTED_EDGE('',*,*,#181,.F.);
#238=ORIENTED_EDGE('',*,*,#175,.F.);
#239=ORIENTED_EDGE('',*,*,#167,.F.);
#240=ORIENTED_EDGE('',*,*,#183,.T.);
#241=ORIENTED_EDGE('',*,*,#184,.F.);
#242=ORIENTED_EDGE('',*,*,#155,.F.);
#243=ORIENTED_EDGE('',*,*,#185,.F.);
#244=ORIENTED_EDGE('',*,*,#186,.F.);
#245=ORIENTED_EDGE('',*,*,#163,.T.);
#246=ORIENTED_EDGE('',*,*,#164,.F.);
#247=ORIENTED_EDGE('',*,*,#186,.T.);
#248=ORIENTED_EDGE('',*,*,#187,.F.);
#249=ORIENTED_EDGE('',*,*,#188,.F.);
#250=ORIENTED_EDGE('',*,*,#173,.T.);
#251=ORIENTED_EDGE('',*,*,#165,.F.);
#252=ORIENTED_EDGE('',*,*,#188,.T.);
#253=ORIENTED_EDGE('',*,*,#189,.F.);
#254=ORIENTED_EDGE('',*,*,#190,.F.);
#255=ORIENTED_EDGE('',*,*,#166,.F.);
#256=ORIENTED_EDGE('',*,*,#190,.T.);
#257=ORIENTED_EDGE('',*,*,#191,.F.);
#258=ORIENTED_EDGE('',*,*,#183,.F.);
#259=ORIENTED_EDGE('',*,*,#182,.T.);
#260=ORIENTED_EDGE('',*,*,#154,.F.);
#261=ORIENTED_EDGE('',*,*,#162,.T.);
#262=ORIENTED_EDGE('',*,*,#174,.F.);
#263=ORIENTED_EDGE('',*,*,#184,.T.);
#264=ORIENTED_EDGE('',*,*,#191,.T.);
#265=ORIENTED_EDGE('',*,*,#189,.T.);
#266=ORIENTED_EDGE('',*,*,#187,.T.);
#267=ORIENTED_EDGE('',*,*,#185,.T.);
#268=CYLINDRICAL_SURFACE('',#305,13.);
#269=CYLINDRICAL_SURFACE('',#312,2.5);
#270=CYLINDRICAL_SURFACE('',#316,1.3);
#271=CYLINDRICAL_SURFACE('',#318,13.);
#272=CYLINDRICAL_SURFACE('',#320,2.5);
#273=CYLINDRICAL_SURFACE('',#324,1.3);
#274=CYLINDRICAL_SURFACE('',#329,15.);
#275=ADVANCED_FACE('',(#34,#24),#268,.T.);
#276=ADVANCED_FACE('',(#35),#15,.T.);
#277=ADVANCED_FACE('',(#36),#16,.T.);
#278=ADVANCED_FACE('',(#37),#269,.F.);
#279=ADVANCED_FACE('',(#38,#25),#17,.F.);
#280=ADVANCED_FACE('',(#39),#270,.F.);
#281=ADVANCED_FACE('',(#40,#26),#271,.T.);
#282=ADVANCED_FACE('',(#41),#272,.F.);
#283=ADVANCED_FACE('',(#42,#27),#18,.F.);
#284=ADVANCED_FACE('',(#43),#273,.F.);
#285=ADVANCED_FACE('',(#44),#19,.T.);
#286=ADVANCED_FACE('',(#45),#20,.T.);
#287=ADVANCED_FACE('',(#46,#28),#21,.T.);
#288=ADVANCED_FACE('',(#47),#274,.F.);
#289=ADVANCED_FACE('',(#48,#29),#22,.T.);
#290=ADVANCED_FACE('',(#49),#23,.F.);
#291=CLOSED_SHELL('',(#275,#276,#277,#278,#279,#280,#281,#282,#283,#284,
#285,#286,#287,#288,#289,#290));
#292=DERIVED_UNIT_ELEMENT(#294,1.);
#293=DERIVED_UNIT_ELEMENT(#591,-3.);
#294=(
MASS_UNIT()
NAMED_UNIT(*)
SI_UNIT(.KILO.,.GRAM.)
);
#295=DERIVED_UNIT((#292,#293));
#296=MEASURE_REPRESENTATION_ITEM('density measure',
POSITIVE_RATIO_MEASURE(7850.),#295);
#297=PROPERTY_DEFINITION_REPRESENTATION(#302,#299);
#298=PROPERTY_DEFINITION_REPRESENTATION(#303,#300);
#299=REPRESENTATION('material name',(#301),#588);
#300=REPRESENTATION('density',(#296),#588);
#301=DESCRIPTIVE_REPRESENTATION_ITEM('Steel','Steel');
#302=PROPERTY_DEFINITION('material property','material name',#598);
#303=PROPERTY_DEFINITION('material property','density of part',#598);
#304=AXIS2_PLACEMENT_3D('',#413,#333,#334);
#305=AXIS2_PLACEMENT_3D('',#414,#335,#336);
#306=AXIS2_PLACEMENT_3D('',#417,#337,#338);
#307=AXIS2_PLACEMENT_3D('',#421,#340,#341);
#308=AXIS2_PLACEMENT_3D('',#473,#343,#344);
#309=AXIS2_PLACEMENT_3D('',#479,#348,#349);
#310=AXIS2_PLACEMENT_3D('',#485,#352,#353);
#311=AXIS2_PLACEMENT_3D('',#490,#356,#357);
#312=AXIS2_PLACEMENT_3D('',#491,#358,#359);
#313=AXIS2_PLACEMENT_3D('',#494,#361,#362);
#314=AXIS2_PLACEMENT_3D('',#495,#363,#364);
#315=AXIS2_PLACEMENT_3D('',#497,#365,#366);
#316=AXIS2_PLACEMENT_3D('',#498,#367,#368);
#317=AXIS2_PLACEMENT_3D('',#501,#370,#371);
#318=AXIS2_PLACEMENT_3D('',#502,#372,#373);
#319=AXIS2_PLACEMENT_3D('',#504,#374,#375);
#320=AXIS2_PLACEMENT_3D('',#556,#377,#378);
#321=AXIS2_PLACEMENT_3D('',#559,#380,#381);
#322=AXIS2_PLACEMENT_3D('',#560,#382,#383);
#323=AXIS2_PLACEMENT_3D('',#562,#384,#385);
#324=AXIS2_PLACEMENT_3D('',#563,#386,#387);
#325=AXIS2_PLACEMENT_3D('',#566,#389,#390);
#326=AXIS2_PLACEMENT_3D('',#567,#391,#392);
#327=AXIS2_PLACEMENT_3D('',#571,#395,#396);
#328=AXIS2_PLACEMENT_3D('',#575,#399,#400);
#329=AXIS2_PLACEMENT_3D('',#579,#403,#404);
#330=AXIS2_PLACEMENT_3D('',#581,#405,#406);
#331=AXIS2_PLACEMENT_3D('',#583,#408,#409);
#332=AXIS2_PLACEMENT_3D('',#585,#411,#412);
#333=DIRECTION('axis',(0.,0.,1.));
#334=DIRECTION('refdir',(1.,0.,0.));
#335=DIRECTION('center_axis',(0.,0.,-1.));
#336=DIRECTION('ref_axis',(0.707106781186547,0.707106781186548,0.));
#337=DIRECTION('center_axis',(0.,2.88288946955592E-40,1.));
#338=DIRECTION('ref_axis',(0.707106781186547,0.707106781186548,0.));
#339=DIRECTION('',(0.,0.,1.));
#340=DIRECTION('center_axis',(0.,-2.88288946955592E-40,-1.));
#341=DIRECTION('ref_axis',(0.707106781186547,0.707106781186548,0.));
#342=DIRECTION('',(0.,0.,-1.));
#343=DIRECTION('center_axis',(1.,0.,0.));
#344=DIRECTION('ref_axis',(0.,-1.,2.88288946955592E-40));
#345=DIRECTION('',(0.,1.,-2.88288946955592E-40));
#346=DIRECTION('',(0.,0.,1.));
#347=DIRECTION('',(0.,-1.,2.88288946955592E-40));
#348=DIRECTION('center_axis',(0.,2.88288946955592E-40,1.));
#349=DIRECTION('ref_axis',(-1.09945414446749E-40,-1.,2.88288946955592E-40));
#350=DIRECTION('',(1.,0.,0.));
#351=DIRECTION('',(-1.09945618030582E-40,-1.,2.88288946955592E-40));
#352=DIRECTION('center_axis',(0.,-2.88288946955592E-40,-1.));
#353=DIRECTION('ref_axis',(1.,6.73564553015417E-32,-2.00172015829807E-15));
#354=DIRECTION('',(-1.09945618030582E-40,-1.,2.88288946955592E-40));
#355=DIRECTION('',(1.,0.,0.));
#356=DIRECTION('center_axis',(0.,-2.88288946955592E-40,-1.));
#357=DIRECTION('ref_axis',(0.707106781186547,-0.707106781186548,0.));
#358=DIRECTION('center_axis',(-1.,0.,0.));
#359=DIRECTION('ref_axis',(0.,1.,0.));
#360=DIRECTION('',(-1.,0.,0.));
#361=DIRECTION('center_axis',(-1.,0.,0.));
#362=DIRECTION('ref_axis',(0.,1.,0.));
#363=DIRECTION('center_axis',(-1.,0.,0.));
#364=DIRECTION('ref_axis',(0.,1.,0.));
#365=DIRECTION('center_axis',(-1.,0.,0.));
#366=DIRECTION('ref_axis',(0.,1.,0.));
#367=DIRECTION('center_axis',(-1.,0.,0.));
#368=DIRECTION('ref_axis',(0.,1.,0.));
#369=DIRECTION('',(-1.,0.,0.));
#370=DIRECTION('center_axis',(1.,-1.09945618030582E-40,0.));
#371=DIRECTION('ref_axis',(0.,1.,0.));
#372=DIRECTION('center_axis',(0.,0.,-1.));
#373=DIRECTION('ref_axis',(0.707106781186547,-0.707106781186548,0.));
#374=DIRECTION('center_axis',(0.,2.88288946955592E-40,1.));
#375=DIRECTION('ref_axis',(0.707106781186547,-0.707106781186548,0.));
#376=DIRECTION('',(0.,0.,-1.));
#377=DIRECTION('center_axis',(-1.,0.,0.));
#378=DIRECTION('ref_axis',(0.,1.,0.));
#379=DIRECTION('',(-1.,0.,0.));
#380=DIRECTION('center_axis',(-1.,0.,0.));
#381=DIRECTION('ref_axis',(0.,1.,0.));
#382=DIRECTION('center_axis',(-1.,0.,0.));
#383=DIRECTION('ref_axis',(0.,1.,0.));
#384=DIRECTION('center_axis',(-1.,0.,0.));
#385=DIRECTION('ref_axis',(0.,1.,0.));
#386=DIRECTION('center_axis',(-1.,0.,0.));
#387=DIRECTION('ref_axis',(0.,1.,0.));
#388=DIRECTION('',(-1.,0.,0.));
#389=DIRECTION('center_axis',(1.,-1.09945618030582E-40,0.));
#390=DIRECTION('ref_axis',(0.,1.,0.));
#391=DIRECTION('center_axis',(0.,-1.,0.));
#392=DIRECTION('ref_axis',(-1.,0.,0.));
#393=DIRECTION('',(0.,0.,-1.));
#394=DIRECTION('',(-1.,0.,0.));
#395=DIRECTION('center_axis',(0.,1.,0.));
#396=DIRECTION('ref_axis',(1.,0.,0.));
#397=DIRECTION('',(1.,0.,0.));
#398=DIRECTION('',(0.,0.,-1.));
#399=DIRECTION('center_axis',(-1.,1.09945618030582E-40,0.));
#400=DIRECTION('ref_axis',(1.09945618030582E-40,1.,-2.88288946955592E-40));
#401=DIRECTION('',(1.09945618030582E-40,1.,-2.88288946955592E-40));
#402=DIRECTION('',(0.,0.,-1.));
#403=DIRECTION('center_axis',(0.,0.,-1.));
#404=DIRECTION('ref_axis',(1.,6.73564553015417E-32,0.));
#405=DIRECTION('center_axis',(0.,2.88288946955592E-40,1.));
#406=DIRECTION('ref_axis',(1.,6.73564553015417E-32,-2.00172015829807E-15));
#407=DIRECTION('',(0.,0.,-1.));
#408=DIRECTION('center_axis',(-1.,1.09945618030582E-40,0.));
#409=DIRECTION('ref_axis',(1.09945618030582E-40,1.,-2.88288946955592E-40));
#410=DIRECTION('',(1.09945618030582E-40,1.,-2.88288946955592E-40));
#411=DIRECTION('center_axis',(0.,2.88288946955592E-40,1.));
#412=DIRECTION('ref_axis',(-1.09945414446749E-40,-1.,2.88288946955592E-40));
#413=CARTESIAN_POINT('',(0.,0.,0.));
#414=CARTESIAN_POINT('Origin',(29.419,7.,7.14754462516655));
#415=CARTESIAN_POINT('',(42.419,7.,-0.852455374833454));
#416=CARTESIAN_POINT('',(29.419,20.,-0.852455374833454));
#417=CARTESIAN_POINT('Origin',(29.419,7.,-0.852455374833454));
#418=CARTESIAN_POINT('',(29.419,20.,7.14754462516655));
#419=CARTESIAN_POINT('',(29.419,20.,7.14754462516655));
#420=CARTESIAN_POINT('',(42.419,7.,7.14754462516655));
#421=CARTESIAN_POINT('Origin',(29.419,7.,7.14754462516655));
#422=CARTESIAN_POINT('',(42.419,7.,7.14754462516655));
#423=CARTESIAN_POINT('',(31.0283476939431,19.9,3.14754462516655));
#424=CARTESIAN_POINT('',(39.7432433136768,14.9,3.14754462516655));
#425=CARTESIAN_POINT('Ctrl Pts',(31.0283476939431,19.9,3.14754462516655));
#426=CARTESIAN_POINT('Ctrl Pts',(31.0283476939431,19.9,3.090328416792));
#427=CARTESIAN_POINT('Ctrl Pts',(31.0436673293506,19.8981015108482,3.03836607083978));
#428=CARTESIAN_POINT('Ctrl Pts',(31.0922175033196,19.8918957251244,2.94060924533806));
#429=CARTESIAN_POINT('Ctrl Pts',(31.125409476617,19.8875780516945,2.89479627634286));
#430=CARTESIAN_POINT('Ctrl Pts',(31.240621919324,19.8719735280885,2.76407548974736));
#431=CARTESIAN_POINT('Ctrl Pts',(31.3374144075723,19.8580070372628,2.68619395408852));
#432=CARTESIAN_POINT('Ctrl Pts',(31.6878452224472,19.8031558380853,2.43231691486714));
#433=CARTESIAN_POINT('Ctrl Pts',(31.9936113211002,19.7464301794946,2.26830277656917));
#434=CARTESIAN_POINT('Ctrl Pts',(32.610653725718,19.6060881847619,1.95928156603353));
#435=CARTESIAN_POINT('Ctrl Pts',(32.923594079207,19.5222413744986,1.81771372602381));
#436=CARTESIAN_POINT('Ctrl Pts',(33.8614296411047,19.2364507201368,1.41697280422947));
#437=CARTESIAN_POINT('Ctrl Pts',(34.5739768383934,18.9593562812462,1.15330662109962));
#438=CARTESIAN_POINT('Ctrl Pts',(35.9576364394018,18.2626033369563,0.767527080236632));
#439=CARTESIAN_POINT('Ctrl Pts',(36.6290857071082,17.8424357196688,0.647544625166546));
#440=CARTESIAN_POINT('Ctrl Pts',(37.5968962970499,17.1165777772126,0.647544625166546));
#441=CARTESIAN_POINT('Ctrl Pts',(37.9912962705045,16.7851721329287,0.697925316051504));
#442=CARTESIAN_POINT('Ctrl Pts',(38.6945936095198,16.1212507659316,0.969598077153945));
#443=CARTESIAN_POINT('Ctrl Pts',(39.0039349778247,15.7895955405592,1.19184193858586));
#444=CARTESIAN_POINT('Ctrl Pts',(39.3889596801396,15.3458198778167,1.69849639055287));
#445=CARTESIAN_POINT('Ctrl Pts',(39.5219284105514,15.1823662884221,1.95315070809357));
#446=CARTESIAN_POINT('Ctrl Pts',(39.6987468642232,14.9590880649856,2.52591198444152));
#447=CARTESIAN_POINT('Ctrl Pts',(39.7432433136768,14.9,2.84410600327683));
#448=CARTESIAN_POINT('Ctrl Pts',(39.7432433136768,14.9,3.14754462516655));
#449=CARTESIAN_POINT('Ctrl Pts',(39.7432433136768,14.9,3.14754462516655));
#450=CARTESIAN_POINT('Ctrl Pts',(39.7432433136768,14.9,3.45098324705626));
#451=CARTESIAN_POINT('Ctrl Pts',(39.6987468642232,14.9590880649856,3.76917726589157));
#452=CARTESIAN_POINT('Ctrl Pts',(39.5219284105514,15.1823662884221,4.34193854223953));
#453=CARTESIAN_POINT('Ctrl Pts',(39.3889596801396,15.3458198778167,4.59659285978022));
#454=CARTESIAN_POINT('Ctrl Pts',(39.0039349778247,15.7895955405592,5.10324731174723));
#455=CARTESIAN_POINT('Ctrl Pts',(38.6945936095198,16.1212507659316,5.32549117317915));
#456=CARTESIAN_POINT('Ctrl Pts',(37.9912962705045,16.7851721329287,5.59716393428159));
#457=CARTESIAN_POINT('Ctrl Pts',(37.5968962970499,17.1165777772126,5.64754462516655));
#458=CARTESIAN_POINT('Ctrl Pts',(36.6290857071082,17.8424357196688,5.64754462516655));
#459=CARTESIAN_POINT('Ctrl Pts',(35.9576364394018,18.2626033369563,5.52756217009646));
#460=CARTESIAN_POINT('Ctrl Pts',(34.5739768383934,18.9593562812462,5.14178262923348));
#461=CARTESIAN_POINT('Ctrl Pts',(33.8614296411048,19.2364507201368,4.87811644610362));
#462=CARTESIAN_POINT('Ctrl Pts',(32.923594079207,19.5222413744986,4.47737552430929));
#463=CARTESIAN_POINT('Ctrl Pts',(32.610653725718,19.6060881847619,4.33580768429957));
#464=CARTESIAN_POINT('Ctrl Pts',(31.9936113211002,19.7464301794946,4.02678647376393));
#465=CARTESIAN_POINT('Ctrl Pts',(31.6878452224473,19.8031558380853,3.86277233546595));
#466=CARTESIAN_POINT('Ctrl Pts',(31.3374144075723,19.8580070372628,3.60889529624457));
#467=CARTESIAN_POINT('Ctrl Pts',(31.240621919324,19.8719735280885,3.53101376058575));
#468=CARTESIAN_POINT('Ctrl Pts',(31.125409476617,19.8875780516945,3.40029297399025));
#469=CARTESIAN_POINT('Ctrl Pts',(31.0922175033196,19.8918957251244,3.35448000499504));
#470=CARTESIAN_POINT('Ctrl Pts',(31.0436673293506,19.8981015108482,3.25672317949331));
#471=CARTESIAN_POINT('Ctrl Pts',(31.0283476939431,19.9,3.20476083354109));
#472=CARTESIAN_POINT('Ctrl Pts',(31.0283476939431,19.9,3.14754462516655));
#473=CARTESIAN_POINT('Origin',(42.419,20.,7.14754462516655));
#474=CARTESIAN_POINT('',(42.419,-7.,7.14754462516655));
#475=CARTESIAN_POINT('',(42.419,10.,7.14754462516655));
#476=CARTESIAN_POINT('',(42.419,-7.,-0.852455374833454));
#477=CARTESIAN_POINT('',(42.419,-7.,7.14754462516655));
#478=CARTESIAN_POINT('',(42.419,10.,-0.852455374833454));
#479=CARTESIAN_POINT('Origin',(4.,20.,7.14754462516655));
#480=CARTESIAN_POINT('',(21.436724815767,20.,7.14754462516655));
#481=CARTESIAN_POINT('',(4.,20.,7.14754462516655));
#482=CARTESIAN_POINT('',(21.436724815767,14.9996666629629,7.14754462516655));
#483=CARTESIAN_POINT('',(21.436724815767,20.,7.14754462516655));
#484=CARTESIAN_POINT('',(21.436724815767,-14.9996666629629,7.14754462516655));
#485=CARTESIAN_POINT('Origin',(21.336724815767,-1.86699671205797E-29,7.14754462516651));
#486=CARTESIAN_POINT('',(21.436724815767,-20.,7.14754462516655));
#487=CARTESIAN_POINT('',(21.436724815767,2.50016666851856,7.14754462516655));
#488=CARTESIAN_POINT('',(29.419,-20.,7.14754462516655));
#489=CARTESIAN_POINT('',(4.,-20.,7.14754462516655));
#490=CARTESIAN_POINT('Origin',(29.419,-7.,7.14754462516655));
#491=CARTESIAN_POINT('Origin',(35.9189999999999,17.4,3.14754462516655));
#492=CARTESIAN_POINT('',(29.4189999999999,14.9,3.14754462516655));
#493=CARTESIAN_POINT('',(35.9189999999999,14.9,3.14754462516655));
#494=CARTESIAN_POINT('Origin',(29.4189999999999,17.4,3.14754462516655));
#495=CARTESIAN_POINT('Origin',(29.4189999999999,17.4,3.14754462516655));
#496=CARTESIAN_POINT('',(29.4189999999999,16.1,3.14754462516655));
#497=CARTESIAN_POINT('Origin',(29.4189999999999,17.4,3.14754462516655));
#498=CARTESIAN_POINT('Origin',(23.2654999999999,17.4,3.14754462516655));
#499=CARTESIAN_POINT('',(21.436724815767,16.1,3.14754462516655));
#500=CARTESIAN_POINT('',(23.2654999999999,16.1,3.14754462516655));
#501=CARTESIAN_POINT('Origin',(21.436724815767,17.4,3.14754462516655));
#502=CARTESIAN_POINT('Origin',(29.419,-7.,7.14754462516655));
#503=CARTESIAN_POINT('',(29.419,-20.,-0.852455374833454));
#504=CARTESIAN_POINT('Origin',(29.419,-7.,-0.852455374833454));
#505=CARTESIAN_POINT('',(29.419,-20.,7.14754462516655));
#506=CARTESIAN_POINT('',(39.7432433136768,-14.9,3.14754462516655));
#507=CARTESIAN_POINT('',(31.0283476939431,-19.9,3.14754462516655));
#508=CARTESIAN_POINT('Ctrl Pts',(39.7432433136768,-14.9,3.14754462516655));
#509=CARTESIAN_POINT('Ctrl Pts',(39.7432433136768,-14.9,2.84410600327683));
#510=CARTESIAN_POINT('Ctrl Pts',(39.6987468642233,-14.9590880649856,2.52591198444152));
#511=CARTESIAN_POINT('Ctrl Pts',(39.5219284105514,-15.1823662884221,1.95315070809357));
#512=CARTESIAN_POINT('Ctrl Pts',(39.3889596801396,-15.3458198778167,1.69849639055288));
#513=CARTESIAN_POINT('Ctrl Pts',(39.0039349778247,-15.7895955405592,1.19184193858586));
#514=CARTESIAN_POINT('Ctrl Pts',(38.6945936095198,-16.1212507659316,0.969598077153946));
#515=CARTESIAN_POINT('Ctrl Pts',(37.9912962705045,-16.7851721329287,0.697925316051505));
#516=CARTESIAN_POINT('Ctrl Pts',(37.5968962970499,-17.1165777772126,0.647544625166546));
#517=CARTESIAN_POINT('Ctrl Pts',(36.6290857071082,-17.8424357196688,0.647544625166546));
#518=CARTESIAN_POINT('Ctrl Pts',(35.9576364394018,-18.2626033369563,0.767527080236632));
#519=CARTESIAN_POINT('Ctrl Pts',(34.5739768383934,-18.9593562812462,1.15330662109962));
#520=CARTESIAN_POINT('Ctrl Pts',(33.8614296411048,-19.2364507201368,1.41697280422947));
#521=CARTESIAN_POINT('Ctrl Pts',(32.923594079207,-19.5222413744986,1.81771372602381));
#522=CARTESIAN_POINT('Ctrl Pts',(32.610653725718,-19.6060881847619,1.95928156603352));
#523=CARTESIAN_POINT('Ctrl Pts',(31.9936113211002,-19.7464301794946,2.26830277656917));
#524=CARTESIAN_POINT('Ctrl Pts',(31.6878452224473,-19.8031558380853,2.43231691486714));
#525=CARTESIAN_POINT('Ctrl Pts',(31.3374144075723,-19.8580070372628,2.68619395408852));
#526=CARTESIAN_POINT('Ctrl Pts',(31.240621919324,-19.8719735280885,2.76407548974734));
#527=CARTESIAN_POINT('Ctrl Pts',(31.125409476617,-19.8875780516945,2.89479627634285));
#528=CARTESIAN_POINT('Ctrl Pts',(31.0922175033196,-19.8918957251244,2.94060924533806));
#529=CARTESIAN_POINT('Ctrl Pts',(31.0436673293506,-19.8981015108482,3.03836607083978));
#530=CARTESIAN_POINT('Ctrl Pts',(31.0283476939431,-19.9,3.090328416792));
#531=CARTESIAN_POINT('Ctrl Pts',(31.0283476939431,-19.9,3.14754462516655));
#532=CARTESIAN_POINT('Ctrl Pts',(31.0283476939431,-19.9,3.14754462516655));
#533=CARTESIAN_POINT('Ctrl Pts',(31.0283476939431,-19.9,3.20476083354109));
#534=CARTESIAN_POINT('Ctrl Pts',(31.0436673293506,-19.8981015108482,3.25672317949331));
#535=CARTESIAN_POINT('Ctrl Pts',(31.0922175033196,-19.8918957251244,3.35448000499503));
#536=CARTESIAN_POINT('Ctrl Pts',(31.125409476617,-19.8875780516945,3.40029297399024));
#537=CARTESIAN_POINT('Ctrl Pts',(31.240621919324,-19.8719735280885,3.53101376058575));
#538=CARTESIAN_POINT('Ctrl Pts',(31.3374144075723,-19.8580070372628,3.60889529624457));
#539=CARTESIAN_POINT('Ctrl Pts',(31.6878452224473,-19.8031558380853,3.86277233546595));
#540=CARTESIAN_POINT('Ctrl Pts',(31.9936113211002,-19.7464301794946,4.02678647376392));
#541=CARTESIAN_POINT('Ctrl Pts',(32.610653725718,-19.6060881847619,4.33580768429957));
#542=CARTESIAN_POINT('Ctrl Pts',(32.923594079207,-19.5222413744986,4.47737552430929));
#543=CARTESIAN_POINT('Ctrl Pts',(33.8614296411048,-19.2364507201368,4.87811644610362));
#544=CARTESIAN_POINT('Ctrl Pts',(34.5739768383934,-18.9593562812462,5.14178262923348));
#545=CARTESIAN_POINT('Ctrl Pts',(35.9576364394018,-18.2626033369563,5.52756217009646));
#546=CARTESIAN_POINT('Ctrl Pts',(36.6290857071082,-17.8424357196688,5.64754462516655));
#547=CARTESIAN_POINT('Ctrl Pts',(37.5968962970499,-17.1165777772126,5.64754462516655));
#548=CARTESIAN_POINT('Ctrl Pts',(37.9912962705045,-16.7851721329287,5.59716393428159));
#549=CARTESIAN_POINT('Ctrl Pts',(38.6945936095198,-16.1212507659316,5.32549117317915));
#550=CARTESIAN_POINT('Ctrl Pts',(39.0039349778247,-15.7895955405592,5.10324731174723));
#551=CARTESIAN_POINT('Ctrl Pts',(39.3889596801396,-15.3458198778167,4.59659285978022));
#552=CARTESIAN_POINT('Ctrl Pts',(39.5219284105514,-15.1823662884221,4.34193854223953));
#553=CARTESIAN_POINT('Ctrl Pts',(39.6987468642233,-14.9590880649856,3.76917726589157));
#554=CARTESIAN_POINT('Ctrl Pts',(39.7432433136768,-14.9,3.45098324705626));
#555=CARTESIAN_POINT('Ctrl Pts',(39.7432433136768,-14.9,3.14754462516655));
#556=CARTESIAN_POINT('Origin',(35.919,-17.4,3.14754462516655));
#557=CARTESIAN_POINT('',(29.419,-19.9,3.14754462516655));
#558=CARTESIAN_POINT('',(35.919,-19.9,3.14754462516655));
#559=CARTESIAN_POINT('Origin',(29.419,-17.4,3.14754462516655));
#560=CARTESIAN_POINT('Origin',(29.419,-17.4,3.14754462516655));
#561=CARTESIAN_POINT('',(29.419,-18.7,3.14754462516655));
#562=CARTESIAN_POINT('Origin',(29.419,-17.4,3.14754462516655));
#563=CARTESIAN_POINT('Origin',(23.2655,-17.4,3.14754462516655));
#564=CARTESIAN_POINT('',(21.436724815767,-18.7,3.14754462516655));
#565=CARTESIAN_POINT('',(23.2655,-18.7,3.14754462516655));
#566=CARTESIAN_POINT('Origin',(21.436724815767,-17.4,3.14754462516655));
#567=CARTESIAN_POINT('Origin',(42.419,-20.,7.14754462516655));
#568=CARTESIAN_POINT('',(21.436724815767,-20.,-0.852455374833454));
#569=CARTESIAN_POINT('',(21.436724815767,-20.,7.14754462516655));
#570=CARTESIAN_POINT('',(4.,-20.,-0.852455374833454));
#571=CARTESIAN_POINT('Origin',(21.436724815767,20.,7.14754462516655));
#572=CARTESIAN_POINT('',(21.436724815767,20.,-0.852455374833454));
#573=CARTESIAN_POINT('',(4.,20.,-0.852455374833454));
#574=CARTESIAN_POINT('',(21.436724815767,20.,7.14754462516655));
#575=CARTESIAN_POINT('Origin',(21.436724815767,14.9996666629629,7.14754462516655));
#576=CARTESIAN_POINT('',(21.436724815767,14.9996666629629,-0.852455374833454));
#577=CARTESIAN_POINT('',(21.436724815767,20.,-0.852455374833454));
#578=CARTESIAN_POINT('',(21.436724815767,14.9996666629629,7.14754462516655));
#579=CARTESIAN_POINT('Origin',(21.336724815767,-1.86699671205797E-29,7.14754462516651));
#580=CARTESIAN_POINT('',(21.436724815767,-14.9996666629629,-0.852455374833454));
#581=CARTESIAN_POINT('Origin',(21.336724815767,-1.86699671205797E-29,-0.852455374833492));
#582=CARTESIAN_POINT('',(21.436724815767,-14.9996666629629,7.14754462516655));
#583=CARTESIAN_POINT('Origin',(21.436724815767,-20.,7.14754462516655));
#584=CARTESIAN_POINT('',(21.436724815767,2.50016666851856,-0.852455374833454));
#585=CARTESIAN_POINT('Origin',(4.,20.,-0.852455374833454));
#586=UNCERTAINTY_MEASURE_WITH_UNIT(LENGTH_MEASURE(0.01),#590,
'DISTANCE_ACCURACY_VALUE',
'Maximum model space distance between geometric entities at asserted c
onnectivities');
#587=UNCERTAINTY_MEASURE_WITH_UNIT(LENGTH_MEASURE(0.01),#590,
'DISTANCE_ACCURACY_VALUE',
'Maximum model space distance between geometric entities at asserted c
onnectivities');
#588=(
GEOMETRIC_REPRESENTATION_CONTEXT(3)
GLOBAL_UNCERTAINTY_ASSIGNED_CONTEXT((#586))
GLOBAL_UNIT_ASSIGNED_CONTEXT((#590,#592,#593))
REPRESENTATION_CONTEXT('','3D')
);
#589=(
GEOMETRIC_REPRESENTATION_CONTEXT(3)
GLOBAL_UNCERTAINTY_ASSIGNED_CONTEXT((#587))
GLOBAL_UNIT_ASSIGNED_CONTEXT((#590,#592,#593))
REPRESENTATION_CONTEXT('','3D')
);
#590=(
LENGTH_UNIT()
NAMED_UNIT(*)
SI_UNIT(.MILLI.,.METRE.)
);
#591=(
LENGTH_UNIT()
NAMED_UNIT(*)
SI_UNIT($,.METRE.)
);
#592=(
NAMED_UNIT(*)
PLANE_ANGLE_UNIT()
SI_UNIT($,.RADIAN.)
);
#593=(
NAMED_UNIT(*)
SI_UNIT($,.STERADIAN.)
SOLID_ANGLE_UNIT()
);
#594=SHAPE_DEFINITION_REPRESENTATION(#595,#596);
#595=PRODUCT_DEFINITION_SHAPE('',$,#598);
#596=SHAPE_REPRESENTATION('',(#304),#588);
#597=PRODUCT_DEFINITION_CONTEXT('part definition',#602,'design');
#598=PRODUCT_DEFINITION('CLAMP','CLAMP',#599,#597);
#599=PRODUCT_DEFINITION_FORMATION('',$,#604);
#600=PRODUCT_RELATED_PRODUCT_CATEGORY('CLAMP','CLAMP',(#604));
#601=APPLICATION_PROTOCOL_DEFINITION('international standard',
'automotive_design',2009,#602);
#602=APPLICATION_CONTEXT(
'Core Data for Automotive Mechanical Design Process');
#603=PRODUCT_CONTEXT('part definition',#602,'mechanical');
#604=PRODUCT('CLAMP','CLAMP',$,(#603));
#605=PRESENTATION_STYLE_ASSIGNMENT((#607));
#606=PRESENTATION_STYLE_ASSIGNMENT((#608));
#607=SURFACE_STYLE_USAGE(.BOTH.,#609);
#608=SURFACE_STYLE_USAGE(.BOTH.,#610);
#609=SURFACE_SIDE_STYLE('',(#611));
#610=SURFACE_SIDE_STYLE('',(#612));
#611=SURFACE_STYLE_FILL_AREA(#613);
#612=SURFACE_STYLE_FILL_AREA(#614);
#613=FILL_AREA_STYLE('Steel - Satin',(#615));
#614=FILL_AREA_STYLE('ABS (White)',(#616));
#615=FILL_AREA_STYLE_COLOUR('Steel - Satin',#617);
#616=FILL_AREA_STYLE_COLOUR('ABS (White)',#618);
#617=COLOUR_RGB('Steel - Satin',0.627450980392157,0.627450980392157,0.627450980392157);
#618=COLOUR_RGB('ABS (White)',0.850980392156863,0.0901960784313725,0.0901960784313725);
ENDSEC;
END-ISO-10303-21;
