ISO-10303-21;
HEADER;
/* Generated by software containing ST-Developer
 * from STEP Tools, Inc. (www.steptools.com) 
 */

FILE_DESCRIPTION(
/* description */ (''),
/* implementation_level */ '2;1');

FILE_NAME(
/* name */ 'CASING RAIN.step',
/* time_stamp */ '2026-06-07T21:10:11+07:00',
/* author */ (''),
/* organization */ (''),
/* preprocessor_version */ 'ST-DEVELOPER v20.1',
/* originating_system */ 'Autodesk Translation Framework v14.24.0.0',
/* authorisation */ '');

FILE_SCHEMA (('AUTOMOTIVE_DESIGN { 1 0 10303 214 3 1 1 }'));
ENDSEC;

DATA;
#10=MECHANICAL_DESIGN_GEOMETRIC_PRESENTATION_REPRESENTATION('',(#13),#873);
#11=SHAPE_REPRESENTATION_RELATIONSHIP('SRR','None',#880,#12);
#12=ADVANCED_BREP_SHAPE_REPRESENTATION('',(#14),#872);
#13=STYLED_ITEM('',(#890),#14);
#14=MANIFOLD_SOLID_BREP('Body2',#537);
#15=FACE_BOUND('',#80,.T.);
#16=FACE_BOUND('',#83,.T.);
#17=FACE_BOUND('',#102,.T.);
#18=FACE_BOUND('',#104,.T.);
#19=PLANE('',#559);
#20=PLANE('',#560);
#21=PLANE('',#561);
#22=PLANE('',#562);
#23=PLANE('',#563);
#24=PLANE('',#564);
#25=PLANE('',#565);
#26=PLANE('',#566);
#27=PLANE('',#567);
#28=PLANE('',#568);
#29=PLANE('',#569);
#30=PLANE('',#570);
#31=PLANE('',#571);
#32=PLANE('',#572);
#33=PLANE('',#573);
#34=PLANE('',#574);
#35=PLANE('',#575);
#36=PLANE('',#576);
#37=PLANE('',#577);
#38=PLANE('',#579);
#39=PLANE('',#582);
#40=PLANE('',#583);
#41=PLANE('',#584);
#42=CYLINDRICAL_SURFACE('',#553,1.3);
#43=CYLINDRICAL_SURFACE('',#557,1.3);
#44=CYLINDRICAL_SURFACE('',#580,15.);
#45=FACE_OUTER_BOUND('',#73,.T.);
#46=FACE_OUTER_BOUND('',#74,.T.);
#47=FACE_OUTER_BOUND('',#75,.T.);
#48=FACE_OUTER_BOUND('',#76,.T.);
#49=FACE_OUTER_BOUND('',#77,.T.);
#50=FACE_OUTER_BOUND('',#78,.T.);
#51=FACE_OUTER_BOUND('',#79,.T.);
#52=FACE_OUTER_BOUND('',#81,.T.);
#53=FACE_OUTER_BOUND('',#82,.T.);
#54=FACE_OUTER_BOUND('',#84,.T.);
#55=FACE_OUTER_BOUND('',#85,.T.);
#56=FACE_OUTER_BOUND('',#86,.T.);
#57=FACE_OUTER_BOUND('',#87,.T.);
#58=FACE_OUTER_BOUND('',#88,.T.);
#59=FACE_OUTER_BOUND('',#89,.T.);
#60=FACE_OUTER_BOUND('',#90,.T.);
#61=FACE_OUTER_BOUND('',#91,.T.);
#62=FACE_OUTER_BOUND('',#92,.T.);
#63=FACE_OUTER_BOUND('',#93,.T.);
#64=FACE_OUTER_BOUND('',#94,.T.);
#65=FACE_OUTER_BOUND('',#95,.T.);
#66=FACE_OUTER_BOUND('',#96,.T.);
#67=FACE_OUTER_BOUND('',#97,.T.);
#68=FACE_OUTER_BOUND('',#98,.T.);
#69=FACE_OUTER_BOUND('',#99,.T.);
#70=FACE_OUTER_BOUND('',#100,.T.);
#71=FACE_OUTER_BOUND('',#101,.T.);
#72=FACE_OUTER_BOUND('',#103,.T.);
#73=EDGE_LOOP('',(#363,#364,#365));
#74=EDGE_LOOP('',(#366,#367,#368,#369));
#75=EDGE_LOOP('',(#370,#371,#372));
#76=EDGE_LOOP('',(#373,#374,#375,#376));
#77=EDGE_LOOP('',(#377,#378,#379,#380,#381,#382,#383,#384));
#78=EDGE_LOOP('',(#385,#386,#387,#388));
#79=EDGE_LOOP('',(#389,#390,#391,#392));
#80=EDGE_LOOP('',(#393,#394,#395,#396));
#81=EDGE_LOOP('',(#397,#398,#399,#400,#401,#402));
#82=EDGE_LOOP('',(#403,#404,#405,#406));
#83=EDGE_LOOP('',(#407,#408,#409,#410));
#84=EDGE_LOOP('',(#411,#412,#413,#414));
#85=EDGE_LOOP('',(#415,#416,#417,#418,#419,#420,#421,#422,#423,#424));
#86=EDGE_LOOP('',(#425,#426,#427,#428));
#87=EDGE_LOOP('',(#429,#430,#431,#432));
#88=EDGE_LOOP('',(#433,#434,#435,#436));
#89=EDGE_LOOP('',(#437,#438,#439,#440));
#90=EDGE_LOOP('',(#441,#442,#443,#444));
#91=EDGE_LOOP('',(#445,#446,#447,#448));
#92=EDGE_LOOP('',(#449,#450,#451,#452));
#93=EDGE_LOOP('',(#453,#454,#455,#456));
#94=EDGE_LOOP('',(#457,#458,#459,#460));
#95=EDGE_LOOP('',(#461,#462,#463,#464,#465,#466,#467,#468));
#96=EDGE_LOOP('',(#469,#470,#471,#472));
#97=EDGE_LOOP('',(#473,#474,#475,#476,#477,#478));
#98=EDGE_LOOP('',(#479,#480,#481,#482,#483,#484,#485,#486));
#99=EDGE_LOOP('',(#487,#488,#489,#490));
#100=EDGE_LOOP('',(#491,#492,#493,#494,#495,#496));
#101=EDGE_LOOP('',(#497,#498,#499,#500));
#102=EDGE_LOOP('',(#501));
#103=EDGE_LOOP('',(#502,#503,#504,#505));
#104=EDGE_LOOP('',(#506));
#105=LINE('',#726,#171);
#106=LINE('',#730,#172);
#107=LINE('',#735,#173);
#108=LINE('',#739,#174);
#109=LINE('',#743,#175);
#110=LINE('',#745,#176);
#111=LINE('',#747,#177);
#112=LINE('',#749,#178);
#113=LINE('',#751,#179);
#114=LINE('',#753,#180);
#115=LINE('',#755,#181);
#116=LINE('',#756,#182);
#117=LINE('',#759,#183);
#118=LINE('',#761,#184);
#119=LINE('',#762,#185);
#120=LINE('',#766,#186);
#121=LINE('',#768,#187);
#122=LINE('',#770,#188);
#123=LINE('',#771,#189);
#124=LINE('',#774,#190);
#125=LINE('',#776,#191);
#126=LINE('',#778,#192);
#127=LINE('',#779,#193);
#128=LINE('',#783,#194);
#129=LINE('',#785,#195);
#130=LINE('',#786,#196);
#131=LINE('',#787,#197);
#132=LINE('',#791,#198);
#133=LINE('',#792,#199);
#134=LINE('',#793,#200);
#135=LINE('',#796,#201);
#136=LINE('',#798,#202);
#137=LINE('',#800,#203);
#138=LINE('',#801,#204);
#139=LINE('',#804,#205);
#140=LINE('',#806,#206);
#141=LINE('',#807,#207);
#142=LINE('',#810,#208);
#143=LINE('',#812,#209);
#144=LINE('',#813,#210);
#145=LINE('',#815,#211);
#146=LINE('',#817,#212);
#147=LINE('',#818,#213);
#148=LINE('',#820,#214);
#149=LINE('',#821,#215);
#150=LINE('',#823,#216);
#151=LINE('',#824,#217);
#152=LINE('',#826,#218);
#153=LINE('',#829,#219);
#154=LINE('',#832,#220);
#155=LINE('',#833,#221);
#156=LINE('',#835,#222);
#157=LINE('',#837,#223);
#158=LINE('',#841,#224);
#159=LINE('',#842,#225);
#160=LINE('',#845,#226);
#161=LINE('',#846,#227);
#162=LINE('',#849,#228);
#163=LINE('',#851,#229);
#164=LINE('',#853,#230);
#165=LINE('',#857,#231);
#166=LINE('',#858,#232);
#167=LINE('',#861,#233);
#168=LINE('',#863,#234);
#169=LINE('',#866,#235);
#170=LINE('',#867,#236);
#171=VECTOR('',#591,0.65);
#172=VECTOR('',#596,1.3);
#173=VECTOR('',#601,0.65);
#174=VECTOR('',#606,1.3);
#175=VECTOR('',#609,10.);
#176=VECTOR('',#610,10.);
#177=VECTOR('',#611,10.);
#178=VECTOR('',#612,10.);
#179=VECTOR('',#613,10.);
#180=VECTOR('',#614,10.);
#181=VECTOR('',#615,10.);
#182=VECTOR('',#616,10.);
#183=VECTOR('',#619,10.);
#184=VECTOR('',#620,10.);
#185=VECTOR('',#621,10.);
#186=VECTOR('',#624,10.);
#187=VECTOR('',#625,10.);
#188=VECTOR('',#626,10.);
#189=VECTOR('',#627,10.);
#190=VECTOR('',#628,10.);
#191=VECTOR('',#629,10.);
#192=VECTOR('',#630,10.);
#193=VECTOR('',#631,10.);
#194=VECTOR('',#634,10.);
#195=VECTOR('',#635,10.);
#196=VECTOR('',#636,10.);
#197=VECTOR('',#637,10.);
#198=VECTOR('',#640,10.);
#199=VECTOR('',#641,10.);
#200=VECTOR('',#642,10.);
#201=VECTOR('',#643,10.);
#202=VECTOR('',#644,10.);
#203=VECTOR('',#645,10.);
#204=VECTOR('',#646,10.);
#205=VECTOR('',#649,10.);
#206=VECTOR('',#650,10.);
#207=VECTOR('',#651,10.);
#208=VECTOR('',#654,10.);
#209=VECTOR('',#655,10.);
#210=VECTOR('',#656,10.);
#211=VECTOR('',#657,10.);
#212=VECTOR('',#658,10.);
#213=VECTOR('',#659,10.);
#214=VECTOR('',#660,10.);
#215=VECTOR('',#661,10.);
#216=VECTOR('',#664,10.);
#217=VECTOR('',#665,10.);
#218=VECTOR('',#668,10.);
#219=VECTOR('',#673,10.);
#220=VECTOR('',#678,10.);
#221=VECTOR('',#679,10.);
#222=VECTOR('',#682,10.);
#223=VECTOR('',#685,10.);
#224=VECTOR('',#690,10.);
#225=VECTOR('',#691,10.);
#226=VECTOR('',#694,10.);
#227=VECTOR('',#695,10.);
#228=VECTOR('',#698,10.);
#229=VECTOR('',#699,10.);
#230=VECTOR('',#700,10.);
#231=VECTOR('',#705,10.);
#232=VECTOR('',#706,10.);
#233=VECTOR('',#709,10.);
#234=VECTOR('',#710,10.);
#235=VECTOR('',#715,10.);
#236=VECTOR('',#716,10.);
#237=CIRCLE('',#552,1.3);
#238=CIRCLE('',#554,1.3);
#239=CIRCLE('',#556,1.3);
#240=CIRCLE('',#558,1.3);
#241=CIRCLE('',#578,15.);
#242=CIRCLE('',#581,15.);
#243=VERTEX_POINT('',#723);
#244=VERTEX_POINT('',#725);
#245=VERTEX_POINT('',#728);
#246=VERTEX_POINT('',#732);
#247=VERTEX_POINT('',#734);
#248=VERTEX_POINT('',#737);
#249=VERTEX_POINT('',#741);
#250=VERTEX_POINT('',#742);
#251=VERTEX_POINT('',#744);
#252=VERTEX_POINT('',#746);
#253=VERTEX_POINT('',#748);
#254=VERTEX_POINT('',#750);
#255=VERTEX_POINT('',#752);
#256=VERTEX_POINT('',#754);
#257=VERTEX_POINT('',#758);
#258=VERTEX_POINT('',#760);
#259=VERTEX_POINT('',#764);
#260=VERTEX_POINT('',#765);
#261=VERTEX_POINT('',#767);
#262=VERTEX_POINT('',#769);
#263=VERTEX_POINT('',#772);
#264=VERTEX_POINT('',#773);
#265=VERTEX_POINT('',#775);
#266=VERTEX_POINT('',#777);
#267=VERTEX_POINT('',#781);
#268=VERTEX_POINT('',#782);
#269=VERTEX_POINT('',#784);
#270=VERTEX_POINT('',#789);
#271=VERTEX_POINT('',#790);
#272=VERTEX_POINT('',#794);
#273=VERTEX_POINT('',#795);
#274=VERTEX_POINT('',#797);
#275=VERTEX_POINT('',#799);
#276=VERTEX_POINT('',#803);
#277=VERTEX_POINT('',#805);
#278=VERTEX_POINT('',#809);
#279=VERTEX_POINT('',#811);
#280=VERTEX_POINT('',#814);
#281=VERTEX_POINT('',#816);
#282=VERTEX_POINT('',#819);
#283=VERTEX_POINT('',#840);
#284=VERTEX_POINT('',#844);
#285=VERTEX_POINT('',#848);
#286=VERTEX_POINT('',#850);
#287=VERTEX_POINT('',#852);
#288=VERTEX_POINT('',#856);
#289=VERTEX_POINT('',#860);
#290=VERTEX_POINT('',#862);
#291=EDGE_CURVE('',#243,#243,#237,.T.);
#292=EDGE_CURVE('',#243,#244,#105,.T.);
#293=EDGE_CURVE('',#245,#245,#238,.T.);
#294=EDGE_CURVE('',#245,#243,#106,.T.);
#295=EDGE_CURVE('',#246,#246,#239,.T.);
#296=EDGE_CURVE('',#246,#247,#107,.T.);
#297=EDGE_CURVE('',#248,#248,#240,.T.);
#298=EDGE_CURVE('',#248,#246,#108,.T.);
#299=EDGE_CURVE('',#249,#250,#109,.T.);
#300=EDGE_CURVE('',#251,#250,#110,.T.);
#301=EDGE_CURVE('',#251,#252,#111,.T.);
#302=EDGE_CURVE('',#252,#253,#112,.T.);
#303=EDGE_CURVE('',#254,#253,#113,.T.);
#304=EDGE_CURVE('',#254,#255,#114,.T.);
#305=EDGE_CURVE('',#255,#256,#115,.T.);
#306=EDGE_CURVE('',#256,#249,#116,.T.);
#307=EDGE_CURVE('',#254,#257,#117,.T.);
#308=EDGE_CURVE('',#257,#258,#118,.T.);
#309=EDGE_CURVE('',#255,#258,#119,.T.);
#310=EDGE_CURVE('',#259,#260,#120,.T.);
#311=EDGE_CURVE('',#261,#259,#121,.T.);
#312=EDGE_CURVE('',#261,#262,#122,.T.);
#313=EDGE_CURVE('',#262,#260,#123,.T.);
#314=EDGE_CURVE('',#263,#264,#124,.T.);
#315=EDGE_CURVE('',#264,#265,#125,.T.);
#316=EDGE_CURVE('',#265,#266,#126,.T.);
#317=EDGE_CURVE('',#266,#263,#127,.T.);
#318=EDGE_CURVE('',#267,#268,#128,.T.);
#319=EDGE_CURVE('',#269,#268,#129,.T.);
#320=EDGE_CURVE('',#257,#269,#130,.T.);
#321=EDGE_CURVE('',#253,#267,#131,.T.);
#322=EDGE_CURVE('',#270,#271,#132,.T.);
#323=EDGE_CURVE('',#268,#271,#133,.T.);
#324=EDGE_CURVE('',#267,#270,#134,.T.);
#325=EDGE_CURVE('',#272,#273,#135,.T.);
#326=EDGE_CURVE('',#273,#274,#136,.T.);
#327=EDGE_CURVE('',#274,#275,#137,.T.);
#328=EDGE_CURVE('',#275,#272,#138,.T.);
#329=EDGE_CURVE('',#276,#261,#139,.T.);
#330=EDGE_CURVE('',#276,#277,#140,.T.);
#331=EDGE_CURVE('',#262,#277,#141,.T.);
#332=EDGE_CURVE('',#276,#278,#142,.T.);
#333=EDGE_CURVE('',#279,#278,#143,.T.);
#334=EDGE_CURVE('',#269,#279,#144,.T.);
#335=EDGE_CURVE('',#280,#269,#145,.T.);
#336=EDGE_CURVE('',#281,#280,#146,.T.);
#337=EDGE_CURVE('',#281,#253,#147,.T.);
#338=EDGE_CURVE('',#282,#252,#148,.T.);
#339=EDGE_CURVE('',#277,#282,#149,.T.);
#340=EDGE_CURVE('',#270,#281,#150,.T.);
#341=EDGE_CURVE('',#280,#271,#151,.T.);
#342=EDGE_CURVE('',#278,#259,#152,.T.);
#343=EDGE_CURVE('',#260,#282,#153,.T.);
#344=EDGE_CURVE('',#264,#272,#154,.T.);
#345=EDGE_CURVE('',#265,#275,#155,.T.);
#346=EDGE_CURVE('',#266,#274,#156,.T.);
#347=EDGE_CURVE('',#263,#273,#157,.T.);
#348=EDGE_CURVE('',#251,#283,#158,.T.);
#349=EDGE_CURVE('',#283,#279,#159,.T.);
#350=EDGE_CURVE('',#284,#256,#160,.T.);
#351=EDGE_CURVE('',#258,#284,#161,.T.);
#352=EDGE_CURVE('',#285,#249,#162,.T.);
#353=EDGE_CURVE('',#284,#286,#163,.T.);
#354=EDGE_CURVE('',#286,#287,#164,.T.);
#355=EDGE_CURVE('',#287,#285,#241,.T.);
#356=EDGE_CURVE('',#288,#286,#165,.T.);
#357=EDGE_CURVE('',#283,#288,#166,.T.);
#358=EDGE_CURVE('',#289,#285,#167,.T.);
#359=EDGE_CURVE('',#287,#290,#168,.T.);
#360=EDGE_CURVE('',#289,#290,#242,.T.);
#361=EDGE_CURVE('',#250,#289,#169,.T.);
#362=EDGE_CURVE('',#290,#288,#170,.T.);
#363=ORIENTED_EDGE('',*,*,#291,.F.);
#364=ORIENTED_EDGE('',*,*,#292,.T.);
#365=ORIENTED_EDGE('',*,*,#292,.F.);
#366=ORIENTED_EDGE('',*,*,#293,.F.);
#367=ORIENTED_EDGE('',*,*,#294,.T.);
#368=ORIENTED_EDGE('',*,*,#291,.T.);
#369=ORIENTED_EDGE('',*,*,#294,.F.);
#370=ORIENTED_EDGE('',*,*,#295,.F.);
#371=ORIENTED_EDGE('',*,*,#296,.T.);
#372=ORIENTED_EDGE('',*,*,#296,.F.);
#373=ORIENTED_EDGE('',*,*,#297,.F.);
#374=ORIENTED_EDGE('',*,*,#298,.T.);
#375=ORIENTED_EDGE('',*,*,#295,.T.);
#376=ORIENTED_EDGE('',*,*,#298,.F.);
#377=ORIENTED_EDGE('',*,*,#299,.T.);
#378=ORIENTED_EDGE('',*,*,#300,.F.);
#379=ORIENTED_EDGE('',*,*,#301,.T.);
#380=ORIENTED_EDGE('',*,*,#302,.T.);
#381=ORIENTED_EDGE('',*,*,#303,.F.);
#382=ORIENTED_EDGE('',*,*,#304,.T.);
#383=ORIENTED_EDGE('',*,*,#305,.T.);
#384=ORIENTED_EDGE('',*,*,#306,.T.);
#385=ORIENTED_EDGE('',*,*,#307,.T.);
#386=ORIENTED_EDGE('',*,*,#308,.T.);
#387=ORIENTED_EDGE('',*,*,#309,.F.);
#388=ORIENTED_EDGE('',*,*,#304,.F.);
#389=ORIENTED_EDGE('',*,*,#310,.F.);
#390=ORIENTED_EDGE('',*,*,#311,.F.);
#391=ORIENTED_EDGE('',*,*,#312,.T.);
#392=ORIENTED_EDGE('',*,*,#313,.T.);
#393=ORIENTED_EDGE('',*,*,#314,.T.);
#394=ORIENTED_EDGE('',*,*,#315,.T.);
#395=ORIENTED_EDGE('',*,*,#316,.T.);
#396=ORIENTED_EDGE('',*,*,#317,.T.);
#397=ORIENTED_EDGE('',*,*,#318,.T.);
#398=ORIENTED_EDGE('',*,*,#319,.F.);
#399=ORIENTED_EDGE('',*,*,#320,.F.);
#400=ORIENTED_EDGE('',*,*,#307,.F.);
#401=ORIENTED_EDGE('',*,*,#303,.T.);
#402=ORIENTED_EDGE('',*,*,#321,.T.);
#403=ORIENTED_EDGE('',*,*,#322,.T.);
#404=ORIENTED_EDGE('',*,*,#323,.F.);
#405=ORIENTED_EDGE('',*,*,#318,.F.);
#406=ORIENTED_EDGE('',*,*,#324,.T.);
#407=ORIENTED_EDGE('',*,*,#325,.T.);
#408=ORIENTED_EDGE('',*,*,#326,.T.);
#409=ORIENTED_EDGE('',*,*,#327,.T.);
#410=ORIENTED_EDGE('',*,*,#328,.T.);
#411=ORIENTED_EDGE('',*,*,#312,.F.);
#412=ORIENTED_EDGE('',*,*,#329,.F.);
#413=ORIENTED_EDGE('',*,*,#330,.T.);
#414=ORIENTED_EDGE('',*,*,#331,.F.);
#415=ORIENTED_EDGE('',*,*,#330,.F.);
#416=ORIENTED_EDGE('',*,*,#332,.T.);
#417=ORIENTED_EDGE('',*,*,#333,.F.);
#418=ORIENTED_EDGE('',*,*,#334,.F.);
#419=ORIENTED_EDGE('',*,*,#335,.F.);
#420=ORIENTED_EDGE('',*,*,#336,.F.);
#421=ORIENTED_EDGE('',*,*,#337,.T.);
#422=ORIENTED_EDGE('',*,*,#302,.F.);
#423=ORIENTED_EDGE('',*,*,#338,.F.);
#424=ORIENTED_EDGE('',*,*,#339,.F.);
#425=ORIENTED_EDGE('',*,*,#340,.T.);
#426=ORIENTED_EDGE('',*,*,#336,.T.);
#427=ORIENTED_EDGE('',*,*,#341,.T.);
#428=ORIENTED_EDGE('',*,*,#322,.F.);
#429=ORIENTED_EDGE('',*,*,#311,.T.);
#430=ORIENTED_EDGE('',*,*,#342,.F.);
#431=ORIENTED_EDGE('',*,*,#332,.F.);
#432=ORIENTED_EDGE('',*,*,#329,.T.);
#433=ORIENTED_EDGE('',*,*,#319,.T.);
#434=ORIENTED_EDGE('',*,*,#323,.T.);
#435=ORIENTED_EDGE('',*,*,#341,.F.);
#436=ORIENTED_EDGE('',*,*,#335,.T.);
#437=ORIENTED_EDGE('',*,*,#313,.F.);
#438=ORIENTED_EDGE('',*,*,#331,.T.);
#439=ORIENTED_EDGE('',*,*,#339,.T.);
#440=ORIENTED_EDGE('',*,*,#343,.F.);
#441=ORIENTED_EDGE('',*,*,#324,.F.);
#442=ORIENTED_EDGE('',*,*,#321,.F.);
#443=ORIENTED_EDGE('',*,*,#337,.F.);
#444=ORIENTED_EDGE('',*,*,#340,.F.);
#445=ORIENTED_EDGE('',*,*,#315,.F.);
#446=ORIENTED_EDGE('',*,*,#344,.T.);
#447=ORIENTED_EDGE('',*,*,#328,.F.);
#448=ORIENTED_EDGE('',*,*,#345,.F.);
#449=ORIENTED_EDGE('',*,*,#316,.F.);
#450=ORIENTED_EDGE('',*,*,#345,.T.);
#451=ORIENTED_EDGE('',*,*,#327,.F.);
#452=ORIENTED_EDGE('',*,*,#346,.F.);
#453=ORIENTED_EDGE('',*,*,#317,.F.);
#454=ORIENTED_EDGE('',*,*,#346,.T.);
#455=ORIENTED_EDGE('',*,*,#326,.F.);
#456=ORIENTED_EDGE('',*,*,#347,.F.);
#457=ORIENTED_EDGE('',*,*,#314,.F.);
#458=ORIENTED_EDGE('',*,*,#347,.T.);
#459=ORIENTED_EDGE('',*,*,#325,.F.);
#460=ORIENTED_EDGE('',*,*,#344,.F.);
#461=ORIENTED_EDGE('',*,*,#348,.T.);
#462=ORIENTED_EDGE('',*,*,#349,.T.);
#463=ORIENTED_EDGE('',*,*,#333,.T.);
#464=ORIENTED_EDGE('',*,*,#342,.T.);
#465=ORIENTED_EDGE('',*,*,#310,.T.);
#466=ORIENTED_EDGE('',*,*,#343,.T.);
#467=ORIENTED_EDGE('',*,*,#338,.T.);
#468=ORIENTED_EDGE('',*,*,#301,.F.);
#469=ORIENTED_EDGE('',*,*,#350,.T.);
#470=ORIENTED_EDGE('',*,*,#305,.F.);
#471=ORIENTED_EDGE('',*,*,#309,.T.);
#472=ORIENTED_EDGE('',*,*,#351,.T.);
#473=ORIENTED_EDGE('',*,*,#352,.T.);
#474=ORIENTED_EDGE('',*,*,#306,.F.);
#475=ORIENTED_EDGE('',*,*,#350,.F.);
#476=ORIENTED_EDGE('',*,*,#353,.T.);
#477=ORIENTED_EDGE('',*,*,#354,.T.);
#478=ORIENTED_EDGE('',*,*,#355,.T.);
#479=ORIENTED_EDGE('',*,*,#356,.T.);
#480=ORIENTED_EDGE('',*,*,#353,.F.);
#481=ORIENTED_EDGE('',*,*,#351,.F.);
#482=ORIENTED_EDGE('',*,*,#308,.F.);
#483=ORIENTED_EDGE('',*,*,#320,.T.);
#484=ORIENTED_EDGE('',*,*,#334,.T.);
#485=ORIENTED_EDGE('',*,*,#349,.F.);
#486=ORIENTED_EDGE('',*,*,#357,.T.);
#487=ORIENTED_EDGE('',*,*,#358,.T.);
#488=ORIENTED_EDGE('',*,*,#355,.F.);
#489=ORIENTED_EDGE('',*,*,#359,.T.);
#490=ORIENTED_EDGE('',*,*,#360,.F.);
#491=ORIENTED_EDGE('',*,*,#361,.T.);
#492=ORIENTED_EDGE('',*,*,#360,.T.);
#493=ORIENTED_EDGE('',*,*,#362,.T.);
#494=ORIENTED_EDGE('',*,*,#357,.F.);
#495=ORIENTED_EDGE('',*,*,#348,.F.);
#496=ORIENTED_EDGE('',*,*,#300,.T.);
#497=ORIENTED_EDGE('',*,*,#354,.F.);
#498=ORIENTED_EDGE('',*,*,#356,.F.);
#499=ORIENTED_EDGE('',*,*,#362,.F.);
#500=ORIENTED_EDGE('',*,*,#359,.F.);
#501=ORIENTED_EDGE('',*,*,#293,.T.);
#502=ORIENTED_EDGE('',*,*,#352,.F.);
#503=ORIENTED_EDGE('',*,*,#358,.F.);
#504=ORIENTED_EDGE('',*,*,#361,.F.);
#505=ORIENTED_EDGE('',*,*,#299,.F.);
#506=ORIENTED_EDGE('',*,*,#297,.T.);
#507=CONICAL_SURFACE('',#551,0.65,1.02974425867665);
#508=CONICAL_SURFACE('',#555,0.65,1.02974425867665);
#509=ADVANCED_FACE('',(#45),#507,.F.);
#510=ADVANCED_FACE('',(#46),#42,.F.);
#511=ADVANCED_FACE('',(#47),#508,.F.);
#512=ADVANCED_FACE('',(#48),#43,.F.);
#513=ADVANCED_FACE('',(#49),#19,.T.);
#514=ADVANCED_FACE('',(#50),#20,.T.);
#515=ADVANCED_FACE('',(#51,#15),#21,.T.);
#516=ADVANCED_FACE('',(#52),#22,.F.);
#517=ADVANCED_FACE('',(#53,#16),#23,.T.);
#518=ADVANCED_FACE('',(#54),#24,.T.);
#519=ADVANCED_FACE('',(#55),#25,.T.);
#520=ADVANCED_FACE('',(#56),#26,.T.);
#521=ADVANCED_FACE('',(#57),#27,.T.);
#522=ADVANCED_FACE('',(#58),#28,.T.);
#523=ADVANCED_FACE('',(#59),#29,.T.);
#524=ADVANCED_FACE('',(#60),#30,.T.);
#525=ADVANCED_FACE('',(#61),#31,.F.);
#526=ADVANCED_FACE('',(#62),#32,.F.);
#527=ADVANCED_FACE('',(#63),#33,.F.);
#528=ADVANCED_FACE('',(#64),#34,.F.);
#529=ADVANCED_FACE('',(#65),#35,.T.);
#530=ADVANCED_FACE('',(#66),#36,.T.);
#531=ADVANCED_FACE('',(#67),#37,.T.);
#532=ADVANCED_FACE('',(#68),#38,.T.);
#533=ADVANCED_FACE('',(#69),#44,.F.);
#534=ADVANCED_FACE('',(#70),#39,.T.);
#535=ADVANCED_FACE('',(#71,#17),#40,.F.);
#536=ADVANCED_FACE('',(#72,#18),#41,.F.);
#537=CLOSED_SHELL('',(#509,#510,#511,#512,#513,#514,#515,#516,#517,#518,
#519,#520,#521,#522,#523,#524,#525,#526,#527,#528,#529,#530,#531,#532,#533,
#534,#535,#536));
#538=DERIVED_UNIT_ELEMENT(#540,1.);
#539=DERIVED_UNIT_ELEMENT(#875,-3.);
#540=(
MASS_UNIT()
NAMED_UNIT(*)
SI_UNIT(.KILO.,.GRAM.)
);
#541=DERIVED_UNIT((#538,#539));
#542=MEASURE_REPRESENTATION_ITEM('density measure',
POSITIVE_RATIO_MEASURE(7850.),#541);
#543=PROPERTY_DEFINITION_REPRESENTATION(#548,#545);
#544=PROPERTY_DEFINITION_REPRESENTATION(#549,#546);
#545=REPRESENTATION('material name',(#547),#872);
#546=REPRESENTATION('density',(#542),#872);
#547=DESCRIPTIVE_REPRESENTATION_ITEM('Steel','Steel');
#548=PROPERTY_DEFINITION('material property','material name',#882);
#549=PROPERTY_DEFINITION('material property','density of part',#882);
#550=AXIS2_PLACEMENT_3D('',#721,#585,#586);
#551=AXIS2_PLACEMENT_3D('',#722,#587,#588);
#552=AXIS2_PLACEMENT_3D('',#724,#589,#590);
#553=AXIS2_PLACEMENT_3D('',#727,#592,#593);
#554=AXIS2_PLACEMENT_3D('',#729,#594,#595);
#555=AXIS2_PLACEMENT_3D('',#731,#597,#598);
#556=AXIS2_PLACEMENT_3D('',#733,#599,#600);
#557=AXIS2_PLACEMENT_3D('',#736,#602,#603);
#558=AXIS2_PLACEMENT_3D('',#738,#604,#605);
#559=AXIS2_PLACEMENT_3D('',#740,#607,#608);
#560=AXIS2_PLACEMENT_3D('',#757,#617,#618);
#561=AXIS2_PLACEMENT_3D('',#763,#622,#623);
#562=AXIS2_PLACEMENT_3D('',#780,#632,#633);
#563=AXIS2_PLACEMENT_3D('',#788,#638,#639);
#564=AXIS2_PLACEMENT_3D('',#802,#647,#648);
#565=AXIS2_PLACEMENT_3D('',#808,#652,#653);
#566=AXIS2_PLACEMENT_3D('',#822,#662,#663);
#567=AXIS2_PLACEMENT_3D('',#825,#666,#667);
#568=AXIS2_PLACEMENT_3D('',#827,#669,#670);
#569=AXIS2_PLACEMENT_3D('',#828,#671,#672);
#570=AXIS2_PLACEMENT_3D('',#830,#674,#675);
#571=AXIS2_PLACEMENT_3D('',#831,#676,#677);
#572=AXIS2_PLACEMENT_3D('',#834,#680,#681);
#573=AXIS2_PLACEMENT_3D('',#836,#683,#684);
#574=AXIS2_PLACEMENT_3D('',#838,#686,#687);
#575=AXIS2_PLACEMENT_3D('',#839,#688,#689);
#576=AXIS2_PLACEMENT_3D('',#843,#692,#693);
#577=AXIS2_PLACEMENT_3D('',#847,#696,#697);
#578=AXIS2_PLACEMENT_3D('',#854,#701,#702);
#579=AXIS2_PLACEMENT_3D('',#855,#703,#704);
#580=AXIS2_PLACEMENT_3D('',#859,#707,#708);
#581=AXIS2_PLACEMENT_3D('',#864,#711,#712);
#582=AXIS2_PLACEMENT_3D('',#865,#713,#714);
#583=AXIS2_PLACEMENT_3D('',#868,#717,#718);
#584=AXIS2_PLACEMENT_3D('',#869,#719,#720);
#585=DIRECTION('axis',(0.,0.,1.));
#586=DIRECTION('refdir',(1.,0.,0.));
#587=DIRECTION('center_axis',(1.,0.,0.));
#588=DIRECTION('ref_axis',(0.,1.,0.));
#589=DIRECTION('center_axis',(-1.,0.,0.));
#590=DIRECTION('ref_axis',(0.,1.,0.));
#591=DIRECTION('',(-0.515038074910054,0.857167300702112,-1.04972719113862E-16));
#592=DIRECTION('center_axis',(-1.,0.,0.));
#593=DIRECTION('ref_axis',(0.,1.,0.));
#594=DIRECTION('center_axis',(-1.,1.09945618030582E-40,0.));
#595=DIRECTION('ref_axis',(0.,1.,0.));
#596=DIRECTION('',(-1.,0.,0.));
#597=DIRECTION('center_axis',(1.,0.,0.));
#598=DIRECTION('ref_axis',(0.,1.,0.));
#599=DIRECTION('center_axis',(-1.,0.,0.));
#600=DIRECTION('ref_axis',(0.,1.,0.));
#601=DIRECTION('',(-0.515038074910054,0.857167300702112,-1.04972719113862E-16));
#602=DIRECTION('center_axis',(-1.,0.,0.));
#603=DIRECTION('ref_axis',(0.,1.,0.));
#604=DIRECTION('center_axis',(-1.,1.09945618030582E-40,0.));
#605=DIRECTION('ref_axis',(0.,1.,0.));
#606=DIRECTION('',(-1.,0.,0.));
#607=DIRECTION('center_axis',(0.,-1.,0.));
#608=DIRECTION('ref_axis',(0.,0.,-1.));
#609=DIRECTION('',(0.,0.,1.));
#610=DIRECTION('',(1.,0.,0.));
#611=DIRECTION('',(0.,0.,1.));
#612=DIRECTION('',(-1.,0.,0.));
#613=DIRECTION('',(0.,0.,1.));
#614=DIRECTION('',(1.,0.,0.));
#615=DIRECTION('',(0.,0.,1.));
#616=DIRECTION('',(1.,0.,0.));
#617=DIRECTION('center_axis',(0.,0.,-1.));
#618=DIRECTION('ref_axis',(9.31608476088825E-48,1.,0.));
#619=DIRECTION('',(9.31608476088825E-48,1.,0.));
#620=DIRECTION('',(1.,0.,0.));
#621=DIRECTION('',(9.31608476088825E-48,1.,0.));
#622=DIRECTION('center_axis',(0.,0.,1.));
#623=DIRECTION('ref_axis',(1.,0.,0.));
#624=DIRECTION('',(-3.94430452720348E-31,-1.,2.88288946955592E-40));
#625=DIRECTION('',(1.,-1.09943974252385E-40,5.52202633654708E-30));
#626=DIRECTION('',(0.,-1.,0.));
#627=DIRECTION('',(1.,0.,0.));
#628=DIRECTION('',(-1.09945618030582E-40,-1.,0.));
#629=DIRECTION('',(-1.,1.09945618030582E-40,0.));
#630=DIRECTION('',(1.09945618030582E-40,1.,0.));
#631=DIRECTION('',(1.,-1.09945618030582E-40,0.));
#632=DIRECTION('center_axis',(1.,0.,0.));
#633=DIRECTION('ref_axis',(0.,0.,-1.));
#634=DIRECTION('',(0.,1.,-2.88288946955592E-40));
#635=DIRECTION('',(0.,0.,1.));
#636=DIRECTION('',(0.,0.,1.));
#637=DIRECTION('',(0.,0.,1.));
#638=DIRECTION('center_axis',(0.,-2.88288946955592E-40,-1.));
#639=DIRECTION('ref_axis',(-1.09945414446749E-40,-1.,2.88288946955592E-40));
#640=DIRECTION('',(1.09945618030582E-40,1.,-2.88288946955592E-40));
#641=DIRECTION('',(-1.,0.,0.));
#642=DIRECTION('',(-1.,0.,0.));
#643=DIRECTION('',(1.09945618030582E-40,1.,-2.88288946955592E-40));
#644=DIRECTION('',(-1.,1.09945618030582E-40,-3.16961064444183E-80));
#645=DIRECTION('',(-1.09945618030582E-40,-1.,2.88288946955592E-40));
#646=DIRECTION('',(1.,-1.09945618030582E-40,3.16961064444183E-80));
#647=DIRECTION('center_axis',(-1.,0.,0.));
#648=DIRECTION('ref_axis',(0.,0.,1.));
#649=DIRECTION('',(-5.52202633654708E-30,2.88289319175497E-40,1.));
#650=DIRECTION('',(0.,-1.,0.));
#651=DIRECTION('',(5.52202633654708E-30,-2.88289319175497E-40,-1.));
#652=DIRECTION('center_axis',(0.,0.,-1.));
#653=DIRECTION('ref_axis',(-1.,0.,0.));
#654=DIRECTION('',(1.,0.,0.));
#655=DIRECTION('',(1.09945414446749E-40,1.,-2.88288946955592E-40));
#656=DIRECTION('',(1.,0.,0.));
#657=DIRECTION('',(1.,0.,0.));
#658=DIRECTION('',(0.,1.,0.));
#659=DIRECTION('',(1.,0.,0.));
#660=DIRECTION('',(1.09945414446749E-40,1.,-2.88288946955592E-40));
#661=DIRECTION('',(1.,-1.09943974252385E-40,5.52202633654708E-30));
#662=DIRECTION('center_axis',(1.,-1.09945618030582E-40,0.));
#663=DIRECTION('ref_axis',(-1.09945618030582E-40,-1.,2.88288946955592E-40));
#664=DIRECTION('',(-3.16961064444183E-80,-2.88288946955592E-40,-1.));
#665=DIRECTION('',(3.16961064444183E-80,2.88288946955592E-40,1.));
#666=DIRECTION('center_axis',(0.,1.,0.));
#667=DIRECTION('ref_axis',(0.,0.,1.));
#668=DIRECTION('',(-5.52202633654708E-30,2.88288946955592E-40,1.));
#669=DIRECTION('center_axis',(0.,-1.,2.88288946955592E-40));
#670=DIRECTION('ref_axis',(5.52202633629053E-30,-2.88288946955592E-40,-1.));
#671=DIRECTION('center_axis',(0.,-1.,0.));
#672=DIRECTION('ref_axis',(0.,0.,-1.));
#673=DIRECTION('',(5.52202633654708E-30,-2.88288946955592E-40,-1.));
#674=DIRECTION('center_axis',(0.,1.,-2.88288946955592E-40));
#675=DIRECTION('ref_axis',(-5.47820073070148E-30,2.88288946955592E-40,1.));
#676=DIRECTION('center_axis',(-1.09945618030582E-40,-1.,0.));
#677=DIRECTION('ref_axis',(-1.,1.09945618030582E-40,-5.52202633654708E-30));
#678=DIRECTION('',(0.,0.,-1.));
#679=DIRECTION('',(0.,0.,-1.));
#680=DIRECTION('center_axis',(-1.,1.09945618030582E-40,0.));
#681=DIRECTION('ref_axis',(1.09945618030582E-40,1.,-2.88288946955592E-40));
#682=DIRECTION('',(0.,0.,-1.));
#683=DIRECTION('center_axis',(1.09945618030582E-40,1.,0.));
#684=DIRECTION('ref_axis',(1.,-1.09945618030582E-40,5.52202633654708E-30));
#685=DIRECTION('',(0.,0.,-1.));
#686=DIRECTION('center_axis',(1.,-1.09945618030582E-40,0.));
#687=DIRECTION('ref_axis',(-1.09945618030582E-40,-1.,2.88288946955592E-40));
#688=DIRECTION('center_axis',(1.,0.,0.));
#689=DIRECTION('ref_axis',(0.,0.,-1.));
#690=DIRECTION('',(0.,1.,-2.88288946955592E-40));
#691=DIRECTION('',(0.,0.,1.));
#692=DIRECTION('center_axis',(1.,0.,0.));
#693=DIRECTION('ref_axis',(0.,0.,-1.));
#694=DIRECTION('',(0.,-1.,2.88288946955592E-40));
#695=DIRECTION('',(0.,0.,1.));
#696=DIRECTION('center_axis',(0.,-2.88288946955592E-40,-1.));
#697=DIRECTION('ref_axis',(1.09945414446749E-40,1.,-2.88288946955592E-40));
#698=DIRECTION('',(-1.09945618030582E-40,-1.,2.88288946955592E-40));
#699=DIRECTION('',(1.,0.,0.));
#700=DIRECTION('',(-1.09945618030582E-40,-1.,2.88288946955592E-40));
#701=DIRECTION('center_axis',(0.,2.88288946955592E-40,1.));
#702=DIRECTION('ref_axis',(1.,6.73564553015417E-32,-2.00172015829807E-15));
#703=DIRECTION('center_axis',(0.,1.,0.));
#704=DIRECTION('ref_axis',(0.,0.,1.));
#705=DIRECTION('',(0.,0.,-1.));
#706=DIRECTION('',(1.,0.,0.));
#707=DIRECTION('center_axis',(2.00172015829807E-15,-1.37939326050962E-31,
1.));
#708=DIRECTION('ref_axis',(-1.,-1.22464679914735E-16,2.00172015829807E-15));
#709=DIRECTION('',(-2.00172015829807E-15,1.37939326050962E-31,-1.));
#710=DIRECTION('',(2.00172015829807E-15,-1.37939326050962E-31,1.));
#711=DIRECTION('center_axis',(0.,-2.88288946955592E-40,-1.));
#712=DIRECTION('ref_axis',(1.,6.73564553015417E-32,-2.00172015829807E-15));
#713=DIRECTION('center_axis',(0.,2.88288946955592E-40,1.));
#714=DIRECTION('ref_axis',(-1.09945414446749E-40,-1.,2.88288946955592E-40));
#715=DIRECTION('',(1.09945618030582E-40,1.,-2.88288946955592E-40));
#716=DIRECTION('',(1.09945618030582E-40,1.,-2.88288946955592E-40));
#717=DIRECTION('center_axis',(-1.,1.09945618030582E-40,0.));
#718=DIRECTION('ref_axis',(1.09945618030582E-40,1.,-2.88288946955592E-40));
#719=DIRECTION('center_axis',(-1.,1.09945618030582E-40,0.));
#720=DIRECTION('ref_axis',(1.09945618030582E-40,1.,-2.88288946955592E-40));
#721=CARTESIAN_POINT('',(0.,0.,0.));
#722=CARTESIAN_POINT('Origin',(3.72144059763202,17.4,3.14754462516655));
#723=CARTESIAN_POINT('',(4.11199999999994,16.1,3.14754462516655));
#724=CARTESIAN_POINT('Origin',(4.11199999999994,17.4,3.14754462516655));
#725=CARTESIAN_POINT('',(3.33088119526411,17.4,3.14754462516655));
#726=CARTESIAN_POINT('',(3.72144059763202,16.75,3.14754462516655));
#727=CARTESIAN_POINT('Origin',(23.2654999999999,17.4,3.14754462516655));
#728=CARTESIAN_POINT('',(21.236724815767,16.1,3.14754462516655));
#729=CARTESIAN_POINT('Origin',(21.236724815767,17.4,3.14754462516655));
#730=CARTESIAN_POINT('',(23.2654999999999,16.1,3.14754462516655));
#731=CARTESIAN_POINT('Origin',(3.72144059763208,-17.4,3.14754462516655));
#732=CARTESIAN_POINT('',(4.11199999999999,-18.7,3.14754462516655));
#733=CARTESIAN_POINT('Origin',(4.11199999999999,-17.4,3.14754462516655));
#734=CARTESIAN_POINT('',(3.33088119526416,-17.4,3.14754462516655));
#735=CARTESIAN_POINT('',(3.72144059763208,-18.05,3.14754462516655));
#736=CARTESIAN_POINT('Origin',(23.2655,-17.4,3.14754462516655));
#737=CARTESIAN_POINT('',(21.236724815767,-18.7,3.14754462516655));
#738=CARTESIAN_POINT('Origin',(21.236724815767,-17.4,3.14754462516655));
#739=CARTESIAN_POINT('',(23.2655,-18.7,3.14754462516655));
#740=CARTESIAN_POINT('Origin',(2.,-20.,24.9999999999999));
#741=CARTESIAN_POINT('',(21.236724815767,-20.,-0.852455374833455));
#742=CARTESIAN_POINT('',(21.236724815767,-20.,7.14754462516655));
#743=CARTESIAN_POINT('',(21.236724815767,-20.,16.0737723125832));
#744=CARTESIAN_POINT('',(4.,-20.,7.14754462516655));
#745=CARTESIAN_POINT('',(4.,-20.,7.14754462516655));
#746=CARTESIAN_POINT('',(4.,-20.,13.9999999999999));
#747=CARTESIAN_POINT('',(4.,-20.,24.9999999999999));
#748=CARTESIAN_POINT('',(2.,-20.,13.9999999999999));
#749=CARTESIAN_POINT('',(-1.,-20.,13.9999999999999));
#750=CARTESIAN_POINT('',(2.,-20.,-25.0000000000001));
#751=CARTESIAN_POINT('',(2.,-20.,24.9999999999999));
#752=CARTESIAN_POINT('',(4.,-20.,-25.0000000000001));
#753=CARTESIAN_POINT('',(2.,-20.,-25.0000000000001));
#754=CARTESIAN_POINT('',(4.,-20.,-0.852455374833455));
#755=CARTESIAN_POINT('',(4.,-20.,24.9999999999999));
#756=CARTESIAN_POINT('',(4.,-20.,-0.852455374833455));
#757=CARTESIAN_POINT('Origin',(2.,-20.,-25.0000000000001));
#758=CARTESIAN_POINT('',(2.,20.,-25.0000000000001));
#759=CARTESIAN_POINT('',(2.,-20.,-25.0000000000001));
#760=CARTESIAN_POINT('',(4.,20.,-25.0000000000001));
#761=CARTESIAN_POINT('',(2.,20.,-25.0000000000001));
#762=CARTESIAN_POINT('',(4.,-20.,-25.0000000000001));
#763=CARTESIAN_POINT('Origin',(2.,20.,31.9999999999999));
#764=CARTESIAN_POINT('',(4.,22.,31.9999999999999));
#765=CARTESIAN_POINT('',(4.,-22.,31.9999999999999));
#766=CARTESIAN_POINT('',(4.,-20.,31.9999999999999));
#767=CARTESIAN_POINT('',(-5.99999999999993,22.,31.9999999999999));
#768=CARTESIAN_POINT('',(-3.99999999999993,22.,31.9999999999999));
#769=CARTESIAN_POINT('',(-5.99999999999993,-22.,31.9999999999999));
#770=CARTESIAN_POINT('',(-5.99999999999993,-20.,31.9999999999999));
#771=CARTESIAN_POINT('',(-4.,-22.,31.9999999999999));
#772=CARTESIAN_POINT('',(0.500000000000036,4.,31.9999999999999));
#773=CARTESIAN_POINT('',(0.500000000000036,-4.,31.9999999999999));
#774=CARTESIAN_POINT('',(0.500000000000036,12.,31.9999999999999));
#775=CARTESIAN_POINT('',(-2.49999999999996,-4.,31.9999999999999));
#776=CARTESIAN_POINT('',(1.25000000000002,-4.,31.9999999999999));
#777=CARTESIAN_POINT('',(-2.49999999999996,4.,31.9999999999999));
#778=CARTESIAN_POINT('',(-2.49999999999996,8.,31.9999999999999));
#779=CARTESIAN_POINT('',(-0.249999999999982,4.,31.9999999999999));
#780=CARTESIAN_POINT('Origin',(2.,0.,-7.105427357601E-14));
#781=CARTESIAN_POINT('',(2.,-20.,28.9999999999999));
#782=CARTESIAN_POINT('',(2.,20.,28.9999999999999));
#783=CARTESIAN_POINT('',(2.,10.,28.9999999999999));
#784=CARTESIAN_POINT('',(2.,20.,13.9999999999999));
#785=CARTESIAN_POINT('',(2.,20.,-25.0000000000001));
#786=CARTESIAN_POINT('',(2.,20.,-25.0000000000001));
#787=CARTESIAN_POINT('',(2.,-20.,24.9999999999999));
#788=CARTESIAN_POINT('Origin',(2.,20.,28.9999999999999));
#789=CARTESIAN_POINT('',(-4.,-20.,28.9999999999999));
#790=CARTESIAN_POINT('',(-4.,20.,28.9999999999999));
#791=CARTESIAN_POINT('',(-4.,20.,28.9999999999999));
#792=CARTESIAN_POINT('',(2.,20.,28.9999999999999));
#793=CARTESIAN_POINT('',(2.,-20.,28.9999999999999));
#794=CARTESIAN_POINT('',(0.500000000000036,-4.,28.9999999999999));
#795=CARTESIAN_POINT('',(0.500000000000036,4.,28.9999999999999));
#796=CARTESIAN_POINT('',(0.500000000000036,12.,28.9999999999999));
#797=CARTESIAN_POINT('',(-2.49999999999996,4.,28.9999999999999));
#798=CARTESIAN_POINT('',(-0.249999999999982,4.,28.9999999999999));
#799=CARTESIAN_POINT('',(-2.49999999999996,-4.,28.9999999999999));
#800=CARTESIAN_POINT('',(-2.49999999999996,8.,28.9999999999999));
#801=CARTESIAN_POINT('',(1.25000000000002,-4.,28.9999999999999));
#802=CARTESIAN_POINT('Origin',(-6.,0.,30.4999999999999));
#803=CARTESIAN_POINT('',(-5.99999999999993,22.,13.9999999999999));
#804=CARTESIAN_POINT('',(-5.99999999999993,22.,31.9999999999999));
#805=CARTESIAN_POINT('',(-5.99999999999993,-22.,13.9999999999999));
#806=CARTESIAN_POINT('',(-5.99999999999993,-20.,13.9999999999999));
#807=CARTESIAN_POINT('',(-5.99999999999993,-22.,13.9999999999999));
#808=CARTESIAN_POINT('Origin',(-5.,0.,13.9999999999999));
#809=CARTESIAN_POINT('',(4.,22.,13.9999999999999));
#810=CARTESIAN_POINT('',(-4.,22.,13.9999999999999));
#811=CARTESIAN_POINT('',(4.,20.,13.9999999999999));
#812=CARTESIAN_POINT('',(4.,22.,13.9999999999999));
#813=CARTESIAN_POINT('',(-1.,20.,13.9999999999999));
#814=CARTESIAN_POINT('',(-4.,20.,13.9999999999999));
#815=CARTESIAN_POINT('',(-4.,20.,13.9999999999999));
#816=CARTESIAN_POINT('',(-4.,-20.,13.9999999999999));
#817=CARTESIAN_POINT('',(-3.99999999999993,20.,13.9999999999999));
#818=CARTESIAN_POINT('',(-4.,-20.,13.9999999999999));
#819=CARTESIAN_POINT('',(4.,-22.,13.9999999999999));
#820=CARTESIAN_POINT('',(4.,-22.,13.9999999999999));
#821=CARTESIAN_POINT('',(-3.99999999999993,-22.,13.9999999999999));
#822=CARTESIAN_POINT('Origin',(-4.,20.,28.9999999999999));
#823=CARTESIAN_POINT('',(-4.,-20.,21.4999999999999));
#824=CARTESIAN_POINT('',(-4.,20.,30.4999999999999));
#825=CARTESIAN_POINT('Origin',(-4.99999999999993,22.,22.9999999999999));
#826=CARTESIAN_POINT('',(4.,22.,31.9999999999999));
#827=CARTESIAN_POINT('Origin',(-4.,20.,31.9999999999999));
#828=CARTESIAN_POINT('Origin',(-4.99999999999993,-22.,22.9999999999999));
#829=CARTESIAN_POINT('',(4.,-22.,31.9999999999999));
#830=CARTESIAN_POINT('Origin',(-4.,-20.,13.9999999999999));
#831=CARTESIAN_POINT('Origin',(0.500000000000036,-4.,31.9999999999999));
#832=CARTESIAN_POINT('',(0.500000000000036,-4.,31.9999999999999));
#833=CARTESIAN_POINT('',(-2.49999999999996,-4.,31.9999999999999));
#834=CARTESIAN_POINT('Origin',(-2.49999999999996,-4.,31.9999999999999));
#835=CARTESIAN_POINT('',(-2.49999999999996,4.,31.9999999999999));
#836=CARTESIAN_POINT('Origin',(-2.49999999999996,4.,31.9999999999999));
#837=CARTESIAN_POINT('',(0.500000000000036,4.,31.9999999999999));
#838=CARTESIAN_POINT('Origin',(0.500000000000036,4.,31.9999999999999));
#839=CARTESIAN_POINT('Origin',(4.,0.,-7.105427357601E-14));
#840=CARTESIAN_POINT('',(4.,20.,7.14754462516655));
#841=CARTESIAN_POINT('',(4.,10.,7.14754462516655));
#842=CARTESIAN_POINT('',(4.,20.,-25.0000000000001));
#843=CARTESIAN_POINT('Origin',(4.,0.,-7.105427357601E-14));
#844=CARTESIAN_POINT('',(4.,20.,-0.852455374833455));
#845=CARTESIAN_POINT('',(4.,-10.,-0.852455374833455));
#846=CARTESIAN_POINT('',(4.,20.,-25.0000000000001));
#847=CARTESIAN_POINT('Origin',(4.,-20.,-0.852455374833455));
#848=CARTESIAN_POINT('',(21.236724815767,-14.9996666629629,-0.85245537483349));
#849=CARTESIAN_POINT('',(21.236724815767,-20.,-0.852455374833455));
#850=CARTESIAN_POINT('',(21.236724815767,20.,-0.852455374833455));
#851=CARTESIAN_POINT('',(4.,20.,-0.852455374833455));
#852=CARTESIAN_POINT('',(21.236724815767,14.9996666629629,-0.85245537483349));
#853=CARTESIAN_POINT('',(21.236724815767,-2.50016666851856,-0.852455374833455));
#854=CARTESIAN_POINT('Origin',(21.336724815767,-1.7566452512172E-29,-0.85245537483349));
#855=CARTESIAN_POINT('Origin',(2.,20.,-25.0000000000001));
#856=CARTESIAN_POINT('',(21.236724815767,20.,7.14754462516655));
#857=CARTESIAN_POINT('',(21.236724815767,20.,-8.92622768741676));
#858=CARTESIAN_POINT('',(4.,20.,7.14754462516655));
#859=CARTESIAN_POINT('Origin',(21.3367248157669,-1.21487787061985E-29,-40.1282294493853));
#860=CARTESIAN_POINT('',(21.236724815767,-14.9996666629629,7.14754462516655));
#861=CARTESIAN_POINT('',(21.236724815767,-14.9996666629629,-40.1282294493853));
#862=CARTESIAN_POINT('',(21.236724815767,14.9996666629629,7.14754462516655));
#863=CARTESIAN_POINT('',(21.236724815767,14.9996666629629,-40.1282294493853));
#864=CARTESIAN_POINT('Origin',(21.336724815767,-1.86699671205797E-29,7.14754462516651));
#865=CARTESIAN_POINT('Origin',(4.,20.,7.14754462516655));
#866=CARTESIAN_POINT('',(21.236724815767,-9.47551181346286E-40,7.14754462516655));
#867=CARTESIAN_POINT('',(21.236724815767,17.4998333314814,7.14754462516655));
#868=CARTESIAN_POINT('Origin',(21.236724815767,14.9996666629629,7.14754462516655));
#869=CARTESIAN_POINT('Origin',(21.236724815767,-20.,7.14754462516655));
#870=UNCERTAINTY_MEASURE_WITH_UNIT(LENGTH_MEASURE(0.01),#874,
'DISTANCE_ACCURACY_VALUE',
'Maximum model space distance between geometric entities at asserted c
onnectivities');
#871=UNCERTAINTY_MEASURE_WITH_UNIT(LENGTH_MEASURE(0.01),#874,
'DISTANCE_ACCURACY_VALUE',
'Maximum model space distance between geometric entities at asserted c
onnectivities');
#872=(
GEOMETRIC_REPRESENTATION_CONTEXT(3)
GLOBAL_UNCERTAINTY_ASSIGNED_CONTEXT((#870))
GLOBAL_UNIT_ASSIGNED_CONTEXT((#874,#876,#877))
REPRESENTATION_CONTEXT('','3D')
);
#873=(
GEOMETRIC_REPRESENTATION_CONTEXT(3)
GLOBAL_UNCERTAINTY_ASSIGNED_CONTEXT((#871))
GLOBAL_UNIT_ASSIGNED_CONTEXT((#874,#876,#877))
REPRESENTATION_CONTEXT('','3D')
);
#874=(
LENGTH_UNIT()
NAMED_UNIT(*)
SI_UNIT(.MILLI.,.METRE.)
);
#875=(
LENGTH_UNIT()
NAMED_UNIT(*)
SI_UNIT($,.METRE.)
);
#876=(
NAMED_UNIT(*)
PLANE_ANGLE_UNIT()
SI_UNIT($,.RADIAN.)
);
#877=(
NAMED_UNIT(*)
SI_UNIT($,.STERADIAN.)
SOLID_ANGLE_UNIT()
);
#878=SHAPE_DEFINITION_REPRESENTATION(#879,#880);
#879=PRODUCT_DEFINITION_SHAPE('',$,#882);
#880=SHAPE_REPRESENTATION('',(#550),#872);
#881=PRODUCT_DEFINITION_CONTEXT('part definition',#886,'design');
#882=PRODUCT_DEFINITION('CASING','CASING',#883,#881);
#883=PRODUCT_DEFINITION_FORMATION('',$,#888);
#884=PRODUCT_RELATED_PRODUCT_CATEGORY('CASING','CASING',(#888));
#885=APPLICATION_PROTOCOL_DEFINITION('international standard',
'automotive_design',2009,#886);
#886=APPLICATION_CONTEXT(
'Core Data for Automotive Mechanical Design Process');
#887=PRODUCT_CONTEXT('part definition',#886,'mechanical');
#888=PRODUCT('CASING','CASING',$,(#887));
#889=PRESENTATION_STYLE_ASSIGNMENT((#891));
#890=PRESENTATION_STYLE_ASSIGNMENT((#892));
#891=SURFACE_STYLE_USAGE(.BOTH.,#893);
#892=SURFACE_STYLE_USAGE(.BOTH.,#894);
#893=SURFACE_SIDE_STYLE('',(#895));
#894=SURFACE_SIDE_STYLE('',(#896));
#895=SURFACE_STYLE_FILL_AREA(#897);
#896=SURFACE_STYLE_FILL_AREA(#898);
#897=FILL_AREA_STYLE('Steel - Satin',(#899));
#898=FILL_AREA_STYLE('ABS (White)',(#900));
#899=FILL_AREA_STYLE_COLOUR('Steel - Satin',#901);
#900=FILL_AREA_STYLE_COLOUR('ABS (White)',#902);
#901=COLOUR_RGB('Steel - Satin',0.627450980392157,0.627450980392157,0.627450980392157);
#902=COLOUR_RGB('ABS (White)',0.850980392156863,0.0901960784313725,0.0901960784313725);
ENDSEC;
END-ISO-10303-21;
