ISO-10303-21;
HEADER;
/* Generated by software containing ST-Developer
 * from STEP Tools, Inc. (www.steptools.com) 
 */

FILE_DESCRIPTION(
/* description */ (''),
/* implementation_level */ '2;1');

FILE_NAME(
/* name */ 'CASE ULTRASONIC.step',
/* time_stamp */ '2026-06-07T21:09:39+07:00',
/* author */ (''),
/* organization */ (''),
/* preprocessor_version */ 'ST-DEVELOPER v20.1',
/* originating_system */ 'Autodesk Translation Framework v14.24.0.0',
/* authorisation */ '');

FILE_SCHEMA (('AUTOMOTIVE_DESIGN { 1 0 10303 214 3 1 1 }'));
ENDSEC;

DATA;
#10=MECHANICAL_DESIGN_GEOMETRIC_PRESENTATION_REPRESENTATION('',(#13),#1129);
#11=SHAPE_REPRESENTATION_RELATIONSHIP('SRR','None',#1136,#12);
#12=ADVANCED_BREP_SHAPE_REPRESENTATION('',(#14),#1128);
#13=STYLED_ITEM('',(#1145),#14);
#14=MANIFOLD_SOLID_BREP('Body1',#693);
#15=FACE_BOUND('',#96,.T.);
#16=FACE_BOUND('',#103,.T.);
#17=FACE_BOUND('',#113,.T.);
#18=FACE_BOUND('',#119,.T.);
#19=FACE_BOUND('',#120,.T.);
#20=FACE_BOUND('',#121,.T.);
#21=FACE_BOUND('',#134,.T.);
#22=FACE_BOUND('',#135,.T.);
#23=FACE_BOUND('',#136,.T.);
#24=FACE_BOUND('',#139,.T.);
#25=FACE_BOUND('',#140,.T.);
#26=PLANE('',#710);
#27=PLANE('',#714);
#28=PLANE('',#715);
#29=PLANE('',#716);
#30=PLANE('',#720);
#31=PLANE('',#724);
#32=PLANE('',#725);
#33=PLANE('',#726);
#34=PLANE('',#727);
#35=PLANE('',#728);
#36=PLANE('',#729);
#37=PLANE('',#730);
#38=PLANE('',#731);
#39=PLANE('',#732);
#40=PLANE('',#733);
#41=PLANE('',#734);
#42=PLANE('',#735);
#43=PLANE('',#736);
#44=PLANE('',#737);
#45=PLANE('',#738);
#46=PLANE('',#739);
#47=PLANE('',#740);
#48=PLANE('',#741);
#49=PLANE('',#742);
#50=PLANE('',#743);
#51=PLANE('',#744);
#52=PLANE('',#745);
#53=PLANE('',#746);
#54=PLANE('',#747);
#55=PLANE('',#748);
#56=PLANE('',#753);
#57=FACE_OUTER_BOUND('',#94,.T.);
#58=FACE_OUTER_BOUND('',#95,.T.);
#59=FACE_OUTER_BOUND('',#97,.T.);
#60=FACE_OUTER_BOUND('',#98,.T.);
#61=FACE_OUTER_BOUND('',#99,.T.);
#62=FACE_OUTER_BOUND('',#100,.T.);
#63=FACE_OUTER_BOUND('',#101,.T.);
#64=FACE_OUTER_BOUND('',#102,.T.);
#65=FACE_OUTER_BOUND('',#104,.T.);
#66=FACE_OUTER_BOUND('',#105,.T.);
#67=FACE_OUTER_BOUND('',#106,.T.);
#68=FACE_OUTER_BOUND('',#107,.T.);
#69=FACE_OUTER_BOUND('',#108,.T.);
#70=FACE_OUTER_BOUND('',#109,.T.);
#71=FACE_OUTER_BOUND('',#110,.T.);
#72=FACE_OUTER_BOUND('',#111,.T.);
#73=FACE_OUTER_BOUND('',#112,.T.);
#74=FACE_OUTER_BOUND('',#114,.T.);
#75=FACE_OUTER_BOUND('',#115,.T.);
#76=FACE_OUTER_BOUND('',#116,.T.);
#77=FACE_OUTER_BOUND('',#117,.T.);
#78=FACE_OUTER_BOUND('',#118,.T.);
#79=FACE_OUTER_BOUND('',#122,.T.);
#80=FACE_OUTER_BOUND('',#123,.T.);
#81=FACE_OUTER_BOUND('',#124,.T.);
#82=FACE_OUTER_BOUND('',#125,.T.);
#83=FACE_OUTER_BOUND('',#126,.T.);
#84=FACE_OUTER_BOUND('',#127,.T.);
#85=FACE_OUTER_BOUND('',#128,.T.);
#86=FACE_OUTER_BOUND('',#129,.T.);
#87=FACE_OUTER_BOUND('',#130,.T.);
#88=FACE_OUTER_BOUND('',#131,.T.);
#89=FACE_OUTER_BOUND('',#132,.T.);
#90=FACE_OUTER_BOUND('',#133,.T.);
#91=FACE_OUTER_BOUND('',#137,.T.);
#92=FACE_OUTER_BOUND('',#138,.T.);
#93=FACE_OUTER_BOUND('',#141,.T.);
#94=EDGE_LOOP('',(#466,#467,#468,#469));
#95=EDGE_LOOP('',(#470,#471,#472,#473));
#96=EDGE_LOOP('',(#474));
#97=EDGE_LOOP('',(#475,#476,#477,#478));
#98=EDGE_LOOP('',(#479,#480,#481,#482,#483,#484,#485,#486));
#99=EDGE_LOOP('',(#487,#488,#489,#490));
#100=EDGE_LOOP('',(#491,#492,#493,#494));
#101=EDGE_LOOP('',(#495,#496,#497,#498));
#102=EDGE_LOOP('',(#499,#500,#501,#502));
#103=EDGE_LOOP('',(#503));
#104=EDGE_LOOP('',(#504,#505,#506,#507));
#105=EDGE_LOOP('',(#508,#509,#510,#511,#512,#513,#514,#515));
#106=EDGE_LOOP('',(#516,#517,#518,#519));
#107=EDGE_LOOP('',(#520,#521,#522,#523));
#108=EDGE_LOOP('',(#524,#525,#526,#527));
#109=EDGE_LOOP('',(#528,#529,#530,#531));
#110=EDGE_LOOP('',(#532,#533,#534,#535));
#111=EDGE_LOOP('',(#536,#537,#538,#539));
#112=EDGE_LOOP('',(#540,#541,#542,#543));
#113=EDGE_LOOP('',(#544,#545,#546,#547));
#114=EDGE_LOOP('',(#548,#549,#550,#551));
#115=EDGE_LOOP('',(#552,#553,#554,#555));
#116=EDGE_LOOP('',(#556,#557,#558,#559));
#117=EDGE_LOOP('',(#560,#561,#562,#563));
#118=EDGE_LOOP('',(#564,#565,#566,#567,#568,#569,#570,#571,#572,#573,#574,
#575));
#119=EDGE_LOOP('',(#576));
#120=EDGE_LOOP('',(#577));
#121=EDGE_LOOP('',(#578,#579,#580,#581));
#122=EDGE_LOOP('',(#582,#583,#584,#585));
#123=EDGE_LOOP('',(#586,#587,#588,#589));
#124=EDGE_LOOP('',(#590,#591,#592,#593));
#125=EDGE_LOOP('',(#594,#595,#596,#597));
#126=EDGE_LOOP('',(#598,#599,#600,#601));
#127=EDGE_LOOP('',(#602,#603,#604,#605));
#128=EDGE_LOOP('',(#606,#607,#608,#609));
#129=EDGE_LOOP('',(#610,#611,#612,#613));
#130=EDGE_LOOP('',(#614,#615,#616,#617));
#131=EDGE_LOOP('',(#618,#619,#620,#621));
#132=EDGE_LOOP('',(#622,#623,#624,#625));
#133=EDGE_LOOP('',(#626,#627,#628,#629));
#134=EDGE_LOOP('',(#630,#631,#632,#633));
#135=EDGE_LOOP('',(#634));
#136=EDGE_LOOP('',(#635));
#137=EDGE_LOOP('',(#636,#637,#638,#639));
#138=EDGE_LOOP('',(#640,#641,#642,#643));
#139=EDGE_LOOP('',(#644));
#140=EDGE_LOOP('',(#645));
#141=EDGE_LOOP('',(#646,#647,#648,#649));
#142=LINE('',#941,#222);
#143=LINE('',#948,#223);
#144=LINE('',#950,#224);
#145=LINE('',#951,#225);
#146=LINE('',#954,#226);
#147=LINE('',#957,#227);
#148=LINE('',#960,#228);
#149=LINE('',#962,#229);
#150=LINE('',#964,#230);
#151=LINE('',#966,#231);
#152=LINE('',#968,#232);
#153=LINE('',#970,#233);
#154=LINE('',#971,#234);
#155=LINE('',#973,#235);
#156=LINE('',#975,#236);
#157=LINE('',#980,#237);
#158=LINE('',#987,#238);
#159=LINE('',#989,#239);
#160=LINE('',#990,#240);
#161=LINE('',#993,#241);
#162=LINE('',#996,#242);
#163=LINE('',#999,#243);
#164=LINE('',#1001,#244);
#165=LINE('',#1003,#245);
#166=LINE('',#1005,#246);
#167=LINE('',#1007,#247);
#168=LINE('',#1009,#248);
#169=LINE('',#1010,#249);
#170=LINE('',#1012,#250);
#171=LINE('',#1014,#251);
#172=LINE('',#1018,#252);
#173=LINE('',#1020,#253);
#174=LINE('',#1022,#254);
#175=LINE('',#1023,#255);
#176=LINE('',#1027,#256);
#177=LINE('',#1028,#257);
#178=LINE('',#1029,#258);
#179=LINE('',#1030,#259);
#180=LINE('',#1033,#260);
#181=LINE('',#1035,#261);
#182=LINE('',#1036,#262);
#183=LINE('',#1039,#263);
#184=LINE('',#1040,#264);
#185=LINE('',#1043,#265);
#186=LINE('',#1044,#266);
#187=LINE('',#1047,#267);
#188=LINE('',#1049,#268);
#189=LINE('',#1051,#269);
#190=LINE('',#1052,#270);
#191=LINE('',#1055,#271);
#192=LINE('',#1056,#272);
#193=LINE('',#1059,#273);
#194=LINE('',#1060,#274);
#195=LINE('',#1061,#275);
#196=LINE('',#1063,#276);
#197=LINE('',#1065,#277);
#198=LINE('',#1067,#278);
#199=LINE('',#1068,#279);
#200=LINE('',#1071,#280);
#201=LINE('',#1073,#281);
#202=LINE('',#1075,#282);
#203=LINE('',#1076,#283);
#204=LINE('',#1078,#284);
#205=LINE('',#1079,#285);
#206=LINE('',#1081,#286);
#207=LINE('',#1083,#287);
#208=LINE('',#1090,#288);
#209=LINE('',#1092,#289);
#210=LINE('',#1094,#290);
#211=LINE('',#1095,#291);
#212=LINE('',#1099,#292);
#213=LINE('',#1100,#293);
#214=LINE('',#1101,#294);
#215=LINE('',#1104,#295);
#216=LINE('',#1106,#296);
#217=LINE('',#1107,#297);
#218=LINE('',#1109,#298);
#219=LINE('',#1111,#299);
#220=LINE('',#1119,#300);
#221=LINE('',#1125,#301);
#222=VECTOR('',#762,1.55);
#223=VECTOR('',#769,10.);
#224=VECTOR('',#770,10.);
#225=VECTOR('',#771,10.);
#226=VECTOR('',#774,10.);
#227=VECTOR('',#777,10.);
#228=VECTOR('',#780,10.);
#229=VECTOR('',#781,10.);
#230=VECTOR('',#782,10.);
#231=VECTOR('',#783,10.);
#232=VECTOR('',#784,10.);
#233=VECTOR('',#785,10.);
#234=VECTOR('',#786,10.);
#235=VECTOR('',#789,10.);
#236=VECTOR('',#792,10.);
#237=VECTOR('',#797,1.55);
#238=VECTOR('',#804,10.);
#239=VECTOR('',#805,10.);
#240=VECTOR('',#806,10.);
#241=VECTOR('',#809,10.);
#242=VECTOR('',#812,10.);
#243=VECTOR('',#815,10.);
#244=VECTOR('',#816,10.);
#245=VECTOR('',#817,10.);
#246=VECTOR('',#818,10.);
#247=VECTOR('',#819,10.);
#248=VECTOR('',#820,10.);
#249=VECTOR('',#821,10.);
#250=VECTOR('',#824,10.);
#251=VECTOR('',#827,10.);
#252=VECTOR('',#830,10.);
#253=VECTOR('',#831,10.);
#254=VECTOR('',#832,10.);
#255=VECTOR('',#833,10.);
#256=VECTOR('',#836,10.);
#257=VECTOR('',#837,10.);
#258=VECTOR('',#838,10.);
#259=VECTOR('',#839,10.);
#260=VECTOR('',#842,10.);
#261=VECTOR('',#843,10.);
#262=VECTOR('',#844,10.);
#263=VECTOR('',#847,10.);
#264=VECTOR('',#848,10.);
#265=VECTOR('',#851,10.);
#266=VECTOR('',#852,10.);
#267=VECTOR('',#853,10.);
#268=VECTOR('',#854,10.);
#269=VECTOR('',#855,10.);
#270=VECTOR('',#856,10.);
#271=VECTOR('',#859,10.);
#272=VECTOR('',#860,10.);
#273=VECTOR('',#863,10.);
#274=VECTOR('',#864,10.);
#275=VECTOR('',#865,10.);
#276=VECTOR('',#868,10.);
#277=VECTOR('',#871,10.);
#278=VECTOR('',#874,10.);
#279=VECTOR('',#875,10.);
#280=VECTOR('',#876,10.);
#281=VECTOR('',#877,10.);
#282=VECTOR('',#878,10.);
#283=VECTOR('',#879,10.);
#284=VECTOR('',#882,10.);
#285=VECTOR('',#883,10.);
#286=VECTOR('',#886,10.);
#287=VECTOR('',#889,10.);
#288=VECTOR('',#898,10.);
#289=VECTOR('',#899,10.);
#290=VECTOR('',#900,10.);
#291=VECTOR('',#901,10.);
#292=VECTOR('',#904,10.);
#293=VECTOR('',#905,10.);
#294=VECTOR('',#906,10.);
#295=VECTOR('',#909,10.);
#296=VECTOR('',#910,10.);
#297=VECTOR('',#911,10.);
#298=VECTOR('',#914,10.);
#299=VECTOR('',#917,10.);
#300=VECTOR('',#926,8.);
#301=VECTOR('',#935,8.);
#302=CIRCLE('',#708,1.55);
#303=CIRCLE('',#709,1.55);
#304=CIRCLE('',#711,2.5);
#305=CIRCLE('',#713,2.5);
#306=CIRCLE('',#718,1.55);
#307=CIRCLE('',#719,1.55);
#308=CIRCLE('',#721,2.5);
#309=CIRCLE('',#723,2.5);
#310=CIRCLE('',#749,8.);
#311=CIRCLE('',#750,8.);
#312=CIRCLE('',#752,8.);
#313=CIRCLE('',#754,8.);
#314=VERTEX_POINT('',#938);
#315=VERTEX_POINT('',#940);
#316=VERTEX_POINT('',#944);
#317=VERTEX_POINT('',#945);
#318=VERTEX_POINT('',#947);
#319=VERTEX_POINT('',#949);
#320=VERTEX_POINT('',#953);
#321=VERTEX_POINT('',#955);
#322=VERTEX_POINT('',#959);
#323=VERTEX_POINT('',#961);
#324=VERTEX_POINT('',#963);
#325=VERTEX_POINT('',#965);
#326=VERTEX_POINT('',#967);
#327=VERTEX_POINT('',#969);
#328=VERTEX_POINT('',#977);
#329=VERTEX_POINT('',#979);
#330=VERTEX_POINT('',#983);
#331=VERTEX_POINT('',#984);
#332=VERTEX_POINT('',#986);
#333=VERTEX_POINT('',#988);
#334=VERTEX_POINT('',#992);
#335=VERTEX_POINT('',#994);
#336=VERTEX_POINT('',#998);
#337=VERTEX_POINT('',#1000);
#338=VERTEX_POINT('',#1002);
#339=VERTEX_POINT('',#1004);
#340=VERTEX_POINT('',#1006);
#341=VERTEX_POINT('',#1008);
#342=VERTEX_POINT('',#1016);
#343=VERTEX_POINT('',#1017);
#344=VERTEX_POINT('',#1019);
#345=VERTEX_POINT('',#1021);
#346=VERTEX_POINT('',#1025);
#347=VERTEX_POINT('',#1026);
#348=VERTEX_POINT('',#1032);
#349=VERTEX_POINT('',#1034);
#350=VERTEX_POINT('',#1038);
#351=VERTEX_POINT('',#1042);
#352=VERTEX_POINT('',#1045);
#353=VERTEX_POINT('',#1046);
#354=VERTEX_POINT('',#1048);
#355=VERTEX_POINT('',#1050);
#356=VERTEX_POINT('',#1054);
#357=VERTEX_POINT('',#1058);
#358=VERTEX_POINT('',#1069);
#359=VERTEX_POINT('',#1070);
#360=VERTEX_POINT('',#1072);
#361=VERTEX_POINT('',#1074);
#362=VERTEX_POINT('',#1088);
#363=VERTEX_POINT('',#1089);
#364=VERTEX_POINT('',#1091);
#365=VERTEX_POINT('',#1093);
#366=VERTEX_POINT('',#1097);
#367=VERTEX_POINT('',#1098);
#368=VERTEX_POINT('',#1103);
#369=VERTEX_POINT('',#1105);
#370=VERTEX_POINT('',#1113);
#371=VERTEX_POINT('',#1115);
#372=VERTEX_POINT('',#1118);
#373=VERTEX_POINT('',#1122);
#374=EDGE_CURVE('',#314,#314,#302,.T.);
#375=EDGE_CURVE('',#314,#315,#142,.T.);
#376=EDGE_CURVE('',#315,#315,#303,.T.);
#377=EDGE_CURVE('',#316,#317,#304,.T.);
#378=EDGE_CURVE('',#316,#318,#143,.T.);
#379=EDGE_CURVE('',#319,#318,#144,.T.);
#380=EDGE_CURVE('',#319,#317,#145,.T.);
#381=EDGE_CURVE('',#317,#320,#146,.T.);
#382=EDGE_CURVE('',#320,#321,#305,.T.);
#383=EDGE_CURVE('',#321,#316,#147,.T.);
#384=EDGE_CURVE('',#322,#319,#148,.T.);
#385=EDGE_CURVE('',#318,#323,#149,.T.);
#386=EDGE_CURVE('',#324,#323,#150,.T.);
#387=EDGE_CURVE('',#325,#324,#151,.T.);
#388=EDGE_CURVE('',#325,#326,#152,.T.);
#389=EDGE_CURVE('',#326,#327,#153,.T.);
#390=EDGE_CURVE('',#322,#327,#154,.T.);
#391=EDGE_CURVE('',#323,#321,#155,.T.);
#392=EDGE_CURVE('',#322,#320,#156,.T.);
#393=EDGE_CURVE('',#328,#328,#306,.T.);
#394=EDGE_CURVE('',#328,#329,#157,.T.);
#395=EDGE_CURVE('',#329,#329,#307,.T.);
#396=EDGE_CURVE('',#330,#331,#308,.T.);
#397=EDGE_CURVE('',#330,#332,#158,.T.);
#398=EDGE_CURVE('',#333,#332,#159,.T.);
#399=EDGE_CURVE('',#333,#331,#160,.T.);
#400=EDGE_CURVE('',#331,#334,#161,.T.);
#401=EDGE_CURVE('',#334,#335,#309,.T.);
#402=EDGE_CURVE('',#335,#330,#162,.T.);
#403=EDGE_CURVE('',#336,#333,#163,.T.);
#404=EDGE_CURVE('',#332,#337,#164,.T.);
#405=EDGE_CURVE('',#338,#337,#165,.T.);
#406=EDGE_CURVE('',#339,#338,#166,.T.);
#407=EDGE_CURVE('',#339,#340,#167,.T.);
#408=EDGE_CURVE('',#340,#341,#168,.T.);
#409=EDGE_CURVE('',#336,#341,#169,.T.);
#410=EDGE_CURVE('',#336,#334,#170,.T.);
#411=EDGE_CURVE('',#337,#335,#171,.T.);
#412=EDGE_CURVE('',#342,#343,#172,.T.);
#413=EDGE_CURVE('',#342,#344,#173,.T.);
#414=EDGE_CURVE('',#345,#344,#174,.T.);
#415=EDGE_CURVE('',#345,#343,#175,.T.);
#416=EDGE_CURVE('',#346,#347,#176,.T.);
#417=EDGE_CURVE('',#325,#346,#177,.T.);
#418=EDGE_CURVE('',#325,#340,#178,.T.);
#419=EDGE_CURVE('',#347,#340,#179,.T.);
#420=EDGE_CURVE('',#343,#348,#180,.T.);
#421=EDGE_CURVE('',#349,#345,#181,.T.);
#422=EDGE_CURVE('',#349,#348,#182,.T.);
#423=EDGE_CURVE('',#347,#350,#183,.T.);
#424=EDGE_CURVE('',#350,#339,#184,.T.);
#425=EDGE_CURVE('',#348,#351,#185,.T.);
#426=EDGE_CURVE('',#351,#342,#186,.T.);
#427=EDGE_CURVE('',#352,#353,#187,.T.);
#428=EDGE_CURVE('',#353,#354,#188,.T.);
#429=EDGE_CURVE('',#354,#355,#189,.T.);
#430=EDGE_CURVE('',#355,#352,#190,.T.);
#431=EDGE_CURVE('',#356,#349,#191,.T.);
#432=EDGE_CURVE('',#351,#356,#192,.T.);
#433=EDGE_CURVE('',#350,#357,#193,.T.);
#434=EDGE_CURVE('',#339,#326,#194,.T.);
#435=EDGE_CURVE('',#326,#357,#195,.T.);
#436=EDGE_CURVE('',#344,#356,#196,.T.);
#437=EDGE_CURVE('',#357,#346,#197,.T.);
#438=EDGE_CURVE('',#327,#338,#198,.T.);
#439=EDGE_CURVE('',#341,#324,#199,.T.);
#440=EDGE_CURVE('',#358,#359,#200,.T.);
#441=EDGE_CURVE('',#359,#360,#201,.T.);
#442=EDGE_CURVE('',#360,#361,#202,.T.);
#443=EDGE_CURVE('',#361,#358,#203,.T.);
#444=EDGE_CURVE('',#352,#359,#204,.T.);
#445=EDGE_CURVE('',#360,#355,#205,.T.);
#446=EDGE_CURVE('',#361,#354,#206,.T.);
#447=EDGE_CURVE('',#358,#353,#207,.T.);
#448=EDGE_CURVE('',#362,#363,#208,.T.);
#449=EDGE_CURVE('',#364,#363,#209,.T.);
#450=EDGE_CURVE('',#364,#365,#210,.T.);
#451=EDGE_CURVE('',#362,#365,#211,.T.);
#452=EDGE_CURVE('',#366,#367,#212,.T.);
#453=EDGE_CURVE('',#363,#366,#213,.T.);
#454=EDGE_CURVE('',#367,#362,#214,.T.);
#455=EDGE_CURVE('',#368,#367,#215,.T.);
#456=EDGE_CURVE('',#369,#368,#216,.T.);
#457=EDGE_CURVE('',#366,#369,#217,.T.);
#458=EDGE_CURVE('',#365,#368,#218,.T.);
#459=EDGE_CURVE('',#369,#364,#219,.T.);
#460=EDGE_CURVE('',#370,#370,#310,.T.);
#461=EDGE_CURVE('',#371,#371,#311,.T.);
#462=EDGE_CURVE('',#370,#372,#220,.T.);
#463=EDGE_CURVE('',#372,#372,#312,.T.);
#464=EDGE_CURVE('',#373,#373,#313,.T.);
#465=EDGE_CURVE('',#371,#373,#221,.T.);
#466=ORIENTED_EDGE('',*,*,#374,.F.);
#467=ORIENTED_EDGE('',*,*,#375,.T.);
#468=ORIENTED_EDGE('',*,*,#376,.F.);
#469=ORIENTED_EDGE('',*,*,#375,.F.);
#470=ORIENTED_EDGE('',*,*,#377,.F.);
#471=ORIENTED_EDGE('',*,*,#378,.T.);
#472=ORIENTED_EDGE('',*,*,#379,.F.);
#473=ORIENTED_EDGE('',*,*,#380,.T.);
#474=ORIENTED_EDGE('',*,*,#374,.T.);
#475=ORIENTED_EDGE('',*,*,#377,.T.);
#476=ORIENTED_EDGE('',*,*,#381,.T.);
#477=ORIENTED_EDGE('',*,*,#382,.T.);
#478=ORIENTED_EDGE('',*,*,#383,.T.);
#479=ORIENTED_EDGE('',*,*,#384,.T.);
#480=ORIENTED_EDGE('',*,*,#379,.T.);
#481=ORIENTED_EDGE('',*,*,#385,.T.);
#482=ORIENTED_EDGE('',*,*,#386,.F.);
#483=ORIENTED_EDGE('',*,*,#387,.F.);
#484=ORIENTED_EDGE('',*,*,#388,.T.);
#485=ORIENTED_EDGE('',*,*,#389,.T.);
#486=ORIENTED_EDGE('',*,*,#390,.F.);
#487=ORIENTED_EDGE('',*,*,#383,.F.);
#488=ORIENTED_EDGE('',*,*,#391,.F.);
#489=ORIENTED_EDGE('',*,*,#385,.F.);
#490=ORIENTED_EDGE('',*,*,#378,.F.);
#491=ORIENTED_EDGE('',*,*,#381,.F.);
#492=ORIENTED_EDGE('',*,*,#380,.F.);
#493=ORIENTED_EDGE('',*,*,#384,.F.);
#494=ORIENTED_EDGE('',*,*,#392,.T.);
#495=ORIENTED_EDGE('',*,*,#393,.F.);
#496=ORIENTED_EDGE('',*,*,#394,.T.);
#497=ORIENTED_EDGE('',*,*,#395,.F.);
#498=ORIENTED_EDGE('',*,*,#394,.F.);
#499=ORIENTED_EDGE('',*,*,#396,.F.);
#500=ORIENTED_EDGE('',*,*,#397,.T.);
#501=ORIENTED_EDGE('',*,*,#398,.F.);
#502=ORIENTED_EDGE('',*,*,#399,.T.);
#503=ORIENTED_EDGE('',*,*,#393,.T.);
#504=ORIENTED_EDGE('',*,*,#396,.T.);
#505=ORIENTED_EDGE('',*,*,#400,.T.);
#506=ORIENTED_EDGE('',*,*,#401,.T.);
#507=ORIENTED_EDGE('',*,*,#402,.T.);
#508=ORIENTED_EDGE('',*,*,#403,.T.);
#509=ORIENTED_EDGE('',*,*,#398,.T.);
#510=ORIENTED_EDGE('',*,*,#404,.T.);
#511=ORIENTED_EDGE('',*,*,#405,.F.);
#512=ORIENTED_EDGE('',*,*,#406,.F.);
#513=ORIENTED_EDGE('',*,*,#407,.T.);
#514=ORIENTED_EDGE('',*,*,#408,.T.);
#515=ORIENTED_EDGE('',*,*,#409,.F.);
#516=ORIENTED_EDGE('',*,*,#400,.F.);
#517=ORIENTED_EDGE('',*,*,#399,.F.);
#518=ORIENTED_EDGE('',*,*,#403,.F.);
#519=ORIENTED_EDGE('',*,*,#410,.T.);
#520=ORIENTED_EDGE('',*,*,#402,.F.);
#521=ORIENTED_EDGE('',*,*,#411,.F.);
#522=ORIENTED_EDGE('',*,*,#404,.F.);
#523=ORIENTED_EDGE('',*,*,#397,.F.);
#524=ORIENTED_EDGE('',*,*,#412,.F.);
#525=ORIENTED_EDGE('',*,*,#413,.T.);
#526=ORIENTED_EDGE('',*,*,#414,.F.);
#527=ORIENTED_EDGE('',*,*,#415,.T.);
#528=ORIENTED_EDGE('',*,*,#416,.F.);
#529=ORIENTED_EDGE('',*,*,#417,.F.);
#530=ORIENTED_EDGE('',*,*,#418,.T.);
#531=ORIENTED_EDGE('',*,*,#419,.F.);
#532=ORIENTED_EDGE('',*,*,#420,.F.);
#533=ORIENTED_EDGE('',*,*,#415,.F.);
#534=ORIENTED_EDGE('',*,*,#421,.F.);
#535=ORIENTED_EDGE('',*,*,#422,.T.);
#536=ORIENTED_EDGE('',*,*,#423,.F.);
#537=ORIENTED_EDGE('',*,*,#419,.T.);
#538=ORIENTED_EDGE('',*,*,#407,.F.);
#539=ORIENTED_EDGE('',*,*,#424,.F.);
#540=ORIENTED_EDGE('',*,*,#412,.T.);
#541=ORIENTED_EDGE('',*,*,#420,.T.);
#542=ORIENTED_EDGE('',*,*,#425,.T.);
#543=ORIENTED_EDGE('',*,*,#426,.T.);
#544=ORIENTED_EDGE('',*,*,#427,.T.);
#545=ORIENTED_EDGE('',*,*,#428,.T.);
#546=ORIENTED_EDGE('',*,*,#429,.T.);
#547=ORIENTED_EDGE('',*,*,#430,.T.);
#548=ORIENTED_EDGE('',*,*,#425,.F.);
#549=ORIENTED_EDGE('',*,*,#422,.F.);
#550=ORIENTED_EDGE('',*,*,#431,.F.);
#551=ORIENTED_EDGE('',*,*,#432,.F.);
#552=ORIENTED_EDGE('',*,*,#433,.F.);
#553=ORIENTED_EDGE('',*,*,#424,.T.);
#554=ORIENTED_EDGE('',*,*,#434,.T.);
#555=ORIENTED_EDGE('',*,*,#435,.T.);
#556=ORIENTED_EDGE('',*,*,#426,.F.);
#557=ORIENTED_EDGE('',*,*,#432,.T.);
#558=ORIENTED_EDGE('',*,*,#436,.F.);
#559=ORIENTED_EDGE('',*,*,#413,.F.);
#560=ORIENTED_EDGE('',*,*,#388,.F.);
#561=ORIENTED_EDGE('',*,*,#417,.T.);
#562=ORIENTED_EDGE('',*,*,#437,.F.);
#563=ORIENTED_EDGE('',*,*,#435,.F.);
#564=ORIENTED_EDGE('',*,*,#382,.F.);
#565=ORIENTED_EDGE('',*,*,#392,.F.);
#566=ORIENTED_EDGE('',*,*,#390,.T.);
#567=ORIENTED_EDGE('',*,*,#438,.T.);
#568=ORIENTED_EDGE('',*,*,#405,.T.);
#569=ORIENTED_EDGE('',*,*,#411,.T.);
#570=ORIENTED_EDGE('',*,*,#401,.F.);
#571=ORIENTED_EDGE('',*,*,#410,.F.);
#572=ORIENTED_EDGE('',*,*,#409,.T.);
#573=ORIENTED_EDGE('',*,*,#439,.T.);
#574=ORIENTED_EDGE('',*,*,#386,.T.);
#575=ORIENTED_EDGE('',*,*,#391,.T.);
#576=ORIENTED_EDGE('',*,*,#376,.T.);
#577=ORIENTED_EDGE('',*,*,#395,.T.);
#578=ORIENTED_EDGE('',*,*,#440,.T.);
#579=ORIENTED_EDGE('',*,*,#441,.T.);
#580=ORIENTED_EDGE('',*,*,#442,.T.);
#581=ORIENTED_EDGE('',*,*,#443,.T.);
#582=ORIENTED_EDGE('',*,*,#444,.F.);
#583=ORIENTED_EDGE('',*,*,#430,.F.);
#584=ORIENTED_EDGE('',*,*,#445,.F.);
#585=ORIENTED_EDGE('',*,*,#441,.F.);
#586=ORIENTED_EDGE('',*,*,#429,.F.);
#587=ORIENTED_EDGE('',*,*,#446,.F.);
#588=ORIENTED_EDGE('',*,*,#442,.F.);
#589=ORIENTED_EDGE('',*,*,#445,.T.);
#590=ORIENTED_EDGE('',*,*,#446,.T.);
#591=ORIENTED_EDGE('',*,*,#428,.F.);
#592=ORIENTED_EDGE('',*,*,#447,.F.);
#593=ORIENTED_EDGE('',*,*,#443,.F.);
#594=ORIENTED_EDGE('',*,*,#447,.T.);
#595=ORIENTED_EDGE('',*,*,#427,.F.);
#596=ORIENTED_EDGE('',*,*,#444,.T.);
#597=ORIENTED_EDGE('',*,*,#440,.F.);
#598=ORIENTED_EDGE('',*,*,#408,.F.);
#599=ORIENTED_EDGE('',*,*,#418,.F.);
#600=ORIENTED_EDGE('',*,*,#387,.T.);
#601=ORIENTED_EDGE('',*,*,#439,.F.);
#602=ORIENTED_EDGE('',*,*,#389,.F.);
#603=ORIENTED_EDGE('',*,*,#434,.F.);
#604=ORIENTED_EDGE('',*,*,#406,.T.);
#605=ORIENTED_EDGE('',*,*,#438,.F.);
#606=ORIENTED_EDGE('',*,*,#448,.T.);
#607=ORIENTED_EDGE('',*,*,#449,.F.);
#608=ORIENTED_EDGE('',*,*,#450,.T.);
#609=ORIENTED_EDGE('',*,*,#451,.F.);
#610=ORIENTED_EDGE('',*,*,#452,.F.);
#611=ORIENTED_EDGE('',*,*,#453,.F.);
#612=ORIENTED_EDGE('',*,*,#448,.F.);
#613=ORIENTED_EDGE('',*,*,#454,.F.);
#614=ORIENTED_EDGE('',*,*,#452,.T.);
#615=ORIENTED_EDGE('',*,*,#455,.F.);
#616=ORIENTED_EDGE('',*,*,#456,.F.);
#617=ORIENTED_EDGE('',*,*,#457,.F.);
#618=ORIENTED_EDGE('',*,*,#454,.T.);
#619=ORIENTED_EDGE('',*,*,#451,.T.);
#620=ORIENTED_EDGE('',*,*,#458,.T.);
#621=ORIENTED_EDGE('',*,*,#455,.T.);
#622=ORIENTED_EDGE('',*,*,#450,.F.);
#623=ORIENTED_EDGE('',*,*,#459,.F.);
#624=ORIENTED_EDGE('',*,*,#456,.T.);
#625=ORIENTED_EDGE('',*,*,#458,.F.);
#626=ORIENTED_EDGE('',*,*,#414,.T.);
#627=ORIENTED_EDGE('',*,*,#436,.T.);
#628=ORIENTED_EDGE('',*,*,#431,.T.);
#629=ORIENTED_EDGE('',*,*,#421,.T.);
#630=ORIENTED_EDGE('',*,*,#449,.T.);
#631=ORIENTED_EDGE('',*,*,#453,.T.);
#632=ORIENTED_EDGE('',*,*,#457,.T.);
#633=ORIENTED_EDGE('',*,*,#459,.T.);
#634=ORIENTED_EDGE('',*,*,#460,.T.);
#635=ORIENTED_EDGE('',*,*,#461,.T.);
#636=ORIENTED_EDGE('',*,*,#460,.F.);
#637=ORIENTED_EDGE('',*,*,#462,.T.);
#638=ORIENTED_EDGE('',*,*,#463,.F.);
#639=ORIENTED_EDGE('',*,*,#462,.F.);
#640=ORIENTED_EDGE('',*,*,#416,.T.);
#641=ORIENTED_EDGE('',*,*,#423,.T.);
#642=ORIENTED_EDGE('',*,*,#433,.T.);
#643=ORIENTED_EDGE('',*,*,#437,.T.);
#644=ORIENTED_EDGE('',*,*,#463,.T.);
#645=ORIENTED_EDGE('',*,*,#464,.T.);
#646=ORIENTED_EDGE('',*,*,#461,.F.);
#647=ORIENTED_EDGE('',*,*,#465,.T.);
#648=ORIENTED_EDGE('',*,*,#464,.F.);
#649=ORIENTED_EDGE('',*,*,#465,.F.);
#650=CYLINDRICAL_SURFACE('',#707,1.55);
#651=CYLINDRICAL_SURFACE('',#712,2.5);
#652=CYLINDRICAL_SURFACE('',#717,1.55);
#653=CYLINDRICAL_SURFACE('',#722,2.5);
#654=CYLINDRICAL_SURFACE('',#751,8.);
#655=CYLINDRICAL_SURFACE('',#755,8.);
#656=ADVANCED_FACE('',(#57),#650,.F.);
#657=ADVANCED_FACE('',(#58,#15),#26,.T.);
#658=ADVANCED_FACE('',(#59),#651,.T.);
#659=ADVANCED_FACE('',(#60),#27,.T.);
#660=ADVANCED_FACE('',(#61),#28,.T.);
#661=ADVANCED_FACE('',(#62),#29,.T.);
#662=ADVANCED_FACE('',(#63),#652,.F.);
#663=ADVANCED_FACE('',(#64,#16),#30,.T.);
#664=ADVANCED_FACE('',(#65),#653,.T.);
#665=ADVANCED_FACE('',(#66),#31,.T.);
#666=ADVANCED_FACE('',(#67),#32,.T.);
#667=ADVANCED_FACE('',(#68),#33,.T.);
#668=ADVANCED_FACE('',(#69),#34,.F.);
#669=ADVANCED_FACE('',(#70),#35,.F.);
#670=ADVANCED_FACE('',(#71),#36,.F.);
#671=ADVANCED_FACE('',(#72),#37,.F.);
#672=ADVANCED_FACE('',(#73,#17),#38,.T.);
#673=ADVANCED_FACE('',(#74),#39,.F.);
#674=ADVANCED_FACE('',(#75),#40,.F.);
#675=ADVANCED_FACE('',(#76),#41,.T.);
#676=ADVANCED_FACE('',(#77),#42,.T.);
#677=ADVANCED_FACE('',(#78,#18,#19,#20),#43,.T.);
#678=ADVANCED_FACE('',(#79),#44,.F.);
#679=ADVANCED_FACE('',(#80),#45,.F.);
#680=ADVANCED_FACE('',(#81),#46,.F.);
#681=ADVANCED_FACE('',(#82),#47,.F.);
#682=ADVANCED_FACE('',(#83),#48,.T.);
#683=ADVANCED_FACE('',(#84),#49,.T.);
#684=ADVANCED_FACE('',(#85),#50,.T.);
#685=ADVANCED_FACE('',(#86),#51,.F.);
#686=ADVANCED_FACE('',(#87),#52,.T.);
#687=ADVANCED_FACE('',(#88),#53,.F.);
#688=ADVANCED_FACE('',(#89),#54,.T.);
#689=ADVANCED_FACE('',(#90,#21,#22,#23),#55,.F.);
#690=ADVANCED_FACE('',(#91),#654,.F.);
#691=ADVANCED_FACE('',(#92,#24,#25),#56,.T.);
#692=ADVANCED_FACE('',(#93),#655,.F.);
#693=CLOSED_SHELL('',(#656,#657,#658,#659,#660,#661,#662,#663,#664,#665,
#666,#667,#668,#669,#670,#671,#672,#673,#674,#675,#676,#677,#678,#679,#680,
#681,#682,#683,#684,#685,#686,#687,#688,#689,#690,#691,#692));
#694=DERIVED_UNIT_ELEMENT(#696,1.);
#695=DERIVED_UNIT_ELEMENT(#1131,-3.);
#696=(
MASS_UNIT()
NAMED_UNIT(*)
SI_UNIT(.KILO.,.GRAM.)
);
#697=DERIVED_UNIT((#694,#695));
#698=MEASURE_REPRESENTATION_ITEM('density measure',
POSITIVE_RATIO_MEASURE(7850.),#697);
#699=PROPERTY_DEFINITION_REPRESENTATION(#704,#701);
#700=PROPERTY_DEFINITION_REPRESENTATION(#705,#702);
#701=REPRESENTATION('material name',(#703),#1128);
#702=REPRESENTATION('density',(#698),#1128);
#703=DESCRIPTIVE_REPRESENTATION_ITEM('Steel','Steel');
#704=PROPERTY_DEFINITION('material property','material name',#1138);
#705=PROPERTY_DEFINITION('material property','density of part',#1138);
#706=AXIS2_PLACEMENT_3D('',#936,#756,#757);
#707=AXIS2_PLACEMENT_3D('',#937,#758,#759);
#708=AXIS2_PLACEMENT_3D('',#939,#760,#761);
#709=AXIS2_PLACEMENT_3D('',#942,#763,#764);
#710=AXIS2_PLACEMENT_3D('',#943,#765,#766);
#711=AXIS2_PLACEMENT_3D('',#946,#767,#768);
#712=AXIS2_PLACEMENT_3D('',#952,#772,#773);
#713=AXIS2_PLACEMENT_3D('',#956,#775,#776);
#714=AXIS2_PLACEMENT_3D('',#958,#778,#779);
#715=AXIS2_PLACEMENT_3D('',#972,#787,#788);
#716=AXIS2_PLACEMENT_3D('',#974,#790,#791);
#717=AXIS2_PLACEMENT_3D('',#976,#793,#794);
#718=AXIS2_PLACEMENT_3D('',#978,#795,#796);
#719=AXIS2_PLACEMENT_3D('',#981,#798,#799);
#720=AXIS2_PLACEMENT_3D('',#982,#800,#801);
#721=AXIS2_PLACEMENT_3D('',#985,#802,#803);
#722=AXIS2_PLACEMENT_3D('',#991,#807,#808);
#723=AXIS2_PLACEMENT_3D('',#995,#810,#811);
#724=AXIS2_PLACEMENT_3D('',#997,#813,#814);
#725=AXIS2_PLACEMENT_3D('',#1011,#822,#823);
#726=AXIS2_PLACEMENT_3D('',#1013,#825,#826);
#727=AXIS2_PLACEMENT_3D('',#1015,#828,#829);
#728=AXIS2_PLACEMENT_3D('',#1024,#834,#835);
#729=AXIS2_PLACEMENT_3D('',#1031,#840,#841);
#730=AXIS2_PLACEMENT_3D('',#1037,#845,#846);
#731=AXIS2_PLACEMENT_3D('',#1041,#849,#850);
#732=AXIS2_PLACEMENT_3D('',#1053,#857,#858);
#733=AXIS2_PLACEMENT_3D('',#1057,#861,#862);
#734=AXIS2_PLACEMENT_3D('',#1062,#866,#867);
#735=AXIS2_PLACEMENT_3D('',#1064,#869,#870);
#736=AXIS2_PLACEMENT_3D('',#1066,#872,#873);
#737=AXIS2_PLACEMENT_3D('',#1077,#880,#881);
#738=AXIS2_PLACEMENT_3D('',#1080,#884,#885);
#739=AXIS2_PLACEMENT_3D('',#1082,#887,#888);
#740=AXIS2_PLACEMENT_3D('',#1084,#890,#891);
#741=AXIS2_PLACEMENT_3D('',#1085,#892,#893);
#742=AXIS2_PLACEMENT_3D('',#1086,#894,#895);
#743=AXIS2_PLACEMENT_3D('',#1087,#896,#897);
#744=AXIS2_PLACEMENT_3D('',#1096,#902,#903);
#745=AXIS2_PLACEMENT_3D('',#1102,#907,#908);
#746=AXIS2_PLACEMENT_3D('',#1108,#912,#913);
#747=AXIS2_PLACEMENT_3D('',#1110,#915,#916);
#748=AXIS2_PLACEMENT_3D('',#1112,#918,#919);
#749=AXIS2_PLACEMENT_3D('',#1114,#920,#921);
#750=AXIS2_PLACEMENT_3D('',#1116,#922,#923);
#751=AXIS2_PLACEMENT_3D('',#1117,#924,#925);
#752=AXIS2_PLACEMENT_3D('',#1120,#927,#928);
#753=AXIS2_PLACEMENT_3D('',#1121,#929,#930);
#754=AXIS2_PLACEMENT_3D('',#1123,#931,#932);
#755=AXIS2_PLACEMENT_3D('',#1124,#933,#934);
#756=DIRECTION('axis',(0.,0.,1.));
#757=DIRECTION('refdir',(1.,0.,0.));
#758=DIRECTION('center_axis',(0.,-1.,0.));
#759=DIRECTION('ref_axis',(0.,0.,1.));
#760=DIRECTION('center_axis',(0.,-1.,0.));
#761=DIRECTION('ref_axis',(0.,0.,1.));
#762=DIRECTION('',(0.,-1.,0.));
#763=DIRECTION('center_axis',(0.,1.,0.));
#764=DIRECTION('ref_axis',(0.,0.,1.));
#765=DIRECTION('center_axis',(0.,1.,0.));
#766=DIRECTION('ref_axis',(0.,0.,1.));
#767=DIRECTION('center_axis',(0.,-1.,0.));
#768=DIRECTION('ref_axis',(0.707106781186547,0.,0.707106781186547));
#769=DIRECTION('',(0.,0.,-1.));
#770=DIRECTION('',(1.,0.,0.));
#771=DIRECTION('',(0.,0.,1.));
#772=DIRECTION('center_axis',(-2.52504119670124E-29,1.,0.));
#773=DIRECTION('ref_axis',(0.707106781186547,0.,0.707106781186547));
#774=DIRECTION('',(2.52504119670124E-29,-1.,0.));
#775=DIRECTION('center_axis',(0.,1.,0.));
#776=DIRECTION('ref_axis',(0.707106781186547,0.,0.707106781186547));
#777=DIRECTION('',(-2.52504119670124E-29,1.,0.));
#778=DIRECTION('center_axis',(0.,0.,1.));
#779=DIRECTION('ref_axis',(1.,0.,0.));
#780=DIRECTION('',(0.,1.,0.));
#781=DIRECTION('',(0.,-1.,0.));
#782=DIRECTION('',(-1.,0.,0.));
#783=DIRECTION('',(0.,-1.,0.));
#784=DIRECTION('',(-1.,0.,0.));
#785=DIRECTION('',(-6.31088724176809E-29,-1.,9.87000625895699E-33));
#786=DIRECTION('',(-1.,0.,0.));
#787=DIRECTION('center_axis',(1.,2.52504119670124E-29,0.));
#788=DIRECTION('ref_axis',(-2.52504119670124E-29,1.,-9.72611274168582E-17));
#789=DIRECTION('',(0.,0.,1.));
#790=DIRECTION('center_axis',(-1.,-2.52504119670124E-29,0.));
#791=DIRECTION('ref_axis',(2.52504119670124E-29,-1.,9.72611274168582E-17));
#792=DIRECTION('',(0.,0.,1.));
#793=DIRECTION('center_axis',(0.,-1.,0.));
#794=DIRECTION('ref_axis',(0.,0.,1.));
#795=DIRECTION('center_axis',(0.,-1.,0.));
#796=DIRECTION('ref_axis',(0.,0.,1.));
#797=DIRECTION('',(0.,-1.,0.));
#798=DIRECTION('center_axis',(0.,1.,0.));
#799=DIRECTION('ref_axis',(0.,0.,1.));
#800=DIRECTION('center_axis',(0.,1.,0.));
#801=DIRECTION('ref_axis',(0.,0.,1.));
#802=DIRECTION('center_axis',(0.,-1.,0.));
#803=DIRECTION('ref_axis',(-0.707106781186548,0.,-0.707106781186547));
#804=DIRECTION('',(9.25185853854297E-17,1.85037170770859E-16,1.));
#805=DIRECTION('',(-1.,0.,0.));
#806=DIRECTION('',(-9.25185853854297E-17,-1.85037170770859E-16,-1.));
#807=DIRECTION('center_axis',(-2.52585328823742E-29,1.,-1.85037170770859E-16));
#808=DIRECTION('ref_axis',(-0.707106781186548,0.,-0.707106781186547));
#809=DIRECTION('',(2.52585328823742E-29,-1.,1.85037170770859E-16));
#810=DIRECTION('center_axis',(0.,1.,0.));
#811=DIRECTION('ref_axis',(-0.707106781186548,0.,-0.707106781186547));
#812=DIRECTION('',(-2.52585328823742E-29,1.,-1.85037170770859E-16));
#813=DIRECTION('center_axis',(0.,0.,-1.));
#814=DIRECTION('ref_axis',(-1.,0.,0.));
#815=DIRECTION('',(-2.52414135050908E-29,1.,0.));
#816=DIRECTION('',(0.,-1.,0.));
#817=DIRECTION('',(1.,0.,0.));
#818=DIRECTION('',(0.,-1.,0.));
#819=DIRECTION('',(1.,0.,0.));
#820=DIRECTION('',(-6.31088724176809E-29,-1.,9.87000625895699E-33));
#821=DIRECTION('',(1.,0.,0.));
#822=DIRECTION('center_axis',(1.,2.52414135050908E-29,-9.25185853854297E-17));
#823=DIRECTION('ref_axis',(2.52504119670124E-29,-1.,9.72611274168584E-17));
#824=DIRECTION('',(-9.25185853854297E-17,-1.85037170770859E-16,-1.));
#825=DIRECTION('center_axis',(-1.,-2.52414135050908E-29,9.25185853854297E-17));
#826=DIRECTION('ref_axis',(-2.52504119670124E-29,1.,-9.72611274168582E-17));
#827=DIRECTION('',(-9.25185853854297E-17,-1.85037170770859E-16,-1.));
#828=DIRECTION('center_axis',(0.983889575357759,0.178777245482552,0.));
#829=DIRECTION('ref_axis',(0.,0.,-1.));
#830=DIRECTION('',(1.79342537624755E-33,-9.87000625895787E-33,-1.));
#831=DIRECTION('',(-0.175667210199993,0.96677368745354,-0.185713942686156));
#832=DIRECTION('',(7.05626196421042E-17,-9.72611047258008E-17,1.));
#833=DIRECTION('',(0.175667211850859,-0.966773696538976,-0.18571389382841));
#834=DIRECTION('center_axis',(-0.949514162362801,-0.313724171004512,1.25584104944109E-17));
#835=DIRECTION('ref_axis',(1.3226143423875E-17,0.,1.));
#836=DIRECTION('',(-7.05626196421042E-17,9.72611047258008E-17,-1.));
#837=DIRECTION('',(-0.297773435483491,0.901237839793144,-0.314803648716699));
#838=DIRECTION('',(0.,0.,-1.));
#839=DIRECTION('',(0.297773443524258,-0.901237864129238,-0.314803571440153));
#840=DIRECTION('center_axis',(0.,0.188647435399706,-0.982044879380323));
#841=DIRECTION('ref_axis',(-1.,0.,0.));
#842=DIRECTION('',(-1.,0.,0.));
#843=DIRECTION('',(1.,-3.05311331771931E-16,-7.05626196421042E-17));
#844=DIRECTION('',(-0.169418254625435,-0.967848677285363,-0.185920393923435));
#845=DIRECTION('center_axis',(0.,-0.329762741237413,0.944063840262716));
#846=DIRECTION('ref_axis',(1.,0.,0.));
#847=DIRECTION('',(-1.,3.05311331771931E-16,7.05626196421042E-17));
#848=DIRECTION('',(-0.287781257604251,-0.904126320969179,-0.315812513213858));
#849=DIRECTION('center_axis',(0.,1.,-9.87000625895787E-33));
#850=DIRECTION('ref_axis',(1.3877853981004E-17,-9.87000625895787E-33,-1.));
#851=DIRECTION('',(7.59423549182936E-18,9.87000625895787E-33,1.));
#852=DIRECTION('',(1.,0.,0.));
#853=DIRECTION('',(6.22884965758284E-61,9.87000625895787E-33,1.));
#854=DIRECTION('',(-1.,0.,0.));
#855=DIRECTION('',(-6.22884965758284E-61,-9.87000625895787E-33,-1.));
#856=DIRECTION('',(1.,0.,0.));
#857=DIRECTION('center_axis',(-0.985022735189612,0.172424508581513,7.48049461583578E-18));
#858=DIRECTION('ref_axis',(7.59423549182936E-18,0.,1.));
#859=DIRECTION('',(-7.05626196421042E-17,9.72611047258008E-17,-1.));
#860=DIRECTION('',(0.169418253029752,0.967848668169586,-0.185920442831619));
#861=DIRECTION('center_axis',(0.952893891721979,-0.303303859386821,0.));
#862=DIRECTION('ref_axis',(0.,0.,-1.));
#863=DIRECTION('',(7.05626196421042E-17,-9.72611047258008E-17,1.));
#864=DIRECTION('',(0.,0.,1.));
#865=DIRECTION('',(0.287781249783413,0.904126296398344,-0.315812590683322));
#866=DIRECTION('center_axis',(0.,-0.18864748497276,-0.982044869857509));
#867=DIRECTION('ref_axis',(-1.,0.,0.));
#868=DIRECTION('',(-1.,3.05311331771931E-16,7.05626196421042E-17));
#869=DIRECTION('center_axis',(0.,0.329762821319687,0.944063812289869));
#870=DIRECTION('ref_axis',(1.,0.,0.));
#871=DIRECTION('',(1.,-3.05311331771931E-16,-7.05626196421042E-17));
#872=DIRECTION('center_axis',(0.,-1.,0.));
#873=DIRECTION('ref_axis',(0.,0.,-1.));
#874=DIRECTION('',(0.,0.,-1.));
#875=DIRECTION('',(0.,0.,1.));
#876=DIRECTION('',(-6.22884965758284E-61,-9.87000625895787E-33,-1.));
#877=DIRECTION('',(-1.,0.,0.));
#878=DIRECTION('',(6.22884965758284E-61,9.87000625895787E-33,1.));
#879=DIRECTION('',(1.,0.,0.));
#880=DIRECTION('center_axis',(0.,0.,-1.));
#881=DIRECTION('ref_axis',(-1.,0.,0.));
#882=DIRECTION('',(0.,-1.,0.));
#883=DIRECTION('',(6.31088724176809E-29,1.,-9.87000625895699E-33));
#884=DIRECTION('center_axis',(-1.,0.,0.));
#885=DIRECTION('ref_axis',(0.,0.,1.));
#886=DIRECTION('',(6.31088724176809E-29,1.,-9.87000625895699E-33));
#887=DIRECTION('center_axis',(0.,0.,1.));
#888=DIRECTION('ref_axis',(1.,0.,0.));
#889=DIRECTION('',(6.31088724176809E-29,1.,-9.87000625895699E-33));
#890=DIRECTION('center_axis',(1.,0.,0.));
#891=DIRECTION('ref_axis',(0.,0.,-1.));
#892=DIRECTION('center_axis',(1.,0.,0.));
#893=DIRECTION('ref_axis',(0.,0.,-1.));
#894=DIRECTION('center_axis',(-1.,0.,0.));
#895=DIRECTION('ref_axis',(0.,0.,1.));
#896=DIRECTION('center_axis',(-6.93889390390723E-17,0.,-1.));
#897=DIRECTION('ref_axis',(0.,1.,0.));
#898=DIRECTION('',(0.,1.,0.));
#899=DIRECTION('',(-1.,3.05311331771931E-16,6.93889390390723E-17));
#900=DIRECTION('',(0.,-1.,0.));
#901=DIRECTION('',(1.,0.,-6.93889390390723E-17));
#902=DIRECTION('center_axis',(1.,0.,0.));
#903=DIRECTION('ref_axis',(0.,0.,-1.));
#904=DIRECTION('',(0.,-1.,0.));
#905=DIRECTION('',(9.71444484815119E-17,9.87000625895787E-33,1.));
#906=DIRECTION('',(-9.71444484815119E-17,-9.87000625895787E-33,-1.));
#907=DIRECTION('center_axis',(6.93889390390723E-17,0.,1.));
#908=DIRECTION('ref_axis',(0.,-1.,0.));
#909=DIRECTION('',(-1.,0.,6.93889390390723E-17));
#910=DIRECTION('',(0.,-1.,0.));
#911=DIRECTION('',(1.,-3.05311331771931E-16,-6.93889390390723E-17));
#912=DIRECTION('center_axis',(6.31088724176809E-29,1.,-9.870006258964E-33));
#913=DIRECTION('ref_axis',(9.71444484815119E-17,9.87000625895787E-33,1.));
#914=DIRECTION('',(9.71444484815119E-17,9.87000625895787E-33,1.));
#915=DIRECTION('center_axis',(1.,0.,-6.93889390390723E-17));
#916=DIRECTION('ref_axis',(-6.93889390390723E-17,0.,-1.));
#917=DIRECTION('',(-6.93889390390723E-17,9.72611047258008E-17,-1.));
#918=DIRECTION('center_axis',(3.05311331771931E-16,1.,9.72611047258008E-17));
#919=DIRECTION('ref_axis',(-1.,3.05311331771931E-16,7.05626196421042E-17));
#920=DIRECTION('center_axis',(3.05311331771931E-16,1.,9.72611047258008E-17));
#921=DIRECTION('ref_axis',(-1.,3.05311331771918E-16,7.05626196421042E-17));
#922=DIRECTION('center_axis',(3.05311331771931E-16,1.,9.72611047258008E-17));
#923=DIRECTION('ref_axis',(1.38777878075016E-17,0.,1.));
#924=DIRECTION('center_axis',(-3.05311331771918E-16,-1.,0.));
#925=DIRECTION('ref_axis',(-1.,3.05311331771918E-16,7.05626196421042E-17));
#926=DIRECTION('',(3.05311331771918E-16,1.,0.));
#927=DIRECTION('center_axis',(-3.05311331771931E-16,-1.,-9.72611047258008E-17));
#928=DIRECTION('ref_axis',(-1.,3.05311331771931E-16,7.05626196421042E-17));
#929=DIRECTION('center_axis',(3.05311331771931E-16,1.,9.72611047258008E-17));
#930=DIRECTION('ref_axis',(-1.,3.05311331771931E-16,7.05626196421042E-17));
#931=DIRECTION('center_axis',(-3.05311331771931E-16,-1.,-9.72611047258008E-17));
#932=DIRECTION('ref_axis',(1.38777878075016E-17,0.,1.));
#933=DIRECTION('center_axis',(0.,1.,0.));
#934=DIRECTION('ref_axis',(1.38777878075016E-17,0.,1.));
#935=DIRECTION('',(0.,1.,0.));
#936=CARTESIAN_POINT('',(0.,0.,0.));
#937=CARTESIAN_POINT('Origin',(-7.18932975624114,-26.300185430636,29.26));
#938=CARTESIAN_POINT('',(-7.18932975624114,-3.80018543063596,27.71));
#939=CARTESIAN_POINT('Origin',(-7.18932975624114,-3.80018543063596,29.26));
#940=CARTESIAN_POINT('',(-7.18932975624114,-8.80018543063596,27.71));
#941=CARTESIAN_POINT('',(-7.18932975624114,-26.300185430636,27.71));
#942=CARTESIAN_POINT('Origin',(-7.18932975624114,-8.80018543063596,29.26));
#943=CARTESIAN_POINT('Origin',(-4.68932975624114,-3.80018543063596,26.5));
#944=CARTESIAN_POINT('',(-4.68932975624114,-3.80018543063596,30.));
#945=CARTESIAN_POINT('',(-9.68932975624114,-3.80018543063596,30.));
#946=CARTESIAN_POINT('Origin',(-7.18932975624114,-3.80018543063596,30.));
#947=CARTESIAN_POINT('',(-4.68932975624114,-3.80018543063596,26.5));
#948=CARTESIAN_POINT('',(-4.68932975624114,-3.80018543063596,26.5));
#949=CARTESIAN_POINT('',(-9.68932975624114,-3.80018543063596,26.5));
#950=CARTESIAN_POINT('',(-10.9393297562411,-3.80018543063596,26.5));
#951=CARTESIAN_POINT('',(-9.68932975624114,-3.80018543063596,26.5));
#952=CARTESIAN_POINT('Origin',(-7.18932975624114,-8.17518543063596,30.));
#953=CARTESIAN_POINT('',(-9.68932975624114,-8.80018543063596,30.));
#954=CARTESIAN_POINT('',(-9.68932975624114,-6.92518543063596,30.));
#955=CARTESIAN_POINT('',(-4.68932975624114,-8.80018543063596,30.));
#956=CARTESIAN_POINT('Origin',(-7.18932975624114,-8.80018543063596,30.));
#957=CARTESIAN_POINT('',(-4.68932975624114,-8.17518543063596,30.));
#958=CARTESIAN_POINT('Origin',(-17.1893297562411,1.19981456936404,26.5));
#959=CARTESIAN_POINT('',(-9.68932975624114,-8.80018543063596,26.5));
#960=CARTESIAN_POINT('',(-9.68932975624114,-2.55018543063596,26.5));
#961=CARTESIAN_POINT('',(-4.68932975624114,-8.80018543063596,26.5));
#962=CARTESIAN_POINT('',(-4.68932975624114,-2.55018543063596,26.5));
#963=CARTESIAN_POINT('',(6.81067024375886,-8.80018543063596,26.5));
#964=CARTESIAN_POINT('',(-17.1893297562411,-8.80018543063596,26.5));
#965=CARTESIAN_POINT('',(6.81067024375886,2.39981456936404,26.5));
#966=CARTESIAN_POINT('',(6.81067024375886,1.19981456936404,26.5));
#967=CARTESIAN_POINT('',(-21.1893297562411,2.39981456936404,26.5));
#968=CARTESIAN_POINT('',(2.81067024375886,2.39981456936404,26.5));
#969=CARTESIAN_POINT('',(-21.1893297562411,-8.80018543063596,26.5));
#970=CARTESIAN_POINT('',(-21.1893297562411,1.19981456936404,26.5));
#971=CARTESIAN_POINT('',(-17.1893297562411,-8.80018543063596,26.5));
#972=CARTESIAN_POINT('Origin',(-4.68932975624114,-8.80018543063596,26.5));
#973=CARTESIAN_POINT('',(-4.68932975624114,-8.80018543063596,26.5));
#974=CARTESIAN_POINT('Origin',(-9.68932975624114,-6.30018543063596,26.5));
#975=CARTESIAN_POINT('',(-9.68932975624114,-8.80018543063596,26.5));
#976=CARTESIAN_POINT('Origin',(-7.18932975624114,-26.300185430636,-29.));
#977=CARTESIAN_POINT('',(-7.18932975624114,-3.80018543063596,-30.55));
#978=CARTESIAN_POINT('Origin',(-7.18932975624114,-3.80018543063596,-29.));
#979=CARTESIAN_POINT('',(-7.18932975624114,-8.80018543063596,-30.55));
#980=CARTESIAN_POINT('',(-7.18932975624114,-26.300185430636,-30.55));
#981=CARTESIAN_POINT('Origin',(-7.18932975624114,-8.80018543063596,-29.));
#982=CARTESIAN_POINT('Origin',(-9.68932975624114,-3.80018543063596,-26.5));
#983=CARTESIAN_POINT('',(-9.68932975624114,-3.80018543063596,-30.));
#984=CARTESIAN_POINT('',(-4.68932975624114,-3.80018543063596,-30.));
#985=CARTESIAN_POINT('Origin',(-7.18932975624114,-3.80018543063596,-30.));
#986=CARTESIAN_POINT('',(-9.68932975624114,-3.80018543063596,-26.5));
#987=CARTESIAN_POINT('',(-9.68932975624114,-3.80018543063596,-26.5));
#988=CARTESIAN_POINT('',(-4.68932975624114,-3.80018543063596,-26.5));
#989=CARTESIAN_POINT('',(-3.43932975624114,-3.80018543063596,-26.5));
#990=CARTESIAN_POINT('',(-4.68932975624114,-3.80018543063596,-26.5));
#991=CARTESIAN_POINT('Origin',(-7.18932975624114,-8.30018543063596,-30.));
#992=CARTESIAN_POINT('',(-4.68932975624114,-8.80018543063596,-30.));
#993=CARTESIAN_POINT('',(-4.68932975624114,-7.30018543063596,-30.));
#994=CARTESIAN_POINT('',(-9.68932975624114,-8.80018543063596,-30.));
#995=CARTESIAN_POINT('Origin',(-7.18932975624114,-8.80018543063596,-30.));
#996=CARTESIAN_POINT('',(-9.68932975624114,-8.30018543063596,-30.));
#997=CARTESIAN_POINT('Origin',(2.81067024375886,1.19981456936404,-26.5));
#998=CARTESIAN_POINT('',(-4.68932975624114,-8.80018543063596,-26.5));
#999=CARTESIAN_POINT('',(-4.68932975624114,-2.80018543063596,-26.5));
#1000=CARTESIAN_POINT('',(-9.68932975624114,-8.80018543063596,-26.5));
#1001=CARTESIAN_POINT('',(-9.68932975624114,-2.80018543063596,-26.5));
#1002=CARTESIAN_POINT('',(-21.1893297562411,-8.80018543063596,-26.5));
#1003=CARTESIAN_POINT('',(2.81067024375886,-8.80018543063596,-26.5));
#1004=CARTESIAN_POINT('',(-21.1893297562411,2.39981456936404,-26.5));
#1005=CARTESIAN_POINT('',(-21.1893297562411,1.19981456936404,-26.5));
#1006=CARTESIAN_POINT('',(6.81067024375886,2.39981456936404,-26.5));
#1007=CARTESIAN_POINT('',(-17.1893297562411,2.39981456936404,-26.5));
#1008=CARTESIAN_POINT('',(6.81067024375886,-8.80018543063596,-26.5));
#1009=CARTESIAN_POINT('',(6.81067024375886,1.19981456936404,-26.5));
#1010=CARTESIAN_POINT('',(2.81067024375886,-8.80018543063596,-26.5));
#1011=CARTESIAN_POINT('Origin',(-4.68932975624114,-6.80018543063596,-26.5));
#1012=CARTESIAN_POINT('',(-4.68932975624114,-8.80018543063596,-26.5));
#1013=CARTESIAN_POINT('Origin',(-9.68932975624114,-8.80018543063596,-26.5));
#1014=CARTESIAN_POINT('',(-9.68932975624114,-8.80018543063596,-26.5));
#1015=CARTESIAN_POINT('Origin',(3.50001273271886,9.41981456936422,-23.0000008195638));
#1016=CARTESIAN_POINT('',(4.77557890876173,2.39981456936404,24.348518029526));
#1017=CARTESIAN_POINT('',(4.77557890876173,2.39981456936404,-24.3485186157582));
#1018=CARTESIAN_POINT('',(4.77557890876173,2.39981456936404,-0.25000040978191));
#1019=CARTESIAN_POINT('',(3.50001273271886,9.41981456936422,22.9999998658896));
#1020=CARTESIAN_POINT('',(6.81067024375886,-8.80018543063596,26.5));
#1021=CARTESIAN_POINT('',(3.50001273271886,9.41981456936422,-23.0000008195638));
#1022=CARTESIAN_POINT('',(3.50001273271886,9.41981456936422,-11.5000006482005));
#1023=CARTESIAN_POINT('',(3.50001273271886,9.41981456936422,-23.0000008195638));
#1024=CARTESIAN_POINT('Origin',(3.50001273271886,12.4198145693642,22.9999998658896));
#1025=CARTESIAN_POINT('',(3.50001273271886,12.4198145693642,22.9999998658896));
#1026=CARTESIAN_POINT('',(3.50001273271886,12.4198145693642,-23.0000008195638));
#1027=CARTESIAN_POINT('',(3.50001273271886,12.4198145693642,22.9999998658896));
#1028=CARTESIAN_POINT('',(6.81067024375885,2.39981456936404,26.5));
#1029=CARTESIAN_POINT('',(6.81067024375886,2.39981456936404,-22.5));
#1030=CARTESIAN_POINT('',(3.50001273271886,12.4198145693642,-23.0000008195638));
#1031=CARTESIAN_POINT('Origin',(-17.9999875876561,9.41981456936423,-23.0000008195638));
#1032=CARTESIAN_POINT('',(-19.2288120675391,2.39981456936404,-24.3485186157582));
#1033=CARTESIAN_POINT('',(-17.5946586719486,2.39981456936404,-24.3485186157582));
#1034=CARTESIAN_POINT('',(-17.9999875876561,9.41981456936423,-23.0000008195638));
#1035=CARTESIAN_POINT('',(-12.6249875075624,9.41981456936423,-23.0000008195638));
#1036=CARTESIAN_POINT('',(-17.9999875876561,9.41981456936423,-23.0000008195638));
#1037=CARTESIAN_POINT('Origin',(3.50001273271886,12.4198145693642,-23.0000008195638));
#1038=CARTESIAN_POINT('',(-17.9999875876561,12.4198145693642,-23.0000008195638));
#1039=CARTESIAN_POINT('',(3.50001273271886,12.4198145693642,-23.0000008195638));
#1040=CARTESIAN_POINT('',(-17.9999875876561,12.4198145693642,-23.0000008195638));
#1041=CARTESIAN_POINT('Origin',(-17.1893297562411,2.39981456936404,22.5));
#1042=CARTESIAN_POINT('',(-19.228812067539,2.39981456936404,24.348518029526));
#1043=CARTESIAN_POINT('',(-19.2288120675391,2.39981456936404,22.7499999329448));
#1044=CARTESIAN_POINT('',(-5.18932975624114,2.39981456936404,24.348518029526));
#1045=CARTESIAN_POINT('',(3.31067024375886,2.39981456936404,-23.));
#1046=CARTESIAN_POINT('',(3.31067024375886,2.39981456936404,23.));
#1047=CARTESIAN_POINT('',(3.31067024375886,2.39981456936404,2.19188302991702E-63));
#1048=CARTESIAN_POINT('',(-17.6893297562411,2.39981456936404,23.));
#1049=CARTESIAN_POINT('',(-17.1893297562411,2.39981456936404,23.));
#1050=CARTESIAN_POINT('',(-17.6893297562411,2.39981456936404,-23.));
#1051=CARTESIAN_POINT('',(-17.6893297562411,2.39981456936404,-5.92200375537472E-33));
#1052=CARTESIAN_POINT('',(-7.18932975624114,2.39981456936404,-23.));
#1053=CARTESIAN_POINT('Origin',(-17.9999875876561,9.41981456936423,22.9999998658896));
#1054=CARTESIAN_POINT('',(-17.9999875876561,9.41981456936422,22.9999998658896));
#1055=CARTESIAN_POINT('',(-17.9999875876561,9.41981456936423,11.4999996945262));
#1056=CARTESIAN_POINT('',(-21.1893297562411,-8.80018543063596,26.5));
#1057=CARTESIAN_POINT('Origin',(-17.9999875876561,12.4198145693642,-23.0000008195638));
#1058=CARTESIAN_POINT('',(-17.9999875876561,12.4198145693642,22.9999998658896));
#1059=CARTESIAN_POINT('',(-17.9999875876561,12.4198145693642,-23.0000008195638));
#1060=CARTESIAN_POINT('',(-21.1893297562411,2.39981456936404,22.5));
#1061=CARTESIAN_POINT('',(-21.1893297562411,2.39981456936404,26.5));
#1062=CARTESIAN_POINT('Origin',(6.81067024375886,-8.80018543063596,26.5));
#1063=CARTESIAN_POINT('',(-1.87498734737488,9.41981456936422,22.9999998658896));
#1064=CARTESIAN_POINT('Origin',(-21.1893297562411,2.39981456936404,26.5));
#1065=CARTESIAN_POINT('',(-17.9999875876561,12.4198145693642,22.9999998658896));
#1066=CARTESIAN_POINT('Origin',(-17.1893297562411,-8.80018543063596,-22.5));
#1067=CARTESIAN_POINT('',(-21.1893297562411,-8.80018543063596,-22.5));
#1068=CARTESIAN_POINT('',(6.81067024375886,-8.80018543063596,22.5));
#1069=CARTESIAN_POINT('',(3.31067024375886,-8.80018543063596,23.));
#1070=CARTESIAN_POINT('',(3.31067024375886,-8.80018543063596,-23.));
#1071=CARTESIAN_POINT('',(3.31067024375886,-8.80018543063596,-22.5));
#1072=CARTESIAN_POINT('',(-17.6893297562411,-8.80018543063596,-23.));
#1073=CARTESIAN_POINT('',(-7.18932975624114,-8.80018543063596,-23.));
#1074=CARTESIAN_POINT('',(-17.6893297562411,-8.80018543063596,23.));
#1075=CARTESIAN_POINT('',(-17.6893297562411,-8.80018543063596,-22.5));
#1076=CARTESIAN_POINT('',(-17.1893297562411,-8.80018543063596,23.));
#1077=CARTESIAN_POINT('Origin',(2.81067024375886,1.19981456936404,-23.));
#1078=CARTESIAN_POINT('',(3.31067024375886,1.19981456936404,-23.));
#1079=CARTESIAN_POINT('',(-17.6893297562411,1.19981456936404,-23.));
#1080=CARTESIAN_POINT('Origin',(-17.6893297562411,1.19981456936404,-22.5));
#1081=CARTESIAN_POINT('',(-17.6893297562411,1.19981456936404,23.));
#1082=CARTESIAN_POINT('Origin',(-17.1893297562411,1.19981456936404,23.));
#1083=CARTESIAN_POINT('',(3.31067024375886,1.19981456936404,23.));
#1084=CARTESIAN_POINT('Origin',(3.31067024375886,1.19981456936404,22.5));
#1085=CARTESIAN_POINT('Origin',(6.81067024375886,1.19981456936404,22.5));
#1086=CARTESIAN_POINT('Origin',(-21.1893297562411,1.19981456936404,-22.5));
#1087=CARTESIAN_POINT('Origin',(-13.1393297562407,6.21981456936418,-3.35999999993013));
#1088=CARTESIAN_POINT('',(-11.1393297562407,2.40981456936419,-3.35999999993013));
#1089=CARTESIAN_POINT('',(-11.1393297562407,9.41981456936418,-3.35999999993013));
#1090=CARTESIAN_POINT('',(-11.1393297562407,6.21981456936418,-3.35999999993013));
#1091=CARTESIAN_POINT('',(-5.13932975624071,9.41981456936418,-3.35999999993013));
#1092=CARTESIAN_POINT('',(-10.1946585918547,9.41981456936422,-3.35999999993013));
#1093=CARTESIAN_POINT('',(-5.13932975624071,2.40981456936419,-3.35999999993013));
#1094=CARTESIAN_POINT('',(-5.13932975624071,6.21981456936418,-3.35999999993013));
#1095=CARTESIAN_POINT('',(-13.1393297562407,2.40981456936419,-3.35999999993013));
#1096=CARTESIAN_POINT('Origin',(-11.1393297562407,6.21981456936418,3.44000000000002));
#1097=CARTESIAN_POINT('',(-11.1393297562407,9.41981456936418,3.44000000000002));
#1098=CARTESIAN_POINT('',(-11.1393297562407,2.40981456936419,3.44000000000002));
#1099=CARTESIAN_POINT('',(-11.1393297562407,7.81981456936419,3.44000000000002));
#1100=CARTESIAN_POINT('',(-11.1393297562407,9.41981456936418,1.74000000000002));
#1101=CARTESIAN_POINT('',(-11.1393297562407,2.40981456936419,-1.65999999996506));
#1102=CARTESIAN_POINT('Origin',(-13.1393297562407,9.41981456936418,3.44000000000002));
#1103=CARTESIAN_POINT('',(-5.13932975624071,2.40981456936419,3.44000000000002));
#1104=CARTESIAN_POINT('',(-13.1393297562407,2.40981456936419,3.44000000000002));
#1105=CARTESIAN_POINT('',(-5.13932975624071,9.41981456936418,3.44000000000002));
#1106=CARTESIAN_POINT('',(-5.13932975624071,6.21981456936418,3.44000000000002));
#1107=CARTESIAN_POINT('',(-10.1946585918547,9.41981456936422,3.44000000000002));
#1108=CARTESIAN_POINT('Origin',(-14.6893297562407,2.40981456936419,0.0400000000000167));
#1109=CARTESIAN_POINT('',(-5.13932975624071,2.40981456936419,1.74000000000002));
#1110=CARTESIAN_POINT('Origin',(-5.13932975624071,6.21981456936418,3.44000000000002));
#1111=CARTESIAN_POINT('',(-5.13932975624071,9.41981456936422,1.71999976158145));
#1112=CARTESIAN_POINT('Origin',(-7.24998742746862,9.41981456936422,-4.76837109285822E-7));
#1113=CARTESIAN_POINT('',(0.810670243759289,9.41981456936422,-13.));
#1114=CARTESIAN_POINT('Origin',(-7.18932975624071,9.41981456936422,-13.));
#1115=CARTESIAN_POINT('',(-7.18932975624099,9.41981456936422,4.99999999999999));
#1116=CARTESIAN_POINT('Origin',(-7.18932975624099,9.41981456936422,13.));
#1117=CARTESIAN_POINT('Origin',(-7.18932975624071,12.4198145693642,-13.));
#1118=CARTESIAN_POINT('',(0.81067024375929,12.4198145693642,-13.));
#1119=CARTESIAN_POINT('',(0.810670243759289,12.4198145693642,-13.));
#1120=CARTESIAN_POINT('Origin',(-7.18932975624071,12.4198145693642,-13.));
#1121=CARTESIAN_POINT('Origin',(-7.24998742746862,12.4198145693642,-4.76837109285822E-7));
#1122=CARTESIAN_POINT('',(-7.18932975624099,12.4198145693642,4.99999999999999));
#1123=CARTESIAN_POINT('Origin',(-7.18932975624099,12.4198145693642,13.));
#1124=CARTESIAN_POINT('Origin',(-7.18932975624099,-7.58018543063559,13.));
#1125=CARTESIAN_POINT('',(-7.189329756241,-7.58018543063559,4.99999999999999));
#1126=UNCERTAINTY_MEASURE_WITH_UNIT(LENGTH_MEASURE(0.01),#1130,
'DISTANCE_ACCURACY_VALUE',
'Maximum model space distance between geometric entities at asserted c
onnectivities');
#1127=UNCERTAINTY_MEASURE_WITH_UNIT(LENGTH_MEASURE(0.01),#1130,
'DISTANCE_ACCURACY_VALUE',
'Maximum model space distance between geometric entities at asserted c
onnectivities');
#1128=(
GEOMETRIC_REPRESENTATION_CONTEXT(3)
GLOBAL_UNCERTAINTY_ASSIGNED_CONTEXT((#1126))
GLOBAL_UNIT_ASSIGNED_CONTEXT((#1130,#1132,#1133))
REPRESENTATION_CONTEXT('','3D')
);
#1129=(
GEOMETRIC_REPRESENTATION_CONTEXT(3)
GLOBAL_UNCERTAINTY_ASSIGNED_CONTEXT((#1127))
GLOBAL_UNIT_ASSIGNED_CONTEXT((#1130,#1132,#1133))
REPRESENTATION_CONTEXT('','3D')
);
#1130=(
LENGTH_UNIT()
NAMED_UNIT(*)
SI_UNIT(.MILLI.,.METRE.)
);
#1131=(
LENGTH_UNIT()
NAMED_UNIT(*)
SI_UNIT($,.METRE.)
);
#1132=(
NAMED_UNIT(*)
PLANE_ANGLE_UNIT()
SI_UNIT($,.RADIAN.)
);
#1133=(
NAMED_UNIT(*)
SI_UNIT($,.STERADIAN.)
SOLID_ANGLE_UNIT()
);
#1134=SHAPE_DEFINITION_REPRESENTATION(#1135,#1136);
#1135=PRODUCT_DEFINITION_SHAPE('',$,#1138);
#1136=SHAPE_REPRESENTATION('',(#706),#1128);
#1137=PRODUCT_DEFINITION_CONTEXT('part definition',#1142,'design');
#1138=PRODUCT_DEFINITION('CASE','CASE',#1139,#1137);
#1139=PRODUCT_DEFINITION_FORMATION('',$,#1144);
#1140=PRODUCT_RELATED_PRODUCT_CATEGORY('CASE','CASE',(#1144));
#1141=APPLICATION_PROTOCOL_DEFINITION('international standard',
'automotive_design',2009,#1142);
#1142=APPLICATION_CONTEXT(
'Core Data for Automotive Mechanical Design Process');
#1143=PRODUCT_CONTEXT('part definition',#1142,'mechanical');
#1144=PRODUCT('CASE','CASE',$,(#1143));
#1145=PRESENTATION_STYLE_ASSIGNMENT((#1146));
#1146=SURFACE_STYLE_USAGE(.BOTH.,#1147);
#1147=SURFACE_SIDE_STYLE('',(#1148));
#1148=SURFACE_STYLE_FILL_AREA(#1149);
#1149=FILL_AREA_STYLE('ABS (White)',(#1150));
#1150=FILL_AREA_STYLE_COLOUR('ABS (White)',#1151);
#1151=COLOUR_RGB('ABS (White)',0.,0.0156862745098039,1.);
ENDSEC;
END-ISO-10303-21;
