ISO-10303-21;
HEADER;
/* Generated by software containing ST-Developer
 * from STEP Tools, Inc. (www.steptools.com) 
 */

FILE_DESCRIPTION(
/* description */ (''),
/* implementation_level */ '2;1');

FILE_NAME(
/* name */ 'KLAMP.step',
/* time_stamp */ '2026-06-07T21:09:55+07:00',
/* author */ (''),
/* organization */ (''),
/* preprocessor_version */ 'ST-DEVELOPER v20.1',
/* originating_system */ 'Autodesk Translation Framework v14.24.0.0',
/* authorisation */ '');

FILE_SCHEMA (('AUTOMOTIVE_DESIGN { 1 0 10303 214 3 1 1 }'));
ENDSEC;

DATA;
#10=MECHANICAL_DESIGN_GEOMETRIC_PRESENTATION_REPRESENTATION('',(#13),#557);
#11=SHAPE_REPRESENTATION_RELATIONSHIP('SRR','None',#564,#12);
#12=ADVANCED_BREP_SHAPE_REPRESENTATION('',(#14),#556);
#13=STYLED_ITEM('',(#574),#14);
#14=MANIFOLD_SOLID_BREP('Body2',#281);
#15=PLANE('',#298);
#16=PLANE('',#299);
#17=PLANE('',#304);
#18=PLANE('',#310);
#19=PLANE('',#318);
#20=PLANE('',#319);
#21=PLANE('',#320);
#22=PLANE('',#321);
#23=PLANE('',#322);
#24=FACE_BOUND('',#49,.T.);
#25=FACE_BOUND('',#54,.T.);
#26=FACE_BOUND('',#56,.T.);
#27=FACE_BOUND('',#59,.T.);
#28=FACE_BOUND('',#64,.T.);
#29=FACE_BOUND('',#68,.T.);
#30=B_SPLINE_CURVE_WITH_KNOTS('',3,(#414,#415,#416,#417,#418,#419,#420,
#421,#422,#423,#424,#425,#426,#427,#428,#429,#430,#431,#432,#433,#434,#435,
#436,#437,#438,#439,#440,#441,#442,#443,#444,#445,#446,#447,#448,#449,#450,
#451),.UNSPECIFIED.,.T.,.F.,(4,2,2,2,2,2,2,2,2,2,2,2,2,2,2,2,2,2,4),(0.,
0.0532774339730829,0.106554867946166,0.213109735892331,0.335903299846767,
0.458696863801203,0.570840007274026,0.682983150746849,0.780619438846055,
0.878255726945261,0.970878351851842,1.06350097675842,1.18065113770812,1.29780129865782,
1.43105098157031,1.56430066448279,1.6599920177903,1.70783769444406,1.75568337109781),
 .UNSPECIFIED.);
#31=B_SPLINE_CURVE_WITH_KNOTS('',3,(#482,#483,#484,#485,#486,#487,#488,
#489,#490,#491,#492,#493,#494,#495,#496,#497,#498,#499,#500,#501,#502,#503,
#504,#505,#506,#507,#508,#509,#510,#511,#512,#513,#514,#515,#516,#517,#518,
#519),.UNSPECIFIED.,.T.,.F.,(4,2,2,2,2,2,2,2,2,2,2,2,2,2,2,2,2,2,4),(0.,
0.0924404589480582,0.184880917896116,0.305246937346642,0.425612956797168,
0.564632562437258,0.703652168077348,0.799875713595504,0.847987486354583,
0.896099259113661,0.950521509330082,1.0049437595465,1.11378825997934,1.24076191281976,
1.36773556566017,1.48810158511069,1.60846760456122,1.70090806350928,1.79334852245734),
 .UNSPECIFIED.);
#32=FACE_OUTER_BOUND('',#48,.T.);
#33=FACE_OUTER_BOUND('',#50,.T.);
#34=FACE_OUTER_BOUND('',#51,.T.);
#35=FACE_OUTER_BOUND('',#52,.T.);
#36=FACE_OUTER_BOUND('',#53,.T.);
#37=FACE_OUTER_BOUND('',#55,.T.);
#38=FACE_OUTER_BOUND('',#57,.T.);
#39=FACE_OUTER_BOUND('',#58,.T.);
#40=FACE_OUTER_BOUND('',#60,.T.);
#41=FACE_OUTER_BOUND('',#61,.T.);
#42=FACE_OUTER_BOUND('',#62,.T.);
#43=FACE_OUTER_BOUND('',#63,.T.);
#44=FACE_OUTER_BOUND('',#65,.T.);
#45=FACE_OUTER_BOUND('',#66,.T.);
#46=FACE_OUTER_BOUND('',#67,.T.);
#47=FACE_OUTER_BOUND('',#69,.T.);
#48=EDGE_LOOP('',(#186,#187,#188,#189));
#49=EDGE_LOOP('',(#190));
#50=EDGE_LOOP('',(#191,#192,#193,#194));
#51=EDGE_LOOP('',(#195,#196,#197,#198,#199,#200,#201,#202));
#52=EDGE_LOOP('',(#203,#204,#205,#206));
#53=EDGE_LOOP('',(#207));
#54=EDGE_LOOP('',(#208));
#55=EDGE_LOOP('',(#209,#210,#211,#212));
#56=EDGE_LOOP('',(#213));
#57=EDGE_LOOP('',(#214,#215,#216,#217));
#58=EDGE_LOOP('',(#218));
#59=EDGE_LOOP('',(#219));
#60=EDGE_LOOP('',(#220,#221,#222,#223));
#61=EDGE_LOOP('',(#224,#225,#226,#227));
#62=EDGE_LOOP('',(#228,#229,#230,#231));
#63=EDGE_LOOP('',(#232,#233,#234,#235));
#64=EDGE_LOOP('',(#236));
#65=EDGE_LOOP('',(#237,#238,#239,#240));
#66=EDGE_LOOP('',(#241,#242,#243,#244));
#67=EDGE_LOOP('',(#245,#246,#247,#248));
#68=EDGE_LOOP('',(#249));
#69=EDGE_LOOP('',(#250,#251,#252,#253,#254,#255,#256,#257));
#70=LINE('',#409,#92);
#71=LINE('',#412,#93);
#72=LINE('',#454,#94);
#73=LINE('',#456,#95);
#74=LINE('',#457,#96);
#75=LINE('',#460,#97);
#76=LINE('',#462,#98);
#77=LINE('',#466,#99);
#78=LINE('',#468,#100);
#79=LINE('',#472,#101);
#80=LINE('',#480,#102);
#81=LINE('',#522,#103);
#82=LINE('',#529,#104);
#83=LINE('',#533,#105);
#84=LINE('',#537,#106);
#85=LINE('',#540,#107);
#86=LINE('',#543,#108);
#87=LINE('',#544,#109);
#88=LINE('',#546,#110);
#89=LINE('',#549,#111);
#90=LINE('',#550,#112);
#91=LINE('',#552,#113);
#92=VECTOR('',#329,10.);
#93=VECTOR('',#332,10.);
#94=VECTOR('',#335,10.);
#95=VECTOR('',#336,10.);
#96=VECTOR('',#337,10.);
#97=VECTOR('',#340,10.);
#98=VECTOR('',#341,10.);
#99=VECTOR('',#344,10.);
#100=VECTOR('',#345,10.);
#101=VECTOR('',#350,2.5);
#102=VECTOR('',#361,10.);
#103=VECTOR('',#364,2.5);
#104=VECTOR('',#373,1.3);
#105=VECTOR('',#378,1.3);
#106=VECTOR('',#383,10.);
#107=VECTOR('',#386,10.);
#108=VECTOR('',#389,10.);
#109=VECTOR('',#390,10.);
#110=VECTOR('',#393,10.);
#111=VECTOR('',#396,10.);
#112=VECTOR('',#397,10.);
#113=VECTOR('',#400,10.);
#114=CIRCLE('',#296,17.);
#115=CIRCLE('',#297,17.);
#116=CIRCLE('',#300,15.);
#117=CIRCLE('',#301,17.);
#118=CIRCLE('',#303,2.5);
#119=CIRCLE('',#305,1.3);
#120=CIRCLE('',#307,17.);
#121=CIRCLE('',#309,2.5);
#122=CIRCLE('',#311,1.3);
#123=CIRCLE('',#313,1.3);
#124=CIRCLE('',#315,1.3);
#125=CIRCLE('',#317,15.);
#126=VERTEX_POINT('',#405);
#127=VERTEX_POINT('',#406);
#128=VERTEX_POINT('',#408);
#129=VERTEX_POINT('',#410);
#130=VERTEX_POINT('',#413);
#131=VERTEX_POINT('',#453);
#132=VERTEX_POINT('',#455);
#133=VERTEX_POINT('',#459);
#134=VERTEX_POINT('',#461);
#135=VERTEX_POINT('',#463);
#136=VERTEX_POINT('',#465);
#137=VERTEX_POINT('',#467);
#138=VERTEX_POINT('',#471);
#139=VERTEX_POINT('',#475);
#140=VERTEX_POINT('',#478);
#141=VERTEX_POINT('',#481);
#142=VERTEX_POINT('',#521);
#143=VERTEX_POINT('',#525);
#144=VERTEX_POINT('',#528);
#145=VERTEX_POINT('',#532);
#146=VERTEX_POINT('',#536);
#147=VERTEX_POINT('',#538);
#148=VERTEX_POINT('',#542);
#149=VERTEX_POINT('',#548);
#150=EDGE_CURVE('',#126,#127,#114,.T.);
#151=EDGE_CURVE('',#127,#128,#70,.T.);
#152=EDGE_CURVE('',#128,#129,#115,.T.);
#153=EDGE_CURVE('',#129,#126,#71,.T.);
#154=EDGE_CURVE('',#130,#130,#30,.T.);
#155=EDGE_CURVE('',#131,#129,#72,.T.);
#156=EDGE_CURVE('',#132,#131,#73,.T.);
#157=EDGE_CURVE('',#126,#132,#74,.T.);
#158=EDGE_CURVE('',#128,#133,#75,.T.);
#159=EDGE_CURVE('',#133,#134,#76,.T.);
#160=EDGE_CURVE('',#134,#135,#116,.T.);
#161=EDGE_CURVE('',#135,#136,#77,.T.);
#162=EDGE_CURVE('',#137,#136,#78,.T.);
#163=EDGE_CURVE('',#131,#137,#117,.T.);
#164=EDGE_CURVE('',#130,#138,#79,.T.);
#165=EDGE_CURVE('',#138,#138,#118,.T.);
#166=EDGE_CURVE('',#139,#139,#119,.T.);
#167=EDGE_CURVE('',#140,#132,#120,.T.);
#168=EDGE_CURVE('',#137,#140,#80,.T.);
#169=EDGE_CURVE('',#141,#141,#31,.T.);
#170=EDGE_CURVE('',#141,#142,#81,.T.);
#171=EDGE_CURVE('',#142,#142,#121,.T.);
#172=EDGE_CURVE('',#143,#143,#122,.T.);
#173=EDGE_CURVE('',#139,#144,#82,.T.);
#174=EDGE_CURVE('',#144,#144,#123,.T.);
#175=EDGE_CURVE('',#143,#145,#83,.T.);
#176=EDGE_CURVE('',#145,#145,#124,.T.);
#177=EDGE_CURVE('',#134,#146,#84,.T.);
#178=EDGE_CURVE('',#147,#146,#125,.T.);
#179=EDGE_CURVE('',#135,#147,#85,.T.);
#180=EDGE_CURVE('',#148,#147,#86,.T.);
#181=EDGE_CURVE('',#136,#148,#87,.T.);
#182=EDGE_CURVE('',#140,#148,#88,.T.);
#183=EDGE_CURVE('',#149,#127,#89,.T.);
#184=EDGE_CURVE('',#133,#149,#90,.T.);
#185=EDGE_CURVE('',#146,#149,#91,.T.);
#186=ORIENTED_EDGE('',*,*,#150,.T.);
#187=ORIENTED_EDGE('',*,*,#151,.T.);
#188=ORIENTED_EDGE('',*,*,#152,.T.);
#189=ORIENTED_EDGE('',*,*,#153,.T.);
#190=ORIENTED_EDGE('',*,*,#154,.T.);
#191=ORIENTED_EDGE('',*,*,#153,.F.);
#192=ORIENTED_EDGE('',*,*,#155,.F.);
#193=ORIENTED_EDGE('',*,*,#156,.F.);
#194=ORIENTED_EDGE('',*,*,#157,.F.);
#195=ORIENTED_EDGE('',*,*,#152,.F.);
#196=ORIENTED_EDGE('',*,*,#158,.T.);
#197=ORIENTED_EDGE('',*,*,#159,.T.);
#198=ORIENTED_EDGE('',*,*,#160,.T.);
#199=ORIENTED_EDGE('',*,*,#161,.T.);
#200=ORIENTED_EDGE('',*,*,#162,.F.);
#201=ORIENTED_EDGE('',*,*,#163,.F.);
#202=ORIENTED_EDGE('',*,*,#155,.T.);
#203=ORIENTED_EDGE('',*,*,#154,.F.);
#204=ORIENTED_EDGE('',*,*,#164,.T.);
#205=ORIENTED_EDGE('',*,*,#165,.T.);
#206=ORIENTED_EDGE('',*,*,#164,.F.);
#207=ORIENTED_EDGE('',*,*,#165,.F.);
#208=ORIENTED_EDGE('',*,*,#166,.F.);
#209=ORIENTED_EDGE('',*,*,#167,.T.);
#210=ORIENTED_EDGE('',*,*,#156,.T.);
#211=ORIENTED_EDGE('',*,*,#163,.T.);
#212=ORIENTED_EDGE('',*,*,#168,.T.);
#213=ORIENTED_EDGE('',*,*,#169,.T.);
#214=ORIENTED_EDGE('',*,*,#169,.F.);
#215=ORIENTED_EDGE('',*,*,#170,.T.);
#216=ORIENTED_EDGE('',*,*,#171,.T.);
#217=ORIENTED_EDGE('',*,*,#170,.F.);
#218=ORIENTED_EDGE('',*,*,#171,.F.);
#219=ORIENTED_EDGE('',*,*,#172,.F.);
#220=ORIENTED_EDGE('',*,*,#166,.T.);
#221=ORIENTED_EDGE('',*,*,#173,.T.);
#222=ORIENTED_EDGE('',*,*,#174,.F.);
#223=ORIENTED_EDGE('',*,*,#173,.F.);
#224=ORIENTED_EDGE('',*,*,#172,.T.);
#225=ORIENTED_EDGE('',*,*,#175,.T.);
#226=ORIENTED_EDGE('',*,*,#176,.F.);
#227=ORIENTED_EDGE('',*,*,#175,.F.);
#228=ORIENTED_EDGE('',*,*,#160,.F.);
#229=ORIENTED_EDGE('',*,*,#177,.T.);
#230=ORIENTED_EDGE('',*,*,#178,.F.);
#231=ORIENTED_EDGE('',*,*,#179,.F.);
#232=ORIENTED_EDGE('',*,*,#161,.F.);
#233=ORIENTED_EDGE('',*,*,#179,.T.);
#234=ORIENTED_EDGE('',*,*,#180,.F.);
#235=ORIENTED_EDGE('',*,*,#181,.F.);
#236=ORIENTED_EDGE('',*,*,#176,.T.);
#237=ORIENTED_EDGE('',*,*,#168,.F.);
#238=ORIENTED_EDGE('',*,*,#162,.T.);
#239=ORIENTED_EDGE('',*,*,#181,.T.);
#240=ORIENTED_EDGE('',*,*,#182,.F.);
#241=ORIENTED_EDGE('',*,*,#151,.F.);
#242=ORIENTED_EDGE('',*,*,#183,.F.);
#243=ORIENTED_EDGE('',*,*,#184,.F.);
#244=ORIENTED_EDGE('',*,*,#158,.F.);
#245=ORIENTED_EDGE('',*,*,#159,.F.);
#246=ORIENTED_EDGE('',*,*,#184,.T.);
#247=ORIENTED_EDGE('',*,*,#185,.F.);
#248=ORIENTED_EDGE('',*,*,#177,.F.);
#249=ORIENTED_EDGE('',*,*,#174,.T.);
#250=ORIENTED_EDGE('',*,*,#150,.F.);
#251=ORIENTED_EDGE('',*,*,#157,.T.);
#252=ORIENTED_EDGE('',*,*,#167,.F.);
#253=ORIENTED_EDGE('',*,*,#182,.T.);
#254=ORIENTED_EDGE('',*,*,#180,.T.);
#255=ORIENTED_EDGE('',*,*,#178,.T.);
#256=ORIENTED_EDGE('',*,*,#185,.T.);
#257=ORIENTED_EDGE('',*,*,#183,.T.);
#258=CYLINDRICAL_SURFACE('',#295,17.);
#259=CYLINDRICAL_SURFACE('',#302,2.5);
#260=CYLINDRICAL_SURFACE('',#306,17.);
#261=CYLINDRICAL_SURFACE('',#308,2.5);
#262=CYLINDRICAL_SURFACE('',#312,1.3);
#263=CYLINDRICAL_SURFACE('',#314,1.3);
#264=CYLINDRICAL_SURFACE('',#316,15.);
#265=ADVANCED_FACE('',(#32,#24),#258,.T.);
#266=ADVANCED_FACE('',(#33),#15,.T.);
#267=ADVANCED_FACE('',(#34),#16,.T.);
#268=ADVANCED_FACE('',(#35),#259,.F.);
#269=ADVANCED_FACE('',(#36,#25),#17,.F.);
#270=ADVANCED_FACE('',(#37,#26),#260,.T.);
#271=ADVANCED_FACE('',(#38),#261,.F.);
#272=ADVANCED_FACE('',(#39,#27),#18,.F.);
#273=ADVANCED_FACE('',(#40),#262,.F.);
#274=ADVANCED_FACE('',(#41),#263,.F.);
#275=ADVANCED_FACE('',(#42),#264,.F.);
#276=ADVANCED_FACE('',(#43,#28),#19,.T.);
#277=ADVANCED_FACE('',(#44),#20,.T.);
#278=ADVANCED_FACE('',(#45),#21,.T.);
#279=ADVANCED_FACE('',(#46,#29),#22,.T.);
#280=ADVANCED_FACE('',(#47),#23,.F.);
#281=CLOSED_SHELL('',(#265,#266,#267,#268,#269,#270,#271,#272,#273,#274,
#275,#276,#277,#278,#279,#280));
#282=DERIVED_UNIT_ELEMENT(#284,1.);
#283=DERIVED_UNIT_ELEMENT(#559,-3.);
#284=(
MASS_UNIT()
NAMED_UNIT(*)
SI_UNIT(.KILO.,.GRAM.)
);
#285=DERIVED_UNIT((#282,#283));
#286=MEASURE_REPRESENTATION_ITEM('density measure',
POSITIVE_RATIO_MEASURE(7850.),#285);
#287=PROPERTY_DEFINITION_REPRESENTATION(#292,#289);
#288=PROPERTY_DEFINITION_REPRESENTATION(#293,#290);
#289=REPRESENTATION('material name',(#291),#556);
#290=REPRESENTATION('density',(#286),#556);
#291=DESCRIPTIVE_REPRESENTATION_ITEM('Steel','Steel');
#292=PROPERTY_DEFINITION('material property','material name',#566);
#293=PROPERTY_DEFINITION('material property','density of part',#566);
#294=AXIS2_PLACEMENT_3D('',#403,#323,#324);
#295=AXIS2_PLACEMENT_3D('',#404,#325,#326);
#296=AXIS2_PLACEMENT_3D('',#407,#327,#328);
#297=AXIS2_PLACEMENT_3D('',#411,#330,#331);
#298=AXIS2_PLACEMENT_3D('',#452,#333,#334);
#299=AXIS2_PLACEMENT_3D('',#458,#338,#339);
#300=AXIS2_PLACEMENT_3D('',#464,#342,#343);
#301=AXIS2_PLACEMENT_3D('',#469,#346,#347);
#302=AXIS2_PLACEMENT_3D('',#470,#348,#349);
#303=AXIS2_PLACEMENT_3D('',#473,#351,#352);
#304=AXIS2_PLACEMENT_3D('',#474,#353,#354);
#305=AXIS2_PLACEMENT_3D('',#476,#355,#356);
#306=AXIS2_PLACEMENT_3D('',#477,#357,#358);
#307=AXIS2_PLACEMENT_3D('',#479,#359,#360);
#308=AXIS2_PLACEMENT_3D('',#520,#362,#363);
#309=AXIS2_PLACEMENT_3D('',#523,#365,#366);
#310=AXIS2_PLACEMENT_3D('',#524,#367,#368);
#311=AXIS2_PLACEMENT_3D('',#526,#369,#370);
#312=AXIS2_PLACEMENT_3D('',#527,#371,#372);
#313=AXIS2_PLACEMENT_3D('',#530,#374,#375);
#314=AXIS2_PLACEMENT_3D('',#531,#376,#377);
#315=AXIS2_PLACEMENT_3D('',#534,#379,#380);
#316=AXIS2_PLACEMENT_3D('',#535,#381,#382);
#317=AXIS2_PLACEMENT_3D('',#539,#384,#385);
#318=AXIS2_PLACEMENT_3D('',#541,#387,#388);
#319=AXIS2_PLACEMENT_3D('',#545,#391,#392);
#320=AXIS2_PLACEMENT_3D('',#547,#394,#395);
#321=AXIS2_PLACEMENT_3D('',#551,#398,#399);
#322=AXIS2_PLACEMENT_3D('',#553,#401,#402);
#323=DIRECTION('axis',(0.,0.,1.));
#324=DIRECTION('refdir',(1.,0.,0.));
#325=DIRECTION('center_axis',(0.819152044289026,0.573576436350997,1.27924983099879E-14));
#326=DIRECTION('ref_axis',(0.405579787672597,-0.579227965339599,0.707106781186548));
#327=DIRECTION('center_axis',(-0.819152044289026,-0.573576436350997,-1.28478964124626E-14));
#328=DIRECTION('ref_axis',(0.405579787672597,-0.579227965339599,0.707106781186548));
#329=DIRECTION('',(-0.819152044289026,-0.573576436350997,-1.27924983099879E-14));
#330=DIRECTION('center_axis',(0.819152044289026,0.573576436350997,1.28478964124626E-14));
#331=DIRECTION('ref_axis',(0.405579787672597,-0.579227965339599,0.707106781186548));
#332=DIRECTION('',(0.819152044289026,0.573576436350997,1.27924983099879E-14));
#333=DIRECTION('center_axis',(0.573576436350997,-0.819152044289026,3.91985954394652E-17));
#334=DIRECTION('ref_axis',(1.15529392298486E-16,3.30419021445385E-17,-1.));
#335=DIRECTION('',(-1.15529392298486E-16,-3.30419021445385E-17,1.));
#336=DIRECTION('',(-0.819152044289026,-0.573576436350997,-1.27924983099879E-14));
#337=DIRECTION('',(1.15529392298486E-16,3.30419021445385E-17,-1.));
#338=DIRECTION('center_axis',(-0.819152044289026,-0.573576436350997,-1.28478964124626E-14));
#339=DIRECTION('ref_axis',(0.573576436350997,-0.819152044289026,3.91985954394644E-17));
#340=DIRECTION('',(-0.573576436350997,0.819152044289026,0.));
#341=DIRECTION('',(1.05468640017645E-14,7.33714102927956E-15,-1.));
#342=DIRECTION('center_axis',(0.819152044289026,0.573576436350997,1.13588194359101E-16));
#343=DIRECTION('ref_axis',(0.573576436350997,-0.819152044289026,3.91985954394644E-17));
#344=DIRECTION('',(1.05468640017645E-14,7.33714102927955E-15,-1.));
#345=DIRECTION('',(-0.573576436350997,0.819152044289026,0.));
#346=DIRECTION('center_axis',(0.819152044289026,0.573576436350997,1.28478964124626E-14));
#347=DIRECTION('ref_axis',(0.405579787672611,-0.579227965339588,-0.707106781186548));
#348=DIRECTION('center_axis',(-0.573576436350997,0.819152044289026,-3.91985954394652E-17));
#349=DIRECTION('ref_axis',(0.,-4.78526492276378E-17,-1.));
#350=DIRECTION('',(-0.573576436350997,0.819152044289026,-3.91985954394652E-17));
#351=DIRECTION('center_axis',(-0.573576436350997,0.819152044289026,-3.91985954394652E-17));
#352=DIRECTION('ref_axis',(0.,-4.78526492276378E-17,-1.));
#353=DIRECTION('center_axis',(-0.573576436350997,0.819152044289026,-3.91985954394652E-17));
#354=DIRECTION('ref_axis',(0.,-4.78526492276378E-17,-1.));
#355=DIRECTION('center_axis',(0.573576436350997,-0.819152044289026,3.91985954394652E-17));
#356=DIRECTION('ref_axis',(0.,-4.78526492276378E-17,-1.));
#357=DIRECTION('center_axis',(0.819152044289026,0.573576436350997,1.27924983099879E-14));
#358=DIRECTION('ref_axis',(0.405579787672611,-0.579227965339588,-0.707106781186548));
#359=DIRECTION('center_axis',(-0.819152044289026,-0.573576436350997,-1.28478964124626E-14));
#360=DIRECTION('ref_axis',(0.405579787672611,-0.579227965339588,-0.707106781186548));
#361=DIRECTION('',(0.819152044289026,0.573576436350997,1.27924983099879E-14));
#362=DIRECTION('center_axis',(-0.573576436350997,0.819152044289026,-3.91985954394652E-17));
#363=DIRECTION('ref_axis',(0.,-4.78526492276378E-17,-1.));
#364=DIRECTION('',(-0.573576436350997,0.819152044289026,-3.91985954394652E-17));
#365=DIRECTION('center_axis',(-0.573576436350997,0.819152044289026,-3.91985954394652E-17));
#366=DIRECTION('ref_axis',(0.,-4.78526492276378E-17,-1.));
#367=DIRECTION('center_axis',(-0.573576436350997,0.819152044289026,-3.91985954394652E-17));
#368=DIRECTION('ref_axis',(0.,-4.78526492276378E-17,-1.));
#369=DIRECTION('center_axis',(0.573576436350997,-0.819152044289026,3.91985954394652E-17));
#370=DIRECTION('ref_axis',(0.,-4.78526492276378E-17,-1.));
#371=DIRECTION('center_axis',(-0.573576436350997,0.819152044289026,-3.91985954394652E-17));
#372=DIRECTION('ref_axis',(0.,-4.78526492276378E-17,-1.));
#373=DIRECTION('',(-0.573576436350997,0.819152044289026,-3.91985954394652E-17));
#374=DIRECTION('center_axis',(0.573576436350997,-0.819152044289026,3.91985954394647E-17));
#375=DIRECTION('ref_axis',(0.,-4.78526492276378E-17,-1.));
#376=DIRECTION('center_axis',(-0.573576436350997,0.819152044289026,-3.91985954394652E-17));
#377=DIRECTION('ref_axis',(0.,-4.78526492276378E-17,-1.));
#378=DIRECTION('',(-0.573576436350997,0.819152044289026,-3.91985954394652E-17));
#379=DIRECTION('center_axis',(0.573576436350997,-0.819152044289026,3.91985954394663E-17));
#380=DIRECTION('ref_axis',(0.,-4.78526492276378E-17,-1.));
#381=DIRECTION('center_axis',(0.819152044289026,0.573576436350997,1.27924983099879E-14));
#382=DIRECTION('ref_axis',(0.573576436350997,-0.819152044289026,3.91985954394625E-17));
#383=DIRECTION('',(0.819152044289026,0.573576436350997,1.27924983099879E-14));
#384=DIRECTION('center_axis',(-0.819152044289026,-0.573576436350997,-1.13588194359101E-16));
#385=DIRECTION('ref_axis',(0.573576436350997,-0.819152044289026,3.91985954394644E-17));
#386=DIRECTION('',(0.819152044289026,0.573576436350997,1.27924983099879E-14));
#387=DIRECTION('center_axis',(-0.573576436350997,0.819152044289026,-3.91985954394663E-17));
#388=DIRECTION('ref_axis',(-1.05468640017645E-14,-7.33714102927955E-15,
1.));
#389=DIRECTION('',(-1.05468640017645E-14,-7.33714102927955E-15,1.));
#390=DIRECTION('',(0.819152044289026,0.573576436350997,1.27924983099879E-14));
#391=DIRECTION('center_axis',(1.04790011421905E-14,7.33747559266903E-15,
-1.));
#392=DIRECTION('ref_axis',(-0.573576436350997,0.819152044289026,0.));
#393=DIRECTION('',(-0.573576436350997,0.819152044289026,0.));
#394=DIRECTION('center_axis',(-1.04790011421905E-14,-7.33747559266903E-15,
1.));
#395=DIRECTION('ref_axis',(0.573576436350997,-0.819152044289026,0.));
#396=DIRECTION('',(0.573576436350997,-0.819152044289026,0.));
#397=DIRECTION('',(0.819152044289026,0.573576436350997,1.27924983099879E-14));
#398=DIRECTION('center_axis',(-0.573576436350997,0.819152044289026,-3.91985954394647E-17));
#399=DIRECTION('ref_axis',(-1.05468640017645E-14,-7.33714102927956E-15,
1.));
#400=DIRECTION('',(-1.05468640017645E-14,-7.33714102927956E-15,1.));
#401=DIRECTION('center_axis',(-0.819152044289026,-0.573576436350997,-1.28478964124626E-14));
#402=DIRECTION('ref_axis',(0.573576436350997,-0.819152044289026,3.91985954394644E-17));
#403=CARTESIAN_POINT('',(0.,0.,0.));
#404=CARTESIAN_POINT('Origin',(18.5362617854698,-43.8505396259447,9.49999999999977));
#405=CARTESIAN_POINT('',(35.9649733145579,-52.3999924409401,9.49999999999989));
#406=CARTESIAN_POINT('',(26.2141738965904,-38.4744076880271,26.4999999999999));
#407=CARTESIAN_POINT('Origin',(26.2141738965906,-38.474407688027,9.49999999999989));
#408=CARTESIAN_POINT('',(18.5362617854694,-43.850539625945,26.4999999999998));
#409=CARTESIAN_POINT('',(18.5362617854696,-43.8505396259448,26.4999999999998));
#410=CARTESIAN_POINT('',(28.2870612034369,-57.776124378858,9.49999999999977));
#411=CARTESIAN_POINT('Origin',(18.5362617854695,-43.8505396259449,9.49999999999977));
#412=CARTESIAN_POINT('',(28.2870612034368,-57.7761243788581,9.49999999999977));
#413=CARTESIAN_POINT('',(28.458843033251,-49.8499191256248,22.7859999999998));
#414=CARTESIAN_POINT('Ctrl Pts',(28.458843033251,-49.8499191256248,22.7859999999998));
#415=CARTESIAN_POINT('Ctrl Pts',(28.6043174297627,-49.7480568565708,22.7859999999998));
#416=CARTESIAN_POINT('Ctrl Pts',(28.7624406229581,-49.6666924794549,22.7668948604817));
#417=CARTESIAN_POINT('Ctrl Pts',(29.0914812387654,-49.5459905952282,22.6943967236666));
#418=CARTESIAN_POINT('Ctrl Pts',(29.2623668377273,-49.5065533413218,22.6410253987989));
#419=CARTESIAN_POINT('Ctrl Pts',(29.7730446447576,-49.4429106121625,22.4409214111403));
#420=CARTESIAN_POINT('Ctrl Pts',(30.1112722722949,-49.4740276818656,22.2523406419606));
#421=CARTESIAN_POINT('Ctrl Pts',(30.7298626037666,-49.6123004853648,21.8249311292335));
#422=CARTESIAN_POINT('Ctrl Pts',(31.0510512911367,-49.7422200031248,21.5446477599381));
#423=CARTESIAN_POINT('Ctrl Pts',(31.5921102659991,-50.0755756791077,20.9335598982893));
#424=CARTESIAN_POINT('Ctrl Pts',(31.8114030285471,-50.2792540113378,20.6023763916727));
#425=CARTESIAN_POINT('Ctrl Pts',(32.096394864516,-50.6862645338145,19.9970643103741));
#426=CARTESIAN_POINT('Ctrl Pts',(32.1943399094715,-50.9185031273067,19.6754341222592));
#427=CARTESIAN_POINT('Ctrl Pts',(32.24667397614,-51.4202086102552,19.0566284449906));
#428=CARTESIAN_POINT('Ctrl Pts',(32.2006390200175,-51.6903311017806,18.7599489832382));
#429=CARTESIAN_POINT('Ctrl Pts',(31.9925488751635,-52.1814705105456,18.3077855238537));
#430=CARTESIAN_POINT('Ctrl Pts',(31.833662689811,-52.4316697051252,18.1148012958851));
#431=CARTESIAN_POINT('Ctrl Pts',(31.4153679377878,-52.9081286163056,17.8537115393889));
#432=CARTESIAN_POINT('Ctrl Pts',(31.1563513975776,-53.1349480738988,17.7859999999998));
#433=CARTESIAN_POINT('Ctrl Pts',(30.6368481391346,-53.498708171585,17.7859999999998));
#434=CARTESIAN_POINT('Ctrl Pts',(30.3503482410334,-53.6583209862424,17.8470030665117));
#435=CARTESIAN_POINT('Ctrl Pts',(29.7866644599085,-53.8862940568334,18.0848203670638));
#436=CARTESIAN_POINT('Ctrl Pts',(29.509152349037,-53.9542297751818,18.2612631392099));
#437=CARTESIAN_POINT('Ctrl Pts',(28.9667138747257,-54.0022129725723,18.6998955084094));
#438=CARTESIAN_POINT('Ctrl Pts',(28.6808173191034,-53.9595048555804,19.0058006887695));
#439=CARTESIAN_POINT('Ctrl Pts',(28.2012046560734,-53.739769353031,19.6482126922548));
#440=CARTESIAN_POINT('Ctrl Pts',(28.0067084453263,-53.562821004154,19.9841637798302));
#441=CARTESIAN_POINT('Ctrl Pts',(27.702958929084,-53.1290217379836,20.629316477784));
#442=CARTESIAN_POINT('Ctrl Pts',(27.5810870648606,-52.8265272796231,20.9864586210657));
#443=CARTESIAN_POINT('Ctrl Pts',(27.4602672754306,-52.1424228467236,21.6381826684953));
#444=CARTESIAN_POINT('Ctrl Pts',(27.4604814420371,-51.7615027897677,21.9333328569222));
#445=CARTESIAN_POINT('Ctrl Pts',(27.5804855626848,-51.125611841166,22.337831891281));
#446=CARTESIAN_POINT('Ctrl Pts',(27.6745342162154,-50.8298048861781,22.4977160012345));
#447=CARTESIAN_POINT('Ctrl Pts',(27.9050740961331,-50.4196101647768,22.6659442662313));
#448=CARTESIAN_POINT('Ctrl Pts',(27.9967296080604,-50.2882718757402,22.7104858340436));
#449=CARTESIAN_POINT('Ctrl Pts',(28.2082554957889,-50.0491362795644,22.7705302852882));
#450=CARTESIAN_POINT('Ctrl Pts',(28.3282000871133,-49.9413963013244,22.7859999999998));
#451=CARTESIAN_POINT('Ctrl Pts',(28.458843033251,-49.8499191256248,22.7859999999998));
#452=CARTESIAN_POINT('Origin',(28.2870612034369,-57.776124378858,26.4999999999998));
#453=CARTESIAN_POINT('',(28.2870612034369,-57.776124378858,-9.50000000000024));
#454=CARTESIAN_POINT('',(28.2870612034369,-57.776124378858,28.9999999999998));
#455=CARTESIAN_POINT('',(35.9649733145579,-52.3999924409401,-9.50000000000012));
#456=CARTESIAN_POINT('',(28.287061203437,-57.776124378858,-9.50000000000024));
#457=CARTESIAN_POINT('',(35.9649733145579,-52.3999924409401,28.9999999999999));
#458=CARTESIAN_POINT('Origin',(13.8042561855739,-37.0925352605603,-2.31492017420838E-13));
#459=CARTESIAN_POINT('',(13.9476502946616,-37.2973232716326,26.4999999999998));
#460=CARTESIAN_POINT('',(-0.678548832289067,-16.4089461422626,26.4999999999998));
#461=CARTESIAN_POINT('',(13.9476502946616,-37.2973232716326,14.9979165219704));
#462=CARTESIAN_POINT('',(13.9476502946615,-37.2973232716327,13.2499999999998));
#463=CARTESIAN_POINT('',(13.9476502946616,-37.2973232716326,-14.9979165219709));
#464=CARTESIAN_POINT('Origin',(13.8042561855739,-37.0925352605603,-2.32280030705649E-13));
#465=CARTESIAN_POINT('',(13.9476502946616,-37.2973232716326,-26.5000000000002));
#466=CARTESIAN_POINT('',(13.9476502946617,-37.2973232716325,-7.49895826098555));
#467=CARTESIAN_POINT('',(18.5362617854699,-43.8505396259446,-26.5000000000002));
#468=CARTESIAN_POINT('',(-0.67854883228851,-16.4089461422622,-26.5000000000002));
#469=CARTESIAN_POINT('Origin',(18.5362617854697,-43.8505396259447,-9.50000000000024));
#470=CARTESIAN_POINT('Origin',(31.5528503986673,-54.26861957739,20.2859999999998));
#471=CARTESIAN_POINT('',(22.9492038534023,-41.9813389130546,22.7859999999998));
#472=CARTESIAN_POINT('',(31.5528503986673,-54.26861957739,22.7859999999998));
#473=CARTESIAN_POINT('Origin',(22.9492038534023,-41.9813389130546,20.2859999999998));
#474=CARTESIAN_POINT('Origin',(22.9492038534023,-41.9813389130546,20.2859999999998));
#475=CARTESIAN_POINT('',(22.9492038534023,-41.9813389130546,21.5859999999998));
#476=CARTESIAN_POINT('Origin',(22.9492038534023,-41.9813389130546,20.2859999999998));
#477=CARTESIAN_POINT('Origin',(18.53626178547,-43.8505396259445,-9.50000000000024));
#478=CARTESIAN_POINT('',(26.214173896591,-38.4744076880267,-26.5000000000001));
#479=CARTESIAN_POINT('Origin',(26.2141738965908,-38.4744076880268,-9.50000000000012));
#480=CARTESIAN_POINT('',(18.5362617854702,-43.8505396259444,-26.5000000000002));
#481=CARTESIAN_POINT('',(30.9532463743087,-52.9462998707971,-18.2538891252392));
#482=CARTESIAN_POINT('Ctrl Pts',(30.9532463743087,-52.9462998707971,-18.2538891252392));
#483=CARTESIAN_POINT('Ctrl Pts',(31.2056556773831,-52.7695609740702,-18.2538891252392));
#484=CARTESIAN_POINT('Ctrl Pts',(31.4512961375082,-52.5535771518676,-18.3146792537915));
#485=CARTESIAN_POINT('Ctrl Pts',(31.8506602082459,-52.0963126625844,-18.550288727783));
#486=CARTESIAN_POINT('Ctrl Pts',(32.0041229259682,-51.854580402038,-18.7246733638257));
#487=CARTESIAN_POINT('Ctrl Pts',(32.2266457459739,-51.3430071180804,-19.1628066581422));
#488=CARTESIAN_POINT('Ctrl Pts',(32.2763368226678,-51.0449382976076,-19.4716302971468));
#489=CARTESIAN_POINT('Ctrl Pts',(32.2143872076296,-50.4887244933221,-20.1171013714862));
#490=CARTESIAN_POINT('Ctrl Pts',(32.1031167676969,-50.2298679920732,-20.4531708363639));
#491=CARTESIAN_POINT('Ctrl Pts',(31.774817690802,-49.7610083197905,-21.101210886971));
#492=CARTESIAN_POINT('Ctrl Pts',(31.5149523040702,-49.5211143494036,-21.4613208558758));
#493=CARTESIAN_POINT('Ctrl Pts',(30.8770215709488,-49.1302373734739,-22.117099996335));
#494=CARTESIAN_POINT('Ctrl Pts',(30.5000627758027,-48.9784780151287,-22.413382017391));
#495=CARTESIAN_POINT('Ctrl Pts',(29.8388535793533,-48.8454902239602,-22.8133797715602));
#496=CARTESIAN_POINT('Ctrl Pts',(29.5250609753769,-48.8200280633265,-22.9692336681994));
#497=CARTESIAN_POINT('Ctrl Pts',(29.055982482583,-48.8805512188427,-23.1345313104058));
#498=CARTESIAN_POINT('Ctrl Pts',(28.8997528885386,-48.9170554079123,-23.1785816333796));
#499=CARTESIAN_POINT('Ctrl Pts',(28.6001688474122,-49.0274636596925,-23.2382756621333));
#500=CARTESIAN_POINT('Ctrl Pts',(28.4568458518738,-49.1014693871562,-23.2538891252392));
#501=CARTESIAN_POINT('Ctrl Pts',(28.1768760034419,-49.2975063854996,-23.2538891252392));
#502=CARTESIAN_POINT('Ctrl Pts',(28.0467586601684,-49.4221820875565,-23.2340169595897));
#503=CARTESIAN_POINT('Ctrl Pts',(27.8254322109705,-49.6996909540927,-23.1602221003921));
#504=CARTESIAN_POINT('Ctrl Pts',(27.7342162269968,-49.8525072026795,-23.1062564299916));
#505=CARTESIAN_POINT('Ctrl Pts',(27.5148923187899,-50.3289676812824,-22.9054253626728));
#506=CARTESIAN_POINT('Ctrl Pts',(27.4415784655176,-50.6710676542351,-22.7178526714681));
#507=CARTESIAN_POINT('Ctrl Pts',(27.3838835179475,-51.3297606466367,-22.2927809579898));
#508=CARTESIAN_POINT('Ctrl Pts',(27.4100977476266,-51.6953802854583,-22.0130166301591));
#509=CARTESIAN_POINT('Ctrl Pts',(27.565041023246,-52.3560751065442,-21.4023789561673));
#510=CARTESIAN_POINT('Ctrl Pts',(27.6943037852739,-52.6506644972325,-21.0711156962326));
#511=CARTESIAN_POINT('Ctrl Pts',(28.0073565462517,-53.0977501738282,-20.453170836364));
#512=CARTESIAN_POINT('Ctrl Pts',(28.212545358504,-53.2908443228026,-20.1171013714863));
#513=CARTESIAN_POINT('Ctrl Pts',(28.714027349756,-53.5392942439759,-19.4716302971468));
#514=CARTESIAN_POINT('Ctrl Pts',(29.0111157700134,-53.5945454465869,-19.1628066581422));
#515=CARTESIAN_POINT('Ctrl Pts',(29.5679446967313,-53.5604107625719,-18.7246733638257));
#516=CARTESIAN_POINT('Ctrl Pts',(29.8475860588831,-53.4988802815611,-18.550288727783));
#517=CARTESIAN_POINT('Ctrl Pts',(30.4138646819228,-53.2799944774443,-18.3146792537915));
#518=CARTESIAN_POINT('Ctrl Pts',(30.7008370712343,-53.123038767524,-18.2538891252392));
#519=CARTESIAN_POINT('Ctrl Pts',(30.9532463743087,-52.9462998707971,-18.2538891252392));
#520=CARTESIAN_POINT('Origin',(31.771797094617,-54.1153114504229,-20.7538891252392));
#521=CARTESIAN_POINT('',(23.1681505493521,-41.8280307860875,-18.2538891252392));
#522=CARTESIAN_POINT('',(31.771797094617,-54.1153114504229,-18.2538891252392));
#523=CARTESIAN_POINT('Origin',(23.1681505493521,-41.8280307860875,-20.7538891252392));
#524=CARTESIAN_POINT('Origin',(23.1681505493521,-41.8280307860875,-20.7538891252392));
#525=CARTESIAN_POINT('',(23.1681505493521,-41.8280307860875,-19.4538891252392));
#526=CARTESIAN_POINT('Origin',(23.1681505493521,-41.8280307860875,-20.7538891252392));
#527=CARTESIAN_POINT('Origin',(19.2209570171208,-36.656850625176,20.2859999999998));
#528=CARTESIAN_POINT('',(17.7870159262446,-34.6089705144552,21.5859999999998));
#529=CARTESIAN_POINT('',(19.2209570171208,-36.656850625176,21.5859999999998));
#530=CARTESIAN_POINT('Origin',(17.7870159262446,-34.6089705144552,20.2859999999998));
#531=CARTESIAN_POINT('Origin',(19.4399037130706,-36.5035424982088,-20.7538891252392));
#532=CARTESIAN_POINT('',(18.005962622193,-34.4556623874861,-19.4538891252392));
#533=CARTESIAN_POINT('',(19.4399037130706,-36.5035424982088,-19.4538891252392));
#534=CARTESIAN_POINT('Origin',(18.005962622193,-34.4556623874861,-20.7538891252392));
#535=CARTESIAN_POINT('Origin',(13.8042561855739,-37.0925352605603,-2.32280030705649E-13));
#536=CARTESIAN_POINT('',(21.6255624057827,-31.9211913337147,14.9979165219705));
#537=CARTESIAN_POINT('',(13.9476502946616,-37.2973232716326,14.9979165219704));
#538=CARTESIAN_POINT('',(21.6255624057827,-31.9211913337147,-14.9979165219708));
#539=CARTESIAN_POINT('Origin',(21.4821682966949,-31.7164033226424,-1.12375944046132E-13));
#540=CARTESIAN_POINT('',(13.9476502946616,-37.2973232716326,-14.9979165219709));
#541=CARTESIAN_POINT('Origin',(13.9476502946619,-37.2973232716324,-26.5000000000002));
#542=CARTESIAN_POINT('',(21.6255624057827,-31.9211913337147,-26.5000000000001));
#543=CARTESIAN_POINT('',(21.6255624057828,-31.9211913337146,-7.49895826098544));
#544=CARTESIAN_POINT('',(13.9476502946616,-37.2973232716326,-26.5000000000002));
#545=CARTESIAN_POINT('Origin',(28.2870612034369,-57.776124378858,-26.5000000000002));
#546=CARTESIAN_POINT('',(6.99936327883254,-11.0328142043443,-26.5000000000001));
#547=CARTESIAN_POINT('Origin',(13.9476502946614,-37.2973232716328,26.4999999999998));
#548=CARTESIAN_POINT('',(21.6255624057827,-31.9211913337147,26.4999999999999));
#549=CARTESIAN_POINT('',(6.99936327883198,-11.0328142043447,26.4999999999999));
#550=CARTESIAN_POINT('',(13.9476502946616,-37.2973232716326,26.4999999999998));
#551=CARTESIAN_POINT('Origin',(13.9476502946615,-37.2973232716327,14.9979165219704));
#552=CARTESIAN_POINT('',(21.6255624057825,-31.9211913337148,13.2499999999999));
#553=CARTESIAN_POINT('Origin',(21.4821682966949,-31.7164033226424,-1.11587930761321E-13));
#554=UNCERTAINTY_MEASURE_WITH_UNIT(LENGTH_MEASURE(0.01),#558,
'DISTANCE_ACCURACY_VALUE',
'Maximum model space distance between geometric entities at asserted c
onnectivities');
#555=UNCERTAINTY_MEASURE_WITH_UNIT(LENGTH_MEASURE(0.01),#558,
'DISTANCE_ACCURACY_VALUE',
'Maximum model space distance between geometric entities at asserted c
onnectivities');
#556=(
GEOMETRIC_REPRESENTATION_CONTEXT(3)
GLOBAL_UNCERTAINTY_ASSIGNED_CONTEXT((#554))
GLOBAL_UNIT_ASSIGNED_CONTEXT((#558,#560,#561))
REPRESENTATION_CONTEXT('','3D')
);
#557=(
GEOMETRIC_REPRESENTATION_CONTEXT(3)
GLOBAL_UNCERTAINTY_ASSIGNED_CONTEXT((#555))
GLOBAL_UNIT_ASSIGNED_CONTEXT((#558,#560,#561))
REPRESENTATION_CONTEXT('','3D')
);
#558=(
LENGTH_UNIT()
NAMED_UNIT(*)
SI_UNIT(.MILLI.,.METRE.)
);
#559=(
LENGTH_UNIT()
NAMED_UNIT(*)
SI_UNIT($,.METRE.)
);
#560=(
NAMED_UNIT(*)
PLANE_ANGLE_UNIT()
SI_UNIT($,.RADIAN.)
);
#561=(
NAMED_UNIT(*)
SI_UNIT($,.STERADIAN.)
SOLID_ANGLE_UNIT()
);
#562=SHAPE_DEFINITION_REPRESENTATION(#563,#564);
#563=PRODUCT_DEFINITION_SHAPE('',$,#566);
#564=SHAPE_REPRESENTATION('',(#294),#556);
#565=PRODUCT_DEFINITION_CONTEXT('part definition',#570,'design');
#566=PRODUCT_DEFINITION('KLAMP','KLAMP',#567,#565);
#567=PRODUCT_DEFINITION_FORMATION('',$,#572);
#568=PRODUCT_RELATED_PRODUCT_CATEGORY('KLAMP','KLAMP',(#572));
#569=APPLICATION_PROTOCOL_DEFINITION('international standard',
'automotive_design',2009,#570);
#570=APPLICATION_CONTEXT(
'Core Data for Automotive Mechanical Design Process');
#571=PRODUCT_CONTEXT('part definition',#570,'mechanical');
#572=PRODUCT('KLAMP','KLAMP',$,(#571));
#573=PRESENTATION_STYLE_ASSIGNMENT((#575));
#574=PRESENTATION_STYLE_ASSIGNMENT((#576));
#575=SURFACE_STYLE_USAGE(.BOTH.,#577);
#576=SURFACE_STYLE_USAGE(.BOTH.,#578);
#577=SURFACE_SIDE_STYLE('',(#579));
#578=SURFACE_SIDE_STYLE('',(#580));
#579=SURFACE_STYLE_FILL_AREA(#581);
#580=SURFACE_STYLE_FILL_AREA(#582);
#581=FILL_AREA_STYLE('Steel - Satin',(#583));
#582=FILL_AREA_STYLE('ABS (White)',(#584));
#583=FILL_AREA_STYLE_COLOUR('Steel - Satin',#585);
#584=FILL_AREA_STYLE_COLOUR('ABS (White)',#586);
#585=COLOUR_RGB('Steel - Satin',0.627450980392157,0.627450980392157,0.627450980392157);
#586=COLOUR_RGB('ABS (White)',0.545098039215686,0.,0.741176470588235);
ENDSEC;
END-ISO-10303-21;
