ISO-10303-21;
HEADER;
/* Generated by software containing ST-Developer
 * from STEP Tools, Inc. (www.steptools.com) 
 */

FILE_DESCRIPTION(
/* description */ (''),
/* implementation_level */ '2;1');

FILE_NAME(
/* name */ 'TUTUP CASE.step',
/* time_stamp */ '2026-06-07T21:09:47+07:00',
/* author */ (''),
/* organization */ (''),
/* preprocessor_version */ 'ST-DEVELOPER v20.1',
/* originating_system */ 'Autodesk Translation Framework v14.24.0.0',
/* authorisation */ '');

FILE_SCHEMA (('AUTOMOTIVE_DESIGN { 1 0 10303 214 3 1 1 }'));
ENDSEC;

DATA;
#10=MECHANICAL_DESIGN_GEOMETRIC_PRESENTATION_REPRESENTATION('',(#13),#1053);
#11=SHAPE_REPRESENTATION_RELATIONSHIP('SRR','None',#1060,#12);
#12=ADVANCED_BREP_SHAPE_REPRESENTATION('',(#14),#1052);
#13=STYLED_ITEM('',(#1070),#14);
#14=MANIFOLD_SOLID_BREP('Body1',#635);
#15=CONICAL_SURFACE('',#673,0.65,1.02974425867665);
#16=CONICAL_SURFACE('',#677,0.65,1.02974425867665);
#17=CYLINDRICAL_SURFACE('',#657,1.55);
#18=CYLINDRICAL_SURFACE('',#659,1.55);
#19=CYLINDRICAL_SURFACE('',#663,2.5);
#20=CYLINDRICAL_SURFACE('',#667,2.5);
#21=CYLINDRICAL_SURFACE('',#675,1.3);
#22=CYLINDRICAL_SURFACE('',#679,1.3);
#23=CYLINDRICAL_SURFACE('',#685,15.);
#24=CYLINDRICAL_SURFACE('',#691,1.5);
#25=CYLINDRICAL_SURFACE('',#693,1.5);
#26=FACE_BOUND('',#88,.T.);
#27=FACE_BOUND('',#89,.T.);
#28=FACE_BOUND('',#90,.T.);
#29=FACE_BOUND('',#102,.T.);
#30=FACE_BOUND('',#103,.T.);
#31=FACE_BOUND('',#104,.T.);
#32=FACE_BOUND('',#111,.T.);
#33=FACE_BOUND('',#114,.T.);
#34=FACE_BOUND('',#124,.T.);
#35=CIRCLE('',#651,2.5);
#36=CIRCLE('',#652,2.5);
#37=CIRCLE('',#653,1.55);
#38=CIRCLE('',#654,1.55);
#39=CIRCLE('',#655,1.5);
#40=CIRCLE('',#656,1.5);
#41=CIRCLE('',#658,1.55);
#42=CIRCLE('',#660,1.55);
#43=CIRCLE('',#664,2.5);
#44=CIRCLE('',#668,2.5);
#45=CIRCLE('',#674,1.3);
#46=CIRCLE('',#676,1.3);
#47=CIRCLE('',#678,1.3);
#48=CIRCLE('',#680,1.3);
#49=CIRCLE('',#683,15.);
#50=CIRCLE('',#686,15.);
#51=CIRCLE('',#692,1.5);
#52=CIRCLE('',#694,1.5);
#53=FACE_OUTER_BOUND('',#86,.T.);
#54=FACE_OUTER_BOUND('',#87,.T.);
#55=FACE_OUTER_BOUND('',#91,.T.);
#56=FACE_OUTER_BOUND('',#92,.T.);
#57=FACE_OUTER_BOUND('',#93,.T.);
#58=FACE_OUTER_BOUND('',#94,.T.);
#59=FACE_OUTER_BOUND('',#95,.T.);
#60=FACE_OUTER_BOUND('',#96,.T.);
#61=FACE_OUTER_BOUND('',#97,.T.);
#62=FACE_OUTER_BOUND('',#98,.T.);
#63=FACE_OUTER_BOUND('',#99,.T.);
#64=FACE_OUTER_BOUND('',#100,.T.);
#65=FACE_OUTER_BOUND('',#101,.T.);
#66=FACE_OUTER_BOUND('',#105,.T.);
#67=FACE_OUTER_BOUND('',#106,.T.);
#68=FACE_OUTER_BOUND('',#107,.T.);
#69=FACE_OUTER_BOUND('',#108,.T.);
#70=FACE_OUTER_BOUND('',#109,.T.);
#71=FACE_OUTER_BOUND('',#110,.T.);
#72=FACE_OUTER_BOUND('',#112,.T.);
#73=FACE_OUTER_BOUND('',#113,.T.);
#74=FACE_OUTER_BOUND('',#115,.T.);
#75=FACE_OUTER_BOUND('',#116,.T.);
#76=FACE_OUTER_BOUND('',#117,.T.);
#77=FACE_OUTER_BOUND('',#118,.T.);
#78=FACE_OUTER_BOUND('',#119,.T.);
#79=FACE_OUTER_BOUND('',#120,.T.);
#80=FACE_OUTER_BOUND('',#121,.T.);
#81=FACE_OUTER_BOUND('',#122,.T.);
#82=FACE_OUTER_BOUND('',#123,.T.);
#83=FACE_OUTER_BOUND('',#125,.T.);
#84=FACE_OUTER_BOUND('',#126,.T.);
#85=FACE_OUTER_BOUND('',#127,.T.);
#86=EDGE_LOOP('',(#408,#409,#410,#411,#412,#413));
#87=EDGE_LOOP('',(#414,#415,#416,#417,#418,#419,#420,#421,#422,#423,#424,
#425));
#88=EDGE_LOOP('',(#426));
#89=EDGE_LOOP('',(#427));
#90=EDGE_LOOP('',(#428,#429,#430,#431));
#91=EDGE_LOOP('',(#432,#433,#434,#435));
#92=EDGE_LOOP('',(#436,#437,#438,#439));
#93=EDGE_LOOP('',(#440,#441,#442,#443));
#94=EDGE_LOOP('',(#444,#445,#446,#447));
#95=EDGE_LOOP('',(#448,#449,#450,#451));
#96=EDGE_LOOP('',(#452,#453,#454,#455));
#97=EDGE_LOOP('',(#456,#457,#458,#459));
#98=EDGE_LOOP('',(#460,#461,#462,#463));
#99=EDGE_LOOP('',(#464,#465,#466,#467));
#100=EDGE_LOOP('',(#468,#469,#470,#471));
#101=EDGE_LOOP('',(#472,#473,#474,#475,#476,#477,#478,#479,#480,#481,#482,
#483));
#102=EDGE_LOOP('',(#484));
#103=EDGE_LOOP('',(#485));
#104=EDGE_LOOP('',(#486,#487,#488,#489));
#105=EDGE_LOOP('',(#490,#491,#492,#493,#494,#495));
#106=EDGE_LOOP('',(#496,#497,#498));
#107=EDGE_LOOP('',(#499,#500,#501,#502));
#108=EDGE_LOOP('',(#503,#504,#505));
#109=EDGE_LOOP('',(#506,#507,#508,#509));
#110=EDGE_LOOP('',(#510,#511,#512,#513));
#111=EDGE_LOOP('',(#514));
#112=EDGE_LOOP('',(#515,#516,#517,#518,#519,#520));
#113=EDGE_LOOP('',(#521,#522,#523,#524));
#114=EDGE_LOOP('',(#525));
#115=EDGE_LOOP('',(#526,#527,#528,#529));
#116=EDGE_LOOP('',(#530,#531,#532,#533));
#117=EDGE_LOOP('',(#534,#535,#536,#537));
#118=EDGE_LOOP('',(#538,#539,#540,#541));
#119=EDGE_LOOP('',(#542,#543,#544,#545));
#120=EDGE_LOOP('',(#546,#547,#548,#549));
#121=EDGE_LOOP('',(#550,#551,#552,#553));
#122=EDGE_LOOP('',(#554,#555,#556,#557));
#123=EDGE_LOOP('',(#558,#559,#560,#561));
#124=EDGE_LOOP('',(#562,#563,#564,#565));
#125=EDGE_LOOP('',(#566,#567,#568,#569,#570,#571));
#126=EDGE_LOOP('',(#572,#573,#574,#575));
#127=EDGE_LOOP('',(#576,#577,#578,#579));
#128=LINE('',#876,#196);
#129=LINE('',#878,#197);
#130=LINE('',#880,#198);
#131=LINE('',#882,#199);
#132=LINE('',#884,#200);
#133=LINE('',#885,#201);
#134=LINE('',#888,#202);
#135=LINE('',#892,#203);
#136=LINE('',#894,#204);
#137=LINE('',#896,#205);
#138=LINE('',#898,#206);
#139=LINE('',#900,#207);
#140=LINE('',#904,#208);
#141=LINE('',#906,#209);
#142=LINE('',#907,#210);
#143=LINE('',#914,#211);
#144=LINE('',#918,#212);
#145=LINE('',#922,#213);
#146=LINE('',#926,#214);
#147=LINE('',#930,#215);
#148=LINE('',#931,#216);
#149=LINE('',#935,#217);
#150=LINE('',#936,#218);
#151=LINE('',#937,#219);
#152=LINE('',#941,#220);
#153=LINE('',#944,#221);
#154=LINE('',#945,#222);
#155=LINE('',#949,#223);
#156=LINE('',#950,#224);
#157=LINE('',#951,#225);
#158=LINE('',#956,#226);
#159=LINE('',#957,#227);
#160=LINE('',#960,#228);
#161=LINE('',#961,#229);
#162=LINE('',#964,#230);
#163=LINE('',#965,#231);
#164=LINE('',#966,#232);
#165=LINE('',#969,#233);
#166=LINE('',#971,#234);
#167=LINE('',#973,#235);
#168=LINE('',#974,#236);
#169=LINE('',#977,#237);
#170=LINE('',#979,#238);
#171=LINE('',#980,#239);
#172=LINE('',#985,#240);
#173=LINE('',#989,#241);
#174=LINE('',#994,#242);
#175=LINE('',#998,#243);
#176=LINE('',#1002,#244);
#177=LINE('',#1003,#245);
#178=LINE('',#1004,#246);
#179=LINE('',#1008,#247);
#180=LINE('',#1011,#248);
#181=LINE('',#1012,#249);
#182=LINE('',#1017,#250);
#183=LINE('',#1019,#251);
#184=LINE('',#1020,#252);
#185=LINE('',#1023,#253);
#186=LINE('',#1025,#254);
#187=LINE('',#1026,#255);
#188=LINE('',#1030,#256);
#189=LINE('',#1032,#257);
#190=LINE('',#1033,#258);
#191=LINE('',#1036,#259);
#192=LINE('',#1041,#260);
#193=LINE('',#1043,#261);
#194=LINE('',#1045,#262);
#195=LINE('',#1046,#263);
#196=VECTOR('',#704,10.);
#197=VECTOR('',#705,10.);
#198=VECTOR('',#706,10.);
#199=VECTOR('',#707,10.);
#200=VECTOR('',#708,10.);
#201=VECTOR('',#709,10.);
#202=VECTOR('',#712,10.);
#203=VECTOR('',#715,10.);
#204=VECTOR('',#716,10.);
#205=VECTOR('',#717,10.);
#206=VECTOR('',#718,10.);
#207=VECTOR('',#719,10.);
#208=VECTOR('',#722,10.);
#209=VECTOR('',#723,10.);
#210=VECTOR('',#724,10.);
#211=VECTOR('',#729,10.);
#212=VECTOR('',#732,10.);
#213=VECTOR('',#737,1.55);
#214=VECTOR('',#742,1.55);
#215=VECTOR('',#747,10.);
#216=VECTOR('',#748,10.);
#217=VECTOR('',#751,10.);
#218=VECTOR('',#752,10.);
#219=VECTOR('',#753,10.);
#220=VECTOR('',#758,10.);
#221=VECTOR('',#761,10.);
#222=VECTOR('',#762,10.);
#223=VECTOR('',#765,10.);
#224=VECTOR('',#766,10.);
#225=VECTOR('',#767,10.);
#226=VECTOR('',#774,10.);
#227=VECTOR('',#775,10.);
#228=VECTOR('',#778,10.);
#229=VECTOR('',#779,10.);
#230=VECTOR('',#782,10.);
#231=VECTOR('',#783,10.);
#232=VECTOR('',#784,10.);
#233=VECTOR('',#785,10.);
#234=VECTOR('',#786,10.);
#235=VECTOR('',#787,10.);
#236=VECTOR('',#788,10.);
#237=VECTOR('',#791,10.);
#238=VECTOR('',#792,10.);
#239=VECTOR('',#793,10.);
#240=VECTOR('',#798,0.65);
#241=VECTOR('',#803,1.3);
#242=VECTOR('',#808,0.65);
#243=VECTOR('',#813,1.3);
#244=VECTOR('',#816,10.);
#245=VECTOR('',#817,10.);
#246=VECTOR('',#818,10.);
#247=VECTOR('',#823,10.);
#248=VECTOR('',#826,10.);
#249=VECTOR('',#827,10.);
#250=VECTOR('',#834,10.);
#251=VECTOR('',#835,10.);
#252=VECTOR('',#836,10.);
#253=VECTOR('',#839,10.);
#254=VECTOR('',#840,10.);
#255=VECTOR('',#841,10.);
#256=VECTOR('',#846,10.);
#257=VECTOR('',#847,10.);
#258=VECTOR('',#848,10.);
#259=VECTOR('',#851,10.);
#260=VECTOR('',#858,10.);
#261=VECTOR('',#861,10.);
#262=VECTOR('',#864,10.);
#263=VECTOR('',#865,10.);
#264=VERTEX_POINT('',#874);
#265=VERTEX_POINT('',#875);
#266=VERTEX_POINT('',#877);
#267=VERTEX_POINT('',#879);
#268=VERTEX_POINT('',#881);
#269=VERTEX_POINT('',#883);
#270=VERTEX_POINT('',#887);
#271=VERTEX_POINT('',#889);
#272=VERTEX_POINT('',#891);
#273=VERTEX_POINT('',#893);
#274=VERTEX_POINT('',#895);
#275=VERTEX_POINT('',#897);
#276=VERTEX_POINT('',#899);
#277=VERTEX_POINT('',#901);
#278=VERTEX_POINT('',#903);
#279=VERTEX_POINT('',#905);
#280=VERTEX_POINT('',#908);
#281=VERTEX_POINT('',#910);
#282=VERTEX_POINT('',#912);
#283=VERTEX_POINT('',#913);
#284=VERTEX_POINT('',#915);
#285=VERTEX_POINT('',#917);
#286=VERTEX_POINT('',#921);
#287=VERTEX_POINT('',#925);
#288=VERTEX_POINT('',#929);
#289=VERTEX_POINT('',#933);
#290=VERTEX_POINT('',#934);
#291=VERTEX_POINT('',#939);
#292=VERTEX_POINT('',#943);
#293=VERTEX_POINT('',#947);
#294=VERTEX_POINT('',#948);
#295=VERTEX_POINT('',#955);
#296=VERTEX_POINT('',#959);
#297=VERTEX_POINT('',#963);
#298=VERTEX_POINT('',#967);
#299=VERTEX_POINT('',#968);
#300=VERTEX_POINT('',#970);
#301=VERTEX_POINT('',#972);
#302=VERTEX_POINT('',#976);
#303=VERTEX_POINT('',#978);
#304=VERTEX_POINT('',#982);
#305=VERTEX_POINT('',#984);
#306=VERTEX_POINT('',#987);
#307=VERTEX_POINT('',#991);
#308=VERTEX_POINT('',#993);
#309=VERTEX_POINT('',#996);
#310=VERTEX_POINT('',#1000);
#311=VERTEX_POINT('',#1001);
#312=VERTEX_POINT('',#1006);
#313=VERTEX_POINT('',#1010);
#314=VERTEX_POINT('',#1016);
#315=VERTEX_POINT('',#1018);
#316=VERTEX_POINT('',#1022);
#317=VERTEX_POINT('',#1024);
#318=VERTEX_POINT('',#1029);
#319=VERTEX_POINT('',#1031);
#320=VERTEX_POINT('',#1035);
#321=VERTEX_POINT('',#1039);
#322=EDGE_CURVE('',#264,#265,#128,.T.);
#323=EDGE_CURVE('',#266,#264,#129,.T.);
#324=EDGE_CURVE('',#267,#266,#130,.T.);
#325=EDGE_CURVE('',#268,#267,#131,.T.);
#326=EDGE_CURVE('',#268,#269,#132,.T.);
#327=EDGE_CURVE('',#269,#265,#133,.T.);
#328=EDGE_CURVE('',#269,#270,#134,.T.);
#329=EDGE_CURVE('',#270,#271,#35,.T.);
#330=EDGE_CURVE('',#271,#272,#135,.T.);
#331=EDGE_CURVE('',#272,#273,#136,.T.);
#332=EDGE_CURVE('',#273,#274,#137,.T.);
#333=EDGE_CURVE('',#274,#275,#138,.T.);
#334=EDGE_CURVE('',#275,#276,#139,.T.);
#335=EDGE_CURVE('',#276,#277,#36,.T.);
#336=EDGE_CURVE('',#277,#278,#140,.T.);
#337=EDGE_CURVE('',#278,#279,#141,.T.);
#338=EDGE_CURVE('',#265,#279,#142,.T.);
#339=EDGE_CURVE('',#280,#280,#37,.T.);
#340=EDGE_CURVE('',#281,#281,#38,.T.);
#341=EDGE_CURVE('',#282,#283,#143,.T.);
#342=EDGE_CURVE('',#283,#284,#39,.T.);
#343=EDGE_CURVE('',#284,#285,#144,.T.);
#344=EDGE_CURVE('',#285,#282,#40,.T.);
#345=EDGE_CURVE('',#281,#286,#145,.T.);
#346=EDGE_CURVE('',#286,#286,#41,.T.);
#347=EDGE_CURVE('',#280,#287,#146,.T.);
#348=EDGE_CURVE('',#287,#287,#42,.T.);
#349=EDGE_CURVE('',#268,#288,#147,.T.);
#350=EDGE_CURVE('',#288,#270,#148,.T.);
#351=EDGE_CURVE('',#289,#290,#149,.T.);
#352=EDGE_CURVE('',#278,#289,#150,.T.);
#353=EDGE_CURVE('',#290,#277,#151,.T.);
#354=EDGE_CURVE('',#290,#291,#43,.T.);
#355=EDGE_CURVE('',#291,#276,#152,.T.);
#356=EDGE_CURVE('',#292,#291,#153,.T.);
#357=EDGE_CURVE('',#292,#275,#154,.T.);
#358=EDGE_CURVE('',#293,#294,#155,.T.);
#359=EDGE_CURVE('',#272,#293,#156,.T.);
#360=EDGE_CURVE('',#294,#271,#157,.T.);
#361=EDGE_CURVE('',#294,#288,#44,.T.);
#362=EDGE_CURVE('',#295,#293,#158,.T.);
#363=EDGE_CURVE('',#295,#273,#159,.T.);
#364=EDGE_CURVE('',#296,#274,#160,.T.);
#365=EDGE_CURVE('',#292,#296,#161,.T.);
#366=EDGE_CURVE('',#297,#267,#162,.T.);
#367=EDGE_CURVE('',#297,#289,#163,.T.);
#368=EDGE_CURVE('',#296,#295,#164,.T.);
#369=EDGE_CURVE('',#298,#299,#165,.T.);
#370=EDGE_CURVE('',#300,#298,#166,.T.);
#371=EDGE_CURVE('',#301,#300,#167,.T.);
#372=EDGE_CURVE('',#299,#301,#168,.T.);
#373=EDGE_CURVE('',#302,#297,#169,.T.);
#374=EDGE_CURVE('',#303,#302,#170,.T.);
#375=EDGE_CURVE('',#303,#279,#171,.T.);
#376=EDGE_CURVE('',#304,#304,#45,.T.);
#377=EDGE_CURVE('',#304,#305,#172,.T.);
#378=EDGE_CURVE('',#306,#306,#46,.T.);
#379=EDGE_CURVE('',#306,#304,#173,.T.);
#380=EDGE_CURVE('',#307,#307,#47,.T.);
#381=EDGE_CURVE('',#307,#308,#174,.T.);
#382=EDGE_CURVE('',#309,#309,#48,.T.);
#383=EDGE_CURVE('',#309,#307,#175,.T.);
#384=EDGE_CURVE('',#310,#311,#176,.T.);
#385=EDGE_CURVE('',#311,#303,#177,.T.);
#386=EDGE_CURVE('',#302,#310,#178,.T.);
#387=EDGE_CURVE('',#311,#312,#49,.T.);
#388=EDGE_CURVE('',#264,#312,#179,.T.);
#389=EDGE_CURVE('',#312,#313,#180,.T.);
#390=EDGE_CURVE('',#313,#266,#181,.T.);
#391=EDGE_CURVE('',#310,#313,#50,.T.);
#392=EDGE_CURVE('',#298,#314,#182,.T.);
#393=EDGE_CURVE('',#315,#314,#183,.T.);
#394=EDGE_CURVE('',#300,#315,#184,.T.);
#395=EDGE_CURVE('',#301,#316,#185,.T.);
#396=EDGE_CURVE('',#317,#316,#186,.T.);
#397=EDGE_CURVE('',#299,#317,#187,.T.);
#398=EDGE_CURVE('',#283,#318,#188,.T.);
#399=EDGE_CURVE('',#319,#282,#189,.T.);
#400=EDGE_CURVE('',#318,#319,#190,.T.);
#401=EDGE_CURVE('',#285,#320,#191,.T.);
#402=EDGE_CURVE('',#320,#319,#51,.T.);
#403=EDGE_CURVE('',#318,#321,#52,.T.);
#404=EDGE_CURVE('',#321,#284,#192,.T.);
#405=EDGE_CURVE('',#320,#321,#193,.T.);
#406=EDGE_CURVE('',#316,#315,#194,.T.);
#407=EDGE_CURVE('',#314,#317,#195,.T.);
#408=ORIENTED_EDGE('',*,*,#322,.F.);
#409=ORIENTED_EDGE('',*,*,#323,.F.);
#410=ORIENTED_EDGE('',*,*,#324,.F.);
#411=ORIENTED_EDGE('',*,*,#325,.F.);
#412=ORIENTED_EDGE('',*,*,#326,.T.);
#413=ORIENTED_EDGE('',*,*,#327,.T.);
#414=ORIENTED_EDGE('',*,*,#327,.F.);
#415=ORIENTED_EDGE('',*,*,#328,.T.);
#416=ORIENTED_EDGE('',*,*,#329,.T.);
#417=ORIENTED_EDGE('',*,*,#330,.T.);
#418=ORIENTED_EDGE('',*,*,#331,.T.);
#419=ORIENTED_EDGE('',*,*,#332,.T.);
#420=ORIENTED_EDGE('',*,*,#333,.T.);
#421=ORIENTED_EDGE('',*,*,#334,.T.);
#422=ORIENTED_EDGE('',*,*,#335,.T.);
#423=ORIENTED_EDGE('',*,*,#336,.T.);
#424=ORIENTED_EDGE('',*,*,#337,.T.);
#425=ORIENTED_EDGE('',*,*,#338,.F.);
#426=ORIENTED_EDGE('',*,*,#339,.T.);
#427=ORIENTED_EDGE('',*,*,#340,.T.);
#428=ORIENTED_EDGE('',*,*,#341,.T.);
#429=ORIENTED_EDGE('',*,*,#342,.T.);
#430=ORIENTED_EDGE('',*,*,#343,.T.);
#431=ORIENTED_EDGE('',*,*,#344,.T.);
#432=ORIENTED_EDGE('',*,*,#340,.F.);
#433=ORIENTED_EDGE('',*,*,#345,.T.);
#434=ORIENTED_EDGE('',*,*,#346,.T.);
#435=ORIENTED_EDGE('',*,*,#345,.F.);
#436=ORIENTED_EDGE('',*,*,#339,.F.);
#437=ORIENTED_EDGE('',*,*,#347,.T.);
#438=ORIENTED_EDGE('',*,*,#348,.T.);
#439=ORIENTED_EDGE('',*,*,#347,.F.);
#440=ORIENTED_EDGE('',*,*,#349,.T.);
#441=ORIENTED_EDGE('',*,*,#350,.T.);
#442=ORIENTED_EDGE('',*,*,#328,.F.);
#443=ORIENTED_EDGE('',*,*,#326,.F.);
#444=ORIENTED_EDGE('',*,*,#351,.F.);
#445=ORIENTED_EDGE('',*,*,#352,.F.);
#446=ORIENTED_EDGE('',*,*,#336,.F.);
#447=ORIENTED_EDGE('',*,*,#353,.F.);
#448=ORIENTED_EDGE('',*,*,#354,.F.);
#449=ORIENTED_EDGE('',*,*,#353,.T.);
#450=ORIENTED_EDGE('',*,*,#335,.F.);
#451=ORIENTED_EDGE('',*,*,#355,.F.);
#452=ORIENTED_EDGE('',*,*,#356,.T.);
#453=ORIENTED_EDGE('',*,*,#355,.T.);
#454=ORIENTED_EDGE('',*,*,#334,.F.);
#455=ORIENTED_EDGE('',*,*,#357,.F.);
#456=ORIENTED_EDGE('',*,*,#358,.F.);
#457=ORIENTED_EDGE('',*,*,#359,.F.);
#458=ORIENTED_EDGE('',*,*,#330,.F.);
#459=ORIENTED_EDGE('',*,*,#360,.F.);
#460=ORIENTED_EDGE('',*,*,#361,.F.);
#461=ORIENTED_EDGE('',*,*,#360,.T.);
#462=ORIENTED_EDGE('',*,*,#329,.F.);
#463=ORIENTED_EDGE('',*,*,#350,.F.);
#464=ORIENTED_EDGE('',*,*,#359,.T.);
#465=ORIENTED_EDGE('',*,*,#362,.F.);
#466=ORIENTED_EDGE('',*,*,#363,.T.);
#467=ORIENTED_EDGE('',*,*,#331,.F.);
#468=ORIENTED_EDGE('',*,*,#357,.T.);
#469=ORIENTED_EDGE('',*,*,#333,.F.);
#470=ORIENTED_EDGE('',*,*,#364,.F.);
#471=ORIENTED_EDGE('',*,*,#365,.F.);
#472=ORIENTED_EDGE('',*,*,#325,.T.);
#473=ORIENTED_EDGE('',*,*,#366,.F.);
#474=ORIENTED_EDGE('',*,*,#367,.T.);
#475=ORIENTED_EDGE('',*,*,#351,.T.);
#476=ORIENTED_EDGE('',*,*,#354,.T.);
#477=ORIENTED_EDGE('',*,*,#356,.F.);
#478=ORIENTED_EDGE('',*,*,#365,.T.);
#479=ORIENTED_EDGE('',*,*,#368,.T.);
#480=ORIENTED_EDGE('',*,*,#362,.T.);
#481=ORIENTED_EDGE('',*,*,#358,.T.);
#482=ORIENTED_EDGE('',*,*,#361,.T.);
#483=ORIENTED_EDGE('',*,*,#349,.F.);
#484=ORIENTED_EDGE('',*,*,#348,.F.);
#485=ORIENTED_EDGE('',*,*,#346,.F.);
#486=ORIENTED_EDGE('',*,*,#369,.F.);
#487=ORIENTED_EDGE('',*,*,#370,.F.);
#488=ORIENTED_EDGE('',*,*,#371,.F.);
#489=ORIENTED_EDGE('',*,*,#372,.F.);
#490=ORIENTED_EDGE('',*,*,#337,.F.);
#491=ORIENTED_EDGE('',*,*,#352,.T.);
#492=ORIENTED_EDGE('',*,*,#367,.F.);
#493=ORIENTED_EDGE('',*,*,#373,.F.);
#494=ORIENTED_EDGE('',*,*,#374,.F.);
#495=ORIENTED_EDGE('',*,*,#375,.T.);
#496=ORIENTED_EDGE('',*,*,#376,.F.);
#497=ORIENTED_EDGE('',*,*,#377,.T.);
#498=ORIENTED_EDGE('',*,*,#377,.F.);
#499=ORIENTED_EDGE('',*,*,#378,.F.);
#500=ORIENTED_EDGE('',*,*,#379,.T.);
#501=ORIENTED_EDGE('',*,*,#376,.T.);
#502=ORIENTED_EDGE('',*,*,#379,.F.);
#503=ORIENTED_EDGE('',*,*,#380,.F.);
#504=ORIENTED_EDGE('',*,*,#381,.T.);
#505=ORIENTED_EDGE('',*,*,#381,.F.);
#506=ORIENTED_EDGE('',*,*,#382,.F.);
#507=ORIENTED_EDGE('',*,*,#383,.T.);
#508=ORIENTED_EDGE('',*,*,#380,.T.);
#509=ORIENTED_EDGE('',*,*,#383,.F.);
#510=ORIENTED_EDGE('',*,*,#384,.T.);
#511=ORIENTED_EDGE('',*,*,#385,.T.);
#512=ORIENTED_EDGE('',*,*,#374,.T.);
#513=ORIENTED_EDGE('',*,*,#386,.T.);
#514=ORIENTED_EDGE('',*,*,#382,.T.);
#515=ORIENTED_EDGE('',*,*,#338,.T.);
#516=ORIENTED_EDGE('',*,*,#375,.F.);
#517=ORIENTED_EDGE('',*,*,#385,.F.);
#518=ORIENTED_EDGE('',*,*,#387,.T.);
#519=ORIENTED_EDGE('',*,*,#388,.F.);
#520=ORIENTED_EDGE('',*,*,#322,.T.);
#521=ORIENTED_EDGE('',*,*,#389,.T.);
#522=ORIENTED_EDGE('',*,*,#390,.T.);
#523=ORIENTED_EDGE('',*,*,#323,.T.);
#524=ORIENTED_EDGE('',*,*,#388,.T.);
#525=ORIENTED_EDGE('',*,*,#378,.T.);
#526=ORIENTED_EDGE('',*,*,#387,.F.);
#527=ORIENTED_EDGE('',*,*,#384,.F.);
#528=ORIENTED_EDGE('',*,*,#391,.T.);
#529=ORIENTED_EDGE('',*,*,#389,.F.);
#530=ORIENTED_EDGE('',*,*,#370,.T.);
#531=ORIENTED_EDGE('',*,*,#392,.T.);
#532=ORIENTED_EDGE('',*,*,#393,.F.);
#533=ORIENTED_EDGE('',*,*,#394,.F.);
#534=ORIENTED_EDGE('',*,*,#372,.T.);
#535=ORIENTED_EDGE('',*,*,#395,.T.);
#536=ORIENTED_EDGE('',*,*,#396,.F.);
#537=ORIENTED_EDGE('',*,*,#397,.F.);
#538=ORIENTED_EDGE('',*,*,#364,.T.);
#539=ORIENTED_EDGE('',*,*,#332,.F.);
#540=ORIENTED_EDGE('',*,*,#363,.F.);
#541=ORIENTED_EDGE('',*,*,#368,.F.);
#542=ORIENTED_EDGE('',*,*,#398,.F.);
#543=ORIENTED_EDGE('',*,*,#341,.F.);
#544=ORIENTED_EDGE('',*,*,#399,.F.);
#545=ORIENTED_EDGE('',*,*,#400,.F.);
#546=ORIENTED_EDGE('',*,*,#401,.T.);
#547=ORIENTED_EDGE('',*,*,#402,.T.);
#548=ORIENTED_EDGE('',*,*,#399,.T.);
#549=ORIENTED_EDGE('',*,*,#344,.F.);
#550=ORIENTED_EDGE('',*,*,#403,.T.);
#551=ORIENTED_EDGE('',*,*,#404,.T.);
#552=ORIENTED_EDGE('',*,*,#342,.F.);
#553=ORIENTED_EDGE('',*,*,#398,.T.);
#554=ORIENTED_EDGE('',*,*,#404,.F.);
#555=ORIENTED_EDGE('',*,*,#405,.F.);
#556=ORIENTED_EDGE('',*,*,#401,.F.);
#557=ORIENTED_EDGE('',*,*,#343,.F.);
#558=ORIENTED_EDGE('',*,*,#406,.T.);
#559=ORIENTED_EDGE('',*,*,#393,.T.);
#560=ORIENTED_EDGE('',*,*,#407,.T.);
#561=ORIENTED_EDGE('',*,*,#396,.T.);
#562=ORIENTED_EDGE('',*,*,#402,.F.);
#563=ORIENTED_EDGE('',*,*,#405,.T.);
#564=ORIENTED_EDGE('',*,*,#403,.F.);
#565=ORIENTED_EDGE('',*,*,#400,.T.);
#566=ORIENTED_EDGE('',*,*,#391,.F.);
#567=ORIENTED_EDGE('',*,*,#386,.F.);
#568=ORIENTED_EDGE('',*,*,#373,.T.);
#569=ORIENTED_EDGE('',*,*,#366,.T.);
#570=ORIENTED_EDGE('',*,*,#324,.T.);
#571=ORIENTED_EDGE('',*,*,#390,.F.);
#572=ORIENTED_EDGE('',*,*,#369,.T.);
#573=ORIENTED_EDGE('',*,*,#397,.T.);
#574=ORIENTED_EDGE('',*,*,#407,.F.);
#575=ORIENTED_EDGE('',*,*,#392,.F.);
#576=ORIENTED_EDGE('',*,*,#371,.T.);
#577=ORIENTED_EDGE('',*,*,#394,.T.);
#578=ORIENTED_EDGE('',*,*,#406,.F.);
#579=ORIENTED_EDGE('',*,*,#395,.F.);
#580=PLANE('',#649);
#581=PLANE('',#650);
#582=PLANE('',#661);
#583=PLANE('',#662);
#584=PLANE('',#665);
#585=PLANE('',#666);
#586=PLANE('',#669);
#587=PLANE('',#670);
#588=PLANE('',#671);
#589=PLANE('',#672);
#590=PLANE('',#681);
#591=PLANE('',#682);
#592=PLANE('',#684);
#593=PLANE('',#687);
#594=PLANE('',#688);
#595=PLANE('',#689);
#596=PLANE('',#690);
#597=PLANE('',#695);
#598=PLANE('',#696);
#599=PLANE('',#697);
#600=PLANE('',#698);
#601=PLANE('',#699);
#602=ADVANCED_FACE('',(#53),#580,.T.);
#603=ADVANCED_FACE('',(#54,#26,#27,#28),#581,.T.);
#604=ADVANCED_FACE('',(#55),#17,.F.);
#605=ADVANCED_FACE('',(#56),#18,.F.);
#606=ADVANCED_FACE('',(#57),#582,.T.);
#607=ADVANCED_FACE('',(#58),#583,.T.);
#608=ADVANCED_FACE('',(#59),#19,.T.);
#609=ADVANCED_FACE('',(#60),#584,.T.);
#610=ADVANCED_FACE('',(#61),#585,.T.);
#611=ADVANCED_FACE('',(#62),#20,.T.);
#612=ADVANCED_FACE('',(#63),#586,.T.);
#613=ADVANCED_FACE('',(#64),#587,.T.);
#614=ADVANCED_FACE('',(#65,#29,#30,#31),#588,.F.);
#615=ADVANCED_FACE('',(#66),#589,.T.);
#616=ADVANCED_FACE('',(#67),#15,.F.);
#617=ADVANCED_FACE('',(#68),#21,.F.);
#618=ADVANCED_FACE('',(#69),#16,.F.);
#619=ADVANCED_FACE('',(#70),#22,.F.);
#620=ADVANCED_FACE('',(#71,#32),#590,.T.);
#621=ADVANCED_FACE('',(#72),#591,.T.);
#622=ADVANCED_FACE('',(#73,#33),#592,.T.);
#623=ADVANCED_FACE('',(#74),#23,.F.);
#624=ADVANCED_FACE('',(#75),#593,.T.);
#625=ADVANCED_FACE('',(#76),#594,.T.);
#626=ADVANCED_FACE('',(#77),#595,.T.);
#627=ADVANCED_FACE('',(#78),#596,.F.);
#628=ADVANCED_FACE('',(#79),#24,.F.);
#629=ADVANCED_FACE('',(#80),#25,.F.);
#630=ADVANCED_FACE('',(#81),#597,.F.);
#631=ADVANCED_FACE('',(#82,#34),#598,.T.);
#632=ADVANCED_FACE('',(#83),#599,.F.);
#633=ADVANCED_FACE('',(#84),#600,.T.);
#634=ADVANCED_FACE('',(#85),#601,.T.);
#635=CLOSED_SHELL('',(#602,#603,#604,#605,#606,#607,#608,#609,#610,#611,
#612,#613,#614,#615,#616,#617,#618,#619,#620,#621,#622,#623,#624,#625,#626,
#627,#628,#629,#630,#631,#632,#633,#634));
#636=DERIVED_UNIT_ELEMENT(#638,1.);
#637=DERIVED_UNIT_ELEMENT(#1055,-3.);
#638=(
MASS_UNIT()
NAMED_UNIT(*)
SI_UNIT(.KILO.,.GRAM.)
);
#639=DERIVED_UNIT((#636,#637));
#640=MEASURE_REPRESENTATION_ITEM('density measure',
POSITIVE_RATIO_MEASURE(7850.),#639);
#641=PROPERTY_DEFINITION_REPRESENTATION(#646,#643);
#642=PROPERTY_DEFINITION_REPRESENTATION(#647,#644);
#643=REPRESENTATION('material name',(#645),#1052);
#644=REPRESENTATION('density',(#640),#1052);
#645=DESCRIPTIVE_REPRESENTATION_ITEM('Steel','Steel');
#646=PROPERTY_DEFINITION('material property','material name',#1062);
#647=PROPERTY_DEFINITION('material property','density of part',#1062);
#648=AXIS2_PLACEMENT_3D('',#872,#700,#701);
#649=AXIS2_PLACEMENT_3D('',#873,#702,#703);
#650=AXIS2_PLACEMENT_3D('',#886,#710,#711);
#651=AXIS2_PLACEMENT_3D('',#890,#713,#714);
#652=AXIS2_PLACEMENT_3D('',#902,#720,#721);
#653=AXIS2_PLACEMENT_3D('',#909,#725,#726);
#654=AXIS2_PLACEMENT_3D('',#911,#727,#728);
#655=AXIS2_PLACEMENT_3D('',#916,#730,#731);
#656=AXIS2_PLACEMENT_3D('',#919,#733,#734);
#657=AXIS2_PLACEMENT_3D('',#920,#735,#736);
#658=AXIS2_PLACEMENT_3D('',#923,#738,#739);
#659=AXIS2_PLACEMENT_3D('',#924,#740,#741);
#660=AXIS2_PLACEMENT_3D('',#927,#743,#744);
#661=AXIS2_PLACEMENT_3D('',#928,#745,#746);
#662=AXIS2_PLACEMENT_3D('',#932,#749,#750);
#663=AXIS2_PLACEMENT_3D('',#938,#754,#755);
#664=AXIS2_PLACEMENT_3D('',#940,#756,#757);
#665=AXIS2_PLACEMENT_3D('',#942,#759,#760);
#666=AXIS2_PLACEMENT_3D('',#946,#763,#764);
#667=AXIS2_PLACEMENT_3D('',#952,#768,#769);
#668=AXIS2_PLACEMENT_3D('',#953,#770,#771);
#669=AXIS2_PLACEMENT_3D('',#954,#772,#773);
#670=AXIS2_PLACEMENT_3D('',#958,#776,#777);
#671=AXIS2_PLACEMENT_3D('',#962,#780,#781);
#672=AXIS2_PLACEMENT_3D('',#975,#789,#790);
#673=AXIS2_PLACEMENT_3D('',#981,#794,#795);
#674=AXIS2_PLACEMENT_3D('',#983,#796,#797);
#675=AXIS2_PLACEMENT_3D('',#986,#799,#800);
#676=AXIS2_PLACEMENT_3D('',#988,#801,#802);
#677=AXIS2_PLACEMENT_3D('',#990,#804,#805);
#678=AXIS2_PLACEMENT_3D('',#992,#806,#807);
#679=AXIS2_PLACEMENT_3D('',#995,#809,#810);
#680=AXIS2_PLACEMENT_3D('',#997,#811,#812);
#681=AXIS2_PLACEMENT_3D('',#999,#814,#815);
#682=AXIS2_PLACEMENT_3D('',#1005,#819,#820);
#683=AXIS2_PLACEMENT_3D('',#1007,#821,#822);
#684=AXIS2_PLACEMENT_3D('',#1009,#824,#825);
#685=AXIS2_PLACEMENT_3D('',#1013,#828,#829);
#686=AXIS2_PLACEMENT_3D('',#1014,#830,#831);
#687=AXIS2_PLACEMENT_3D('',#1015,#832,#833);
#688=AXIS2_PLACEMENT_3D('',#1021,#837,#838);
#689=AXIS2_PLACEMENT_3D('',#1027,#842,#843);
#690=AXIS2_PLACEMENT_3D('',#1028,#844,#845);
#691=AXIS2_PLACEMENT_3D('',#1034,#849,#850);
#692=AXIS2_PLACEMENT_3D('',#1037,#852,#853);
#693=AXIS2_PLACEMENT_3D('',#1038,#854,#855);
#694=AXIS2_PLACEMENT_3D('',#1040,#856,#857);
#695=AXIS2_PLACEMENT_3D('',#1042,#859,#860);
#696=AXIS2_PLACEMENT_3D('',#1044,#862,#863);
#697=AXIS2_PLACEMENT_3D('',#1047,#866,#867);
#698=AXIS2_PLACEMENT_3D('',#1048,#868,#869);
#699=AXIS2_PLACEMENT_3D('',#1049,#870,#871);
#700=DIRECTION('axis',(0.,0.,1.));
#701=DIRECTION('refdir',(1.,0.,0.));
#702=DIRECTION('center_axis',(1.3877853981004E-17,0.,1.));
#703=DIRECTION('ref_axis',(-1.,-6.3108872417681E-29,1.3877853981004E-17));
#704=DIRECTION('',(-0.573576436350997,0.819152044289026,0.));
#705=DIRECTION('',(-0.819152044289026,-0.573576436350997,1.1368072458884E-17));
#706=DIRECTION('',(0.573576436350997,-0.819152044289026,0.));
#707=DIRECTION('',(1.,6.3108872417681E-29,0.));
#708=DIRECTION('',(0.,-1.,0.));
#709=DIRECTION('',(1.,0.,1.52503162723236E-14));
#710=DIRECTION('center_axis',(0.,-1.,0.));
#711=DIRECTION('ref_axis',(0.,0.,-1.));
#712=DIRECTION('',(1.3877853981004E-17,-7.81305787425702E-31,1.));
#713=DIRECTION('center_axis',(6.3108872417681E-29,-1.,-7.81305787425703E-31));
#714=DIRECTION('ref_axis',(0.707106781186547,4.40722450191099E-29,0.707106781186547));
#715=DIRECTION('',(-1.3877853981004E-17,7.81305787425702E-31,-1.));
#716=DIRECTION('',(-1.,0.,0.));
#717=DIRECTION('',(0.,0.,-1.));
#718=DIRECTION('',(1.,0.,0.));
#719=DIRECTION('',(-1.06396439366434E-16,-1.85037170770859E-16,-1.));
#720=DIRECTION('center_axis',(6.3108872417681E-29,-1.,-7.81305787425703E-31));
#721=DIRECTION('ref_axis',(-0.707106781186548,-4.40722450191099E-29,-0.707106781186547));
#722=DIRECTION('',(1.06396439366434E-16,1.85037170770859E-16,1.));
#723=DIRECTION('',(1.,0.,0.));
#724=DIRECTION('',(1.56843854593731E-14,0.,-1.));
#725=DIRECTION('center_axis',(-6.3108872417681E-29,1.,7.81305787425703E-31));
#726=DIRECTION('ref_axis',(1.3877853981004E-17,-7.81305787425702E-31,1.));
#727=DIRECTION('center_axis',(-6.3108872417681E-29,1.,7.81305787425703E-31));
#728=DIRECTION('ref_axis',(1.3877853981004E-17,-7.81305787425702E-31,1.));
#729=DIRECTION('',(7.05626196421018E-17,0.,1.));
#730=DIRECTION('center_axis',(0.,1.,0.));
#731=DIRECTION('ref_axis',(0.707106781186547,0.,0.707106781186547));
#732=DIRECTION('',(0.,0.,-1.));
#733=DIRECTION('center_axis',(0.,1.,0.));
#734=DIRECTION('ref_axis',(-0.707106781186547,0.,-0.707106781186547));
#735=DIRECTION('center_axis',(0.,-1.,0.));
#736=DIRECTION('ref_axis',(1.3877853981004E-17,0.,1.));
#737=DIRECTION('',(0.,1.,0.));
#738=DIRECTION('center_axis',(-6.3108872417681E-29,1.,7.81305787425703E-31));
#739=DIRECTION('ref_axis',(1.3877853981004E-17,-7.81305787425702E-31,1.));
#740=DIRECTION('center_axis',(0.,-1.,0.));
#741=DIRECTION('ref_axis',(1.3877853981004E-17,0.,1.));
#742=DIRECTION('',(0.,1.,0.));
#743=DIRECTION('center_axis',(-6.3108872417681E-29,1.,7.81305787425703E-31));
#744=DIRECTION('ref_axis',(1.3877853981004E-17,-7.81305787425702E-31,1.));
#745=DIRECTION('center_axis',(1.,0.,-1.3877853981004E-17));
#746=DIRECTION('ref_axis',(1.3877853981004E-17,-7.81305787425702E-31,1.));
#747=DIRECTION('',(1.3877853981004E-17,-7.81305787425702E-31,1.));
#748=DIRECTION('',(0.,-1.,0.));
#749=DIRECTION('center_axis',(1.,0.,-1.06396439366434E-16));
#750=DIRECTION('ref_axis',(1.06396439366434E-16,1.85037170770859E-16,1.));
#751=DIRECTION('',(-1.06396439366434E-16,-1.85037170770859E-16,-1.));
#752=DIRECTION('',(0.,1.,0.));
#753=DIRECTION('',(0.,-1.,0.));
#754=DIRECTION('center_axis',(0.,-1.,0.));
#755=DIRECTION('ref_axis',(-0.707106781186548,0.,-0.707106781186547));
#756=DIRECTION('center_axis',(-6.3108872417681E-29,1.,7.81305787425703E-31));
#757=DIRECTION('ref_axis',(-0.707106781186548,-4.40722450191099E-29,-0.707106781186547));
#758=DIRECTION('',(0.,-1.,0.));
#759=DIRECTION('center_axis',(-1.,0.,1.06396439366434E-16));
#760=DIRECTION('ref_axis',(-1.06396439366434E-16,-1.85037170770859E-16,
-1.));
#761=DIRECTION('',(-1.06396439366434E-16,-1.85037170770859E-16,-1.));
#762=DIRECTION('',(0.,-1.,0.));
#763=DIRECTION('center_axis',(-1.,0.,1.3877853981004E-17));
#764=DIRECTION('ref_axis',(-1.3877853981004E-17,7.81305787425702E-31,-1.));
#765=DIRECTION('',(1.3877853981004E-17,-7.81305787425702E-31,1.));
#766=DIRECTION('',(0.,1.,0.));
#767=DIRECTION('',(0.,-1.,0.));
#768=DIRECTION('center_axis',(0.,-1.,0.));
#769=DIRECTION('ref_axis',(0.707106781186547,0.,0.707106781186547));
#770=DIRECTION('center_axis',(-6.3108872417681E-29,1.,7.81305787425703E-31));
#771=DIRECTION('ref_axis',(0.707106781186547,4.40722450191099E-29,0.707106781186547));
#772=DIRECTION('center_axis',(1.3877853981004E-17,0.,1.));
#773=DIRECTION('ref_axis',(-1.,-6.3108872417681E-29,1.3877853981004E-17));
#774=DIRECTION('',(1.,6.3108872417681E-29,0.));
#775=DIRECTION('',(0.,-1.,0.));
#776=DIRECTION('center_axis',(-1.3877853981004E-17,0.,-1.));
#777=DIRECTION('ref_axis',(1.,6.3108872417681E-29,-1.3877853981004E-17));
#778=DIRECTION('',(0.,-1.,0.));
#779=DIRECTION('',(-1.,-6.3108872417681E-29,0.));
#780=DIRECTION('center_axis',(6.3108872417681E-29,-1.,-7.81305787425703E-31));
#781=DIRECTION('ref_axis',(-1.3877853981004E-17,7.81305787425702E-31,-1.));
#782=DIRECTION('',(-1.56843854593732E-14,0.,1.));
#783=DIRECTION('',(-1.,-6.3108872417681E-29,0.));
#784=DIRECTION('',(0.,0.,1.));
#785=DIRECTION('',(1.,-3.05311331771868E-16,-7.05626196408423E-17));
#786=DIRECTION('',(2.2292053352792E-17,-9.72611047257969E-17,1.));
#787=DIRECTION('',(-1.,3.05311331771868E-16,7.05626196408423E-17));
#788=DIRECTION('',(-4.64273364968172E-17,9.72611047257969E-17,-1.));
#789=DIRECTION('center_axis',(-1.3877853981004E-17,0.,-1.));
#790=DIRECTION('ref_axis',(1.,6.3108872417681E-29,-1.3877853981004E-17));
#791=DIRECTION('',(-0.573576436350997,0.819152044289026,0.));
#792=DIRECTION('',(0.819152044289026,0.573576436350997,-1.1368072458884E-17));
#793=DIRECTION('',(-0.573576436350997,0.819152044289026,0.));
#794=DIRECTION('center_axis',(0.573576436350997,-0.819152044289026,3.91985954394652E-17));
#795=DIRECTION('ref_axis',(0.,-4.78526492276378E-17,-1.));
#796=DIRECTION('center_axis',(-0.573576436350997,0.819152044289026,-3.91985954394652E-17));
#797=DIRECTION('ref_axis',(0.,-4.78526492276378E-17,-1.));
#798=DIRECTION('',(-0.295413703591987,0.421894491949255,-0.857167300702112));
#799=DIRECTION('center_axis',(-0.573576436350997,0.819152044289026,-3.91985954394652E-17));
#800=DIRECTION('ref_axis',(0.,-4.78526492276378E-17,-1.));
#801=DIRECTION('center_axis',(-0.573576436350996,0.819152044289027,0.));
#802=DIRECTION('ref_axis',(0.,-4.78526492276378E-17,-1.));
#803=DIRECTION('',(-0.573576436350997,0.819152044289026,-3.91985954394652E-17));
#804=DIRECTION('center_axis',(0.573576436350997,-0.819152044289026,3.91985954394652E-17));
#805=DIRECTION('ref_axis',(0.,-4.78526492276378E-17,-1.));
#806=DIRECTION('center_axis',(-0.573576436350997,0.819152044289026,-3.91985954394652E-17));
#807=DIRECTION('ref_axis',(0.,-4.78526492276378E-17,-1.));
#808=DIRECTION('',(-0.295413703591987,0.421894491949255,-0.857167300702112));
#809=DIRECTION('center_axis',(-0.573576436350997,0.819152044289026,-3.91985954394652E-17));
#810=DIRECTION('ref_axis',(0.,-4.78526492276378E-17,-1.));
#811=DIRECTION('center_axis',(-0.573576436350996,0.819152044289027,0.));
#812=DIRECTION('ref_axis',(0.,-4.78526492276378E-17,-1.));
#813=DIRECTION('',(-0.573576436350997,0.819152044289026,-3.91985954394652E-17));
#814=DIRECTION('center_axis',(0.573576436350996,-0.819152044289027,0.));
#815=DIRECTION('ref_axis',(0.,0.,-1.));
#816=DIRECTION('',(-0.819152044289026,-0.573576436350997,-1.13588194359098E-16));
#817=DIRECTION('',(1.05468640017645E-14,7.33714102927955E-15,-1.));
#818=DIRECTION('',(-1.05468640017645E-14,-7.33714102927956E-15,1.));
#819=DIRECTION('center_axis',(-0.819152044289026,-0.573576436350997,-1.28478964124626E-14));
#820=DIRECTION('ref_axis',(0.573576436350997,-0.819152044289026,3.91985954394644E-17));
#821=DIRECTION('center_axis',(0.819152044289026,0.573576436350997,1.28478964124626E-14));
#822=DIRECTION('ref_axis',(0.573576436350997,-0.819152044289026,3.91985954394648E-17));
#823=DIRECTION('',(1.05468640017645E-14,7.33714102927956E-15,-1.));
#824=DIRECTION('center_axis',(0.573576436350996,-0.819152044289027,0.));
#825=DIRECTION('ref_axis',(0.,0.,-1.));
#826=DIRECTION('',(0.819152044289026,0.573576436350997,1.13588194359098E-16));
#827=DIRECTION('',(-1.05468640017645E-14,-7.33714102927956E-15,1.));
#828=DIRECTION('center_axis',(-0.819152044289026,-0.573576436350997,-1.28478964124626E-14));
#829=DIRECTION('ref_axis',(-0.573576436350997,0.819152044289026,8.32660844752674E-17));
#830=DIRECTION('center_axis',(0.819152044289026,0.573576436350997,1.28478964124626E-14));
#831=DIRECTION('ref_axis',(-0.573576436351002,0.819152044289023,2.21445402987332E-15));
#832=DIRECTION('center_axis',(-1.,0.,2.2292053352792E-17));
#833=DIRECTION('ref_axis',(2.2292053352792E-17,-9.72611047257969E-17,1.));
#834=DIRECTION('',(0.,1.,0.));
#835=DIRECTION('',(2.2292053352792E-17,-9.72611047257969E-17,1.));
#836=DIRECTION('',(0.,1.,0.));
#837=DIRECTION('center_axis',(1.,0.,-4.64273364968172E-17));
#838=DIRECTION('ref_axis',(-4.64273364968172E-17,9.72611047257969E-17,-1.));
#839=DIRECTION('',(0.,1.,0.));
#840=DIRECTION('',(-4.64273364968172E-17,9.72611047257969E-17,-1.));
#841=DIRECTION('',(0.,1.,0.));
#842=DIRECTION('center_axis',(-1.,0.,1.3877853981004E-17));
#843=DIRECTION('ref_axis',(-1.3877853981004E-17,7.81305787425702E-31,-1.));
#844=DIRECTION('center_axis',(-1.,3.1720657846433E-16,7.05626196421018E-17));
#845=DIRECTION('ref_axis',(7.05626196421018E-17,-9.72611047257995E-17,1.));
#846=DIRECTION('',(3.1720657846433E-16,1.,0.));
#847=DIRECTION('',(-3.1720657846433E-16,-1.,0.));
#848=DIRECTION('',(-7.05626196421018E-17,0.,-1.));
#849=DIRECTION('center_axis',(0.,1.,0.));
#850=DIRECTION('ref_axis',(0.707106781186548,0.,-0.707106781186547));
#851=DIRECTION('',(0.,1.,0.));
#852=DIRECTION('center_axis',(0.,1.,0.));
#853=DIRECTION('ref_axis',(0.707106781186548,0.,-0.707106781186547));
#854=DIRECTION('center_axis',(-3.1720657846433E-16,-1.,0.));
#855=DIRECTION('ref_axis',(-0.707106781186547,0.,0.707106781186547));
#856=DIRECTION('center_axis',(0.,1.,0.));
#857=DIRECTION('ref_axis',(-0.707106781186547,0.,0.707106781186547));
#858=DIRECTION('',(0.,-1.,0.));
#859=DIRECTION('center_axis',(1.,0.,0.));
#860=DIRECTION('ref_axis',(0.,0.,-1.));
#861=DIRECTION('',(0.,0.,1.));
#862=DIRECTION('center_axis',(0.,1.,0.));
#863=DIRECTION('ref_axis',(0.,0.,1.));
#864=DIRECTION('',(-1.,3.05311331771868E-16,7.05626196408423E-17));
#865=DIRECTION('',(1.,-3.05311331771868E-16,-7.05626196408423E-17));
#866=DIRECTION('center_axis',(-0.819152044289026,-0.573576436350997,-1.28478964124626E-14));
#867=DIRECTION('ref_axis',(0.573576436350997,-0.819152044289026,3.91985954394648E-17));
#868=DIRECTION('center_axis',(7.05626196408423E-17,0.,1.));
#869=DIRECTION('ref_axis',(1.,-3.05311331771868E-16,-7.05626196408423E-17));
#870=DIRECTION('center_axis',(-7.05626196408423E-17,0.,-1.));
#871=DIRECTION('ref_axis',(-1.,3.05311331771868E-16,7.05626196408423E-17));
#872=CARTESIAN_POINT('',(0.,0.,0.));
#873=CARTESIAN_POINT('Origin',(6.81067024375886,-10.800185430636,26.5));
#874=CARTESIAN_POINT('',(13.8902926510265,-37.2154080672037,26.4999999999998));
#875=CARTESIAN_POINT('',(-2.50522274795508,-13.800185430636,26.4999999999998));
#876=CARTESIAN_POINT('',(-0.678548832289067,-16.4089461422626,26.4999999999998));
#877=CARTESIAN_POINT('',(21.5682047621473,-31.839276129286,26.4999999999999));
#878=CARTESIAN_POINT('',(17.7205911286027,-34.533404199612,26.5));
#879=CARTESIAN_POINT('',(6.83647485787676,-10.800185430636,26.5));
#880=CARTESIAN_POINT('',(6.99936327883198,-11.0328142043447,26.4999999999999));
#881=CARTESIAN_POINT('',(-4.68932975624114,-10.800185430636,26.5));
#882=CARTESIAN_POINT('',(-12.1828786027117,-10.800185430636,26.4999999999998));
#883=CARTESIAN_POINT('',(-4.68932975624114,-13.800185430636,26.5));
#884=CARTESIAN_POINT('',(-4.68932975624114,-10.800185430636,26.5));
#885=CARTESIAN_POINT('',(-3.2054302861647,-13.800185430636,26.4999999999998));
#886=CARTESIAN_POINT('Origin',(-17.1893297562411,-13.800185430636,-22.5));
#887=CARTESIAN_POINT('',(-4.68932975624114,-13.800185430636,30.));
#888=CARTESIAN_POINT('',(-4.68932975624114,-13.800185430636,26.5));
#889=CARTESIAN_POINT('',(-9.68932975624114,-13.800185430636,30.));
#890=CARTESIAN_POINT('Origin',(-7.18932975624114,-13.800185430636,30.));
#891=CARTESIAN_POINT('',(-9.68932975624114,-13.800185430636,26.5));
#892=CARTESIAN_POINT('',(-9.68932975624114,-13.800185430636,26.5));
#893=CARTESIAN_POINT('',(-21.1893297562411,-13.800185430636,26.4999999999998));
#894=CARTESIAN_POINT('',(-12.1828786027117,-13.800185430636,26.4999999999998));
#895=CARTESIAN_POINT('',(-21.1893297562411,-13.800185430636,-26.5000000000002));
#896=CARTESIAN_POINT('',(-21.1893297562411,-13.800185430636,26.4999999999998));
#897=CARTESIAN_POINT('',(-9.68932975624114,-13.800185430636,-26.5));
#898=CARTESIAN_POINT('',(-12.1828786027115,-13.800185430636,-26.5000000000002));
#899=CARTESIAN_POINT('',(-9.68932975624114,-13.800185430636,-30.));
#900=CARTESIAN_POINT('',(-9.68932975624114,-13.800185430636,-26.5));
#901=CARTESIAN_POINT('',(-4.68932975624114,-13.800185430636,-30.));
#902=CARTESIAN_POINT('Origin',(-7.18932975624114,-13.800185430636,-30.));
#903=CARTESIAN_POINT('',(-4.68932975624114,-13.800185430636,-26.5));
#904=CARTESIAN_POINT('',(-4.68932975624114,-13.800185430636,-26.5));
#905=CARTESIAN_POINT('',(-2.50522274795426,-13.800185430636,-26.5));
#906=CARTESIAN_POINT('',(-12.1828786027115,-13.800185430636,-26.5000000000002));
#907=CARTESIAN_POINT('',(-2.50522274795488,-13.800185430636,13.2499999999996));
#908=CARTESIAN_POINT('',(-7.18932975624114,-13.800185430636,27.71));
#909=CARTESIAN_POINT('Origin',(-7.18932975624114,-13.800185430636,29.26));
#910=CARTESIAN_POINT('',(-7.18932975624114,-13.800185430636,-30.55));
#911=CARTESIAN_POINT('Origin',(-7.18932975624114,-13.800185430636,-29.));
#912=CARTESIAN_POINT('',(-8.43932975624113,-13.800185430636,-5.));
#913=CARTESIAN_POINT('',(-8.43932975624113,-13.800185430636,5.));
#914=CARTESIAN_POINT('',(-8.43932975624114,-13.800185430636,-13.5));
#915=CARTESIAN_POINT('',(-5.43932975624114,-13.800185430636,5.));
#916=CARTESIAN_POINT('Origin',(-6.93932975624114,-13.800185430636,5.));
#917=CARTESIAN_POINT('',(-5.43932975624114,-13.800185430636,-5.));
#918=CARTESIAN_POINT('',(-5.43932975624114,-13.800185430636,-9.));
#919=CARTESIAN_POINT('Origin',(-6.93932975624114,-13.800185430636,-5.));
#920=CARTESIAN_POINT('Origin',(-7.18932975624114,-10.800185430636,-29.));
#921=CARTESIAN_POINT('',(-7.18932975624114,-10.800185430636,-30.55));
#922=CARTESIAN_POINT('',(-7.18932975624114,-10.800185430636,-30.55));
#923=CARTESIAN_POINT('Origin',(-7.18932975624114,-10.800185430636,-29.));
#924=CARTESIAN_POINT('Origin',(-7.18932975624114,-10.800185430636,29.26));
#925=CARTESIAN_POINT('',(-7.18932975624114,-10.800185430636,27.71));
#926=CARTESIAN_POINT('',(-7.18932975624114,-10.800185430636,27.71));
#927=CARTESIAN_POINT('Origin',(-7.18932975624114,-10.800185430636,29.26));
#928=CARTESIAN_POINT('Origin',(-4.68932975624114,-10.800185430636,26.5));
#929=CARTESIAN_POINT('',(-4.68932975624114,-10.800185430636,30.));
#930=CARTESIAN_POINT('',(-4.68932975624114,-10.800185430636,26.5));
#931=CARTESIAN_POINT('',(-4.68932975624114,-10.800185430636,30.));
#932=CARTESIAN_POINT('Origin',(-4.68932975624114,-10.800185430636,-30.));
#933=CARTESIAN_POINT('',(-4.68932975624114,-10.800185430636,-26.5));
#934=CARTESIAN_POINT('',(-4.68932975624114,-10.800185430636,-30.));
#935=CARTESIAN_POINT('',(-4.68932975624114,-10.800185430636,-26.5));
#936=CARTESIAN_POINT('',(-4.68932975624114,-10.800185430636,-26.5));
#937=CARTESIAN_POINT('',(-4.68932975624114,-10.800185430636,-30.));
#938=CARTESIAN_POINT('Origin',(-7.18932975624114,-10.800185430636,-30.));
#939=CARTESIAN_POINT('',(-9.68932975624114,-10.800185430636,-30.));
#940=CARTESIAN_POINT('Origin',(-7.18932975624114,-10.800185430636,-30.));
#941=CARTESIAN_POINT('',(-9.68932975624114,-10.800185430636,-30.));
#942=CARTESIAN_POINT('Origin',(-9.68932975624114,-10.800185430636,-26.5));
#943=CARTESIAN_POINT('',(-9.68932975624114,-10.800185430636,-26.5));
#944=CARTESIAN_POINT('',(-9.68932975624114,-10.800185430636,-26.5));
#945=CARTESIAN_POINT('',(-9.68932975624114,-10.800185430636,-26.5));
#946=CARTESIAN_POINT('Origin',(-9.68932975624114,-10.800185430636,30.));
#947=CARTESIAN_POINT('',(-9.68932975624114,-10.800185430636,26.5));
#948=CARTESIAN_POINT('',(-9.68932975624114,-10.800185430636,30.));
#949=CARTESIAN_POINT('',(-9.68932975624114,-10.800185430636,26.5));
#950=CARTESIAN_POINT('',(-9.68932975624114,-10.800185430636,26.5));
#951=CARTESIAN_POINT('',(-9.68932975624114,-10.800185430636,30.));
#952=CARTESIAN_POINT('Origin',(-7.18932975624114,-10.800185430636,30.));
#953=CARTESIAN_POINT('Origin',(-7.18932975624114,-10.800185430636,30.));
#954=CARTESIAN_POINT('Origin',(6.81067024375886,-10.800185430636,26.5));
#955=CARTESIAN_POINT('',(-21.1893297562411,-10.800185430636,26.4999999999998));
#956=CARTESIAN_POINT('',(-12.1828786027117,-10.800185430636,26.4999999999998));
#957=CARTESIAN_POINT('',(-21.1893297562411,-12.800185430636,26.4999999999998));
#958=CARTESIAN_POINT('Origin',(-21.1893297562411,-10.800185430636,-26.5));
#959=CARTESIAN_POINT('',(-21.1893297562411,-10.800185430636,-26.5000000000002));
#960=CARTESIAN_POINT('',(-21.1893297562411,-12.800185430636,-26.5000000000002));
#961=CARTESIAN_POINT('',(-12.1828786027115,-10.800185430636,-26.5000000000002));
#962=CARTESIAN_POINT('Origin',(-17.1893297562411,-10.800185430636,-22.5));
#963=CARTESIAN_POINT('',(6.83647485787748,-10.800185430636,-26.5));
#964=CARTESIAN_POINT('',(6.8364748578773,-10.800185430636,-11.5000000000002));
#965=CARTESIAN_POINT('',(-12.1828786027115,-10.800185430636,-26.5000000000002));
#966=CARTESIAN_POINT('',(-21.1893297562411,-10.800185430636,26.4999999999998));
#967=CARTESIAN_POINT('',(-17.6893297562411,-10.800185430636,23.));
#968=CARTESIAN_POINT('',(3.31067024375886,-10.800185430636,23.));
#969=CARTESIAN_POINT('',(-17.6893297562411,-10.800185430636,23.));
#970=CARTESIAN_POINT('',(-17.6893297562411,-10.800185430636,-23.));
#971=CARTESIAN_POINT('',(-17.6893297562411,-10.800185430636,-23.));
#972=CARTESIAN_POINT('',(3.31067024375886,-10.800185430636,-23.));
#973=CARTESIAN_POINT('',(3.31067024375886,-10.800185430636,-23.));
#974=CARTESIAN_POINT('',(3.31067024375886,-10.800185430636,23.));
#975=CARTESIAN_POINT('Origin',(-21.1893297562411,-10.800185430636,-26.5));
#976=CARTESIAN_POINT('',(21.5682047621479,-31.8392761292856,-26.5000000000002));
#977=CARTESIAN_POINT('',(6.99936327883254,-11.0328142043443,-26.5000000000001));
#978=CARTESIAN_POINT('',(13.8902926510265,-37.2154080672037,-26.5000000000002));
#979=CARTESIAN_POINT('',(8.32645012532223,-41.1112525451131,-26.5));
#980=CARTESIAN_POINT('',(-0.67854883228851,-16.4089461422622,-26.5000000000002));
#981=CARTESIAN_POINT('Origin',(6.09147152902984,-17.9060020958069,20.2859999999998));
#982=CARTESIAN_POINT('',(6.3154871992234,-18.2259296286729,21.5859999999998));
#983=CARTESIAN_POINT('Origin',(6.3154871992234,-18.2259296286729,20.2859999999998));
#984=CARTESIAN_POINT('',(5.86745585883627,-17.5860745629409,20.2859999999998));
#985=CARTESIAN_POINT('',(6.09147152902984,-17.9060020958069,20.9359999999998));
#986=CARTESIAN_POINT('Origin',(19.2209570171208,-36.656850625176,20.2859999999998));
#987=CARTESIAN_POINT('',(17.7296582826095,-34.5270553100263,21.5859999999998));
#988=CARTESIAN_POINT('Origin',(17.7296582826095,-34.5270553100263,20.2859999999998));
#989=CARTESIAN_POINT('',(19.2209570171208,-36.656850625176,21.5859999999998));
#990=CARTESIAN_POINT('Origin',(6.3104182249796,-17.7526939688397,-20.7538891252392));
#991=CARTESIAN_POINT('',(6.53443389517316,-18.0726215017057,-19.4538891252392));
#992=CARTESIAN_POINT('Origin',(6.53443389517316,-18.0726215017057,-20.7538891252392));
#993=CARTESIAN_POINT('',(6.08640255478603,-17.4327664359737,-20.7538891252392));
#994=CARTESIAN_POINT('',(6.3104182249796,-17.7526939688397,-20.1038891252392));
#995=CARTESIAN_POINT('Origin',(19.4399037130706,-36.5035424982088,-20.7538891252392));
#996=CARTESIAN_POINT('',(17.9486049785579,-34.3737471830572,-19.4538891252392));
#997=CARTESIAN_POINT('Origin',(17.9486049785579,-34.3737471830572,-20.7538891252392));
#998=CARTESIAN_POINT('',(19.4399037130706,-36.5035424982088,-19.4538891252392));
#999=CARTESIAN_POINT('Origin',(13.8902926510265,-37.2154080672037,-26.5000000000002));
#1000=CARTESIAN_POINT('',(21.5682047621478,-31.8392761292857,-14.9992499812493));
#1001=CARTESIAN_POINT('',(13.8902926510267,-37.2154080672036,-14.9992499812493));
#1002=CARTESIAN_POINT('',(5.96827323070736,-42.7624657831542,-14.9992499812493));
#1003=CARTESIAN_POINT('',(13.8902926510267,-37.2154080672036,-13.2500000000002));
#1004=CARTESIAN_POINT('',(21.5682047621477,-31.8392761292857,-13.2500000000001));
#1005=CARTESIAN_POINT('Origin',(13.8042561855739,-37.0925352605603,-2.31492017420838E-13));
#1006=CARTESIAN_POINT('',(13.8902926510264,-37.2154080672038,14.9992499812488));
#1007=CARTESIAN_POINT('Origin',(13.8042561855739,-37.0925352605603,-2.32280030705649E-13));
#1008=CARTESIAN_POINT('',(13.8902926510265,-37.2154080672037,7.49895826098509));
#1009=CARTESIAN_POINT('Origin',(13.8902926510265,-37.2154080672037,14.9979165219704));
#1010=CARTESIAN_POINT('',(21.5682047621474,-31.8392761292859,14.9992499812488));
#1011=CARTESIAN_POINT('',(5.96827323070735,-42.7624657831541,14.9992499812488));
#1012=CARTESIAN_POINT('',(21.5682047621475,-31.8392761292858,7.49895826098521));
#1013=CARTESIAN_POINT('Origin',(17.900016407019,-34.2246530788053,-1.68040548643336E-13));
#1014=CARTESIAN_POINT('Origin',(21.4821682966967,-31.7164033226451,-1.60319228642498E-13));
#1015=CARTESIAN_POINT('Origin',(-17.6893297562411,-10.800185430636,-23.));
#1016=CARTESIAN_POINT('',(-17.6893297562411,-9.30018543063602,23.));
#1017=CARTESIAN_POINT('',(-17.6893297562411,-10.800185430636,23.));
#1018=CARTESIAN_POINT('',(-17.6893297562411,-9.30018543063601,-23.));
#1019=CARTESIAN_POINT('',(-17.6893297562411,-9.30018543063601,-23.));
#1020=CARTESIAN_POINT('',(-17.6893297562411,-10.800185430636,-23.));
#1021=CARTESIAN_POINT('Origin',(3.31067024375886,-10.800185430636,23.));
#1022=CARTESIAN_POINT('',(3.31067024375886,-9.30018543063602,-23.));
#1023=CARTESIAN_POINT('',(3.31067024375886,-10.800185430636,-23.));
#1024=CARTESIAN_POINT('',(3.31067024375886,-9.30018543063602,23.));
#1025=CARTESIAN_POINT('',(3.31067024375886,-9.30018543063602,23.));
#1026=CARTESIAN_POINT('',(3.31067024375886,-10.800185430636,23.));
#1027=CARTESIAN_POINT('Origin',(-21.1893297562411,-10.800185430636,26.5));
#1028=CARTESIAN_POINT('Origin',(-8.43932975624114,-12.800185430636,-4.5));
#1029=CARTESIAN_POINT('',(-8.43932975624113,-9.30018543063601,5.));
#1030=CARTESIAN_POINT('',(-8.43932975624114,-12.800185430636,5.));
#1031=CARTESIAN_POINT('',(-8.43932975624113,-9.30018543063601,-5.));
#1032=CARTESIAN_POINT('',(-8.43932975624114,-12.800185430636,-5.));
#1033=CARTESIAN_POINT('',(-8.43932975624113,-9.30018543063601,-2.25));
#1034=CARTESIAN_POINT('Origin',(-6.93932975624114,-12.800185430636,-5.));
#1035=CARTESIAN_POINT('',(-5.43932975624114,-9.30018543063601,-5.));
#1036=CARTESIAN_POINT('',(-5.43932975624114,-12.800185430636,-5.));
#1037=CARTESIAN_POINT('Origin',(-6.93932975624114,-9.30018543063601,-5.));
#1038=CARTESIAN_POINT('Origin',(-6.93932975624114,-12.800185430636,5.));
#1039=CARTESIAN_POINT('',(-5.43932975624114,-9.30018543063601,5.));
#1040=CARTESIAN_POINT('Origin',(-6.93932975624113,-9.30018543063601,5.));
#1041=CARTESIAN_POINT('',(-5.43932975624114,-12.800185430636,5.));
#1042=CARTESIAN_POINT('Origin',(-5.43932975624114,-12.800185430636,4.5));
#1043=CARTESIAN_POINT('',(-5.43932975624114,-9.30018543063601,2.25));
#1044=CARTESIAN_POINT('Origin',(-7.18932975624113,-9.30018543063601,0.));
#1045=CARTESIAN_POINT('',(3.31067024375886,-9.30018543063602,-23.));
#1046=CARTESIAN_POINT('',(-17.6893297562411,-9.30018543063602,23.));
#1047=CARTESIAN_POINT('Origin',(21.4821682966949,-31.7164033226424,-1.11068684346826E-13));
#1048=CARTESIAN_POINT('Origin',(-17.6893297562411,-10.800185430636,23.));
#1049=CARTESIAN_POINT('Origin',(3.31067024375886,-10.800185430636,-23.));
#1050=UNCERTAINTY_MEASURE_WITH_UNIT(LENGTH_MEASURE(0.01),#1054,
'DISTANCE_ACCURACY_VALUE',
'Maximum model space distance between geometric entities at asserted c
onnectivities');
#1051=UNCERTAINTY_MEASURE_WITH_UNIT(LENGTH_MEASURE(0.01),#1054,
'DISTANCE_ACCURACY_VALUE',
'Maximum model space distance between geometric entities at asserted c
onnectivities');
#1052=(
GEOMETRIC_REPRESENTATION_CONTEXT(3)
GLOBAL_UNCERTAINTY_ASSIGNED_CONTEXT((#1050))
GLOBAL_UNIT_ASSIGNED_CONTEXT((#1054,#1056,#1057))
REPRESENTATION_CONTEXT('','3D')
);
#1053=(
GEOMETRIC_REPRESENTATION_CONTEXT(3)
GLOBAL_UNCERTAINTY_ASSIGNED_CONTEXT((#1051))
GLOBAL_UNIT_ASSIGNED_CONTEXT((#1054,#1056,#1057))
REPRESENTATION_CONTEXT('','3D')
);
#1054=(
LENGTH_UNIT()
NAMED_UNIT(*)
SI_UNIT(.MILLI.,.METRE.)
);
#1055=(
LENGTH_UNIT()
NAMED_UNIT(*)
SI_UNIT($,.METRE.)
);
#1056=(
NAMED_UNIT(*)
PLANE_ANGLE_UNIT()
SI_UNIT($,.RADIAN.)
);
#1057=(
NAMED_UNIT(*)
SI_UNIT($,.STERADIAN.)
SOLID_ANGLE_UNIT()
);
#1058=SHAPE_DEFINITION_REPRESENTATION(#1059,#1060);
#1059=PRODUCT_DEFINITION_SHAPE('',$,#1062);
#1060=SHAPE_REPRESENTATION('',(#648),#1052);
#1061=PRODUCT_DEFINITION_CONTEXT('part definition',#1066,'design');
#1062=PRODUCT_DEFINITION('TUTUP CASE','TUTUP CASE',#1063,#1061);
#1063=PRODUCT_DEFINITION_FORMATION('',$,#1068);
#1064=PRODUCT_RELATED_PRODUCT_CATEGORY('TUTUP CASE','TUTUP CASE',(#1068));
#1065=APPLICATION_PROTOCOL_DEFINITION('international standard',
'automotive_design',2009,#1066);
#1066=APPLICATION_CONTEXT(
'Core Data for Automotive Mechanical Design Process');
#1067=PRODUCT_CONTEXT('part definition',#1066,'mechanical');
#1068=PRODUCT('TUTUP CASE','TUTUP CASE',$,(#1067));
#1069=PRESENTATION_STYLE_ASSIGNMENT((#1071));
#1070=PRESENTATION_STYLE_ASSIGNMENT((#1072));
#1071=SURFACE_STYLE_USAGE(.BOTH.,#1073);
#1072=SURFACE_STYLE_USAGE(.BOTH.,#1074);
#1073=SURFACE_SIDE_STYLE('',(#1075));
#1074=SURFACE_SIDE_STYLE('',(#1076));
#1075=SURFACE_STYLE_FILL_AREA(#1077);
#1076=SURFACE_STYLE_FILL_AREA(#1078);
#1077=FILL_AREA_STYLE('Steel - Satin',(#1079));
#1078=FILL_AREA_STYLE('ABS (White)',(#1080));
#1079=FILL_AREA_STYLE_COLOUR('Steel - Satin',#1081);
#1080=FILL_AREA_STYLE_COLOUR('ABS (White)',#1082);
#1081=COLOUR_RGB('Steel - Satin',0.627450980392157,0.627450980392157,0.627450980392157);
#1082=COLOUR_RGB('ABS (White)',0.545098039215686,0.,0.741176470588235);
ENDSEC;
END-ISO-10303-21;
